<?xml version="1.0" encoding="UTF-8"?>
<svg id="Capa_1" data-name="Capa 1" xmlns="http://www.w3.org/2000/svg" viewBox="0 0 1493.93 1000">
  <defs>
    <style>
      .cls-1 {
        fill: #6cb8e2;
      }

      .cls-1, .cls-2, .cls-3, .cls-4, .cls-5 {
        stroke-width: 0px;
      }

      .cls-2 {
        fill: #163c40;
      }

      .cls-3 {
        fill: #acf6c3;
      }

      .cls-4 {
        fill: #fff;
      }

      .cls-5 {
        fill: #010101;
      }
    </style>
  </defs>
  <path class="cls-3" d="m371.27,453.22s-60.24-16.34-61.6,46.29l36.2-3.46,25.4-42.83Z"/>
  <g>
    <path class="cls-3" d="m1179.32,358.91h173.9c3.22,0,5.12,3.61,3.3,6.27l-24.44,35.51"/>
    <path class="cls-5" d="m1332.07,410.45c-1.91,0-3.83-.56-5.52-1.72-4.44-3.06-5.56-9.13-2.51-13.57l18.23-26.49h-162.95c-5.39,0-9.76-4.37-9.76-9.76s4.37-9.76,9.76-9.76h173.9c5.13,0,9.79,2.82,12.18,7.36,2.39,4.54,2.06,9.98-.84,14.2l-24.44,35.52c-1.89,2.75-4.94,4.23-8.05,4.23Zm21.15-41.78h.02-.02Z"/>
  </g>
  <path class="cls-5" d="m473.52,783.13c5.5-28.17,33.43-114.32,60.23-123.25,26.8-8.93,62.52-24.05,105.12-15.12,42.6,8.93,95.11,48.22,95.11,48.22l42.9,94.04-303.37-3.9Z"/>
  <path class="cls-5" d="m1060.49,784.69c5.5-28.17,35.74-115.88,62.53-124.82,26.8-8.93,62.52-24.05,105.12-15.12,42.6,8.93,95.11,48.22,95.11,48.22l20.33,93.32-283.1-1.61Z"/>
  <g>
    <circle class="cls-5" cx="542.72" cy="796.65" r="98.24"/>
    <path class="cls-5" d="m602.82,895.5l-60.56-.72s9.82-11.98,33.59-10.53"/>
  </g>
  <circle class="cls-5" cx="257.7" cy="796.65" r="98.24"/>
  <circle class="cls-5" cx="866.05" cy="796.65" r="98.24"/>
  <circle class="cls-5" cx="1151.72" cy="796.65" r="98.24"/>
  <g>
    <g>
      <path class="cls-2" d="m418.57,787.56c0,54.25-43.98,98.23-98.23,98.23s-98.23-43.98-98.23-98.23c0-3.35.18-6.69.51-9.95h195.44c.34,3.26.51,6.6.51,9.95Z"/>
      <path class="cls-5" d="m320.34,895.55c-59.54,0-107.99-48.44-107.99-107.99,0-3.64.19-7.33.57-10.96l.91-8.75h213.04l.9,8.76c.37,3.64.56,7.32.56,10.95,0,59.55-48.44,107.99-107.99,107.99Zm-88.47-108.18v.19c0,48.79,39.69,88.47,88.47,88.47s88.47-39.69,88.47-88.47v-.19h-176.95Z"/>
    </g>
    <g>
      <path class="cls-2" d="m360.52,787.56c0,22.19-17.99,40.17-40.18,40.17s-40.18-17.97-40.18-40.17c0-3.44.43-6.78,1.24-9.95h77.88c.82,3.18,1.24,6.51,1.24,9.95Z"/>
      <path class="cls-5" d="m320.34,837.48c-27.54,0-49.94-22.4-49.94-49.92,0-4.21.52-8.38,1.55-12.38l1.88-7.33h93.02l1.88,7.33c1.03,4,1.55,8.17,1.55,12.38,0,27.53-22.4,49.92-49.94,49.92Zm-30.43-50.12v.19c0,16.77,13.65,30.41,30.43,30.41s30.42-13.64,30.42-30.41v-.19h-60.85Z"/>
    </g>
  </g>
  <g>
    <g>
      <path class="cls-2" d="m1022.37,787.56c0,54.25-43.98,98.23-98.23,98.23s-98.23-43.98-98.23-98.23c0-3.35.18-6.69.51-9.95h195.44c.34,3.26.51,6.6.51,9.95Z"/>
      <path class="cls-5" d="m924.14,895.55c-59.54,0-107.99-48.44-107.99-107.99,0-3.64.19-7.33.57-10.96l.91-8.75h213.04l.9,8.76c.38,3.65.57,7.33.57,10.95,0,59.55-48.44,107.99-107.99,107.99Zm-88.47-108.18v.19c0,48.79,39.69,88.47,88.47,88.47s88.47-39.69,88.47-88.47v-.19h-176.95Z"/>
    </g>
    <g>
      <path class="cls-2" d="m964.33,787.56c0,22.19-17.99,40.17-40.18,40.17s-40.18-17.97-40.18-40.17c0-3.44.43-6.78,1.24-9.95h77.88c.82,3.18,1.24,6.51,1.24,9.95Z"/>
      <path class="cls-5" d="m924.14,837.48c-27.54,0-49.94-22.4-49.94-49.92,0-4.21.52-8.38,1.55-12.38l1.88-7.33h93.02l1.88,7.33c1.03,4,1.55,8.16,1.55,12.38,0,27.53-22.4,49.92-49.94,49.92Zm-30.43-50.12v.19c0,16.77,13.65,30.41,30.43,30.41s30.42-13.64,30.42-30.41v-.19h-60.85Z"/>
    </g>
  </g>
  <g>
    <path class="cls-3" d="m345.87,496.05s77.87-137.03,221.9-137.03h632.82c109.78,0,198.79,89.01,198.79,198.81v166.78c0,28.7-23.28,51.98-51.98,51.98h-13.47c.18-2.95.41-6.64.41-7.81,0-69.37-56.24-125.61-125.61-125.61s-125.62,56.24-125.62,125.61c0,2.63.09,5.23.25,7.81h-313.93c-25.97,0-45.38-4.01-45.38-26.66,0-58.03-56.24-106.75-125.61-106.75s-125.34,56.49-125.34,119.98c0,18.2-16.5,21.52-34.84,21.52H121.25c-32.82,0-59.43-26.61-59.43-59.43v-92.06c0-42.22,28.56-79.09,69.46-89.65l173.93-44.88,319.83-1.41"/>
    <path class="cls-5" d="m438.26,794.43H121.25c-38.15,0-69.19-31.04-69.19-69.19v-92.06c0-46.68,31.57-87.42,76.77-99.09l175.11-45.19,34.91-.15c5.29-8.68,24.56-38.42,57.37-68.42,50.86-46.5,110.18-71.07,171.55-71.07h632.82c114.99,0,208.55,93.56,208.55,208.56v166.78c0,34.04-27.7,61.74-61.74,61.74h-23.83l.67-11.06c.13-2.13.35-5.69.35-6.5,0-63.88-51.97-115.85-115.85-115.85s-115.87,51.97-115.87,115.85c0,2.31.08,4.73.23,7.2l.64,10.36h-324.31c-16.5,0-55.14,0-55.14-36.42,0-25.27-11.85-49.32-33.37-67.72-22.08-18.88-51.37-29.27-82.47-29.27-62.65,0-115.58,50.48-115.58,110.22,0,20.75-15.01,31.28-44.6,31.28Zm-131.8-286.03l-172.75,44.58c-36.59,9.44-62.14,42.42-62.14,80.2v92.06c0,27.39,22.28,49.67,49.67,49.67h317.01c25.09,0,25.09-7.08,25.09-11.76,0-70.33,61.87-129.74,135.1-129.74s135.36,52.26,135.36,116.51c0,9.25,2.68,16.91,35.62,16.91h303.93c1.05-73.74,61.37-133.41,135.37-133.41s134.3,59.67,135.35,133.41h3.31c23.28,0,42.22-18.94,42.22-42.22v-166.78c0-104.24-84.8-189.05-189.03-189.05h-632.82c-111.65,0-182.73,87.14-205.49,119.87l262.71-1.16h.04c5.37,0,9.73,4.34,9.76,9.71.02,5.39-4.33,9.78-9.71,9.8l-318.61,1.4Z"/>
  </g>
  <path class="cls-5" d="m1396.85,698.47H67.06c-5.39,0-9.76-4.37-9.76-9.76s4.37-9.76,9.76-9.76h1329.79c5.39,0,9.76,4.37,9.76,9.76s-4.37,9.76-9.76,9.76Z"/>
  <g>
    <path class="cls-4" d="m157.02,723.3h117.43c5.48,0,9.93,4.45,9.93,9.93v51.03h-137.28v-51.03c0-5.48,4.45-9.93,9.93-9.93Z"/>
    <path class="cls-5" d="m294.13,794.01h-156.8v-53.1c0-15.09,12.28-27.37,27.37-27.37h102.06c15.09,0,27.37,12.28,27.37,27.37v53.1Zm-137.28-19.52h117.77v-33.59c0-4.33-3.52-7.85-7.85-7.85h-102.06c-4.33,0-7.85,3.52-7.85,7.85v33.59Z"/>
  </g>
  <path class="cls-5" d="m308.72,508.31c-5.2,0-9.53-4.11-9.74-9.35-.05-1.24-1.02-30.54,19.83-47.37,14.35-11.59,34.7-14.08,60.46-7.4,5.22,1.35,8.35,6.68,7,11.89-1.35,5.22-6.68,8.34-11.89,7-19.45-5.04-34.02-3.8-43.3,3.69-13.07,10.56-12.6,31.17-12.59,31.38.22,5.38-3.96,9.93-9.35,10.15-.14,0-.27,0-.41,0Z"/>
  <g>
    <path class="cls-4" d="m314.58,582.93c-3.75,2.01-35.81,42.2,37.59,42.2s109.31-45.94,94.52-91.88c0,0-74.12,18.57-132.11,49.68Z"/>
    <path class="cls-5" d="m352.17,634.89c-33.5,0-52.59-8.4-56.76-24.96-4.04-16.06,9.23-32.74,14.55-35.59h0c58.39-31.32,131.28-49.78,134.35-50.55l8.86-2.22,2.8,8.7c7.41,23.02,3.85,46.18-10.02,65.21-18.25,25.05-52.44,39.42-93.8,39.42Zm-32.16-43.8c-2.38,2.46-7.22,10.15-5.5,14.64,1.79,4.66,12.63,9.64,37.65,9.64,35.05,0,63.48-11.44,78.02-31.4,8.3-11.39,11.51-24.86,9.36-38.7-21.52,6.02-75.5,22.34-119.54,45.82Z"/>
  </g>
  <path class="cls-5" d="m427.21,794.12c-46.94,0-74.97-25.41-74.97-67.97v-95.68c0-5.39,4.37-9.76,9.76-9.76s9.76,4.37,9.76,9.76v95.68c0,40.05,30.16,48.45,55.45,48.45,5.39,0,9.76,4.37,9.76,9.76s-4.37,9.76-9.76,9.76Z"/>
  <path class="cls-5" d="m933.03,603.15h-54.36c-5.39,0-9.76-4.37-9.76-9.76s4.37-9.76,9.76-9.76h54.36c5.39,0,9.76,4.37,9.76,9.76s-4.37,9.76-9.76,9.76Z"/>
  <g>
    <g>
      <circle class="cls-4" cx="603.75" cy="787.56" r="98.24"/>
      <path class="cls-5" d="m603.75,895.55c-59.55,0-107.99-48.45-107.99-107.99s48.45-107.99,107.99-107.99,107.99,48.45,107.99,107.99-48.45,107.99-107.99,107.99Zm0-196.47c-48.79,0-88.48,39.69-88.48,88.48s39.69,88.48,88.48,88.48,88.48-39.69,88.48-88.48-39.69-88.48-88.48-88.48Z"/>
    </g>
    <g>
      <circle class="cls-3" cx="603.75" cy="787.56" r="40.18"/>
      <path class="cls-5" d="m603.75,837.49c-27.53,0-49.93-22.4-49.93-49.93s22.4-49.93,49.93-49.93,49.93,22.4,49.93,49.93-22.4,49.93-49.93,49.93Zm0-80.35c-16.77,0-30.42,13.65-30.42,30.42s13.65,30.42,30.42,30.42,30.42-13.65,30.42-30.42-13.65-30.42-30.42-30.42Z"/>
    </g>
  </g>
  <g>
    <g>
      <circle class="cls-4" cx="1213.46" cy="787.56" r="98.24"/>
      <path class="cls-5" d="m1213.46,895.55c-59.55,0-107.99-48.45-107.99-107.99s48.45-107.99,107.99-107.99,107.99,48.45,107.99,107.99-48.45,107.99-107.99,107.99Zm0-196.47c-48.79,0-88.48,39.69-88.48,88.48s39.69,88.48,88.48,88.48,88.48-39.69,88.48-88.48-39.69-88.48-88.48-88.48Z"/>
    </g>
    <g>
      <circle class="cls-3" cx="1213.46" cy="787.56" r="40.18"/>
      <path class="cls-5" d="m1213.46,837.49c-27.53,0-49.93-22.4-49.93-49.93s22.4-49.93,49.93-49.93,49.93,22.4,49.93,49.93-22.4,49.93-49.93,49.93Zm0-80.35c-16.77,0-30.42,13.65-30.42,30.42s13.65,30.42,30.42,30.42,30.42-13.65,30.42-30.42-13.65-30.42-30.42-30.42Z"/>
    </g>
  </g>
  <path class="cls-3" d="m307.52,507.31s-183.05,47.33-187.71,49.34c-15.09,6.5-16.09,20.91-16.09,20.91l206.73,4.61s153.51-58.33,192.91-67.54c39.4-9.21,52.04-12.28,52.04-12.28l-247.88,4.98Z"/>
  <path class="cls-1" d="m712.65,525.35h627.36s-27.34-74.22-53.13-97.66c-25.78-23.44-33.59-39.06-100-39.06s-329.7,7.03-329.7,7.03c0,0-110.94,14.84-144.54,129.69Z"/>
  <path class="cls-5" d="m658.13,662.05c-5.39,0-9.76-4.37-9.76-9.76v-86.1c0-25.49,20.73-46.22,46.22-46.22h1.81c-1.02-2.15-1.27-4.67-.5-7.12,29.9-95.13,129.84-128.89,206.34-128.89h298.16c61.94,0,86.12,18.77,105.05,49.05,17.52,28.04,47.22,89.88,48.47,92.49l6.7,13.98h-666.03c-14.72,0-26.71,11.98-26.71,26.71v86.1c0,5.39-4.37,9.76-9.76,9.76Zm55.89-142.08h615.5c-9.96-20.25-28.61-57.4-40.62-76.61-16.16-25.86-35.06-39.88-88.5-39.88h-298.16c-69.89,0-160.99,30.18-187.72,115.22-.14.44-.3.86-.5,1.27Z"/>
  <path class="cls-5" d="m987.99,776.69c-5.39,0-9.76-4.37-9.76-9.76v-407.35c0-5.39,4.37-9.76,9.76-9.76s9.76,4.37,9.76,9.76v407.35c0,5.39-4.37,9.76-9.76,9.76Z"/>
  <g>
    <path class="cls-3" d="m772.95,502.57c0,19.98-34.68,37.42-55.65,37.42s-37.97-16.2-37.97-36.17,17-36.17,37.97-36.17,55.65,14.95,55.65,34.93Z"/>
    <path class="cls-5" d="m717.3,549.75c-26.32,0-47.73-20.6-47.73-45.93s21.41-45.93,47.73-45.93,65.41,17.82,65.41,44.68c0,12.62-8.75,24.89-24.65,34.54-12.83,7.79-28.45,12.64-40.75,12.64Zm0-72.35c-15.56,0-28.21,11.85-28.21,26.42s12.66,26.42,28.21,26.42c20.83,0,45.89-16.99,45.89-27.66s-24.17-25.17-45.89-25.17Z"/>
  </g>
  <path class="cls-1" d="m721.87,398.73c-1.2.6-71.9,38.4-99.44,89.89l-262.18.37s61.38-80.19,98.22-90.1l263.39-.16Z"/>
  <path class="cls-5" d="m113.56,592.83c-19.57,0-24.75-10.67-26.09-15.52-3.64-13.12,6.81-28.42,18.85-34.48,4.81-2.42,10.68-.49,13.1,4.33,2.42,4.81.49,10.68-4.33,13.1-5.86,2.95-9.24,9.77-8.85,11.74.65.53,3.61,1.7,10.3,1.2,18.45-1.37,173.4-.22,195.69-.05,123.59-63.9,278.81-82.25,308.85-85.29,6.74-10.6,25.99-38.71,57.16-67.06,51.52-46.86,111.19-71.64,172.55-71.64,5.39,0,9.76,4.37,9.76,9.76s-4.37,9.76-9.76,9.76c-57.04,0-110.53,22.26-158.97,66.15-36.58,33.14-56.33,66.84-56.52,67.17l-2.54,4.38-5.06.45c-1.76.15-177.3,16.08-308.59,84.74l-2.16,1.13-2.44-.02c-61.44-.5-181.57-1.14-196.52-.03-1.55.12-3.03.17-4.43.17Z"/>
  <path class="cls-5" d="m736.66,398.78h-276.22c-5.39,0-9.76-4.37-9.76-9.76s4.37-9.76,9.76-9.76h276.22c5.39,0,9.76,4.37,9.76,9.76s-4.37,9.76-9.76,9.76Z"/>
  <path class="cls-4" d="m73.39,625.05l55.61-2.17s8.97-2,13.35-16.25c1.58-5.14,9.31-17.79-15.82-14.51-30.04,3.92-37.13-9.77-37.13-9.77,0,0-16.62,14.24-16.01,42.71Z"/>
  <path class="cls-5" d="m119.69,632.29h-50c-5.39,0-9.76-4.37-9.76-9.76s4.37-9.76,9.76-9.76h50c5.86,0,10.45-1.76,12.94-4.94,3.48-4.46,2.75-11.24,1.52-16.15-1.31-5.23,1.87-10.53,7.1-11.83,5.22-1.31,10.53,1.87,11.83,7.1,4.13,16.52-.48,27.01-5.07,32.89-6.27,8.03-16.33,12.45-28.32,12.45Z"/>
  <path class="cls-5" d="m320.79,895.63l-60.56-.72s9.82-11.98,33.59-10.53c23.77,1.45,26.97,11.25,26.97,11.25Z"/>
  <path class="cls-5" d="m919.76,895.33l-60.56-.72s9.82-11.98,33.59-10.53"/>
  <path class="cls-5" d="m1214.31,895.66l-60.56-.72s9.82-11.98,33.59-10.53"/>
</svg>