<?xml version="1.0" encoding="UTF-8"?>
<svg id="Capa_1" data-name="Capa 1" xmlns="http://www.w3.org/2000/svg" viewBox="0 0 1329.83 1318.75">
  <defs>
    <style>
      .cls-1, .cls-2, .cls-3, .cls-4, .cls-5 {
        stroke-width: 0px;
      }

      .cls-2 {
        fill: #8940eb;
      }

      .cls-3 {
        fill: #d6cbf7;
      }

      .cls-4 {
        fill: #fff;
      }

      .cls-5 {
        fill: #010101;
      }
    </style>
  </defs>
  <ellipse class="cls-3" cx="661.11" cy="1044.14" rx="308.56" ry="56.26"/>
  <g>
    <path class="cls-3" d="m1241.91,871.02H80.32c-5.42,0-9.81,4.39-9.81,9.81s4.39,9.81,9.81,9.81h1161.59c5.42,0,9.81-4.39,9.81-9.81s-4.39-9.81-9.81-9.81Z"/>
    <path class="cls-3" d="m139.47,870.84h18.09c10.01,0,18.09-8.09,18.09-18.09v-27.14h180.93v27.14c0,10.01,8.09,18.09,18.09,18.09h18.09c10.01,0,18.09-8.09,18.09-18.09v-108.56c0-15.1-9.27-28.04-22.39-33.47l-19.9-56.82c-7.63-21.77-28.16-36.36-51.23-36.36h-102.45c-23.07,0-43.59,14.59-51.23,36.36l-19.9,56.82c-13.12,5.43-22.39,18.38-22.39,33.47v108.56c0,10.01,8.09,18.09,18.09,18.09Zm217.12-126.65c9.99,0,18.09,8.1,18.09,18.09s-8.1,18.09-18.09,18.09-18.09-8.1-18.09-18.09,8.1-18.09,18.09-18.09Zm-158.77-78.37c2.54-7.24,9.39-12.1,17.08-12.1h102.45c7.69,0,14.53,4.86,17.08,12.1l14.76,42.18h-166.12l14.76-42.18Zm-22.16,78.37c9.99,0,18.09,8.1,18.09,18.09s-8.1,18.09-18.09,18.09-18.09-8.1-18.09-18.09,8.1-18.09,18.09-18.09Z"/>
    <path class="cls-3" d="m1118.69,771.48v99.05h27.09v-98.7c56.63-6.06,100.74-53.98,100.74-112.22,0-62.34-49.85-287.4-112.19-287.4s-113.57,225.06-113.57,287.4c0,57.27,42.66,104.55,97.94,111.87Z"/>
    <path class="cls-3" d="m968.2,802.74c1.6.23,2.78,1.59,2.78,3.2v46.14c0,1.8-1.46,3.26-3.26,3.26h-3.03c-1.8,0-3.26,1.46-3.26,3.26v8.85c0,1.8,1.46,3.26,3.26,3.26h67.83c1.8,0,3.26-1.46,3.26-3.26v-8.85c0-1.8-1.46-3.26-3.26-3.26h-3.59c-1.8,0-3.26-1.46-3.26-3.26v-46.11c0-1.62,1.19-2.98,2.8-3.21,10.7-1.49,18.95-10.66,18.95-21.78s-8.24-20.28-18.95-21.78c-1.6-.22-2.8-1.59-2.8-3.21,0-1.8,1.46-3.26,3.26-3.26h3.59c1.8,0,3.26-1.46,3.26-3.26v-8.85c0-1.8-1.46-3.26-3.26-3.26h-67.83c-1.8,0-3.26,1.46-3.26,3.26v8.85c0,1.8,1.46,3.26,3.26,3.26h3.03c1.8,0,3.26,1.46,3.26,3.26v.03c0,1.61-1.18,2.97-2.78,3.21-10.64,1.55-18.82,10.68-18.82,21.75s8.18,20.2,18.82,21.75Z"/>
  </g>
  <g>
    <g>
      <path class="cls-2" d="m414.09,490.83s-33.13-36.81-75.88-23.93c-42.75,12.88-39.38,77.95-39.38,77.95l10.8,9.68,62.59-7.2,5.85,37.29-69.3,35.11s9.81,39.03,33.46,42.23c23.66,3.19,87.89-22.53,87.89-22.53l16.42-49.05,394.08-125.45s34.33,54.24,85.55,41.1c51.22-13.13,57.09-49.41,57.09-49.41l-10.99-38.83-56.64,13.46-27.24-55.46,68.13-17.28-9.6-37.85s-62.94-47.45-93.19-4.52c-30.25,42.94-37.3,79.42-37.3,79.42l-395.07,109.21-7.28-13.94Z"/>
      <path class="cls-1" d="m962.64,308.27l-6.03-3.09c-41.88-21.44-76.64-24.51-103.32-9.11-30.91,17.85-40.41,55.13-43.26,73.38l-138.78,48.75-239.44,67.79c-20.14-26.71-43.28-40.53-68.93-41.12-50.12-1.15-88.37,50.41-89.97,52.61l-4.41,6.04,20.49,66.92,64.13-14.35,5.88,19.72-70.16,20.09,15.55,61.73,6.03,3.09c34.33,17.58,63.87,22.81,88.1,15.64,5.33-1.58,10.4-3.75,15.21-6.53,30.92-17.85,40.41-55.13,43.27-73.38l99.17-32.81,279.05-83.72c20.14,26.71,43.28,40.53,68.93,41.12,8.27.19,16.22-1.06,23.73-3.28,38.01-11.24,64.9-47.49,66.24-49.33l4.41-6.04-20.49-66.92-64.12,14.35-5.88-19.72,70.16-20.1-15.55-61.73Zm-20.52,40.95l-71.39,20.45,22.5,75.41,64.32-14.39,7.85,25.65c-9.79,11.24-34.03,35.44-60.66,34.78-17.96-.45-35.08-12.78-50.89-36.65l-5.97-9.01-409.34,125.58-9.67,3.24-.57,10.16c-.02.44-2.76,44.11-29.62,59.53-16.22,9.32-39.3,6.98-68.65-6.93l-5.13-20.38,71.39-20.45-22.5-75.41-64.32,14.39-7.85-25.65c9.79-11.24,34.03-35.45,60.66-34.79,17.96.45,35.08,12.78,50.89,36.65l5.97,9.01,409.34-125.59,9.67-3.24.57-10.16c.02-.44,2.76-44.11,29.62-59.53,16.23-9.31,39.3-6.98,68.65,6.93l5.13,20.38Z"/>
      <path class="cls-4" d="m457.86,436.93c-13.62,21.79-15.66,68.77-15.66,68.77,0,0,36.77,110.99,31.32,138.23-5.45,27.24-18.39,91.24,5.45,136.19,23.83,44.94,88.4,78.75,88.4,78.75l-5.32,89.44,63.33,7.49,18.39-82.39,52.87-4.94,6.37,81.88h57.2l8.17-95.33s70.14-37.45,75.58-92.61c5.45-55.16,1.36-53.11,1.36-53.11,0,0,72.86-46.98,83.75-104.18,10.89-57.2,2.72-87.84-22.47-86.48-25.19,1.36-65.37,55.84-85.12,83.75-19.75,27.92-23.15,13.62-23.15,13.62l-47.67-61.96,3.58-209.21-61.24-10.21-37.31,182.43-21.47-69.92-81.03-.68,2.72,85.12-21.11,6.81-46.98-96.69-29.96-4.77Z"/>
      <g>
        <path class="cls-1" d="m632.09,661.83c-6.39.64-12.38-3.59-13.81-10.01l-5.2-23.44c-1.54-6.93,2.84-13.8,9.77-15.33,6.93-1.51,13.8,2.83,15.33,9.77l5.2,23.44c1.54,6.93-2.84,13.8-9.77,15.33-.51.11-1.02.19-1.52.25Z"/>
        <path class="cls-1" d="m712.32,641.77c-6.39.64-12.38-3.59-13.81-10.01l-5.2-23.44c-1.54-6.93,2.84-13.8,9.77-15.33,6.93-1.51,13.8,2.83,15.33,9.77l5.2,23.44c1.54,6.93-2.84,13.8-9.77,15.33-.51.11-1.02.19-1.52.25Z"/>
        <path class="cls-1" d="m670.86,739.51c-5.59-.1-10.47-4.45-11.36-10.51-1-6.79,3.39-13.16,9.8-14.23l80.8-13.5c-25.54-15.68-37.71-23.11-59.12-33.4-5.9-2.84-8.5-10.21-5.81-16.47,2.69-6.26,9.65-9.05,15.55-6.2,29.62,14.24,51.79,27.92,88.55,51.84,4.27,2.71,6.53,7.93,5.66,13.17-.9,5.42-4.96,9.63-10.09,10.46l-111.93,18.7c-.69.11-1.37.16-2.05.15Zm110.43-43.45s-.07.01-.11.02l.11-.02Z"/>
        <path class="cls-2" d="m561.21,934.46c2.38-.59,65.33,0,65.33,0,0,0-8.91,40.38,0,40.38s61.76,32.66,61.76,32.66v26.72h-147.9l20.81-99.77Z"/>
        <path class="cls-2" d="m710.79,934.46c2.38-.59,65.33,0,65.33,0,0,0-8.91,40.38,0,40.38s61.76,32.66,61.76,32.66v26.72h-147.9l20.81-99.77Z"/>
        <path class="cls-1" d="m752.15,868.39c-7.76,0-14.08-6.27-14.14-14.04-.05-7.81,6.23-14.18,14.04-14.24,33.78-.23,58.97-12.72,74.87-37.12,19.49-29.91,22.12-76.14,6.39-112.43-3.1-7.17.19-15.49,7.35-18.6,7.16-3.11,15.49.19,18.6,7.35,19.59,45.21,16.11,101.11-8.65,139.12-14.72,22.59-43.73,49.59-98.37,49.96h-.1Z"/>
        <path class="cls-1" d="m584.07,875.13c-6.07,0-46.29-1.6-89-42.06-40.57-38.43-54.42-79.93-47.82-143.24,2.38-22.79,5.82-36.71,8.34-46.88,3.49-14.13,4.44-17.92-.35-31.1-3-8.27-6.44-17.11-10.08-26.48-11-28.31-23.47-60.4-28.27-88.6-4.73-27.8,12.11-59.23,36.76-68.62,18.5-7.06,37.18,0,48.72,18.43,17.32,27.63,28.7,50.25,37.98,70.88.06.13.25.1.26-.05,1.82-29.12,2.17-65.86-7.92-86.05-11.52-23.03-6.75-56.48,24.75-73.09,25.7-13.55,53.7-4.91,68.1,21.02,13.12,23.62,15.55,33.59,20.37,53.46,2.21,9.07,5.09,20.94,10.02,38.09.04.15.26.15.3,0,7.6-32.51,8.01-63.81,6.51-87.02-2.11-32.69,13.52-61.36,38-69.72,21.47-7.33,43.84,2.47,59.87,26.22,15.41,22.83,23.01,57.34,22.58,102.56-.38,40.33-7.11,79.97-11.95,103.45,0,.04,0,.07.02.1,7.61,9.36,25.37,30.87,51.33,60.31,4.93,5.59,5.3,14.23.16,19.63-5.8,6.1-15.43,5.81-20.88-.36-36.04-40.85-56.13-66.14-56.96-67.2l-4.12-5.2s-.04-.08-.03-.12l1.41-6.48c14.62-67.02,20.99-152.36-5.01-190.88-8.57-12.7-18.53-18.27-27.29-15.28-10.49,3.58-20.36,18.87-18.93,41.14,2.29,35.46.74,108.12-21.13,158.48-.31.71-.55,1.25-.7,1.63h0c-2.12,5.15-7.02,8.63-12.58,8.93-.67.04-1.09.06-1.09.06-5.94-.17-11.22-4.06-13.13-9.69-14.13-43.22-20.14-86.47-23.91-101.98-4.62-19.01-6.35-26.13-17.61-46.41-9.95-17.91-24.42-12.77-30.19-9.74-9.66,5.09-21,18.73-12.65,35.43,16.67,33.34,11.89,90.43,9.03,124.54-.68,8.16-1.45,17.37-1.28,20.19v.02c.6,2.73,1.26,7.93,1.27,7.99.67,5.33,2.23,17.82-9.15,22.1-6.16,2.31-14.87,1.92-21.38-13.09-3.22-7.4-6.23-14.62-9.24-21.83-12.32-29.49-23.95-57.35-48.82-97.03-6.38-10.18-12.2-7.96-14.68-7.02-11,4.19-21.67,21.47-18.96,37.45,4.32,25.37,16.24,56.04,26.75,83.1,3.7,9.52,7.19,18.5,10.3,27.07,7.72,21.27,5.13,31.73,1.22,47.55-2.45,9.88-5.49,22.19-7.66,43.02-5.72,54.87,4.89,87.33,39.14,119.78,36.25,34.34,68.15,34.4,69.49,34.31,7.89-.26,14.27,5.87,14.53,13.67.25,7.81-5.93,14.34-13.74,14.59-.11,0-.35.01-.73.01Zm-18.56-312.6c.06.2.12.43.18.69-.05-.26-.12-.49-.18-.69Z"/>
        <path class="cls-1" d="m860.66,717.45l-14.83-24.08c49.03-30.19,78.68-77.55,81.37-129.93.68-13.16-.62-35.86-16.82-40.07-11.77-3.05-27.22,4.28-31.13,12.21-16.96,34.43-37.66,50.78-57.68,66.6-2.63,2.08-5.27,4.17-7.91,6.3l-17.79-21.99c2.73-2.21,5.46-4.36,8.17-6.51,19.16-15.13,35.71-28.2,49.84-56.9,10.32-20.96,39.46-33.37,63.62-27.08,12.31,3.2,40.64,16.32,37.95,68.89-3.17,61.81-37.71,117.41-94.78,152.56Z"/>
        <path class="cls-1" d="m671.87,883.41c-9.47,0-19.49-1.09-34.44-3.58-7.7-1.28-12.91-8.57-11.62-16.27,1.28-7.7,8.58-12.9,16.27-11.62,27.51,4.59,34.13,3.91,60.88-.04,7.71-1.14,14.91,4.2,16.06,11.92,1.14,7.73-4.2,14.91-11.92,16.05-14.99,2.21-24.77,3.54-35.22,3.54Z"/>
        <path class="cls-1" d="m708.25,1052.56h-172.71c-6.09,0-10.76-5.42-9.86-11.45l27.69-184.35c1.23-8.15,9.16-13.64,17.39-11.63,7.19,1.76,11.59,9.08,10.49,16.4l-24.45,162.74h120.78l-74.91-33.92,19.22-126.6c1.17-7.72,8.38-13.04,16.1-11.86,7.72,1.17,13.03,8.38,11.86,16.1l-16,105.43,72.69,32.92,1.7,46.21Z"/>
        <path class="cls-1" d="m854.18,1052.56h-170.31l-1.39-183.99c-.06-7.81,6.22-14.19,14.03-14.25h.11c7.76,0,14.08,6.26,14.14,14.03l1.18,155.92h113.32l-.09-4.06-82.24-29.92,16.13-139.42c.9-7.76,7.9-13.32,15.67-12.42,7.76.9,13.32,7.91,12.42,15.67l-13.57,117.23,62.99,22.92c9.9,3.6,16.58,12.91,16.81,23.45l.78,34.83Z"/>
      </g>
      <path class="cls-2" d="m982.69,458.53s-5.87,36.29-57.11,49.43c-51.21,13.13-85.54-41.12-85.54-41.12l-280.6,81.35c-1.98-4.2-4.44.82-6.86-4.38-8.44-18.15-13.55-28.89-23.27-49.6-2.54-5.42-9.03-15.35-11.51-20.46l298.05-76.27s7.06-36.48,37.3-79.42c30.26-42.92,93.2,4.51,93.2,4.51l9.59,37.87-68.14,17.26,27.25,55.47,56.63-13.47,10.98,38.83Z"/>
      <path class="cls-1" d="m979.23,396.31l-64.09,14.4-5.83-19.47,70.17-20.12-15.35-60.98-6-3.03c-41.77-21.07-76.48-23.98-103.19-8.68-30.95,17.76-40.55,54.65-43.47,72.71l-138.81,48.67-167.91,47.55-17.51,4.97c1.51,3,3.05,6.13,4.62,9.35,2.48,5.1,8.29,9.17,10.89,14.56l327.06-100.04,9.67-3.24.61-10.05c.03-.45,2.9-43.63,29.78-58.97,16.24-9.26,39.28-7.02,68.57,6.61l5.06,20.15-71.4,20.44,22.23,74.5,64.32-14.44,7.76,25.32c-9.84,11.15-34.11,35.16-60.72,34.61-17.94-.39-34.99-12.51-50.72-36.09l-5.92-8.89-303.8,91.86c2.46,5.18,4.75,9.95,6.73,14.15,2.09,4.39,3.86,8.12,5.25,11.04l22.36-7.4,256.69-75.55c20.01,26.35,43.09,39.94,68.72,40.43,8.25.16,16.2-1.09,23.72-3.3,38-11.26,64.98-47.19,66.34-48.99l4.42-5.98-20.25-66.11Z"/>
      <path class="cls-4" d="m626.4,470.45c11.88-29.63,13.22-93.39-22.44-114.83-35.65-21.43-114.09,1.02-82.85,100.85,1.03,3.31,22.84-1.82,30.81-4.34,2.44-.77,6.37,26.72,17.5,22.05l56.98-3.74Z"/>
      <path class="cls-1" d="m594.77,497.34c-2.97,0-5.95-.27-8.9-.83-22.47-4.27-37.25-23.61-39.54-51.73-.64-7.78,5.16-14.61,12.94-15.24,7.79-.62,14.61,5.16,15.24,12.94.72,8.76,3.83,23.82,16.64,26.25,10.17,1.94,22.22-4.82,27.41-15.37,8.2-16.69,4.71-45.32-7.79-63.82-8.73-12.93-20.07-18.98-33.7-17.96-18.48,1.38-32.06,7.72-40.38,18.85-10.87,14.56-13.11,38.5-6.45,69.23,1.65,7.63-3.2,15.16-10.83,16.81-7.61,1.65-15.16-3.19-16.81-10.83-8.55-39.53-4.71-70.53,11.44-92.14,13.24-17.72,34.31-28.14,60.93-30.12,23.78-1.77,44.83,9,59.24,30.33,18.16,26.87,22.35,66.48,9.74,92.13-9.46,19.24-29.19,31.51-49.17,31.51Z"/>
    </g>
    <g>
      <path class="cls-5" d="m657.28,791.21c-.39,0-.79-.02-1.19-.07-46.24-5.24-58.04-36.63-57.82-52.5.08-5.71,4.73-10.28,10.42-10.28.05,0,.1,0,.15,0,5.72.08,10.31,4.75,10.28,10.46.04,2.87,1.47,27.3,39.32,31.59,5.72.65,9.84,5.81,9.19,11.54-.6,5.32-5.12,9.25-10.35,9.25Z"/>
      <path class="cls-5" d="m657.28,792.26c-.43,0-.87-.02-1.31-.08-46.99-5.33-58.98-37.36-58.75-53.55.09-6.24,5.23-11.32,11.47-11.32,6.43.09,11.51,5.25,11.48,11.52.03,2.67,1.41,26.35,38.39,30.55,3.05.35,5.78,1.86,7.69,4.26,1.91,2.4,2.77,5.4,2.43,8.44-.66,5.81-5.56,10.19-11.39,10.19Zm-48.45-62.85c-5.23,0-9.43,4.15-9.5,9.24-.22,15.54,11.4,46.28,56.89,51.44,5.25.62,9.8-3.16,10.37-8.26.28-2.49-.42-4.94-1.98-6.9-1.56-1.96-3.79-3.19-6.28-3.47-38.77-4.4-40.22-29.75-40.25-32.63.02-5.13-4.13-9.36-9.25-9.43Z"/>
    </g>
  </g>
</svg>