<?xml version="1.0" encoding="UTF-8"?>
<svg id="Capa_1" data-name="Capa 1" xmlns="http://www.w3.org/2000/svg" viewBox="0 0 1493.93 1000">
  <defs>
    <style>
      .cls-1, .cls-2, .cls-3, .cls-4, .cls-5, .cls-6 {
        stroke-width: 0px;
      }

      .cls-2 {
        fill: #6cb8e2;
      }

      .cls-3 {
        fill: #163c40;
      }

      .cls-4 {
        fill: #acf6c3;
      }

      .cls-5 {
        fill: #fff;
      }

      .cls-6 {
        fill: #010101;
      }
    </style>
  </defs>
  <g>
    <path class="cls-4" d="m1143.86,448.76h142.08c2.63,0,4.19,2.95,2.69,5.12l-19.97,29.02"/>
    <path class="cls-6" d="m1268.66,490.87c-1.56,0-3.13-.46-4.51-1.41-3.63-2.5-4.54-7.46-2.05-11.09l14.89-21.65h-133.13c-4.4,0-7.97-3.57-7.97-7.97s3.57-7.97,7.97-7.97h142.08c4.19,0,8,2.3,9.95,6.01,1.95,3.71,1.69,8.15-.69,11.6l-19.97,29.02c-1.55,2.25-4.04,3.45-6.57,3.45Zm17.28-34.14h.01-.01Z"/>
  </g>
  <path class="cls-6" d="m567.22,795.35c4.49-23.01,27.31-93.4,49.2-100.7,21.89-7.3,51.08-19.65,85.88-12.35,34.8,7.3,77.71,39.4,77.71,39.4l35.05,76.83-247.85-3.19Z"/>
  <path class="cls-6" d="m1046.78,796.62c4.49-23.01,29.2-94.68,51.09-101.97,21.89-7.3,51.08-19.65,85.88-12.35,34.8,7.3,77.71,39.4,77.71,39.4l16.61,76.24-231.29-1.31Z"/>
  <circle class="cls-6" cx="623.76" cy="806.39" r="80.26"/>
  <circle class="cls-6" cx="390.9" cy="806.39" r="80.26"/>
  <circle class="cls-6" cx="887.92" cy="806.39" r="80.26"/>
  <circle class="cls-6" cx="1121.31" cy="806.39" r="80.26"/>
  <g>
    <g>
      <path class="cls-3" d="m522.33,798.96c0,44.32-35.93,80.26-80.25,80.26s-80.26-35.93-80.26-80.26c0-2.74.15-5.46.42-8.13h159.67c.28,2.67.42,5.39.42,8.13Z"/>
      <path class="cls-6" d="m442.08,887.19c-48.65,0-88.23-39.58-88.23-88.23,0-2.97.16-5.99.46-8.95l.74-7.15h174.05l.74,7.16c.31,2.97.46,5.98.46,8.95,0,48.65-39.58,88.23-88.23,88.23Zm-72.28-88.39v.16c0,39.86,32.43,72.28,72.28,72.28s72.28-32.43,72.28-72.28v-.16h-144.57Z"/>
    </g>
    <g>
      <path class="cls-3" d="m474.91,798.96c0,18.13-14.7,32.82-32.83,32.82s-32.83-14.68-32.83-32.82c0-2.81.35-5.54,1.01-8.13h63.63c.67,2.59,1.01,5.32,1.01,8.13Z"/>
      <path class="cls-6" d="m442.08,839.75c-22.5,0-40.8-18.3-40.8-40.79,0-3.44.43-6.85,1.27-10.11l1.54-5.99h75.99l1.54,5.99c.84,3.27,1.27,6.67,1.27,10.11,0,22.49-18.3,40.79-40.8,40.79Zm-24.86-40.95v.16c0,13.7,11.15,24.84,24.86,24.84s24.86-11.14,24.86-24.84v-.16h-49.72Z"/>
    </g>
  </g>
  <g>
    <g>
      <path class="cls-3" d="m1015.64,798.96c0,44.32-35.93,80.26-80.25,80.26s-80.26-35.93-80.26-80.26c0-2.74.15-5.46.42-8.13h159.67c.28,2.67.42,5.39.42,8.13Z"/>
      <path class="cls-6" d="m935.38,887.19c-48.65,0-88.23-39.58-88.23-88.23,0-2.97.16-5.99.46-8.95l.74-7.15h174.05l.74,7.16c.31,2.98.46,5.99.46,8.95,0,48.65-39.58,88.23-88.23,88.23Zm-72.28-88.39v.16c0,39.86,32.43,72.28,72.28,72.28s72.28-32.43,72.28-72.28v-.16h-144.57Z"/>
    </g>
    <g>
      <path class="cls-3" d="m968.21,798.96c0,18.13-14.7,32.82-32.83,32.82s-32.83-14.68-32.83-32.82c0-2.81.35-5.54,1.01-8.13h63.63c.67,2.59,1.01,5.32,1.01,8.13Z"/>
      <path class="cls-6" d="m935.38,839.75c-22.5,0-40.8-18.3-40.8-40.79,0-3.44.43-6.85,1.27-10.11l1.54-5.99h76l1.54,5.99c.84,3.26,1.26,6.67,1.26,10.11,0,22.49-18.3,40.79-40.8,40.79Zm-24.86-40.95v.16c0,13.7,11.15,24.84,24.86,24.84s24.86-11.14,24.86-24.84v-.16h-49.72Z"/>
    </g>
  </g>
  <g>
    <path class="cls-4" d="m462.93,560.8s63.62-111.95,181.3-111.95h517.01c89.69,0,162.41,72.72,162.41,162.42v136.26c0,23.45-19.02,42.47-42.47,42.47h-11c.14-2.41.33-5.42.33-6.38,0-56.67-45.95-102.62-102.62-102.62s-102.63,45.95-102.63,102.62c0,2.15.07,4.28.2,6.38h-256.48c-21.22,0-37.08-3.28-37.08-21.78,0-47.41-45.95-87.21-102.62-87.21s-102.4,46.15-102.4,98.03c0,14.87-13.48,17.58-28.47,17.58h-259c-26.81,0-48.56-21.74-48.56-48.56v-75.21c0-34.5,23.34-64.62,56.75-73.24l142.1-36.67,261.3-1.15"/>
    <path class="cls-6" d="m538.42,804.58h-259c-31.17,0-56.53-25.36-56.53-56.53v-75.21c0-38.13,25.79-71.43,62.72-80.96l143.07-36.92,28.52-.13c4.32-7.09,20.06-31.39,46.87-55.9,41.55-37.99,90.01-58.07,140.16-58.07h517.01c93.95,0,170.38,76.44,170.38,170.39v136.26c0,27.81-22.63,50.44-50.44,50.44h-19.47l.55-9.04c.11-1.74.28-4.65.28-5.31,0-52.19-42.46-94.65-94.65-94.65s-94.66,42.46-94.66,94.65c0,1.89.06,3.87.19,5.88l.53,8.47h-264.96c-13.48,0-45.05,0-45.05-29.76,0-20.65-9.68-40.29-27.27-55.33-18.04-15.42-41.97-23.91-67.38-23.91-51.19,0-94.43,41.24-94.43,90.05,0,16.96-12.26,25.55-36.44,25.55Zm-107.68-233.68l-141.14,36.42c-29.89,7.72-50.77,34.66-50.77,65.52v75.21c0,22.38,18.21,40.58,40.58,40.58h259c20.49,0,20.49-5.78,20.49-9.61,0-57.46,50.55-106,110.37-106s110.59,42.7,110.59,95.18c0,7.56,2.19,13.81,29.1,13.81h248.31c.86-60.25,50.14-109,110.6-109s109.73,48.75,110.58,109h2.71c19.02,0,34.5-15.48,34.5-34.5v-136.26c0-85.16-69.28-154.45-154.44-154.45h-517.01c-91.22,0-149.29,71.19-167.88,97.94l214.63-.94h.04c4.39,0,7.95,3.55,7.97,7.94.02,4.4-3.53,7.99-7.94,8.01l-260.31,1.15Z"/>
  </g>
  <path class="cls-6" d="m1321.59,726.18H235.15c-4.4,0-7.97-3.57-7.97-7.97s3.57-7.97,7.97-7.97h1086.44c4.4,0,7.97,3.57,7.97,7.97s-3.57,7.97-7.97,7.97Z"/>
  <g>
    <path class="cls-5" d="m310.46,746.47h92.31c5.48,0,9.93,4.45,9.93,9.93v39.87h-112.16v-39.87c0-5.48,4.45-9.93,9.93-9.93Z"/>
    <path class="cls-6" d="m420.66,804.24h-128.1v-43.38c0-12.33,10.03-22.36,22.36-22.36h83.38c12.33,0,22.36,10.03,22.36,22.36v43.38Zm-112.16-15.94h96.21v-27.44c0-3.54-2.88-6.41-6.41-6.41h-83.38c-3.54,0-6.41,2.88-6.41,6.41v27.44Z"/>
  </g>
  <path class="cls-6" d="m432.58,570.82c-4.25,0-7.78-3.36-7.96-7.64-.04-1.01-.83-24.95,16.2-38.7,11.73-9.47,28.35-11.5,49.39-6.05,4.26,1.11,6.82,5.46,5.72,9.72-1.11,4.26-5.46,6.81-9.72,5.72-15.89-4.12-27.79-3.11-35.38,3.02-10.68,8.62-10.29,25.47-10.28,25.64.18,4.4-3.24,8.11-7.64,8.29-.11,0-.22,0-.34,0Z"/>
  <g>
    <path class="cls-5" d="m437.38,631.79c-3.06,1.64-29.26,34.48,30.71,34.48s89.31-37.53,77.23-75.07c0,0-60.55,15.17-107.93,40.59Z"/>
    <path class="cls-6" d="m468.08,674.24c-27.37,0-42.97-6.86-46.37-20.4-3.3-13.12,7.54-26.75,11.89-29.08h0c47.7-25.59,107.25-40.67,109.76-41.3l7.24-1.81,2.29,7.1c6.05,18.81,3.15,37.73-8.18,53.28-14.91,20.47-42.84,32.21-76.63,32.21Zm-26.27-35.78c-1.95,2.01-5.9,8.29-4.49,11.96,1.47,3.81,10.32,7.87,30.76,7.87,28.63,0,51.87-9.35,63.75-25.65,6.78-9.3,9.4-20.31,7.65-31.62-17.59,4.92-61.69,18.25-97.67,37.43Z"/>
  </g>
  <path class="cls-6" d="m529.39,804.33c-38.35,0-61.25-20.76-61.25-55.53v-78.17c0-4.4,3.57-7.97,7.97-7.97s7.97,3.57,7.97,7.97v78.17c0,32.72,24.64,39.59,45.3,39.59,4.4,0,7.97,3.57,7.97,7.97s-3.57,7.97-7.97,7.97Z"/>
  <path class="cls-6" d="m942.64,648.3h-44.41c-4.4,0-7.97-3.57-7.97-7.97s3.57-7.97,7.97-7.97h44.41c4.4,0,7.97,3.57,7.97,7.97s-3.57,7.97-7.97,7.97Z"/>
  <g>
    <g>
      <circle class="cls-5" cx="673.62" cy="798.96" r="80.26"/>
      <path class="cls-6" d="m673.62,887.19c-48.65,0-88.23-39.58-88.23-88.23s39.58-88.23,88.23-88.23,88.23,39.58,88.23,88.23-39.58,88.23-88.23,88.23Zm0-160.52c-39.86,0-72.29,32.43-72.29,72.29s32.43,72.29,72.29,72.29,72.29-32.43,72.29-72.29-32.43-72.29-72.29-72.29Z"/>
    </g>
    <g>
      <circle class="cls-4" cx="673.62" cy="798.96" r="32.82"/>
      <path class="cls-6" d="m673.62,839.76c-22.49,0-40.8-18.3-40.8-40.8s18.3-40.8,40.8-40.8,40.8,18.3,40.8,40.8-18.3,40.8-40.8,40.8Zm0-65.65c-13.7,0-24.85,11.15-24.85,24.85s11.15,24.85,24.85,24.85,24.85-11.15,24.85-24.85-11.15-24.85-24.85-24.85Z"/>
    </g>
  </g>
  <g>
    <g>
      <circle class="cls-5" cx="1171.76" cy="798.96" r="80.26"/>
      <path class="cls-6" d="m1171.76,887.19c-48.65,0-88.23-39.58-88.23-88.23s39.58-88.23,88.23-88.23,88.23,39.58,88.23,88.23-39.58,88.23-88.23,88.23Zm0-160.52c-39.86,0-72.29,32.43-72.29,72.29s32.43,72.29,72.29,72.29,72.29-32.43,72.29-72.29-32.43-72.29-72.29-72.29Z"/>
    </g>
    <g>
      <circle class="cls-4" cx="1171.76" cy="798.96" r="32.82"/>
      <path class="cls-6" d="m1171.76,839.76c-22.49,0-40.8-18.3-40.8-40.8s18.3-40.8,40.8-40.8,40.8,18.3,40.8,40.8-18.3,40.8-40.8,40.8Zm0-65.65c-13.7,0-24.85,11.15-24.85,24.85s11.15,24.85,24.85,24.85,24.85-11.15,24.85-24.85-11.15-24.85-24.85-24.85Z"/>
    </g>
  </g>
  <g>
    <path class="cls-5" d="m356.34,321.54c1.21,4.9,1.86,10.05,1.86,15.34,0,18.08-7.5,34.37-19.48,45.83,4.84,8.98,7.62,19.3,7.62,30.28,0,24.83-14.13,46.29-34.62,56.49,13.58,10.55,22.65,26.83,23.73,45.32.07,1.22.1,2.47.1,3.72,0,34.04-27.04,61.64-60.4,61.64-.65,0-1.32-.01-1.97-.04-32.44-1.05-58.42-28.23-58.42-61.6,0-4.4.46-8.69,1.32-12.84-5.07,1.55-10.43,2.41-15.99,2.41-30.58,0-55.37-25.31-55.37-56.51,0-8.9,2.02-17.33,5.63-24.81-23.3-.88-41.92-20.41-41.92-44.39,0-12.13,4.77-23.13,12.49-31.14-19.52-7.63-33.39-26.93-33.39-49.53,0-29.28,23.27-53.03,51.96-53.03.65,0,1.3.03,1.94.05-4.1-9.66-6.38-20.32-6.38-31.53,0-43.83,34.82-79.39,77.79-79.39,31.88,0,59.28,19.59,71.29,47.62,10.64-5.82,22.8-9.13,35.74-9.13,41.88,0,75.83,34.65,75.83,77.39,0,29.25-15.9,54.69-39.34,67.86Z"/>
    <path class="cls-6" d="m275.15,587.46c-.75,0-1.51-.02-2.26-.05-36.66-1.19-65.43-31.45-65.43-68.91,0-1.19.03-2.38.09-3.58-2.47.3-4.96.45-7.46.45-34.56,0-62.68-28.63-62.68-63.82,0-6.49.93-12.8,2.78-18.86-22.56-5.38-39.07-25.85-39.07-50.35,0-10.31,2.96-20.18,8.46-28.59-17.87-10.71-29.36-30.58-29.36-52.08,0-30.43,22.24-55.67,51.04-59.76-2.34-7.99-3.52-16.27-3.52-24.74,0-47.8,38.17-86.69,85.1-86.69,31.31,0,59.87,17.49,74.69,45.15,10.18-4.37,21.22-6.66,32.33-6.66,45.84,0,83.14,38,83.14,84.7,0,29.03-14.61,55.93-38.45,71.44.65,3.88.97,7.82.97,11.76,0,17.44-6.49,34.36-17.98,47.21,4.01,9.05,6.11,18.93,6.11,28.89,0,23.45-11.17,44.74-29.72,57.72,11.12,11.75,17.86,27.18,18.82,43.66.08,1.45.12,2.84.12,4.15,0,38.02-30.38,68.95-67.71,68.95Zm-49.4-92.4l-2.51,12.1c-.77,3.72-1.16,7.54-1.16,11.35,0,29.51,22.56,53.36,51.35,54.3.62.02,1.18.04,1.73.04,29.27,0,53.09-24.37,53.09-54.33,0-1.05-.03-2.17-.09-3.33-.92-15.76-8.54-30.33-20.91-39.94l-9.18-7.14,10.41-5.18c18.85-9.38,30.56-28.52,30.56-49.94,0-9.36-2.33-18.63-6.74-26.81l-2.64-4.9,4.03-3.85c11.11-10.62,17.22-25.02,17.22-40.54,0-4.58-.56-9.15-1.65-13.59l-1.33-5.4,4.85-2.72c21.97-12.34,35.61-35.9,35.61-61.49,0-38.64-30.74-70.08-68.52-70.08-11.24,0-22.38,2.85-32.23,8.23l-7.06,3.86-3.17-7.4c-11.24-26.24-36.58-43.19-64.57-43.19-38.86,0-70.48,32.33-70.48,72.08,0,9.96,1.95,19.6,5.8,28.67l4.52,10.64-11.55-.48c-.54-.02-1.09-.05-1.64-.05-24.62,0-44.65,20.51-44.65,45.72,0,18.84,11.55,36.01,28.74,42.73l10.21,3.99-7.6,7.89c-6.73,6.99-10.44,16.25-10.44,26.07,0,20.06,15.32,36.35,34.89,37.09l11.16.42-4.85,10.06c-3.25,6.74-4.9,14.03-4.9,21.64,0,27.13,21.56,49.2,48.06,49.2,4.68,0,9.34-.7,13.85-2.08l11.81-3.63Z"/>
  </g>
  <g>
    <circle class="cls-5" cx="332.8" cy="106.96" r="36.23"/>
    <path class="cls-6" d="m332.8,150.5c-24.01,0-43.54-19.53-43.54-43.54s19.53-43.54,43.54-43.54,43.54,19.53,43.54,43.54-19.53,43.54-43.54,43.54Zm0-72.46c-15.95,0-28.92,12.97-28.92,28.92s12.97,28.92,28.92,28.92,28.92-12.97,28.92-28.92-12.97-28.92-28.92-28.92Z"/>
  </g>
  <g>
    <circle class="cls-5" cx="76.46" cy="205.39" r="26.53"/>
    <path class="cls-6" d="m76.46,239.23c-18.66,0-33.84-15.18-33.84-33.84s15.18-33.84,33.84-33.84,33.84,15.18,33.84,33.84-15.18,33.84-33.84,33.84Zm0-53.07c-10.6,0-19.22,8.62-19.22,19.22s8.62,19.22,19.22,19.22,19.22-8.62,19.22-19.22-8.62-19.22-19.22-19.22Z"/>
  </g>
  <path class="cls-3" d="m431.61,570s-149.55,38.67-153.36,40.31c-12.33,5.31-13.15,17.08-13.15,17.08l168.89,3.76s125.42-47.66,157.61-55.18c32.19-7.52,42.52-10.03,42.52-10.03l-202.52,4.07Z"/>
  <path class="cls-2" d="m762.6,584.74h512.55s-22.34-60.64-43.4-79.79c-21.06-19.15-27.45-31.91-81.7-31.91s-269.36,5.74-269.36,5.74c0,0-90.64,12.13-118.09,105.96Z"/>
  <path class="cls-6" d="m718.05,696.42c-4.4,0-7.97-3.57-7.97-7.97v-70.34c0-20.82,16.94-37.76,37.76-37.76h1.47c-.84-1.75-1.03-3.82-.41-5.81,24.43-77.72,106.08-105.3,168.58-105.3h243.6c50.61,0,70.36,15.33,85.82,40.07,14.32,22.91,38.58,73.43,39.6,75.57l5.48,11.42h-544.15c-12.03,0-21.82,9.79-21.82,21.82v70.34c0,4.4-3.57,7.97-7.97,7.97Zm45.66-116.08h502.86c-8.14-16.54-23.37-46.89-33.18-62.59-13.21-21.13-28.64-32.58-72.3-32.58h-243.6c-57.1,0-131.53,24.65-153.37,94.14-.11.36-.25.7-.4,1.03Z"/>
  <path class="cls-6" d="m987.54,790.08c-4.4,0-7.97-3.57-7.97-7.97v-332.81c0-4.4,3.57-7.97,7.97-7.97s7.97,3.57,7.97,7.97v332.81c0,4.4-3.57,7.97-7.97,7.97Z"/>
  <g>
    <path class="cls-4" d="m811.86,566.13c0,16.32-28.33,30.57-45.46,30.57s-31.02-13.23-31.02-29.55,13.89-29.55,31.02-29.55,45.46,12.21,45.46,28.53Z"/>
    <path class="cls-6" d="m766.39,604.68c-21.5,0-38.99-16.83-38.99-37.53s17.49-37.53,38.99-37.53,53.44,14.56,53.44,36.51c0,10.31-7.15,20.33-20.14,28.22-10.48,6.37-23.24,10.32-33.3,10.32Zm0-59.11c-12.71,0-23.05,9.68-23.05,21.58s10.34,21.58,23.05,21.58c17.02,0,37.49-13.88,37.49-22.6s-19.75-20.56-37.49-20.56Z"/>
  </g>
  <path class="cls-2" d="m770.12,481.29c-.98.49-58.74,31.38-81.24,73.44l-214.2.3s25.96-63.1,80.25-73.61l215.19-.13Z"/>
  <path class="cls-6" d="m273.14,639.88c-15.99,0-20.22-8.72-21.32-12.68-2.97-10.72,5.57-23.22,15.4-28.17,3.93-1.98,8.72-.4,10.71,3.54,1.98,3.93.4,8.72-3.53,10.71-4.79,2.41-7.55,7.98-7.23,9.59.53.44,2.95,1.39,8.41.98,15.07-1.12,141.67-.18,159.88-.04,100.97-52.21,227.78-67.19,252.33-69.68,5.5-8.66,21.24-31.63,46.7-54.79,42.09-38.29,90.84-58.53,140.97-58.53,4.4,0,7.97,3.57,7.97,7.97s-3.57,7.97-7.97,7.97c-46.61,0-90.3,18.18-129.88,54.05-29.88,27.08-46.02,54.61-46.18,54.88l-2.08,3.58-4.13.36c-1.44.12-144.86,13.14-252.12,69.24l-1.77.92-1.99-.02c-50.19-.4-148.34-.93-160.55-.02-1.27.09-2.48.14-3.62.14Z"/>
  <path class="cls-6" d="m782.21,481.34h-225.67c-4.4,0-7.97-3.57-7.97-7.97s3.57-7.97,7.97-7.97h225.67c4.4,0,7.97,3.57,7.97,7.97s-3.57,7.97-7.97,7.97Z"/>
  <g>
    <g>
      <path class="cls-3" d="m671.98,560.41s-98.22-63.53-148.87-96.02H252.79s125.47,68.62,177.02,97.91l242.17-1.9Z"/>
      <path class="cls-6" d="m427.73,570.3l-1.86-1.06c-50.9-28.93-175.65-97.17-176.9-97.85l-27.37-14.97h303.84l1.97,1.26c50.09,32.13,147.91,95.4,148.9,96.04l22.35,14.46-270.93,2.12Zm-143.8-97.93c39.3,21.56,111.09,61.04,147.95,81.95l213.4-1.67c-31.49-20.35-89.01-57.5-124.52-80.28h-236.84Z"/>
    </g>
    <g>
      <path class="cls-4" d="m225.28,464.34v25.53c0,3.53,2.86,6.39,6.39,6.39h278.39c3.53,0,6.39-2.86,6.39-6.39v-26.13s-294.1.6-291.17.6Z"/>
      <path class="cls-6" d="m510.06,504.23H231.67c-7.92,0-14.36-6.44-14.36-14.36l-.02-25.52c0-.08.09-7.47,7.99-7.96v-.02h.55c.08,0,.16,0,.25,0l298.34-.62v34.12c0,7.92-6.44,14.36-14.36,14.36Zm-276.81-15.94h275.22v-16.56c-41.7.09-233.65.48-275.22.57v15.99Z"/>
    </g>
  </g>
  <path class="cls-5" d="m240.32,666.2l45.43-1.78s7.33-1.63,10.91-13.28c1.29-4.2,7.6-14.53-12.92-11.86-24.54,3.2-30.33-7.98-30.33-7.98,0,0-13.58,11.64-13.08,34.89Z"/>
  <path class="cls-6" d="m278.15,672.11h-40.85c-4.4,0-7.97-3.57-7.97-7.97s3.57-7.97,7.97-7.97h40.85c4.79,0,8.54-1.43,10.57-4.04,2.84-3.64,2.24-9.18,1.24-13.19-1.07-4.27,1.53-8.6,5.8-9.67,4.27-1.07,8.6,1.53,9.67,5.8,3.37,13.5-.39,22.06-4.14,26.87-5.12,6.56-13.34,10.17-23.14,10.17Z"/>
  <path class="cls-1" d="m1351.41,895.48H163.51c-4.8,0-8.7-3.89-8.7-8.7s3.89-8.7,8.7-8.7h1187.9c4.8,0,8.7,3.89,8.7,8.7s-3.89,8.7-8.7,8.7Z"/>
</svg>