<?xml version="1.0" encoding="UTF-8"?>
<svg id="Capa_1" data-name="Capa 1" xmlns="http://www.w3.org/2000/svg" viewBox="0 0 1116.38 1000">
  <defs>
    <style>
      .cls-1, .cls-2, .cls-3 {
        stroke-width: 0px;
      }

      .cls-2 {
        fill: #fff;
      }

      .cls-3 {
        fill: #010101;
      }
    </style>
  </defs>
  <path class="cls-2" d="m606.15,329.82c-13.63,41.97-71.41,186.42-71.41,186.42,0,0-39.25,128.64,9.81,173.89,49.06,45.24,107.93,56.69,107.93,56.69l17.44,89.94,52.87-5.45,15.26-84.49,50.15-3.82,49.6,88.31,85.03-41.97-9.27-44.15-45.79,4.91-8.67-40.89s37.56-22.89,47.91-77.4c0,0,85.58-14.17,109.56-89.94,23.98-75.77,3.27-73.04-19.08-68.14-22.35,4.91-85.03,51.78-85.03,51.78l-26.71-3.82-13.63-61.6s56.14-94.3,75.77-126.46c19.62-32.16,24.53-58.33,6.54-67.05-17.99-8.72-59.96-.55-95.94,41.43-35.98,41.97-65.96,107.93-65.96,107.93,0,0,37.07-124.83,51.24-152.63,14.17-27.8,44.15-56.69,8.72-72.5-35.43-15.81-68.14,9.27-117.74,98.12-49.6,88.85-53.42,95.39-53.42,95.39,0,0,52.33-140.09,14.72-152.08-37.61-11.99-89.94,97.57-89.94,97.57Z"/>
  <g>
    <path class="cls-3" d="m564.63,551.55s.07.02.11.03l-.11-.03Z"/>
    <g>
      <path class="cls-3" d="m667.34,627.68c29-1,33.19-33.02,49.16-34.52,20.96-1.97,27.3,43.99-.23,56.87-18.97,8.88-45.42,10.09-56.45,1.78-8.04-6.05-5.98-23.67,7.53-24.13Z"/>
      <path class="cls-3" d="m719.18,823.5c-2.08-.53-66.45-1.83-66.45-1.83,0,0,7.75,35.81-.05,35.8s-62.64,28.88-62.64,28.88l-.03,23.69,138.04.18-8.87-86.71Z"/>
      <path class="cls-3" d="m731.37,524.66c6.72,1.22,13.45-2.81,15.51-9.59l7.51-24.75c2.22-7.32-1.83-15.06-9.06-17.29-7.23-2.21-14.88,1.88-17.11,9.2l-7.51,24.75c-2.22,7.32,1.83,15.06,9.06,17.29.53.16,1.06.29,1.6.39Z"/>
      <path class="cls-3" d="m647.93,496.36c6.72,1.22,13.45-2.81,15.51-9.59l7.51-24.74c2.22-7.32-1.83-15.06-9.06-17.29-7.23-2.21-14.88,1.88-17.11,9.2l-7.51,24.74c-2.22,7.32,1.83,15.06,9.06,17.29.53.16,1.06.29,1.6.39Z"/>
      <path class="cls-3" d="m884.92,752.41c.33,2.12,24.04,54.7,24.04,54.7,0,0,33.04-9.64,36.09-2.46,3.05,7.18,47.8,38.47,47.8,38.47l21.8-9.26-50.64-119.22-79.08,37.77Z"/>
      <path class="cls-3" d="m970.35,695.68l-91.83,42.69-3.77-19.47c-.44-2.3-1.46-4.39-2.93-6.13,23.3-20.38,37.74-44.75,42.17-71.49,71.99-11.24,101.97-59.85,118.26-95.5,17.56-38.41,8.09-68.69-9.08-81.66-19.23-14.53-42.02-6.13-56.94,6.57-2.83,2.41-5.66,4.89-8.39,7.29-14.37,12.62-29.23,25.65-50.24,33.42-11.51-20.06-19.75-44.67-21.13-52.91,7.23-11.86,25.91-42.31,47.52-75.92,7.97-12.4,15.47-22.66,22.12-31.77,20.29-27.77,34.96-47.84,19-76.72-6.88-12.44-18.47-20.09-32.65-21.54-26.24-2.67-58.33,15.7-88.08,50.4-8.21,9.58-18.72,23.93-31.28,42.71,6.54-19.51,13.84-37.17,21.74-52.59,5.73-11.2,12.2-21.06,18.46-30.6,15.86-24.18,32.26-49.18,11.84-73.86-7.77-9.39-20.93-13.9-37.07-12.68-24.76,1.87-62.68,19.07-88.07,61.39-8.41,14.01-18.33,31.84-30.24,54.33,8.65-29.74,12.3-48.16,3.17-62.13-5.45-8.33-14.45-13.16-27.52-14.76-60.29-7.36-91.92,76.56-112.75,150.51-2.97,10.53-11.5,27.59-21.38,47.34-32.78,65.52-82.31,164.53-45.83,246.64,19.13,43.05,59.94,75.57,121.45,96.9-.04,1,0,2.01.18,3.02l16.04,94.78-56.33,17.58c-12.81,4.7-21.29,16.55-21.62,30.19l-.6,25.5,158.74.21,15.99-161.86c.02-.24.03-.49.04-.73,9.32-1.42,18.41-3.2,27.21-5.36.25,2.15.99,4.29,2.24,6.22l56.74,87.5,105.12-48.68,35.91,38.2c9.34,9.94,23.57,13.1,36.25,8.04l24.05-9.59-66.1-144.57-.42-.92Zm-121.04,33.81l8.54,44.12c1.23,6.34,6.79,10.93,13.24,10.93.86,0,1.73-.08,2.58-.25,3.54-.69,6.6-2.71,8.62-5.69,2.02-2.99,2.75-6.58,2.07-10.12l-.54-2.8,73.29-34.07,43.43,95-1.5.6-52.04-55.36-101.54,47.02-43.38-66.9c17.2-5.99,33.06-13.51,47.24-22.48Zm-143.37,25.92c.47,7.07,6.38,12.6,13.45,12.6.3,0,.6,0,.91-.03.56-.04,1.11-.08,1.66-.12l-13.09,132.54-106.66-.14.05-1.97,81.24-26.67-18.2-107.52c6.54-.33,11.96-5.36,12.74-11.97.76-6.49-3.68-12.79-10.35-14.65-66.6-18.58-109.52-48.6-127.56-89.21-31.31-70.47,14.79-162.63,45.31-223.62,10.92-21.83,19.55-39.08,23.21-52.08,25.86-91.85,53.2-134.7,83.49-131.04,5.14.63,7.62,1.83,8.21,2.75,3.75,5.73-3.9,31.29-10.65,53.85l-.56,1.86c-12.01,40.17-20.05,71.71-23.89,93.74-1.25,7.17,3.02,14.13,10.14,16.55,6.79,2.32,14.09-.54,17.36-6.79,2.99-5.73,7.36-14.36,12.88-25.29l.2-.39c17.25-34.14,46.13-91.29,67.33-126.61,13.55-22.58,39.5-46.29,66.96-48.36,8.76-.65,13.08,1.56,14.25,2.98,6.42,7.76,4.13,14.8-13.61,41.85-6.34,9.67-13.53,20.62-19.92,33.11-19.15,37.42-34.94,87.01-44.45,139.65l-.11.58c-.11.62-.2,1.08-.27,1.47-1.24,6.49,2.34,12.89,8.58,15.23,6.17,2.32,13.08-.12,16.42-5.8,17.57-29.86,52.91-86.93,73.89-111.39,27.72-32.33,51.68-42.42,64.84-41.12,5.42.55,9.16,3.02,11.77,7.75,6.28,11.36,5.49,16.72-17.19,47.76-6.84,9.37-14.6,19.99-23.02,33.07-26.56,41.31-49.37,78.94-50.34,80.54l-2.23,3.68.31,4.29c.15,2,6.42,32.36,21.31,61.25-.79.09-1.58.17-2.38.25-3.59.34-6.83,2.05-9.13,4.83s-3.38,6.28-3.04,9.87c.34,3.59,2.05,6.83,4.83,9.13,2.78,2.3,6.28,3.38,9.87,3.04,47.12-4.43,72.64-26.83,95.16-46.6,3-2.63,5.5-4.82,8.08-7.03,4.32-3.68,15.23-11.59,23.17-5.59,8.55,6.46,11.58,25.33.8,48.9-15.65,34.23-41.85,74.39-106.04,81.12-2.28.24-4.47,1.06-6.35,2.39-4.12,2.23-6.75,6.34-7.05,10.99-3.78,58.62-75.17,105.72-169.75,112-7.42.49-13.06,6.93-12.57,14.36Z"/>
      <path class="cls-3" d="m661.73,602.17c-1.34,0-2.7-.22-4.03-.67l-104.09-35.49c-5.08-1.71-8.55-6.41-8.68-11.78-.13-5.38,3.14-10.25,8.14-12.19l107.68-41.93c6.43-2.5,13.68.68,16.18,7.11,2.5,6.43-.68,13.67-7.11,16.18l-76.45,29.77,72.4,24.68c6.53,2.23,10.02,9.33,7.79,15.86-1.77,5.19-6.63,8.46-11.83,8.47Z"/>
    </g>
    <path class="cls-2" d="m182,484.1c-2.76-3.68-8.27-40.45-20.23-61.6-11.95-21.14-42.29-27.58-49.64,11.03-7.35,38.61-7.35,84.58,11.95,118.59,19.31,34.02,35.85,47.81,35.85,47.81,0,0-4.6,69.87,29.42,94.69,34.02,24.82,27.58,21.14,27.58,21.14l-8.27,29.42s-12.87-11.95-24.82,11.03c-11.95,22.98-9.19,45.05-9.19,45.05l68.95,34.02,59.94-88.2,42.1,9.14,15.63,82.74,58.84.92,18-95.56s77.61-.97,96.91-83.71c19.31-82.74,20.23-182.95-7.35-287.75-27.58-104.8-29.42-123.19-63.43-100.21-34.02,22.98-32.18,154.45-32.18,154.45,0,0-18.39-134.22-32.18-172.83-13.79-38.61-54.24-72.63-73.55-81.82-19.31-9.19-39.53,17.47-23.9,77.22,15.63,59.76,4.6,138.82,4.6,138.82,0,0-22.98-123.19-58.84-151.69-35.85-28.5-64.35-14.71-60.68,20.23,3.68,34.93,38.61,159.04,25.74,204.09-12.87,45.05-31.26,22.98-31.26,22.98Z"/>
    <path class="cls-3" d="m367.45,822.53c2.08-.53,66.45-1.83,66.45-1.83,0,0-7.75,35.81.05,35.8,7.8-.01,61.72,28.88,61.72,28.88l.03,23.69-137.12.18,8.87-86.71Z"/>
    <path class="cls-3" d="m201.7,751.44c-.33,2.12-24.04,54.7-24.04,54.7,0,0-33.04-9.64-36.09-2.46-3.05,7.18-47.8,38.47-47.8,38.47l-21.8-9.26,50.64-119.22,79.08,37.77Z"/>
    <path class="cls-3" d="m517.73,719.75c71.59-82.65,44.91-255.15,34.86-320.09l-.12-.77c-.65-4.21-1.21-7.81-1.62-10.73-9.47-66.29-21.29-113.96-48.2-131.1-11.12-7.08-23.8-8.54-37.7-4.33-23.09,7-34.31,33.97-34.17,82.31-6.6-39.85-14.13-72.47-21.95-94.95-16.79-48.3-49.72-73.83-72.82-81.03-14.19-4.42-27.15-3.09-36.47,3.75-26.95,19.77-18.32,49.59-9.19,81.18,2.56,8.86,5.21,18.01,7.48,27.87,3.37,14.64,5.25,32.5,5.6,53.23-5.29-26.66-10.65-45.26-16.32-56.65-19.52-39.2-42.43-61.76-66.23-65.23-14.16-2.07-27.76,3-38.3,14.29-23.18,24.8-13.11,51.16.83,87.65,3.69,9.65,7.86,20.58,11.96,32.75,13.73,40.79,12.62,94.98,12.24,105.78-2.62,8.92-7.45,19.99-13.27,32.65-6.22-3.56-7.7-11.16-9.38-26.53-1.8-16.46-4.04-36.95-22.95-48.79-12.29-7.7-26.14-8.47-38.01-2.13-13.28,7.1-29.41,25.75-30.83,74.28-1.29,44.18,18.21,102.42,57.95,131.57-1.75,23.36,1.59,46.66,13.5,68.47,8.38,15.35,20.37,28.89,36.09,40.68-.26.65-.48,1.32-.64,2.03l-3.98,17.9-79.68-39.36-66.21,144.83-.44.96,24.05,9.59c12.67,5.06,26.9,1.9,36.25-8.04l35.91-38.2,105.12,48.68,57.12-88.09c1.15-1.77,1.83-3.77,2.07-5.82,8.63,1.86,17.63,3.57,26.99,5.13,0,.38.01.76.05,1.14l15.9,160.96.09.9,157.83-.21-.6-25.5c-.32-13.64-8.81-25.49-21.66-30.2l-55.38-17.56,15.73-92.94c27.49-5.96,50.44-19.44,68.5-40.29Zm-275.68,51.79c1.6-3.23,1.84-6.89.68-10.31-1.16-3.41-3.57-6.17-6.8-7.77l-14.93-7.37,3.8-17.07c16.8,8.93,36.51,16.53,59.2,22.85l-42.82,66.03-101.54-47.02-52.04,55.36-1.5-.6,43.3-94.7,94.58,46.72c3.23,1.6,6.89,1.84,10.31.68,3.41-1.16,6.17-3.57,7.77-6.81Zm-83.91-318.82c1.86,16.97,4.15,37.97,24.87,48.14-10.09,22.14-20.54,46.89-26.73,72.34-20.15-21.38-37.32-58.53-36.12-99.26.93-31.77,9.18-47.31,16.58-51.27,3.23-1.73,6.92-1.33,10.95,1.2,7.31,4.58,8.82,13.95,10.45,28.86Zm325.31,444.61l.05,1.97-105.75.14-13.29-134.6c3.68-1.99,6.39-5.65,6.99-10.03.49-3.57-.43-7.12-2.61-9.99-2.18-2.87-5.34-4.73-8.91-5.22-92.07-12.7-149.8-39.4-171.61-79.35-26.79-49.1,2.41-112.02,25.9-162.61,8.65-18.63,16.12-34.73,19.83-48.26l.36-1.31.1-1.57c.14-2.73,3.21-67.38-13.55-117.21-4.27-12.7-8.55-23.9-12.33-33.78-13.37-35-17.43-47.71-6.33-59.59,4.51-4.83,9.32-6.79,14.69-6.01,14.04,2.05,31.22,20.95,45.97,50.56,12.43,24.97,22.7,100.04,27.63,136.12,1.48,10.82,2.55,18.64,3.36,23.21,1.21,6.76,7.06,11.66,13.92,11.66h.34c7.03-.17,12.79-5.35,13.7-12.32.15-1.15.35-2.59.59-4.38,3.74-27.32,15.11-110.47,1.64-168.95-2.43-10.55-5.31-20.5-7.86-29.32-9.09-31.42-11.51-44.04-.78-51.91,1.6-1.18,5.83-1.82,12.48.26,18.45,5.74,42.72,27.8,55.35,64.12,21.2,61,33.51,182.37,34.4,202.5.36,8.6,8.8,14.36,16.36,14.36.17,0,.34,0,.51,0,16.37-.63,19.75-21.67,21.03-29.59,3-18.65,3.79-49.35,2.33-91.25-.85-24.47.96-42.78,5.39-54.42,3.54-9.31,7.77-11.48,9.42-11.98,8.14-2.46,12.67-.46,15.37,1.26,19.47,12.41,29.46,66.46,35.99,112.16.46,3.2,1.08,7.19,1.79,11.81,8.61,55.67,34.82,225.09-28.59,298.29-20.43,23.59-48.06,34.89-84.36,34.51h-.13c-7.36,0-13.42,5.99-13.49,13.36-.08,7.44,5.91,13.56,13.36,13.63.62,0,1.23,0,1.84,0,2.27,0,4.51-.05,6.74-.13l-18,106.36-.14.85,80.32,26.66Z"/>
  </g>
  <g>
    <path class="cls-1" d="m474.24,92.16c-2.52-2.63-5.91-4.12-9.55-4.2-3.64-.04-7.09,1.26-9.72,3.78-2.63,2.51-4.12,5.9-4.2,9.54-.08,3.64,1.26,7.09,3.78,9.72l50.25,52.48c2.57,2.69,6.19,4.23,9.92,4.21,3.5-.02,6.81-1.36,9.34-3.78,2.63-2.51,4.12-5.9,4.2-9.54.08-3.64-1.26-7.09-3.78-9.72l-50.25-52.48Z"/>
    <path class="cls-1" d="m692.86,100.48c-.42-3.61-2.23-6.85-5.08-9.11-5.89-4.66-14.48-3.66-19.14,2.23l-43.83,55.41c-4.66,5.89-3.66,14.48,2.23,19.14,2.42,1.91,5.44,2.96,8.52,2.94,4.17-.02,8.03-1.91,10.62-5.17l43.83-55.41c2.26-2.86,3.27-6.42,2.85-10.03Z"/>
    <path class="cls-1" d="m530.99,47.35c-2.59-6.29-10.13-9.52-17.15-7.34-3.65,1.12-6.62,3.61-8.13,6.83-1.39,2.94-1.47,6.21-.23,9.2l34.81,84.47c1.98,4.82,7.14,8.04,12.83,8.01,1.46,0,2.91-.23,4.32-.66,3.65-1.13,6.62-3.62,8.13-6.84,1.38-2.94,1.47-6.21.23-9.2l-34.81-84.48Z"/>
    <path class="cls-1" d="m644.94,48.01c-1.42-3.25-4.31-5.8-7.92-7-6.95-2.32-14.57.72-17.35,6.93l-38.12,84.88c-1.34,2.98-1.35,6.26-.05,9.24,1.42,3.25,4.31,5.8,7.93,7.01,1.55.51,3.16.77,4.8.76,5.54-.03,10.46-3.05,12.55-7.69l38.12-84.88c1.34-2.98,1.35-6.26.04-9.25Z"/>
  </g>
</svg>