<?xml version="1.0" encoding="UTF-8"?>
<svg id="Capa_1" data-name="Capa 1" xmlns="http://www.w3.org/2000/svg" viewBox="0 0 1329.83 1318.75">
  <defs>
    <style>
      .cls-1, .cls-2, .cls-3, .cls-4, .cls-5 {
        stroke-width: 0px;
      }

      .cls-2 {
        fill: #8940eb;
      }

      .cls-3 {
        fill: #d6cbf7;
      }

      .cls-4 {
        fill: #fff;
      }

      .cls-5 {
        fill: #010101;
      }
    </style>
  </defs>
  <path class="cls-3" d="m1178.95,827.91H77.04c-5.14,0-9.31-4.17-9.31-9.31s4.17-9.31,9.31-9.31h1101.91c5.14,0,9.31,4.17,9.31,9.31s-4.17,9.31-9.31,9.31Z"/>
  <ellipse class="cls-3" cx="633.46" cy="959.28" rx="395.81" ry="46.68"/>
  <path class="cls-3" d="m188.5,614.63l-14,40.01h157.58l-14-40.01c-2.41-6.87-8.9-11.48-16.2-11.48h-97.19c-7.29,0-13.78,4.61-16.2,11.48Zm-51.28,42.59l18.88-53.9c7.24-20.65,26.71-34.49,48.59-34.49h97.19c21.88,0,41.35,13.84,48.59,34.49l18.88,53.9c12.44,5.15,21.24,17.43,21.24,31.75v102.98c0,9.49-7.67,17.16-17.16,17.16h-17.16c-9.49,0-17.16-7.67-17.16-17.16v-25.75h-171.64v25.75c0,9.49-7.67,17.16-17.16,17.16h-17.16c-9.49,0-17.16-7.67-17.16-17.16v-102.98c0-14.32,8.8-26.6,21.24-31.75Zm47.41,48.92c0-9.48-7.68-17.16-17.16-17.16s-17.16,7.68-17.16,17.16,7.68,17.16,17.16,17.16,17.16-7.68,17.16-17.16Zm154.47,17.16c9.48,0,17.16-7.68,17.16-17.16s-7.68-17.16-17.16-17.16-17.16,7.68-17.16,17.16,7.68,17.16,17.16,17.16Z"/>
  <g>
    <path class="cls-4" d="m462.79,864.52l27.9-73.54s-59.38-17.73-85.08-58.49c-25.7-40.77-18.61-93.06-13.29-125.85,5.32-32.79,9.75-46.97,9.75-46.97,0,0-37.22-49.63-59.38-79.76-22.16-30.13-23.93-63.81-6.2-63.81s52.29,8.86,87.74,41.65c35.45,32.79,46.97,53.18,46.97,53.18,0,0-28.36-118.76-38.11-154.21-9.75-35.45-8.86-58.49,14.18-60.27,23.04-1.77,63.81,20.38,83.31,68.24,19.5,47.86,40.77,100.15,40.77,100.15,0,0,24.82-34.56,24.82-81.54s13.29-94.83,32.79-92.17c19.5,2.66,47.86,28.36,47.86,82.42s-12.41,140.92-12.41,140.92l44.31,33.68s62.49,2.24,81.99-33.21c19.5-35.45,65.03-50.78,77.44-20.65,12.41,30.13-8.37,59.54-33.19,100.31-24.82,40.77-76.61,54.59-76.61,54.59,0,0,9.75,98.37-40.77,121.42-50.52,23.04-37.22,19.5-37.22,19.5l-10.64,92.17-60.27,15.95-2.66-99.26-52.29.89-33.21,78.86-58.49-14.18Z"/>
    <path class="cls-5" d="m546.38,613.92c-5.94.59-11.52-3.34-12.85-9.32l-4.84-21.82c-1.43-6.45,2.64-12.84,9.09-14.27,6.45-1.41,12.84,2.64,14.27,9.09l4.84,21.82c1.43,6.45-2.64,12.84-9.09,14.27-.47.1-.95.18-1.42.23Z"/>
    <path class="cls-5" d="m621.04,595.26c-5.94.59-11.52-3.34-12.85-9.32l-4.84-21.81c-1.43-6.45,2.64-12.84,9.09-14.27,6.45-1.41,12.84,2.64,14.27,9.09l4.84,21.81c1.43,6.45-2.64,12.84-9.09,14.27-.47.1-.95.18-1.42.23Z"/>
    <path class="cls-5" d="m582.45,686.21c-5.21-.1-9.74-4.14-10.57-9.78-.93-6.32,3.16-12.25,9.12-13.25l75.19-12.56c-23.76-14.59-35.09-21.5-55.02-31.08-5.49-2.64-7.91-9.5-5.41-15.33,2.5-5.83,8.98-8.42,14.47-5.77,27.56,13.25,48.19,25.99,82.4,48.24,3.97,2.52,6.08,7.38,5.27,12.25-.84,5.05-4.61,8.96-9.39,9.73l-104.16,17.4c-.64.11-1.28.15-1.9.14Zm102.76-40.44s-.07.01-.1.02l.1-.02Z"/>
    <path class="cls-5" d="m558.64,980.7l-149.8-29.67c-8.03-2.18-12.24-10.99-8.89-18.61l60.81-136.14c2.53-5.75,8.72-9.25,14.86-7.91,8.44,1.84,12.66,10.72,9.37,18.2l-55.01,122.94,108.46,29.47-58.99-48.74,61.98-109.99c3.32-7.53,12.85-10.4,19.92-5.23,5.02,3.67,6.52,10.53,4,16.21l-53.78,91.42,37.46,25.74c12.4,8.52,17.91,24.04,13.67,38.48l-4.07,13.85Z"/>
    <path class="cls-5" d="m753.05,977.53h-158.48l-1.29-171.21c-.05-7.27,5.79-13.2,13.06-13.26,7.27-.1,13.2,5.79,13.26,13.06l1.1,145.09h105.45l-.08-3.77-76.53-27.84,15.01-129.74c.84-7.22,7.35-12.38,14.58-11.56,7.22.84,12.39,7.36,11.56,14.58l-12.62,109.1,51.56,18.76c13.47,4.9,22.56,17.57,22.88,31.91l.56,24.89Z"/>
    <path class="cls-5" d="m455.84,849.92c2.28.05,58.66,15.94,58.66,15.94,0,0-17.85,34.09-9.85,36.27,8,2.17,47.49,44.4,47.49,44.4l-6.52,24-132.82-36.09,43.04-84.52Z"/>
    <path class="cls-5" d="m619.61,867.63c2.21-.55,60.79,0,60.79,0,0,0-8.29,37.58,0,37.58s57.48,30.4,57.48,30.4v24.87h-137.64l19.37-92.85Z"/>
    <path class="cls-5" d="m658.1,806.15c-7.23,0-13.11-5.83-13.16-13.07-.05-7.27,5.8-13.2,13.07-13.25,31.44-.21,54.88-11.84,69.67-34.54,18.14-27.83,20.58-70.86,5.95-104.63-2.89-6.67.17-14.42,6.84-17.31,6.67-2.89,14.42.17,17.31,6.84,18.23,42.07,15,94.09-8.05,129.46-13.7,21.02-40.7,46.15-91.54,46.49h-.09Z"/>
    <path class="cls-5" d="m501.68,812.42c-5.65,0-43.08-1.49-82.82-39.14-37.75-35.76-50.64-74.38-44.5-133.3,2.27-21.82,6.47-35.44,9.53-45.39,4.03-13.08,4.75-15.44-.96-24.84-7.12-11.7-17.98-26.43-29.48-42.02-11.58-15.7-23.55-31.93-32.74-46.54-13.4-21.28-15.57-43.27-5.68-57.4,5.11-7.29,17.89-18.61,46.07-12.52,27.12,5.86,59.38,32.98,84.81,60.33-8.79-36.95-20.71-82.57-31.04-103.23-10.49-20.98-8.29-50.7,16.21-66.94,17.78-11.79,45.34-12.42,66.84,12.74,26.69,31.24,47.82,63.83,71.45,128.41,8.8-26.89,12.25-56.01,10.25-86.92-2.01-31.13,11.72-58.04,33.39-65.44,18.54-6.33,38.34,2.82,52.97,24.49,14.34,21.24,21.41,53.35,21.01,95.44-.36,37.56-6.62,74.48-11.13,96.33,7.07,8.7,23.64,28.77,47.88,56.25,4.54,5.15,4.85,13.09.15,18.11-5.39,5.75-14.41,5.51-19.5-.26-33.54-38.01-52.23-61.55-53.01-62.53l-3.87-4.89,1.33-6.09c13.61-62.37,19.53-141.78-4.67-177.63-3.64-5.39-13.11-17.57-22.65-14.3-8.6,2.94-17.01,17.55-15.63,38.84,3,46.46-5.14,89.46-24.21,127.81-.52,1.05-.92,1.84-1.15,2.36h0c-2.05,5.15-7.11,8.47-12.65,8.29h-.09c-5.55-.18-10.45-3.85-12.2-9.13-29.9-91.45-53.8-124.09-77.67-152.03-10.01-11.72-22.09-14.67-32.29-7.91-8.62,5.71-14.55,18.55-7.21,33.24,16.06,32.12,33.7,110.65,42.18,148.39,1.72,7.66,3.35,14.89,3.78,16.35l2.07,5.33c2.36,6.07-.4,12.93-6.3,15.68h0s-.58.26-.58.26c-5.67,2.57-12.37.51-15.63-4.8l-3.46-5.65c-20.89-33.35-73.41-88.36-104.92-95.17-9.44-2.04-16.7-1.32-18.95,1.89-2.91,4.16-1.66,15.48,6.39,28.28,8.68,13.79,20.36,29.63,31.65,44.95,11.85,16.07,23.04,31.25,30.77,43.95,11.87,19.51,8.24,31.31,3.64,46.26-2.9,9.4-6.5,21.11-8.51,40.37-5.32,51.06,4.55,81.27,36.43,111.46,33.75,31.97,63.44,32,64.67,31.93,7.19-.28,13.28,5.46,13.52,12.72.24,7.26-5.52,13.35-12.78,13.58-.1,0-.33,0-.68,0Z"/>
    <path class="cls-5" d="m757.92,659.8l-7.84-25.12c51.15-15.96,88.78-51.85,103.23-98.46,3.63-11.71,7.69-32.48-5.96-40-9.93-5.46-26.91-3.36-30.88,3.86-25.92,47.14-71.36,56.73-93.05,66.38-2.86,1.27-5.72,2.55-8.6,3.87l-10.99-23.91c2.97-1.36,5.93-2.68,8.88-4,20.75-9.24,63.28-22.43,83.75-59.44,10.52-19.03,43.26-21.02,63.59-9.8,10.36,5.72,32.9,24.06,18.39,70.84-17.06,55.01-60.99,97.21-120.53,115.79Z"/>
    <path class="cls-5" d="m583.39,820.12c-8.81,0-18.13-1.01-32.04-3.33-7.17-1.19-12.01-7.97-10.82-15.14,1.2-7.17,7.98-12.03,15.14-10.82,25.6,4.27,31.76,3.64,56.65-.04,7.18-1.06,13.88,3.91,14.94,11.1,1.06,7.19-3.91,13.88-11.1,14.94-13.95,2.06-23.05,3.29-32.78,3.29Z"/>
    <g>
      <g>
        <polygon class="cls-4" points="886.19 791.96 881.43 964.34 920.51 968.26 923.23 951.22 913.51 927.13 931.05 902.34 922.19 875.29 939.48 849.61 928.84 821.99 947.71 798.12 886.19 791.96"/>
        <path class="cls-5" d="m929.76,980.28l-59.65-5.98,5.37-194.5,93.38,9.35-27.48,34.75,10.45,27.1-17.49,25.98,8.91,27.2-17.26,24.41,8.61,21.34-4.85,30.35Zm-37.02-25.89l18.51,1.85.6-3.74-10.83-26.82,17.81-25.18-8.81-26.9,17.09-25.39-10.84-28.13,10.28-12.99-29.66-2.97-4.15,150.27Z"/>
      </g>
      <g>
        <path class="cls-2" d="m996.53,598.79c-5.63-.56-10.72-3.61-13.88-8.3-9.37-13.89-24.53-24.13-42.58-25.94-17.76-1.78-34.41,5-45.85,16.98-4.25,4.45-10.29,6.72-16.39,5.93h0c-10.65-1.37-20.33,6.32-21.4,17l-14.47,144.43c-2.21,22.07,13.82,41.79,35.88,44.12l78.45,8.28c22.16,2.34,42.02-13.74,44.34-35.91l15.18-145.42c1.1-10.5-6.55-19.89-17.06-20.94l-2.21-.22Z"/>
        <path class="cls-5" d="m960.61,811.7c-1.79,0-3.59-.09-5.4-.29l-78.45-8.29c-27.55-2.91-47.71-27.7-44.95-55.26l14.47-144.43c.79-7.93,4.67-15.03,10.91-19.98,6.24-4.96,14.03-7.12,21.93-6.11,2.82.36,5.64-.68,7.72-2.86,14.13-14.8,33.89-22.12,54.23-20.08,20.13,2.02,38.36,13.09,50.02,30.38,1.48,2.19,3.83,3.59,6.45,3.86h0l2.21.22c7.79.78,14.81,4.55,19.76,10.63,4.95,6.08,7.23,13.71,6.41,21.51l-15.18,145.42c-1.4,13.43-7.95,25.5-18.44,34-9.08,7.35-20.17,11.26-31.69,11.26Zm-85.25-214.22c-1.99,0-3.91.67-5.5,1.93-1.89,1.51-3.07,3.66-3.31,6.07l-14.47,144.43c-1.65,16.45,10.38,31.24,26.82,32.97l78.45,8.29c8,.85,15.87-1.48,22.13-6.55,6.26-5.07,10.17-12.28,11-20.29l15.18-145.42c.25-2.37-.44-4.68-1.95-6.53-1.5-1.84-3.63-2.99-6-3.23l-2.22-.22c-8.67-.87-16.44-5.51-21.31-12.74-8.26-12.25-21.07-20.09-35.16-21.5-14.04-1.4-27.7,3.65-37.47,13.88-6.51,6.82-15.88,10.18-25.06,8.99-.39-.05-.77-.07-1.16-.07Z"/>
      </g>
      <g>
        <rect class="cls-4" x="879.17" y="624.28" width="95.04" height="139.81" rx="6.71" ry="6.71" transform="translate(73.8 -88.91) rotate(5.72)"/>
        <path class="cls-5" d="m951.91,776.22c-.87,0-1.75-.04-2.63-.13h0l-60.99-6.11c-14.38-1.44-24.91-14.31-23.47-28.69l10.57-105.54c.7-6.97,4.07-13.24,9.49-17.68,5.42-4.43,12.25-6.49,19.21-5.79l60.99,6.11c14.38,1.44,24.91,14.31,23.47,28.69l-10.57,105.54c-1.35,13.5-12.77,23.6-26.06,23.6Zm-.77-18.71c4.13.42,7.84-2.61,8.25-6.75l10.57-105.54c.41-4.14-2.61-7.84-6.75-8.25l-60.99-6.11c-2.01-.2-3.96.39-5.52,1.66-1.56,1.27-2.53,3.08-2.73,5.08l-10.57,105.54c-.41,4.14,2.61,7.84,6.75,8.25l60.99,6.11Z"/>
      </g>
      <g>
        <line class="cls-4" x1="883.13" y1="687.04" x2="969.07" y2="695.65"/>
        <path class="cls-5" d="m969.08,704.98c-.31,0-.63-.01-.94-.05l-85.94-8.61c-5.13-.51-8.87-5.09-8.36-10.22.51-5.13,5.07-8.86,10.22-8.36l85.94,8.61c5.13.51,8.87,5.09,8.36,10.22-.48,4.81-4.54,8.41-9.28,8.41Z"/>
      </g>
      <path class="cls-1" d="m918.53,718.23l-.38,3.77,12.56,1.26.38-3.77c.35-3.47-2.18-6.56-5.65-6.91-3.47-.35-6.56,2.18-6.91,5.65Zm-5.4,3.26l.38-3.77c.63-6.24,6.19-10.8,12.43-10.17,6.24.63,10.8,6.19,10.17,12.43l-.38,3.77,1.26.13c2.77.28,4.8,2.76,4.52,5.53l-1.51,15.07c-.28,2.77-2.76,4.8-5.53,4.52l-25.12-2.52c-2.77-.28-4.8-2.76-4.52-5.53l1.51-15.07c.28-2.77,2.76-4.8,5.53-4.52l1.26.13Z"/>
      <path class="cls-1" d="m941.9,649.75c.34-3.44,3.41-5.95,6.85-5.6,3.44.34,5.95,3.41,5.6,6.85l-.37,3.74c-.14,1.38.86,2.6,2.24,2.74,1.38.14,2.6-.86,2.74-2.24l.37-3.74c.62-6.19-3.9-11.71-10.08-12.33-6.19-.62-11.71,3.9-12.33,10.08l-.37,3.74-17.43-1.75c-2.75-.28-5.2,1.73-5.48,4.48l-1.5,14.94c-.28,2.75,1.73,5.2,4.48,5.48l24.9,2.49c2.75.28,5.2-1.73,5.48-4.48l1.5-14.94c.28-2.75-1.73-5.2-4.48-5.48l-2.49-.25.37-3.74Z"/>
    </g>
    <path class="cls-5" d="m576.63,737.15c-.41,0-.82-.02-1.23-.07-43.49-4.93-54.59-34.61-54.38-49.61.08-5.91,4.9-10.65,10.8-10.65.05,0,.1,0,.15,0,5.92.08,10.67,4.92,10.65,10.83.04,2.56,1.42,24.14,35.21,27.97,5.93.67,10.19,6.02,9.52,11.95-.63,5.51-5.3,9.58-10.72,9.59Z"/>
  </g>
  <path class="cls-3" d="m1133.85,482.55l-35.55-37.6c-1.31-1.38-3.08-2.15-4.98-2.16-1.91.02-3.68.74-5,2.11l-34.97,36.24c-1.54,1.6-2.22,3.86-1.82,6.04l12.47,67.35,2.1,1.06c3.82,1.95,7.06,3.59,9.84,4.99-.54,1.75-.81,3.55-.81,5.36,0,7.66,4.76,14.53,11.8,17.35v119.64h-2.78c-3.81,0-6.9,3.1-6.9,6.9v80.8c-3.4.43-6.04,3.34-6.04,6.85v5.11c0,3.81,3.1,6.9,6.9,6.9h30.53c3.81,0,6.9-3.1,6.9-6.9v-5.11c0-3.51-2.64-6.42-6.03-6.85v-80.8c0-3.81-3.1-6.9-6.9-6.9h-1.88v-119.6c7.1-2.79,11.9-9.67,11.9-17.39,0-1.62-.21-3.21-.62-4.76,2.74-1.25,5.93-2.7,9.64-4.41l2.29-1.04,11.67-67.26c.37-2.13-.3-4.35-1.78-5.92Zm-31.84,61.97v-48.03l23.41-5.09-8.17,47.07-15.25,6.05Zm-18.05-48.42v47.45l-13.62-7.29-8.61-46.47,22.22,6.31Z"/>
</svg>