<?xml version="1.0" encoding="UTF-8"?>
<svg id="Capa_1" data-name="Capa 1" xmlns="http://www.w3.org/2000/svg" viewBox="0 0 1329.83 1318.75">
  <defs>
    <style>
      .cls-1, .cls-2, .cls-3, .cls-4, .cls-5, .cls-6 {
        stroke-width: 0px;
      }

      .cls-2 {
        fill: #0a595b;
      }

      .cls-3 {
        fill: #0fe980;
      }

      .cls-4 {
        fill: #fff;
      }

      .cls-5 {
        fill: #010101;
      }

      .cls-6 {
        fill: #043c40;
      }
    </style>
  </defs>
  <path class="cls-2" d="m179.32,145.63h255.97c13.1,0,23.74,10.64,23.74,23.74v359.03c0,13.1-10.64,23.74-23.74,23.74H141.26c-13.1,0-23.74-10.64-23.74-23.74V207.44c0-34.11,27.7-61.81,61.81-61.81Z"/>
  <rect class="cls-2" x="480.03" y="145.63" width="363.59" height="406.5" rx="23.74" ry="23.74"/>
  <rect class="cls-2" x="480.03" y="575.45" width="363.59" height="266.27" rx="23.74" ry="23.74"/>
  <path class="cls-2" d="m885.58,144.73h273.47c30.95,0,56.07,25.13,56.07,56.07v617.27c0,13.1-10.64,23.74-23.74,23.74h-305.8c-13.1,0-23.74-10.64-23.74-23.74V168.47c0-13.1,10.64-23.74,23.74-23.74Z"/>
  <rect class="cls-2" x="480.03" y="867.86" width="363.59" height="260.26" rx="23.74" ry="23.74"/>
  <path class="cls-2" d="m885.58,867.86h305.8c13.1,0,23.74,10.64,23.74,23.74v169.36c0,37.06-30.09,67.16-67.16,67.16h-262.38c-13.1,0-23.74-10.64-23.74-23.74v-212.78c0-13.1,10.64-23.74,23.74-23.74Z"/>
  <path class="cls-2" d="m141.26,575.42h294.04c13.1,0,23.74,10.64,23.74,23.74v505.14c0,13.1-10.64,23.74-23.74,23.74h-247.75c-38.65,0-70.03-31.38-70.03-70.03v-458.85c0-13.1,10.64-23.74,23.74-23.74Z"/>
  <g>
    <path class="cls-3" d="m296.3,545.15c17.2-21.53,56.43-73.7,56.43-103.01,0-35.54-28.84-64.38-64.38-64.38s-64.38,28.84-64.38,64.38c0,29.31,39.23,81.48,56.43,103.01,4.12,5.13,11.77,5.13,15.89,0h0Zm-7.95-124.47c11.85,0,21.46,9.61,21.46,21.46s-9.61,21.46-21.46,21.46-21.46-9.61-21.46-21.46,9.61-21.46,21.46-21.46Z"/>
    <path class="cls-3" d="m288.35,549.5c-3.24,0-6.28-1.47-8.34-4.03-17-21.28-56.54-73.93-56.54-103.32,0-35.77,29.1-64.88,64.88-64.88s64.88,29.1,64.88,64.88c0,29.38-39.54,82.04-56.54,103.32h0c-2.06,2.56-5.1,4.04-8.34,4.04Zm0-171.23c-35.22,0-63.88,28.66-63.88,63.88,0,29.07,39.39,81.5,56.32,102.69,1.87,2.33,4.62,3.66,7.56,3.66s5.69-1.33,7.56-3.66c16.93-21.19,56.32-73.62,56.32-102.69,0-35.22-28.66-63.88-63.88-63.88Zm0,85.84c-12.11,0-21.96-9.85-21.96-21.96s9.85-21.96,21.96-21.96,21.96,9.85,21.96,21.96-9.85,21.96-21.96,21.96Zm0-42.92c-11.56,0-20.96,9.4-20.96,20.96s9.4,20.96,20.96,20.96,20.96-9.4,20.96-20.96-9.4-20.96-20.96-20.96Z"/>
  </g>
  <g>
    <circle class="cls-4" cx="288.35" cy="440.55" r="41.74"/>
    <path class="cls-1" d="m288.28,484.79c-10.43,0-20.42-3.64-28.47-10.45-9.03-7.63-14.54-18.31-15.53-30.08-2.05-24.31,16.07-45.75,40.37-47.79,11.78-1,23.23,2.66,32.26,10.29s14.54,18.31,15.53,30.08c2.04,24.31-16.07,45.75-40.37,47.79-1.27.11-2.53.16-3.78.16Zm3.36-5.14l.21,2.49-.21-2.49c21.56-1.81,37.62-20.83,35.81-42.39-.88-10.44-5.77-19.92-13.78-26.68-8.01-6.76-18.17-10-28.61-9.13-21.56,1.81-37.62,20.83-35.81,42.39.88,10.44,5.77,19.92,13.78,26.68,8.01,6.76,18.17,10.01,28.61,9.13Z"/>
  </g>
  <path class="cls-5" d="m297.79,434.1c1.84.18,3.57-.99,3.98-2.77l1.5-6.5c.44-1.92-.82-3.82-2.82-4.25-2-.42-3.98.79-4.42,2.71l-1.5,6.5c-.44,1.92.82,3.82,2.82,4.25.15.03.29.05.44.07Z"/>
  <path class="cls-5" d="m274.66,428.54c1.84.18,3.57-.99,3.98-2.77l1.5-6.5c.44-1.92-.82-3.82-2.82-4.25-2-.42-3.98.79-4.42,2.71l-1.5,6.5c-.44,1.92.82,3.82,2.82,4.25.15.03.29.05.44.07Z"/>
  <path class="cls-5" d="m286.62,455.63c1.61-.03,3.02-1.23,3.27-2.91.29-1.88-1.09-3.34-2.94-3.63l-24.53-3.92c-.06-.01-.08-.1-.02-.13,7.27-4.29,12.44-6.85,18.56-9.68,1.7-.79,2.3-2.4,1.53-4.14s-2.78-2.51-4.48-1.72c-8.54,3.95-14.93,7.74-25.52,14.37-1.23.75-1.88,2.2-1.63,3.65.26,1.5,1.43,2.67,2.91,2.9l32.26,5.18c.2.03.4.05.59.04Zm-31.83-12.04s.02,0,.03,0h-.03Z"/>
  <path class="cls-5" d="m291.27,469.16c-1.66,0-3.09-1.35-3.07-3.12.01-1.56,1.31-2.81,2.85-3.03,9.17-1.29,9.59-7.65,9.6-7.71.1-2.02,2.13-3.5,4.22-2.7,1.27.48,2.01,1.82,1.92,3.17-.28,4.06-3.76,11.86-15.1,13.36-.14.02-.27.03-.41.03Z"/>
  <path class="cls-3" d="m964.12,867.97h-456.55c-29.19,0-52.94-23.75-52.94-52.94v-211.39c0-14.29-11.62-25.91-25.91-25.91h-133.27c-6.9,0-12.5-5.6-12.5-12.5s5.6-12.5,12.5-12.5h133.27c28.07,0,50.91,22.84,50.91,50.91v211.39c0,15.41,12.53,27.94,27.94,27.94h456.55c6.9,0,12.5,5.6,12.5,12.5s-5.6,12.5-12.5,12.5Z"/>
  <circle class="cls-3" cx="1005.74" cy="856.92" r="53.97"/>
  <path class="cls-6" d="m1033.4,859.76c1.86,0,3.51-1.53,3.51-3.52.11-.99-.33-1.86-1.21-2.63l-5.76-5.08s-.02-.03-.02-.05v-13.17c0-1.98-1.6-3.58-3.58-3.58h-3.37c-1.98,0-3.58,1.6-3.58,3.58v3.8c0,.06-.07.09-.11.05l-11.56-10.17c-.66-.55-1.53-.77-2.3-.77s-1.64.11-2.41.88l-28.12,24.5c-.83.83-1.15,1.79-1.09,2.88.1,1.85,1.71,3.27,3.56,3.27h3.38s.07.03.07.07v7.57c-.01.1-.01.2-.01.31v12.21c0,2.46,1.99,4.45,4.45,4.45h1.69c.13,0,.26-.01.39-.02.16.01.33.02.49.02h6.06c2.46,0,4.45-1.99,4.45-4.45v-9.51c0-1.98,1.6-3.58,3.58-3.58h6.88c1.98,0,3.58,1.6,3.58,3.58v9.51c0,2.46,1.99,4.45,4.45,4.45h6.13c.15,0,.31,0,.46-.01.12.01.24.01.36.01h1.69c2.46,0,4.45-1.99,4.45-4.45v-1.71c.03-.29.05-.58.05-.89l-.08-17.49s.03-.07.07-.07h3.45Z"/>
</svg>