<?xml version="1.0" encoding="UTF-8"?>
<svg id="Capa_1" data-name="Capa 1" xmlns="http://www.w3.org/2000/svg" viewBox="0 0 1000 1000">
  <defs>
    <style>
      .cls-1 {
        fill: #fff;
      }

      .cls-1, .cls-2, .cls-3 {
        stroke-width: 0px;
      }

      .cls-2 {
        fill: #ffd759;
      }

      .cls-3 {
        fill: #010101;
      }
    </style>
  </defs>
  <polygon class="cls-2" points="238.7 233.9 226 256.54 199 266.07 216.47 287.91 214.88 312.13 242.28 300.61 269.68 314.51 269.28 285.13 289.53 269.24 248.63 254.15 238.7 233.9"/>
  <polygon class="cls-2" points="711.36 274.39 707.69 300.09 685.95 318.72 710.13 332.78 717.39 355.94 738.78 335.31 769.35 338.38 758.37 311.12 762.15 285.26 727.93 289.69 711.36 274.39"/>
  <polygon class="cls-2" points="607.96 57.81 604.28 83.5 582.54 102.14 606.72 116.2 613.98 139.36 635.38 118.73 665.95 121.79 654.96 94.54 658.74 68.68 624.53 73.11 607.96 57.81"/>
  <g>
    <polygon class="cls-1" points="239.39 779.01 239.39 920.39 801.2 920.39 801.2 777.84 758.38 777.84 733.94 835.87 605.51 842.04 292.82 864.37 273.19 779.01 239.39 779.01"/>
    <path class="cls-1" d="m415.7,851.16s-65.87-19.66-94.38-64.88c-28.51-45.22-20.64-103.22-14.75-139.6,5.9-36.37,10.81-52.1,10.81-52.1,0,0-41.29-55.05-65.87-88.48-24.58-33.42-26.54-70.78-6.88-70.78s58,9.83,97.33,46.2c39.32,36.37,52.1,58.99,52.1,58.99,0,0-31.46-131.73-42.27-171.06-10.81-39.32-9.83-64.88,15.73-66.85,25.56-1.97,70.78,22.61,92.41,75.7,21.63,53.09,45.22,111.09,45.22,111.09,0,0,27.53-38.34,27.53-90.44s14.75-105.19,36.37-102.24c21.63,2.95,53.09,31.46,53.09,91.43s-13.76,156.31-13.76,156.31l49.15,37.36s28.51-11.8,50.14-51.12c21.63-39.32,67.83-66.85,81.6-33.42,13.76,33.42,12.78,83.56-14.75,128.78-27.53,45.22-61.93,67.83-61.93,67.83,0,0,10.81,109.12-45.22,134.68-56.04,25.56-41.29,21.63-41.29,21.63l-139.6,10.81-70.78-9.83Z"/>
    <path class="cls-3" d="m521.91,728.32c-5.77-.11-10.81-4.59-11.73-10.85-1.03-7.01,3.5-13.59,10.11-14.69l83.41-13.93c-26.36-16.18-38.93-23.85-61.03-34.48-6.09-2.93-8.78-10.54-6-17,2.78-6.46,9.96-9.34,16.06-6.4,30.57,14.7,53.46,28.82,91.41,53.51,4.4,2.8,6.74,8.19,5.84,13.59-.93,5.6-5.12,9.94-10.42,10.79l-115.54,19.3c-.71.12-1.42.17-2.11.16Zm113.99-44.85s-.08.01-.11.02l.11-.02Z"/>
    <path class="cls-3" d="m605.82,861.36c-8.01,0-14.54-6.47-14.59-14.5-.05-8.06,6.44-14.64,14.5-14.7,34.87-.24,60.87-13.13,77.29-38.32,20.12-30.87,22.83-78.6,6.6-116.06-3.21-7.4.19-15.99,7.59-19.2,7.4-3.21,15.99.19,19.2,7.59,20.22,46.67,16.63,104.37-8.93,143.6-15.19,23.31-45.14,51.19-101.54,51.57h-.1Z"/>
    <path class="cls-3" d="m432.32,868.32c-6.27,0-47.79-1.65-91.87-43.41-41.87-39.67-56.17-82.51-49.36-147.86,2.52-24.2,7.17-39.31,10.57-50.35,4.47-14.51,5.27-17.13-1.07-27.55-7.9-12.98-19.95-29.32-32.7-46.61-12.84-17.41-26.12-35.42-36.32-51.62-14.86-23.6-17.27-48-6.3-63.67,5.66-8.09,19.84-20.64,51.1-13.89,30.08,6.51,65.86,36.58,94.07,66.92-9.75-40.98-22.97-91.59-34.43-114.51-11.63-23.27-9.19-56.24,17.98-74.26,19.72-13.08,50.29-13.77,74.14,14.13,29.61,34.65,53.05,70.8,79.26,142.43,9.77-29.82,13.59-62.12,11.37-96.41-2.23-34.53,13-64.38,37.04-72.59,20.57-7.03,42.53,3.13,58.76,27.16,15.91,23.56,23.75,59.18,23.3,105.87-.39,41.66-7.35,82.61-12.34,106.85,7.84,9.65,26.22,31.91,53.11,62.4,5.04,5.72,5.37,14.52.16,20.08-5.98,6.38-15.98,6.11-21.63-.29-37.2-42.16-57.94-68.27-58.8-69.36l-4.3-5.42,1.47-6.76c15.1-69.18,21.66-157.27-5.18-197.04-4.03-5.97-14.54-19.49-25.12-15.87-9.55,3.26-18.87,19.47-17.34,43.08,3.33,51.53-5.71,99.23-26.85,141.77-.58,1.16-1.02,2.04-1.28,2.62h0c-2.27,5.72-7.89,9.39-14.04,9.19h-.1c-6.16-.2-11.6-4.27-13.53-10.12-33.17-101.44-59.68-137.65-86.16-168.64-11.11-13-24.5-16.28-35.82-8.77-9.56,6.34-16.14,20.58-8,36.87,17.81,35.63,37.38,122.74,46.78,164.6,1.91,8.5,3.71,16.52,4.19,18.13l1.68,4.34c2.61,6.74-.46,14.35-7.02,17.4h0s-.79.36-.79.36c-6.24,2.82-13.6.62-17.26-5.16l-3.13-4.93c-23.17-37-81.43-98.01-116.38-105.57-10.47-2.26-18.53-1.46-21.02,2.1-3.23,4.61-1.84,17.17,7.09,31.37,9.63,15.3,22.58,32.86,35.11,49.86,13.14,17.83,25.56,34.67,34.14,48.76,13.17,21.64,9.14,34.74,4.03,51.32-3.21,10.43-7.21,23.41-9.44,44.78-5.9,56.64,5.05,90.15,40.41,123.64,37.44,35.47,70.37,35.5,71.73,35.42,7.98-.31,14.73,6.05,15,14.11.26,8.06-6.13,14.8-14.18,15.07-.11,0-.36.01-.75.01Z"/>
    <path class="cls-3" d="m717.84,705.54l-15.31-24.85c50.61-31.17,81.22-80.06,83.99-134.12.7-13.58-.63-37.02-17.36-41.37-12.17-3.15-28.1,4.41-32.14,12.61-17.5,35.53-38.87,52.41-59.53,68.73-2.72,2.15-5.45,4.31-8.18,6.52l-18.36-22.69c2.82-2.28,5.64-4.51,8.45-6.73,19.77-15.62,36.85-29.11,51.44-58.73,10.66-21.64,40.74-34.45,65.67-27.96,12.7,3.3,41.95,16.85,39.17,71.11-3.27,63.8-38.93,121.2-97.83,157.48Z"/>
    <path class="cls-3" d="m815.19,934.38H225.4v-169.36h40.83c10.24,0,19.28,7.5,24.47,23.15,2.38,7.17,5.37,15.08,8.49,24.64,3.44,10.54,6.86,21.08,9.23,28.41l124.58-1.05c7.56-.06,14.04,6.14,14.11,13.87.06,7.73-6.15,14.05-13.87,14.11l-145.12,1.23-3.16-9.77c-6.69-20.7-16.73-51.57-21.72-66.6h-9.85v113.4h533.83v-114.57h-18.88l-24.05,69.23h-197.3c-7.31,0-13.83-5.34-14.53-12.62-.79-8.35,5.75-15.36,13.93-15.36h178l15.63-44.99c5.04-14.51,18.71-24.23,34.07-24.23h41.11v170.54Z"/>
    <polygon class="cls-3" points="330.32 855.21 330.32 915.83 237.25 915.83 237.25 779.01 270.98 779.01 302.14 852.65 330.32 855.21"/>
    <polygon class="cls-3" points="700.05 855.21 700.05 915.83 798.24 915.83 798.24 779.01 762.66 779.01 729.78 852.65 700.05 855.21"/>
    <path class="cls-3" d="m479.47,255.74c-53.48,0-111.59-9.35-138.72-30.78-15.23-12.04-21.18-27.97-16.74-44.86,18.57-70.64,142.58-65.88,147.87-65.66,6.43.29,11.41,5.73,11.12,12.16-.28,6.44-5.71,11.55-12.16,11.13-30.68-1.33-112.82,4.72-124.28,48.29-1.4,5.32-1.68,12.47,8.64,20.63,40.04,31.63,177.37,31.82,213.39,12.57,3.29-1.76,13.93-7.93,12.75-13.55-2.4-11.39-34.52-29.44-81.37-32.95-54.94-4.13-84.84,6.15-89.67,11.78.23.36.61.86,1.22,1.5,4.32,4.56,19.52,8.93,49.21,7.47,23.97-1.17,44.81-5.47,47.85-6.61,5.79-2.82,12.57-.34,15.4,5.45,2.83,5.78.23,12.85-5.56,15.68-7.08,3.45-97.35,22.02-123.84-5.97-11.16-11.8-7.77-22.74-5.8-26.9,11.56-24.32,68.06-29.02,112.92-25.66,46.25,3.47,96.29,22.23,102.45,51.39,1.83,8.66,1.07,25.24-24.57,38.93-19.07,10.19-58.17,15.94-100.11,15.94Z"/>
    <path class="cls-3" d="m266.12,331.47c-2.75,0-5.51-.67-8.07-2.02l-16.69-8.91-16.64,8.89c-5.86,3.1-12.78,2.62-18.12-1.21-5.28-3.79-8-10.38-6.93-16.8l3.24-19.18-13.67-13.53c-4.62-4.58-6.26-11.28-4.26-17.5,2.01-6.25,7.3-10.73,13.81-11.71l18.7-2.76,8.4-17.29c2.94-5.98,8.85-9.67,15.46-9.67s12.62,3.8,15.46,9.69l8.39,17.27,18.7,2.76c6.48.97,11.75,5.42,13.8,11.62,2.06,6.23.43,12.98-4.24,17.59l-13.66,13.52,3.25,19.16c1.08,6.49-1.55,12.91-6.86,16.78-3,2.19-6.52,3.3-10.07,3.3Zm-51.75-60.7l13.55,13.4-3.17,18.8,16.62-8.87,16.61,8.87-3.19-18.79,13.55-13.4-18.72-2.76-8.27-17.01-8.27,17.01-18.7,2.76Zm66.1,1.79h.05-.05Zm-44.66-32.96s0,.01,0,.02v-.02Z"/>
    <path class="cls-3" d="m617.7,155.01c-.88,0-1.76-.07-2.65-.2-6.41-.98-11.82-5.62-13.78-11.82l-5.8-18.59-18.31-5.88c-6.19-1.97-10.69-7.22-11.72-13.68-1.04-6.46,1.65-12.86,7-16.67l15.44-10.94-.33-19.21c-.09-6.65,3.51-12.62,9.4-15.62,5.84-2.96,12.96-2.31,18.16,1.64l15.31,11.6,17.92-6c6.21-2.05,12.94-.48,17.56,4.11,4.66,4.62,6.26,11.37,4.19,17.61l-6.06,18.24,11.57,15.62c3.91,5.31,4.46,12.22,1.47,18.07-2.95,5.78-8.8,9.35-15.31,9.35h-.27l-18.93-.39-10.82,15.45c-3.3,4.67-8.51,7.33-14.05,7.33Zm-21.72-54.95l18.15,5.82,5.68,18.2,10.8-15.43,18.83.39-11.35-15.32,6.01-18.09-17.94,6.01-15.07-11.43.33,18.91-15.43,10.93Zm-11.72-3.76h.03s-.02,0-.03,0Z"/>
    <path class="cls-3" d="m722.37,372.17c-.88,0-1.76-.07-2.65-.2-6.42-.98-11.83-5.63-13.78-11.83l-5.8-18.59-18.32-5.88c-6.19-1.97-10.69-7.22-11.72-13.68-1.02-6.38,1.73-12.93,7.02-16.68l15.42-10.93-.33-19.22c-.09-6.67,3.52-12.64,9.42-15.62,5.82-2.96,12.95-2.32,18.15,1.64l15.31,11.6,17.92-6c6.21-2.06,12.93-.49,17.56,4.11,4.67,4.65,6.26,11.39,4.18,17.62l-6.06,18.23,11.57,15.62c3.91,5.31,4.46,12.22,1.47,18.07-3,5.86-9.15,9.39-15.58,9.35l-18.93-.39-10.82,15.45c-3.3,4.67-8.51,7.33-14.05,7.33Zm-21.72-54.94l18.14,5.82,5.68,18.19,10.8-15.43,18.83.39-11.35-15.32,6.01-18.09-17.94,6.01-15.07-11.43.33,18.91-15.43,10.93Zm-11.72-3.76h.03s-.02,0-.03,0Zm63.72-32.32s0,0,0,.02v-.02Z"/>
    <g>
      <path class="cls-3" d="m502.16,648.29c-2.39,0-4.79-.73-6.87-2.25l-57.8-42.22c-5.2-3.8-6.34-11.09-2.54-16.29,3.8-5.2,11.09-6.34,16.29-2.54l57.8,42.22c5.2,3.8,6.34,11.09,2.54,16.29-2.28,3.12-5.83,4.78-9.42,4.78Z"/>
      <path class="cls-3" d="m450.92,656.08c-2.39,0-4.79-.73-6.87-2.25-5.2-3.8-6.34-11.09-2.54-16.29l42.22-57.8c3.8-5.2,11.09-6.34,16.29-2.54,5.2,3.8,6.34,11.09,2.54,16.29l-42.22,57.8c-2.28,3.12-5.83,4.78-9.42,4.78Z"/>
    </g>
    <g>
      <path class="cls-3" d="m599.69,627.42c-2.02,0-4.07-.52-5.94-1.64l-61.54-36.55c-5.54-3.29-7.36-10.44-4.07-15.98,3.29-5.53,10.44-7.36,15.98-4.07l61.54,36.55c5.54,3.29,7.36,10.44,4.07,15.98-2.18,3.67-6.05,5.71-10.04,5.71Z"/>
      <path class="cls-3" d="m546.06,653.93c-1.84,0-3.7-.44-5.44-1.36-5.69-3.01-7.87-10.07-4.85-15.76l39.91-75.44c3.01-5.69,10.08-7.86,15.76-4.85,5.69,3.01,7.87,10.07,4.85,15.76l-39.91,75.44c-2.09,3.95-6.13,6.21-10.32,6.21Z"/>
    </g>
  </g>
</svg>