<?xml version="1.0" encoding="UTF-8"?>
<svg id="Capa_1" data-name="Capa 1" xmlns="http://www.w3.org/2000/svg" viewBox="0 0 1000 1000">
  <defs>
    <style>
      .cls-1 {
        fill: #9240f4;
      }

      .cls-1, .cls-2, .cls-3 {
        stroke-width: 0px;
      }

      .cls-2 {
        fill: #fff;
      }

      .cls-3 {
        fill: #010101;
      }
    </style>
  </defs>
  <path class="cls-1" d="m491.62,234.37c-178.71,0-323.59,144.88-323.59,323.59,0,79.09,28.39,151.55,75.52,207.76-2.61,28.3-13.63,53.48-25.24,72.75-6.66,10.93-13.19,19.73-18.07,25.67-2.49,3.09-4.52,5.35-5.82,6.77-.71.83-1.19,1.31-1.54,1.66l-.36.36c-5.35,5.47-7.01,13.55-4.04,20.68,2.97,7.13,9.86,11.77,17.59,11.77,34.11,0,68.46-10.58,96.98-22.94,21.83-9.49,40.91-20.42,54.93-29.7,40.74,18.5,85.99,28.81,133.64,28.81,178.71,0,323.59-144.88,323.59-323.59s-144.88-323.59-323.59-323.59Z"/>
  <g>
    <circle class="cls-2" cx="485.33" cy="556.94" r="200.69"/>
    <g>
      <path class="cls-1" d="m236.46,334.64s-36.97-36.25-80.73-20.02c-43.77,16.23-36,83.9-36,83.9l11.9,9.39,64.83-11.59,8.54,38.52-70.01,41.15s12.78,40.08,37.66,41.88c24.89,1.79,90.23-29.24,90.23-29.24l13.94-52.25,402.99-156.59s39.35,54.35,91.94,37.31c52.59-17.04,56.35-55.28,56.35-55.28l-13.99-39.79-58.21,17.74-32.04-56.09,69.96-22.47-12.48-38.87s-68.76-45.41-97.52,1.36c-28.76,46.77-33.74,85.29-33.74,85.29l-405.08,139.71-8.5-14.07Z"/>
      <path class="cls-3" d="m796.89,108.41l-6.49-2.83c-45.1-19.64-81.56-20.58-108.39-2.77-31.09,20.64-38.57,60.16-40.36,79.38l-141.62,59.91-245.4,86.34c-22.75-26.55-47.8-39.47-74.59-38.41-52.37,2.06-88.91,58.35-90.44,60.75l-4.21,6.59,25.74,68.49,65.97-19.15,7.42,20.19-71.89,25.54,20.25,63.39,6.49,2.83c36.97,16.1,68.13,19.63,92.94,10.57,5.46-1.99,10.61-4.59,15.45-7.8,31.09-20.64,38.57-60.15,40.36-79.39l101.33-40.7,285.69-105.54c22.75,26.55,47.8,39.47,74.59,38.41,8.64-.34,16.85-2.16,24.55-4.97,38.93-14.21,64.62-53.78,65.89-55.78l4.21-6.59-25.74-68.48-65.97,19.15-7.42-20.19,71.89-25.54-20.25-63.39Zm-18.74,44.07l-73.15,25.99,28.39,77.21,66.17-19.21,9.87,26.25c-9.48,12.36-33.2,39.2-61.02,40.25-18.77.7-37.44-11.05-55.49-34.92l-6.81-9.01-418.9,157.72-9.88,4.01.07,10.64c0,.46,0,46.2-27.03,64.04-16.32,10.78-40.55,9.85-72.07-2.75l-6.69-20.93,73.15-25.99-28.39-77.21-66.17,19.21-9.86-26.25c9.48-12.36,33.19-39.2,61.02-40.25,18.77-.7,37.44,11.05,55.49,34.92l6.81,9.01,418.89-157.72,9.88-4.01-.07-10.64c0-.46,0-46.2,27.03-64.04,16.33-10.77,40.55-9.84,72.08,2.75l6.69,20.93Z"/>
      <g>
        <path class="cls-2" d="m601.3,702.98s73.32-39.15,79.01-96.81c5.69-57.66,1.42-55.52,1.42-55.52,0,0,76.17-49.12,87.56-108.91,11.39-59.79,2.85-91.83-23.49-90.4-26.34,1.42-68.34,58.37-88.98,87.56-20.64,29.19-24.2,14.24-24.2,14.24l-49.83-64.78,3.74-218.71-64.02-10.67-39,190.71-22.44-73.09-84.71-.71,2.85,88.98-22.07,7.12-49.12-101.08-31.32-4.98c-14.24,22.78-16.37,71.9-16.37,71.9,0,0,38.44,116.03,32.74,144.5-5.69,28.47-19.22,95.39,5.69,142.37,24.91,46.98,92.41,82.33,92.41,82.33"/>
        <line class="cls-2" x1="471.03" y1="722.2" x2="526.3" y2="717.04"/>
      </g>
      <g>
        <path class="cls-3" d="m458.84,501.02c-6.68.67-12.95-3.75-14.44-10.47l-5.43-24.51c-1.61-7.25,2.96-14.42,10.21-16.03,7.25-1.58,14.42,2.96,16.03,10.21l5.43,24.51c1.61,7.25-2.96,14.42-10.21,16.03-.53.12-1.06.2-1.59.26Z"/>
        <path class="cls-3" d="m542.71,480.05c-6.68.67-12.95-3.75-14.44-10.47l-5.43-24.51c-1.61-7.25,2.96-14.42,10.21-16.03,7.25-1.58,14.42,2.96,16.03,10.21l5.43,24.51c1.61,7.25-2.96,14.42-10.21,16.03-.53.12-1.06.2-1.59.26Z"/>
        <path class="cls-3" d="m499.36,582.23c-5.85-.11-10.95-4.65-11.88-10.99-1.04-7.1,3.54-13.76,10.24-14.88l84.47-14.11c-26.7-16.39-39.42-24.15-61.8-34.92-6.17-2.97-8.89-10.68-6.08-17.22,2.81-6.54,10.09-9.46,16.26-6.48,30.96,14.89,54.14,29.19,92.57,54.19,4.46,2.83,6.83,8.29,5.92,13.77-.94,5.67-5.18,10.06-10.55,10.93l-117.01,19.55c-.72.12-1.44.17-2.14.16Zm115.44-45.43s-.08.01-.12.02l.12-.02Z"/>
        <path class="cls-3" d="m303.32,487.11c3.92-15.84,6.29-26.78-1.58-48.43-3.25-8.96-6.9-18.36-10.77-28.3-10.99-28.29-23.45-60.36-27.96-86.88-2.85-16.71,8.32-34.77,19.82-39.15,2.6-.99,8.67-3.31,15.34,7.33,25.99,41.48,38.15,70.6,51.03,101.42,3.15,7.53,6.3,15.09,9.67,22.83,6.82,15.7,15.92,16.09,22.35,13.68,11.9-4.46,10.26-17.52,9.57-23.1,0-.07-.7-5.51-1.33-8.36-.18-2.94.63-12.58,1.34-21.12,2.99-35.66,7.99-95.33-9.43-130.19-8.74-17.45,3.13-31.71,13.22-37.04,6.02-3.18,21.15-8.55,31.56,10.17,11.78,21.2,13.58,28.64,18.41,48.51,3.93,16.22,9.89,40.73,24.67,85.9,2,5.89,7.51,9.95,13.72,10.13l10.47.2,3.82-9.6c.15-.39.41-.96.73-1.7,22.87-52.65,24.81-107.89,22.41-144.97-1.49-23.27,8.83-39.26,19.79-43,9.15-3.13,19.56,2.7,28.52,15.97,27.18,40.27,20.53,129.48,5.25,199.55l-1.49,6.84,4.34,5.49c.87,1.1,21.87,27.55,59.55,70.25,5.4,6.12,14.75,6.7,20.87,1.3,6.13-5.4,6.71-14.75,1.3-20.87-27.46-31.13-46.23-53.86-54.21-63.68,5.06-24.53,12.11-66.01,12.5-108.21.45-47.28-7.49-83.35-23.61-107.21-16.75-24.83-40.14-35.08-62.59-27.4-25.59,8.74-41.93,38.71-39.72,72.88,1.57,24.4,1.13,57.36-6.95,91.56-5.27-18.26-8.33-30.83-10.66-40.42-5.05-20.77-7.58-31.19-21.3-55.89-15.06-27.1-44.32-36.13-71.19-21.97-32.93,17.38-37.91,52.34-25.87,76.42,10.62,21.24,10.17,60,8.24,90.53-9.73-21.71-21.68-45.5-39.93-74.63-12.06-19.25-31.58-26.63-50.93-19.25-25.77,9.82-43.37,42.67-38.43,71.73,5.01,29.47,18.06,63.02,29.56,92.62,3.8,9.79,7.39,19.03,10.53,27.68,5,13.77,4.02,17.75.36,32.51m115.1-83.34c-.07-.28-.12-.52-.19-.72.07.21.13.44.19.72Z"/>
        <path class="cls-3" d="m697.79,559.16l-15.51-25.17c51.25-31.57,82.25-81.07,85.06-135.82.71-13.75-.64-37.49-17.59-41.89-12.3-3.19-28.46,4.47-32.55,12.76-17.73,36-39.37,53.09-60.3,69.62-2.75,2.17-5.51,4.35-8.27,6.59l-18.6-22.98c2.85-2.31,5.7-4.56,8.55-6.8,20.03-15.82,37.33-29.48,52.1-59.48,10.79-21.91,41.25-34.88,66.51-28.31,12.87,3.35,42.48,17.06,39.67,72.02-3.31,64.61-39.42,122.74-99.08,159.48Z"/>
      </g>
      <path class="cls-1" d="m827.61,263.88s-3.76,38.25-56.36,55.3c-52.58,17.04-91.92-37.32-91.92-37.32l-287.46,103.17c-2.34-4.25-9.79-4.14-13.53-8.84-11.28-14.19-16.37-30.56-28.38-49.48-3.35-5.29-7.54.62-10.45-4.54l310.07-111.1s4.99-38.52,33.74-85.29c28.78-46.76,97.54-1.37,97.54-1.37l12.48,38.88-69.97,22.45,32.05,56.1,58.21-17.75,13.99,39.79Z"/>
      <path class="cls-3" d="m819.93,199.18l-65.93,19.2-7.35-19.94,71.9-25.57-19.99-62.62-6.46-2.77c-44.96-19.26-81.36-20.03-108.23-2.33-31.13,20.55-38.74,59.66-40.61,78.7l-141.65,59.83-172.09,60.56-17.94,6.32c1.77,3.03,3.58,6.19,5.43,9.45,2.92,5.16,9.25,9.02,12.32,14.48l334.72-125.7,9.87-4.01-.02-10.52c0-.47.18-45.71,27.23-63.46,16.34-10.72,40.52-9.88,71.97,2.43l6.59,20.7-73.16,25.98,28.05,76.28,66.17-19.26,9.74,25.91c-9.53,12.28-33.3,38.91-61.1,40.07-18.74.77-37.33-10.77-55.27-34.35l-6.76-8.89-310.99,115.65c2.91,5.25,5.61,10.08,7.95,14.32,2.47,4.44,4.56,8.22,6.2,11.18l22.84-9.18,262.89-95.56c22.6,26.19,47.56,38.86,74.33,37.7,8.62-.37,16.83-2.19,24.53-4.99,38.91-14.22,64.72-53.48,66.02-55.44l4.22-6.53-25.44-67.65Z"/>
      <path class="cls-2" d="m452.89,300.96c12.42-30.98,13.82-97.63-23.46-120.04-37.27-22.41-117.56,9.61-84.9,113.97,1.08,3.46,23.05-5.98,31.38-8.6,2.55-.81,5.77,23.45,17.41,18.57l59.57-3.91Z"/>
      <path class="cls-3" d="m419.82,329.07c-3.11,0-6.22-.28-9.3-.87-23.49-4.46-38.94-24.68-41.34-54.08-.66-8.14,5.39-15.27,13.53-15.94,8.15-.65,15.27,5.4,15.93,13.53.75,9.16,4,24.9,17.39,27.44,10.64,2.02,23.23-5.04,28.65-16.07,8.57-17.45,4.92-47.38-8.15-66.72-9.13-13.52-20.98-19.84-35.23-18.78-19.32,1.44-33.52,8.07-42.21,19.7-11.37,15.22-13.7,40.24-6.75,72.37,1.73,7.98-3.34,15.85-11.32,17.57-7.96,1.73-15.84-3.34-17.57-11.32-8.94-41.32-4.92-73.73,11.96-96.32,13.84-18.52,35.87-29.42,63.69-31.49,24.86-1.85,46.86,9.4,61.93,31.71,18.98,28.09,23.36,69.5,10.18,96.31-9.88,20.11-30.51,32.94-51.4,32.94Z"/>
    </g>
    <path class="cls-3" d="m490.62,772.9c-57.65,0-112.1-22.83-153.32-64.28-41.15-41.38-63.81-95.95-63.81-153.67,0-20.14,6.12-65.78,11.29-84.2,2.28-8.11,10.7-12.85,18.82-10.57,8.12,2.28,12.85,10.7,10.57,18.82-4.46,15.89-10.15,58.49-10.15,75.96,0,49.6,19.51,96.53,54.93,132.15,35.45,35.65,82.21,55.28,131.68,55.28s97.51-19.33,131.91-54.44c35.46-36.19,54.38-86.44,53.27-141.5-.17-8.43,6.52-15.4,14.95-15.57,8.48-.19,15.4,6.52,15.57,14.95,1.28,63.33-20.73,121.39-61.99,163.49-40.19,41.01-94.78,63.6-153.71,63.6Z"/>
  </g>
</svg>