<?xml version="1.0" encoding="UTF-8"?>
<svg id="Capa_1" data-name="Capa 1" xmlns="http://www.w3.org/2000/svg" viewBox="0 0 1000 1000">
  <defs>
    <style>
      .cls-1, .cls-2, .cls-3, .cls-4, .cls-5 {
        stroke-width: 0px;
      }

      .cls-2 {
        fill: #606060;
      }

      .cls-3 {
        fill: #b2b2b2;
      }

      .cls-4 {
        fill: #fff;
      }

      .cls-5 {
        fill: #f4f4f4;
      }
    </style>
  </defs>
  <g>
    <path class="cls-5" d="m652.24,106.84h-264.23c-135.02,15.37-241.43,186.11-241.43,394.46s103.02,373.61,234.96,393.59h277.18l-.04.06c131.94-19.98,235-187.75,235-392.76s-106.41-379.09-241.43-394.46h-39.74c-32.87,3.74-64.04,16.66-92.38,37.11-88.12,63.56-149.05,199.69-149.05,357.35s60.93,293.79,149.05,357.35c24.93,17.95,52.01,30.14,80.54,35.35"/>
    <path class="cls-1" d="m658.67,910.14c-.46,0-.92-.02-1.38-.06h-56.34c-.18,0-.37,0-.56,0h-218.85c-.76,0-1.52-.06-2.27-.17-141.31-21.39-247.87-197.06-247.87-408.6,0-103.19,25.69-201.76,72.34-277.56,47.46-77.12,112.3-123.99,182.57-131.99.57-.07,1.14-.1,1.72-.1h264.23c2.48,0,4.82.6,6.89,1.65,68.27,9.66,131.1,56.11,177.39,131.32,46.65,75.79,72.34,174.37,72.34,277.57,0,211.07-106.58,386.38-247.91,407.77-.76.12-1.52.17-2.28.17Zm-56.61-30.44h55.84c59.03-9.5,113.94-51.91,154.75-119.59,42.46-70.4,65.84-162,65.84-257.93,0-197.74-99.7-364.09-227.13-379.27h-37.98c-29.34,3.49-57.72,15.01-84.38,34.24-86.72,62.55-142.75,197.98-142.75,345.03s56.03,282.48,142.75,345.04c23.22,16.72,47.8,27.64,73.06,32.48Zm-219.35,0h140.08c-3.88-2.48-7.73-5.09-11.55-7.84-95.84-69.13-155.36-210.78-155.36-369.67s59.53-300.54,155.35-369.66c5.2-3.75,10.47-7.26,15.8-10.5h-138.14c-127.43,15.19-227.13,181.53-227.13,379.27,0,95.99,23.38,187.74,65.83,258.36,40.93,68.08,95.98,110.67,155.11,120.05Z"/>
  </g>
  <path class="cls-1" d="m538.94,910.07h-52.69c-.76,0-1.52-.06-2.27-.17-141.31-21.39-247.87-197.06-247.87-408.6,0-103.19,25.69-201.76,72.34-277.56,47.46-77.12,112.3-123.99,182.57-131.99.57-.07,1.14-.1,1.72-.1h39.74c8.39,0,15.19,6.8,15.19,15.19s-6.8,15.19-15.19,15.19h-38.86c-127.43,15.19-227.13,181.53-227.13,379.27,0,95.99,23.38,187.74,65.83,258.36,40.93,68.08,95.98,110.67,155.11,120.05h51.52c8.39,0,15.19,6.8,15.19,15.19s-6.8,15.19-15.19,15.19Z"/>
  <g>
    <path class="cls-3" d="m626.01,734.54c-17.82-2.72-34.75-10.14-50.24-21.41-51.53-37.55-87.16-117.98-87.16-211.12s35.63-173.57,87.16-211.12c16.58-12.08,34.8-19.72,54.02-21.93h23.24c78.96,9.08,141.18,109.94,141.18,233.04s-60.24,220.73-137.39,232.53h-30.81Z"/>
    <path class="cls-1" d="m656.82,749.73h-30.81c-.77,0-1.53-.06-2.29-.17-19.91-3.04-39.05-11.17-56.88-24.14-57.62-41.99-93.41-127.59-93.41-223.4s35.79-181.41,93.4-223.39c19.13-13.94,39.74-22.27,61.23-24.74.58-.07,1.16-.1,1.73-.1h23.24c.58,0,1.16.03,1.74.1,88.15,10.14,154.63,116.81,154.63,248.13s-64.61,234.44-150.29,247.54c-.76.12-1.53.17-2.3.17Zm-29.61-30.37h28.41c69.29-11.51,123.41-106.64,123.41-217.35s-55.67-208.98-126.9-217.86h-21.43c-15.93,1.98-31.39,8.38-45.98,19.01-49.15,35.82-80.92,113.88-80.92,198.85s31.76,163.02,80.92,198.85c13.52,9.84,27.82,16.07,42.49,18.5Z"/>
  </g>
  <path class="cls-1" d="m478.37,842.53h-51.14c-8.39,0-15.19-6.8-15.19-15.19s6.8-15.19,15.19-15.19h51.14c8.39,0,15.19,6.8,15.19,15.19s-6.8,15.19-15.19,15.19Z"/>
  <path class="cls-1" d="m303.69,842.53h-37.8c-8.39,0-15.19-6.8-15.19-15.19s6.8-15.19,15.19-15.19h37.8c8.39,0,15.19,6.8,15.19,15.19s-6.8,15.19-15.19,15.19Z"/>
  <path class="cls-1" d="m531.69,890.34h-51.14c-8.39,0-15.19-6.8-15.19-15.19s6.8-15.19,15.19-15.19h51.14c8.39,0,15.19,6.8,15.19,15.19s-6.8,15.19-15.19,15.19Z"/>
  <path class="cls-1" d="m357.01,890.34h-37.8c-8.39,0-15.19-6.8-15.19-15.19s6.8-15.19,15.19-15.19h37.8c8.39,0,15.19,6.8,15.19,15.19s-6.8,15.19-15.19,15.19Z"/>
  <path class="cls-1" d="m438.86,788.34h-51.14c-8.39,0-15.19-6.8-15.19-15.19s6.8-15.19,15.19-15.19h51.14c8.39,0,15.19,6.8,15.19,15.19s-6.8,15.19-15.19,15.19Z"/>
  <path class="cls-1" d="m264.19,788.34h-37.8c-8.39,0-15.19-6.8-15.19-15.19s6.8-15.19,15.19-15.19h37.8c8.39,0,15.19,6.8,15.19,15.19s-6.8,15.19-15.19,15.19Z"/>
  <path class="cls-1" d="m405.48,721.57h-51.14c-8.39,0-15.19-6.8-15.19-15.19s6.8-15.19,15.19-15.19h51.14c8.39,0,15.19,6.8,15.19,15.19s-6.8,15.19-15.19,15.19Z"/>
  <path class="cls-1" d="m230.8,721.57h-37.8c-8.39,0-15.19-6.8-15.19-15.19s6.8-15.19,15.19-15.19h37.8c8.39,0,15.19,6.8,15.19,15.19s-6.8,15.19-15.19,15.19Z"/>
  <path class="cls-1" d="m383.16,652h-51.14c-8.39,0-15.19-6.8-15.19-15.19s6.8-15.19,15.19-15.19h51.14c8.39,0,15.19,6.8,15.19,15.19s-6.8,15.19-15.19,15.19Z"/>
  <path class="cls-1" d="m208.48,652h-37.8c-8.39,0-15.19-6.8-15.19-15.19s6.8-15.19,15.19-15.19h37.8c8.39,0,15.19,6.8,15.19,15.19s-6.8,15.19-15.19,15.19Z"/>
  <path class="cls-1" d="m369.67,573.29h-51.14c-8.39,0-15.19-6.8-15.19-15.19s6.8-15.19,15.19-15.19h51.14c8.39,0,15.19,6.8,15.19,15.19s-6.8,15.19-15.19,15.19Z"/>
  <path class="cls-1" d="m195,573.29h-37.8c-8.39,0-15.19-6.8-15.19-15.19s6.8-15.19,15.19-15.19h37.8c8.39,0,15.19,6.8,15.19,15.19s-6.8,15.19-15.19,15.19Z"/>
  <path class="cls-1" d="m369.24,491.88h-51.14c-8.39,0-15.19-6.8-15.19-15.19s6.8-15.19,15.19-15.19h51.14c8.39,0,15.19,6.8,15.19,15.19s-6.8,15.19-15.19,15.19Z"/>
  <path class="cls-1" d="m194.56,491.88h-37.8c-8.39,0-15.19-6.8-15.19-15.19s6.8-15.19,15.19-15.19h37.8c8.39,0,15.19,6.8,15.19,15.19s-6.8,15.19-15.19,15.19Z"/>
  <path class="cls-1" d="m377.08,417h-51.14c-8.39,0-15.19-6.8-15.19-15.19s6.8-15.19,15.19-15.19h51.14c8.39,0,15.19,6.8,15.19,15.19s-6.8,15.19-15.19,15.19Z"/>
  <path class="cls-1" d="m202.4,417h-37.8c-8.39,0-15.19-6.8-15.19-15.19s6.8-15.19,15.19-15.19h37.8c8.39,0,15.19,6.8,15.19,15.19s-6.8,15.19-15.19,15.19Z"/>
  <path class="cls-1" d="m393.18,343.41h-51.14c-8.39,0-15.19-6.8-15.19-15.19s6.8-15.19,15.19-15.19h51.14c8.39,0,15.19,6.8,15.19,15.19s-6.8,15.19-15.19,15.19Z"/>
  <path class="cls-1" d="m218.51,343.41h-37.8c-8.39,0-15.19-6.8-15.19-15.19s6.8-15.19,15.19-15.19h37.8c8.39,0,15.19,6.8,15.19,15.19s-6.8,15.19-15.19,15.19Z"/>
  <path class="cls-1" d="m417.13,272.01h-51.14c-8.39,0-15.19-6.8-15.19-15.19s6.8-15.19,15.19-15.19h51.14c8.39,0,15.19,6.8,15.19,15.19s-6.8,15.19-15.19,15.19Z"/>
  <path class="cls-1" d="m242.45,272.01h-37.8c-8.39,0-15.19-6.8-15.19-15.19s6.8-15.19,15.19-15.19h37.8c8.39,0,15.19,6.8,15.19,15.19s-6.8,15.19-15.19,15.19Z"/>
  <path class="cls-1" d="m451.96,215.42h-51.14c-8.39,0-15.19-6.8-15.19-15.19s6.8-15.19,15.19-15.19h51.14c8.39,0,15.19,6.8,15.19,15.19s-6.8,15.19-15.19,15.19Z"/>
  <path class="cls-1" d="m277.28,215.42h-37.8c-8.39,0-15.19-6.8-15.19-15.19s6.8-15.19,15.19-15.19h37.8c8.39,0,15.19,6.8,15.19,15.19s-6.8,15.19-15.19,15.19Z"/>
  <path class="cls-1" d="m496.66,173.53h-51.14c-8.39,0-15.19-6.8-15.19-15.19s6.8-15.19,15.19-15.19h51.14c8.39,0,15.19,6.8,15.19,15.19s-6.8,15.19-15.19,15.19Z"/>
  <path class="cls-1" d="m321.98,173.53h-37.8c-8.39,0-15.19-6.8-15.19-15.19s6.8-15.19,15.19-15.19h37.8c8.39,0,15.19,6.8,15.19,15.19s-6.8,15.19-15.19,15.19Z"/>
  <path class="cls-1" d="m550.21,138.46h-51.14c-8.39,0-15.19-6.8-15.19-15.19s6.8-15.19,15.19-15.19h51.14c8.39,0,15.19,6.8,15.19,15.19s-6.8,15.19-15.19,15.19Z"/>
  <path class="cls-1" d="m375.54,138.46h-37.8c-8.39,0-15.19-6.8-15.19-15.19s6.8-15.19,15.19-15.19h37.8c8.39,0,15.19,6.8,15.19,15.19s-6.8,15.19-15.19,15.19Z"/>
  <g>
    <path class="cls-2" d="m496.83,430.84s149.8,22.02,149.8-146.35c0,0-9.32,142.28,129.69,156.09,0,0-91.52,108.59-57.4,238,0,0-109.12-93.41-163.82,1.29,0,0,43.76-161.89-58.27-249.03Z"/>
    <path class="cls-1" d="m555.09,695.06c-1.95,0-3.92-.38-5.82-1.17-7.04-2.93-10.82-10.63-8.83-17.99.41-1.51,39.91-153.77-53.47-233.52-5.15-4.4-6.76-11.67-3.96-17.83,2.79-6.15,9.32-9.74,16-8.75.89.12,56.06,7.37,94.18-25.73,24.32-21.12,37.15-54.6,38.2-99.57-.05-4.3.09-6.83.1-7.02.52-8.01,7.18-14.19,15.15-14.19.17,0,.34,0,.5,0,8.19.27,14.69,6.99,14.69,15.18,0,3.08-.05,6.11-.14,9.11.53,28.5,10.44,121.37,116.15,131.88,5.61.56,10.45,4.18,12.57,9.4,2.12,5.22,1.17,11.19-2.46,15.5-.85,1.01-85.96,104.38-54.33,224.34,1.69,6.43-.99,13.21-6.61,16.74-5.63,3.54-12.9,3-17.95-1.32-.51-.44-52.65-44.29-97.23-36.6-17.91,3.09-32.16,14.19-43.57,33.95-2.79,4.82-7.87,7.59-13.16,7.59Zm67.35-72.79c27.91,0,55.08,11.7,74.99,23.15-9.21-86.83,29.49-159.61,52.1-193.81-57.9-13.3-87.52-49.75-102.62-85.32-8.09,18.65-19.45,34.33-34.05,46.94-25.92,22.39-56.78,30.33-80.48,32.78,28.91,36.71,45.04,84.91,47.04,141.48.6,17.02-.13,32.85-1.41,46.57,8.8-5.22,18.4-8.73,28.77-10.5,5.22-.89,10.46-1.3,15.67-1.3Z"/>
  </g>
  <g>
    <path class="cls-4" d="m638.38,581.78c-5.63-.86-10.99-3.2-15.88-6.77-16.29-11.87-27.55-37.29-27.55-66.73s11.26-54.86,27.55-66.73c5.24-3.82,11-6.23,17.08-6.93h7.35c24.96,2.87,44.63,34.75,44.63,73.66s-19.04,69.77-43.43,73.5h-9.74Z"/>
    <path class="cls-1" d="m648.12,596.97h-9.74c-.77,0-1.53-.06-2.29-.17-7.95-1.21-15.53-4.41-22.52-9.5-20.85-15.2-33.8-45.47-33.8-79.01s12.95-63.82,33.79-79.01c7.52-5.48,15.69-8.76,24.29-9.75.57-.07,1.15-.1,1.73-.1h7.35c.58,0,1.16.03,1.74.1,33.11,3.81,58.08,41.96,58.08,88.75s-24.21,83.6-56.32,88.51c-.76.12-1.53.17-2.3.17Zm-8.4-30.37h7.06c14.41-3.07,29.59-25.79,29.59-58.32s-15.61-56.08-30.46-58.48h-5.32c-3.07.49-6.14,1.84-9.14,4.02-12.75,9.29-21.31,31.17-21.31,54.46s8.56,45.17,21.31,54.46c2.71,1.97,5.49,3.27,8.27,3.86Z"/>
  </g>
</svg>