<?xml version="1.0" encoding="UTF-8"?>
<svg id="Capa_1" data-name="Capa 1" xmlns="http://www.w3.org/2000/svg" viewBox="0 0 1000 1000">
  <defs>
    <style>
      .cls-1, .cls-2, .cls-3 {
        stroke-width: 0px;
      }

      .cls-2 {
        fill: #fff;
      }

      .cls-3 {
        fill: #010101;
      }
    </style>
  </defs>
  <path class="cls-2" d="m373.08,864.22l-11.31,7.59s-87.45-26.1-125.3-86.14c-37.85-60.04-27.41-137.04-19.58-185.33,7.83-48.29,14.36-69.17,14.36-69.17,0,0-54.82-73.09-87.45-117.46-32.63-44.38-35.24-93.97-9.14-93.97s77,13.05,129.21,61.34c52.21,48.29,69.17,78.31,69.17,78.31,0,0-41.77-174.89-56.12-227.1-14.36-52.21-13.05-86.14,20.88-88.75,33.93-2.61,93.97,30.02,122.69,100.5,28.71,70.48,60.04,147.48,60.04,147.48,0,0,36.54-50.9,36.54-120.07s19.58-139.65,48.29-135.74c28.71,3.92,70.48,41.77,70.48,121.38s-18.27,207.52-18.27,207.52l65.26,49.6s37.85-15.66,66.56-67.87c28.71-52.21,90.06-88.75,108.33-44.38,18.27,44.38,16.97,110.94-19.58,170.98-36.54,60.04-82.23,90.06-82.23,90.06,0,0,14.36,144.87-60.04,178.81-74.39,33.93-54.82,28.71-54.82,28.71l-11.62-1.94-85.17,18.25-11.54-3.26-77,1.31,9.46,2.82-92.12-23.47Z"/>
  <g>
    <path class="cls-1" d="m840.97,364.74c-33.1-8.62-73.03,8.39-87.19,37.11-19.37,39.32-42.04,57.23-68.29,77.97-1.28,1.01-2.56,2.02-3.84,3.04-19.87-23.15-33.88-40.16-41.13-49.07,6.63-32.17,15.86-86.54,16.39-141.85.59-61.98-9.82-109.27-30.94-140.56-21.54-31.91-50.7-45.39-78.01-36.06-31.91,10.9-52.13,50.53-49.17,96.37,2.94,45.52-2.13,88.4-15.1,128-34.8-95.1-65.92-143.1-105.22-189.1-31.67-37.05-72.26-36.13-98.44-18.77-36.07,23.91-39.31,67.69-23.87,98.58,15.21,30.42,32.76,97.61,45.71,152.02-37.45-40.28-84.95-80.21-124.89-88.84-41.51-8.97-60.32,7.7-67.84,18.44-14.57,20.8-11.36,53.19,8.36,84.52,13.55,21.51,31.17,45.42,48.22,68.54,16.93,22.96,32.92,44.65,43.41,61.88,8.43,13.84,7.35,17.31,1.42,36.57-4.51,14.65-10.69,34.71-14.03,66.84-9.04,86.77,9.94,143.64,65.53,196.3,22.26,21.09,48.07,39.14,77.47,48.62,35.49,11.44,74.89,17.1,112.06,18.34,40.63,1.36,81.48.81,121.83-4.63,3.63-.49,7.25-1.02,10.87-1.59,53.62-8.45,118.69-25.47,155.85-67.84,19.28-21.98,29.92-50.53,34.3-79.44,3.91-25.78,3.05-52.23-2.25-77.76,72.77-48.36,116.62-121.88,120.79-203.24,3.69-72.05-35.14-90.02-52-94.41Zm13.3,92.43c-3.34,65.29-37.29,124.89-93.97,166.28-.61-1.49-1.23-2.98-1.87-4.46-.92-2.12-1.9-4.26-3.05-6.28-1.35-2.36-2.94-4.55-4.97-6.35-10.08-8.93-29.1-1.94-31,11.39-1.05,7.38,2.3,14.58,5.15,21.47,13.6,32.93,17,69.99,9.6,104.84-4.7,22.13-13.99,43.83-29.99,59.82-17.87,17.86-42.47,27.17-66.79,34.06-62.04,17.57-126.58,21.45-190.71,16.95-28.72-2.02-57.56-5.65-85.19-14-27.8-8.4-51.37-22.72-72.74-42.34-47.62-43.74-61.48-88.96-53.65-164.15,2.95-28.37,8.27-45.6,12.53-59.45,6.78-22.01,12.13-39.4-5.35-68.13-11.39-18.7-27.87-41.06-45.32-64.73-16.64-22.56-33.83-45.88-46.62-66.19-11.86-18.84-13.7-35.52-9.41-41.64,3.31-4.73,14-5.79,27.9-2.79,46.41,10.03,123.76,91.03,154.51,140.15l5.19,9.41c4.63,8.4,14.94,11.83,24.04,7.71,8.58-3.99,12.72-13.83,9.59-22.76l-3.62-10.31c-.64-2.14-3.03-12.8-5.57-24.08-12.48-55.58-38.46-171.23-62.11-218.53-10.81-21.62-2.07-40.53,10.62-48.95,15.03-9.97,32.81-5.62,47.56,11.64,35.16,41.14,70.36,89.21,114.39,223.89,2.57,7.77,9.79,13.17,18.1,13.44,8.16.26,15.61-4.62,18.63-12.21.34-.77.93-1.93,1.7-3.48,28.07-56.48,40.06-119.8,35.65-188.22-2.03-31.35,10.34-52.87,23.02-57.2,14.06-4.81,28,13.13,33.35,21.06,35.64,52.79,26.92,169.74,6.88,261.59l-1.96,8.97,5.7,7.2c1.15,1.45,28.67,36.11,78.07,92.09,7.5,8.5,20.78,8.85,28.71.39,6.92-7.38,6.48-19.07-.21-26.66-1.33-1.51-2.64-3-3.94-4.48.81-.64,1.61-1.28,2.42-1.91,27.43-21.67,55.8-44.08,79.03-91.25,5.36-10.88,26.51-20.92,42.67-16.74,22.21,5.78,23.98,36.89,23.05,54.92Z"/>
    <g>
      <path class="cls-3" d="m430.92,578.28c1.95,8.8,10.17,14.59,18.92,13.72.69-.07,1.39-.18,2.09-.34,9.5-2.11,15.49-11.51,13.39-21.01l-7.12-32.13c-2.11-9.5-11.51-15.46-21.01-13.39-9.5,2.11-15.49,11.51-13.39,21.01l7.12,32.13Z"/>
      <path class="cls-3" d="m540.88,550.79c1.95,8.8,10.17,14.59,18.92,13.72.69-.07,1.39-.18,2.09-.34,9.5-2.11,15.49-11.51,13.39-21.01l-7.12-32.12c-2.11-9.5-11.51-15.46-21.01-13.39-9.5,2.11-15.49,11.51-13.39,21.01l7.12,32.12Z"/>
      <path class="cls-3" d="m665.24,640.25c-50.38-32.78-80.76-51.52-121.35-71.04-8.09-3.9-17.63-.08-21.32,8.5-3.69,8.58-.12,18.69,7.97,22.58,29.34,14.11,46.02,24.29,81.02,45.78l-110.73,18.5c-8.78,1.47-14.79,10.2-13.43,19.51,1.22,8.31,7.9,14.26,15.57,14.4.92.02,1.86-.05,2.8-.21l153.4-25.63c7.04-1.14,12.59-6.9,13.83-14.33,1.19-7.18-1.91-14.33-7.76-18.05Z"/>
      <path class="cls-3" d="m483.01,735.34c-47.35-5.39-49.11-34.94-49.17-38.18.05-9.97-7.73-18.2-17.52-18.81l-1.27-.07c-10.21,0-18.63,8.3-18.78,18.52-.31,22.96,16.52,68.38,82.39,75.84.76.11,1.51.15,2.24.15,9.55,0,17.58-7.17,18.65-16.7,1.16-10.26-6.26-19.58-16.54-20.74Z"/>
    </g>
  </g>
</svg>