<?xml version="1.0" encoding="UTF-8"?>
<svg id="Capa_1" data-name="Capa 1" xmlns="http://www.w3.org/2000/svg" viewBox="0 0 1000 1000">
  <defs>
    <style>
      .cls-1 {
        fill: #fff;
      }

      .cls-1, .cls-2 {
        stroke-width: 0px;
      }

      .cls-2 {
        fill: #010101;
      }
    </style>
  </defs>
  <g>
    <path class="cls-1" d="m374.41,796.02l8.54-101.57s-75.99-20.49-110.01-71.37c-34.02-50.89-26.79-117.52-21.15-159.33,5.64-41.81,10.78-59.97,10.78-59.97,0,0-48.95-61.75-78.1-99.25-29.15-37.51-32.55-80.2-10.04-80.81,22.5-.6,66.69,9.48,112.81,49.91,46.12,40.43,61.44,65.92,61.44,65.92,0,0-40.04-149.82-53.62-194.49-13.58-44.68-13.24-73.96,15.96-77,29.2-3.03,81.71,23.71,108.09,83.81,26.38,60.1,55.16,125.77,55.16,125.77,0,0,30.33-44.73,28.74-104.36-1.6-59.64,13.66-120.85,38.5-118.14,24.85,2.71,61.73,34.38,63.56,103.02,1.84,68.64-10.97,179.33-10.97,179.33l57.41,41.25s32.27-14.38,55.82-60.05c23.55-45.67,77.92-62.06,94.7-24.22,16.78,37.84,14.86,78.72-15.27,131.32-30.12,52.6-68.81,79.54-68.81,79.54,0,0,15.72,124.57-47.64,155.54-63.36,30.97-46.6,26.02-46.6,26.02l51.26,69.46-49.84,53.09-94.52-108.8-66.36,2.9-15.11,108.5-74.75-16.02Z"/>
    <g>
      <path class="cls-2" d="m447.44,468.22c-7.53.95-14.75-3.85-16.63-11.39l-6.88-27.53c-2.03-8.14,2.91-16.39,11.06-18.42,8.14-2.01,16.39,2.91,18.42,11.06l6.88,27.53c2.03,8.14-2.91,16.39-11.06,18.42-.6.15-1.2.26-1.79.34Z"/>
      <path class="cls-2" d="m541.6,441.98c-7.53.95-14.75-3.85-16.63-11.39l-6.88-27.53c-2.03-8.14,2.91-16.39,11.06-18.42,8.14-2,16.39,2.91,18.42,11.06l6.88,27.53c2.03,8.14-2.91,16.39-11.06,18.42-.6.15-1.2.26-1.79.34Z"/>
      <path class="cls-2" d="m495.7,558.77c-6.61.06-12.51-4.92-13.75-12.06-1.39-7.99,3.59-15.66,11.13-17.13l95.04-18.5c-30.67-17.71-45.28-26.11-70.91-37.6-7.06-3.16-10.37-11.8-7.39-19.28,2.98-7.48,11.12-10.99,18.18-7.82,35.45,15.89,62.07,31.36,106.26,58.45,5.13,3.07,7.97,9.16,7.1,15.38-.89,6.44-5.55,11.53-11.59,12.67l-131.66,25.63c-.81.16-1.62.24-2.41.24Zm129.1-54.83s-.09.02-.13.02l.13-.02Z"/>
      <path class="cls-2" d="m549.78,927.46l-197.67,5.29c-10.56.28-18.9-8.9-17.61-19.38l26.06-211.95c1-8.1,7.53-14.64,15.67-15.04,10.69-.53,18.8,8.6,17.55,18.74l-23.82,193.73,142.69-3.82-89.57-37.71,18.7-150.18c1.26-10.13,11.33-17.02,21.58-13.89,7.81,2.39,12.55,10.33,11.54,18.44l-15.52,124.65,64.07,26.97c14,5.89,23.46,19.2,24.43,34.36l1.9,29.8Z"/>
      <path class="cls-2" d="m834.81,737.64l-128.55,146.59-186.88-161.29c-6.77-5.84-7.51-16.07-1.67-22.83,5.8-6.81,16.07-7.51,22.83-1.67l162.56,140.29,85.53-97.54-3.56-2.98-87.83,48.2-81.91-86.39c-6-6.63-5.49-16.84,1.14-22.87,6.63-6,16.86-5.49,22.86,1.14l64.75,67.43,65.99-36.21c11.35-6.23,25.37-4.86,35.29,3.46l29.44,24.67Z"/>
      <path class="cls-2" d="m372.31,792.57c2.79-.78,77.18-2.06,77.18-2.06,0,0-9.25,47.99,1.28,47.71,10.53-.28,74.01,36.64,74.01,36.64l.84,31.58-174.75,4.67,21.44-118.54Z"/>
      <path class="cls-2" d="m625.26,772.34c1.15-2.55,41.08-54.71,41.08-54.71,0,0,34.71,43.94,41.04,35.95,6.33-8,73.76-43.41,73.76-43.41l23.99,18.99-105.09,132.76-74.77-89.57Z"/>
      <path class="cls-2" d="m779.4,263.26c-28.74-6.66-62.77,8.92-74.31,34.01-15.79,34.35-34.92,50.31-57.08,68.79-1.08.9-2.16,1.8-3.24,2.71-17.66-19.5-30.14-33.85-36.59-41.36,4.98-27.89,11.68-74.98,10.86-122.68-.92-53.45-10.99-93.98-29.92-120.47-19.3-27.01-44.76-37.96-68.08-29.29-27.26,10.13-43.78,44.77-40.17,84.22,3.59,39.18.2,76.26-10.06,110.7-32.2-81.19-60.13-121.85-95.08-160.6-28.15-31.21-63.13-29.48-85.3-13.91-30.55,21.45-32.33,59.27-18.3,85.54,13.82,25.88,30.5,83.4,42.91,130.01-33.22-33.86-75.09-67.19-109.72-73.71-35.99-6.77-51.83,8.03-58.06,17.46-12.08,18.27-8.57,46.12,9.16,72.68,12.17,18.23,27.92,38.44,43.15,57.97,15.12,19.4,29.41,37.73,38.85,52.35,7.58,11.73,6.74,14.75,2.07,31.5-3.55,12.73-8.41,30.17-10.56,57.95-5.79,75.01,11.89,123.61,61.03,167.73,51.73,46.45,99.31,47.07,106.48,46.88.45-.01.74-.03.86-.03,9.21-.55,16.32-8.46,15.77-17.68-.55-9.22-8.48-16.29-17.6-15.7-1.56.13-39.25,1.11-83.19-38.34-41.49-37.25-55.05-75.27-50.03-140.28,1.89-24.52,6.07-39.5,9.43-51.54,5.34-19.14,9.55-34.25-6.19-58.61-10.25-15.86-24.97-34.76-40.56-54.76-14.86-19.06-30.22-38.78-41.71-55.99-10.66-15.97-12.63-30.31-9.08-35.68,2.74-4.15,11.94-5.32,23.99-3.05,40.24,7.58,108.79,75.63,136.44,117.27l.05.08c4.66,6.99,13.76,9.46,21.32,5.8h0l.16-.08c7.47-3.72,11.07-12.36,8.47-20.28l-.02-.07c-.6-1.83-2.91-10.96-5.35-20.63-12.05-47.63-37.11-146.73-58.59-186.97-9.82-18.39-2.73-34.9,8.02-42.44,12.73-8.94,28.16-5.6,41.27,8.94,31.26,34.66,62.71,75.29,103.78,190.38,2.39,6.64,8.74,11.13,15.8,11.17h.12c7.04.04,13.36-4.34,15.78-10.95.27-.68.76-1.69,1.38-3.04,22.9-49.34,31.78-104.21,26.39-163.09-2.47-26.98,7.7-45.82,18.53-49.84,12.01-4.47,24.44,10.68,29.24,17.39,31.94,44.69,27.12,145.72,11.96,225.37l-1.48,7.78,5.08,6.07c1.02,1.22,25.55,30.47,69.43,77.59,6.66,7.15,18.12,7.16,24.76-.33,5.8-6.53,5.14-16.59-.8-22.98-1.18-1.27-2.35-2.52-3.5-3.77.68-.57,1.36-1.14,2.04-1.71,23.15-19.31,47.09-39.29,66.03-80.49,4.37-9.5,22.38-18.65,36.4-15.41,19.28,4.47,21.52,31.25,21.14,46.82-1.35,55.35-28.28,106.64-74.62,143.5-.64-1.49-1.3-2.97-1.98-4.45-3.89-8.37-13.84-12-22.2-8.1-8.37,3.9-11.99,13.84-8.1,22.2,19.73,42.38,18.08,97.09-4,133.04-18.01,29.33-47.38,44.88-87.29,46.22-9.23.31-16.45,8.04-16.14,17.27.31,9.19,7.97,16.39,17.15,16.14.04,0,.08,0,.12,0,64.55-2.17,97.97-34.99,114.65-62.14,21.59-35.15,27.93-82.42,18.52-126.41,60.31-43.35,95.62-107.05,97.31-176.47,1.52-62.2-32.37-76.8-47.01-80.19Z"/>
      <path class="cls-2" d="m501.44,728.75c-11.19.3-23.06-.67-40.8-3.14-9.14-1.27-15.52-9.72-14.25-18.86,1.28-9.15,9.72-15.54,18.86-14.25,32.64,4.55,40.44,3.54,71.93-1.97,9.08-1.59,17.75,4.49,19.34,13.58,1.59,9.09-4.49,17.75-13.58,19.35-17.64,3.09-29.16,4.96-41.5,5.29Z"/>
    </g>
  </g>
  <path class="cls-2" d="m492.89,584.71c-37.09-.7-47.16-36.64-61.35-37.39-14.19-.75-23.25,41.13-.1,59.89,20.77,16.82,56.91,14.55,67.6,6.32s11.13-28.5-6.14-28.83Z"/>
</svg>