<?xml version="1.0" encoding="UTF-8"?>
<svg id="Capa_1" data-name="Capa 1" xmlns="http://www.w3.org/2000/svg" viewBox="0 0 1000 1000">
  <defs>
    <style>
      .cls-1, .cls-2, .cls-3, .cls-4 {
        stroke-width: 0px;
      }

      .cls-2 {
        fill: #0fe980;
      }

      .cls-3 {
        fill: #fff;
      }

      .cls-4 {
        fill: #010101;
      }
    </style>
  </defs>
  <g>
    <path class="cls-2" d="m518.13,874.04c79.8-99.87,261.8-341.91,261.8-477.87,0-164.89-133.78-298.67-298.67-298.67S182.6,231.29,182.6,396.17c0,135.96,182,378,261.8,477.87,19.13,23.8,54.6,23.8,73.73,0h0Zm-36.87-577.42c54.98,0,99.56,44.57,99.56,99.56s-44.57,99.56-99.56,99.56-99.56-44.57-99.56-99.56,44.57-99.56,99.56-99.56Z"/>
    <path class="cls-2" d="m481.27,894.67c-15.16,0-29.39-6.88-39.04-18.89-78.9-98.75-262.41-343.15-262.41-479.61,0-166.22,135.23-301.45,301.45-301.45s301.45,135.23,301.45,301.45c0,136.47-183.51,380.86-262.41,479.61h0c-9.65,12.01-23.88,18.89-39.04,18.89Zm0-794.38c-163.15,0-295.88,132.73-295.88,295.89,0,134.71,182.66,377.85,261.19,476.13,8.58,10.68,21.23,16.81,34.69,16.8,13.46,0,26.1-6.12,34.69-16.8h0c78.53-98.28,261.19-341.42,261.19-476.13,0-163.15-132.73-295.89-295.88-295.89Zm0,398.22c-56.43,0-102.34-45.91-102.34-102.34s45.91-102.34,102.34-102.34,102.34,45.91,102.34,102.34-45.91,102.34-102.34,102.34Zm0-199.11c-53.36,0-96.77,43.41-96.77,96.77s43.41,96.77,96.77,96.77,96.77-43.41,96.77-96.77-43.41-96.77-96.77-96.77Z"/>
  </g>
  <g>
    <circle class="cls-3" cx="481.27" cy="388.77" r="193.63"/>
    <path class="cls-1" d="m480.92,596.33c-48.92,0-95.79-17.08-133.59-49.02-42.35-35.78-68.23-85.9-72.88-141.14-4.65-55.25,12.5-108.99,48.27-151.34,35.78-42.34,85.9-68.23,141.14-72.88,55.24-4.68,108.99,12.49,151.34,48.27,42.35,35.78,68.23,85.9,72.88,141.14,4.65,55.25-12.5,108.99-48.27,151.34-35.77,42.34-85.9,68.23-141.14,72.88-5.93.5-11.86.74-17.75.74Zm.65-387.28c-5.1,0-10.23.21-15.37.65-47.83,4.02-91.23,26.44-122.21,63.11-30.98,36.67-45.82,83.21-41.8,131.04,4.02,47.84,26.43,91.24,63.1,122.22,36.67,30.97,83.2,45.84,131.04,41.8,98.74-8.31,172.32-95.4,164.01-194.14-4.02-47.84-26.43-91.24-63.1-122.22-32.73-27.64-73.32-42.44-115.67-42.44Z"/>
  </g>
  <path class="cls-4" d="m525.05,358.85c8.54.82,16.56-4.62,18.47-12.87l6.95-30.14c2.05-8.91-3.79-17.74-13.06-19.71-9.27-1.95-18.45,3.64-20.5,12.56l-6.95,30.14c-2.05,8.91,3.79,17.74,13.06,19.71.68.14,1.36.25,2.04.32Z"/>
  <path class="cls-4" d="m417.76,333.06c8.54.82,16.56-4.62,18.47-12.87l6.95-30.14c2.05-8.91-3.79-17.74-13.06-19.71-9.27-1.94-18.45,3.64-20.5,12.56l-6.95,30.14c-2.05,8.91,3.79,17.74,13.06,19.71.68.14,1.36.25,2.04.32Z"/>
  <path class="cls-4" d="m471.83,459.11c7.48.19,14.24-5.1,15.76-12.84,1.71-8.66-4.4-15.69-12.9-17.44l-112.88-23.14c-.29-.06-.33-.46-.07-.6,34.57-18.39,59.04-29.24,88-41.13,8.04-3.3,11.16-10.68,7.92-18.87-3.24-8.2-12.39-12.18-20.43-8.87-40.37,16.57-70.74,32.85-121.2,61.43-5.85,3.23-9.17,9.81-8.3,16.59.9,7.02,6.08,12.65,12.89,14.02l148.48,30.54c.91.19,1.83.29,2.73.31Zm-145.09-62.25s.1.02.15.03l-.15-.03Z"/>
  <path class="cls-4" d="m494.83,521.47c-7.71,0-14.32-6.25-14.25-14.47.06-7.22,6.07-13.04,13.22-14.04,42.54-5.99,44.51-35.48,44.52-35.78.47-9.37,9.9-16.22,19.56-12.54,5.87,2.24,9.32,8.45,8.88,14.72-1.32,18.85-17.45,55.04-70.05,61.99-.63.08-1.26.13-1.89.13Z"/>
</svg>