<svg width="1494" height="1000" viewBox="0 0 1494 1000" fill="none" xmlns="http://www.w3.org/2000/svg">
<path d="M371.27 453.22C371.27 453.22 311.03 436.88 309.67 499.51L345.87 496.05L371.27 453.22Z" fill="#ACF6C3"/>
<path d="M1179.32 358.91H1353.22C1356.44 358.91 1358.34 362.52 1356.52 365.18L1332.08 400.69" fill="#ACF6C3"/>
<path d="M1332.07 410.45C1330.16 410.45 1328.24 409.89 1326.55 408.73C1322.11 405.67 1320.99 399.6 1324.04 395.16L1342.27 368.67H1179.32C1173.93 368.67 1169.56 364.3 1169.56 358.91C1169.56 353.52 1173.93 349.15 1179.32 349.15H1353.22C1358.35 349.15 1363.01 351.97 1365.4 356.51C1367.79 361.05 1367.46 366.49 1364.56 370.71L1340.12 406.23C1338.23 408.98 1335.18 410.46 1332.07 410.46V410.45Z" fill="#010101"/>
<path d="M473.52 783.13C479.02 754.96 506.95 668.81 533.75 659.88C560.55 650.95 596.27 635.83 638.87 644.76C681.47 653.69 733.98 692.98 733.98 692.98L776.88 787.02L473.51 783.12L473.52 783.13Z" fill="#010101"/>
<path d="M1060.49 784.69C1065.99 756.52 1096.23 668.81 1123.02 659.87C1149.82 650.94 1185.54 635.82 1228.14 644.75C1270.74 653.68 1323.25 692.97 1323.25 692.97L1343.58 786.29L1060.48 784.68L1060.49 784.69Z" fill="#010101"/>
<path d="M542.72 894.89C596.976 894.89 640.96 850.907 640.96 796.65C640.96 742.394 596.976 698.41 542.72 698.41C488.463 698.41 444.48 742.394 444.48 796.65C444.48 850.907 488.463 894.89 542.72 894.89Z" fill="#010101"/>
<path d="M602.82 895.5L542.26 894.78C542.26 894.78 552.08 882.8 575.85 884.25" fill="#010101"/>
<path d="M257.7 894.89C311.956 894.89 355.94 850.907 355.94 796.65C355.94 742.394 311.956 698.41 257.7 698.41C203.444 698.41 159.46 742.394 159.46 796.65C159.46 850.907 203.444 894.89 257.7 894.89Z" fill="#010101"/>
<path d="M866.05 894.89C920.307 894.89 964.29 850.907 964.29 796.65C964.29 742.394 920.307 698.41 866.05 698.41C811.794 698.41 767.81 742.394 767.81 796.65C767.81 850.907 811.794 894.89 866.05 894.89Z" fill="#010101"/>
<path d="M1151.72 894.89C1205.98 894.89 1249.96 850.907 1249.96 796.65C1249.96 742.394 1205.98 698.41 1151.72 698.41C1097.46 698.41 1053.48 742.394 1053.48 796.65C1053.48 850.907 1097.46 894.89 1151.72 894.89Z" fill="#010101"/>
<path d="M418.57 787.56C418.57 841.81 374.59 885.79 320.34 885.79C266.09 885.79 222.11 841.81 222.11 787.56C222.11 784.21 222.29 780.87 222.62 777.61H418.06C418.4 780.87 418.57 784.21 418.57 787.56Z" fill="#163C40"/>
<path d="M320.34 895.55C260.8 895.55 212.35 847.11 212.35 787.56C212.35 783.92 212.54 780.23 212.92 776.6L213.83 767.85H426.87L427.77 776.61C428.14 780.25 428.33 783.93 428.33 787.56C428.33 847.11 379.89 895.55 320.34 895.55ZM231.87 787.37V787.56C231.87 836.35 271.56 876.03 320.34 876.03C369.12 876.03 408.81 836.34 408.81 787.56V787.37H231.86H231.87Z" fill="#010101"/>
<path d="M360.52 787.56C360.52 809.75 342.53 827.73 320.34 827.73C298.15 827.73 280.16 809.76 280.16 787.56C280.16 784.12 280.59 780.78 281.4 777.61H359.28C360.1 780.79 360.52 784.12 360.52 787.56Z" fill="#163C40"/>
<path d="M320.34 837.48C292.8 837.48 270.4 815.08 270.4 787.56C270.4 783.35 270.92 779.18 271.95 775.18L273.83 767.85H366.85L368.73 775.18C369.76 779.18 370.28 783.35 370.28 787.56C370.28 815.09 347.88 837.48 320.34 837.48ZM289.91 787.36V787.55C289.91 804.32 303.56 817.96 320.34 817.96C337.12 817.96 350.76 804.32 350.76 787.55V787.36H289.91Z" fill="#010101"/>
<path d="M1022.37 787.56C1022.37 841.81 978.39 885.79 924.14 885.79C869.89 885.79 825.91 841.81 825.91 787.56C825.91 784.21 826.09 780.87 826.42 777.61H1021.86C1022.2 780.87 1022.37 784.21 1022.37 787.56Z" fill="#163C40"/>
<path d="M924.14 895.55C864.6 895.55 816.15 847.11 816.15 787.56C816.15 783.92 816.34 780.23 816.72 776.6L817.63 767.85H1030.67L1031.57 776.61C1031.95 780.26 1032.14 783.94 1032.14 787.56C1032.14 847.11 983.7 895.55 924.15 895.55H924.14ZM835.67 787.37V787.56C835.67 836.35 875.36 876.03 924.14 876.03C972.92 876.03 1012.61 836.34 1012.61 787.56V787.37H835.66H835.67Z" fill="#010101"/>
<path d="M964.33 787.56C964.33 809.75 946.34 827.73 924.15 827.73C901.96 827.73 883.97 809.76 883.97 787.56C883.97 784.12 884.4 780.78 885.21 777.61H963.09C963.91 780.79 964.33 784.12 964.33 787.56Z" fill="#163C40"/>
<path d="M924.14 837.48C896.6 837.48 874.2 815.08 874.2 787.56C874.2 783.35 874.72 779.18 875.75 775.18L877.63 767.85H970.65L972.53 775.18C973.56 779.18 974.08 783.34 974.08 787.56C974.08 815.09 951.68 837.48 924.14 837.48ZM893.71 787.36V787.55C893.71 804.32 907.36 817.96 924.14 817.96C940.92 817.96 954.56 804.32 954.56 787.55V787.36H893.71Z" fill="#010101"/>
<path d="M345.87 496.05C345.87 496.05 423.74 359.02 567.77 359.02H1200.59C1310.37 359.02 1399.38 448.03 1399.38 557.83V724.61C1399.38 753.31 1376.1 776.59 1347.4 776.59H1333.93C1334.11 773.64 1334.34 769.95 1334.34 768.78C1334.34 699.41 1278.1 643.17 1208.73 643.17C1139.36 643.17 1083.11 699.41 1083.11 768.78C1083.11 771.41 1083.2 774.01 1083.36 776.59H769.43C743.46 776.59 724.05 772.58 724.05 749.93C724.05 691.9 667.81 643.18 598.44 643.18C529.07 643.18 473.1 699.67 473.1 763.16C473.1 781.36 456.6 784.68 438.26 784.68H121.25C88.4301 784.68 61.8201 758.07 61.8201 725.25V633.19C61.8201 590.97 90.3801 554.1 131.28 543.54L305.21 498.66L625.04 497.25" fill="#ACF6C3"/>
<path d="M438.26 794.43H121.25C83.1001 794.43 52.0601 763.39 52.0601 725.24V633.18C52.0601 586.5 83.6301 545.76 128.83 534.09L303.94 488.9L338.85 488.75C344.14 480.07 363.41 450.33 396.22 420.33C447.08 373.83 506.4 349.26 567.77 349.26H1200.59C1315.58 349.26 1409.14 442.82 1409.14 557.82V724.6C1409.14 758.64 1381.44 786.34 1347.4 786.34H1323.57L1324.24 775.28C1324.37 773.15 1324.59 769.59 1324.59 768.78C1324.59 704.9 1272.62 652.93 1208.74 652.93C1144.86 652.93 1092.87 704.9 1092.87 768.78C1092.87 771.09 1092.95 773.51 1093.1 775.98L1093.74 786.34H769.43C752.93 786.34 714.29 786.34 714.29 749.92C714.29 724.65 702.44 700.6 680.92 682.2C658.84 663.32 629.55 652.93 598.45 652.93C535.8 652.93 482.87 703.41 482.87 763.15C482.87 783.9 467.86 794.43 438.27 794.43H438.26ZM306.46 508.4L133.71 552.98C97.1201 562.42 71.5701 595.4 71.5701 633.18V725.24C71.5701 752.63 93.8501 774.91 121.24 774.91H438.25C463.34 774.91 463.34 767.83 463.34 763.15C463.34 692.82 525.21 633.41 598.44 633.41C671.67 633.41 733.8 685.67 733.8 749.92C733.8 759.17 736.48 766.83 769.42 766.83H1073.35C1074.4 693.09 1134.72 633.42 1208.72 633.42C1282.72 633.42 1343.02 693.09 1344.07 766.83H1347.38C1370.66 766.83 1389.6 747.89 1389.6 724.61V557.83C1389.6 453.59 1304.8 368.78 1200.57 368.78H567.75C456.1 368.78 385.02 455.92 362.26 488.65L624.97 487.49H625.01C630.38 487.49 634.74 491.83 634.77 497.2C634.79 502.59 630.44 506.98 625.06 507L306.45 508.4H306.46Z" fill="#010101"/>
<path d="M1396.85 698.47H67.06C61.67 698.47 57.3 694.1 57.3 688.71C57.3 683.32 61.67 678.95 67.06 678.95H1396.85C1402.24 678.95 1406.61 683.32 1406.61 688.71C1406.61 694.1 1402.24 698.47 1396.85 698.47Z" fill="#010101"/>
<path d="M157.02 723.3H274.45C279.93 723.3 284.38 727.75 284.38 733.23V784.26H147.1V733.23C147.1 727.75 151.55 723.3 157.03 723.3H157.02Z" fill="white"/>
<path d="M294.13 794.01H137.33V740.91C137.33 725.82 149.61 713.54 164.7 713.54H266.76C281.85 713.54 294.13 725.82 294.13 740.91V794.01ZM156.85 774.49H274.62V740.9C274.62 736.57 271.1 733.05 266.77 733.05H164.71C160.38 733.05 156.86 736.57 156.86 740.9V774.49H156.85Z" fill="#010101"/>
<path d="M308.72 508.31C303.52 508.31 299.19 504.2 298.98 498.96C298.93 497.72 297.96 468.42 318.81 451.59C333.16 440 353.51 437.51 379.27 444.19C384.49 445.54 387.62 450.87 386.27 456.08C384.92 461.3 379.59 464.42 374.38 463.08C354.93 458.04 340.36 459.28 331.08 466.77C318.01 477.33 318.48 497.94 318.49 498.15C318.71 503.53 314.53 508.08 309.14 508.3C309 508.3 308.87 508.3 308.73 508.3L308.72 508.31Z" fill="#010101"/>
<path d="M314.58 582.93C310.83 584.94 278.77 625.13 352.17 625.13C425.57 625.13 461.48 579.19 446.69 533.25C446.69 533.25 372.57 551.82 314.58 582.93Z" fill="white"/>
<path d="M352.17 634.89C318.67 634.89 299.58 626.49 295.41 609.93C291.37 593.87 304.64 577.19 309.96 574.34C368.35 543.02 441.24 524.56 444.31 523.79L453.17 521.57L455.97 530.27C463.38 553.29 459.82 576.45 445.95 595.48C427.7 620.53 393.51 634.9 352.15 634.9L352.17 634.89ZM320.01 591.09C317.63 593.55 312.79 601.24 314.51 605.73C316.3 610.39 327.14 615.37 352.16 615.37C387.21 615.37 415.64 603.93 430.18 583.97C438.48 572.58 441.69 559.11 439.54 545.27C418.02 551.29 364.04 567.61 320 591.09H320.01Z" fill="#010101"/>
<path d="M427.21 794.12C380.27 794.12 352.24 768.71 352.24 726.15V630.47C352.24 625.08 356.61 620.71 362 620.71C367.39 620.71 371.76 625.08 371.76 630.47V726.15C371.76 766.2 401.92 774.6 427.21 774.6C432.6 774.6 436.97 778.97 436.97 784.36C436.97 789.75 432.6 794.12 427.21 794.12Z" fill="#010101"/>
<path d="M933.03 603.15H878.67C873.28 603.15 868.91 598.78 868.91 593.39C868.91 588 873.28 583.63 878.67 583.63H933.03C938.42 583.63 942.79 588 942.79 593.39C942.79 598.78 938.42 603.15 933.03 603.15Z" fill="#010101"/>
<path d="M603.75 885.8C658.006 885.8 701.99 841.816 701.99 787.56C701.99 733.303 658.006 689.32 603.75 689.32C549.494 689.32 505.51 733.303 505.51 787.56C505.51 841.816 549.494 885.8 603.75 885.8Z" fill="white"/>
<path d="M603.75 895.55C544.2 895.55 495.76 847.1 495.76 787.56C495.76 728.02 544.21 679.57 603.75 679.57C663.29 679.57 711.74 728.02 711.74 787.56C711.74 847.1 663.29 895.55 603.75 895.55ZM603.75 699.08C554.96 699.08 515.27 738.77 515.27 787.56C515.27 836.35 554.96 876.04 603.75 876.04C652.54 876.04 692.23 836.35 692.23 787.56C692.23 738.77 652.54 699.08 603.75 699.08Z" fill="#010101"/>
<path d="M603.75 827.74C625.941 827.74 643.93 809.751 643.93 787.56C643.93 765.369 625.941 747.38 603.75 747.38C581.559 747.38 563.57 765.369 563.57 787.56C563.57 809.751 581.559 827.74 603.75 827.74Z" fill="#ACF6C3"/>
<path d="M603.75 837.49C576.22 837.49 553.82 815.09 553.82 787.56C553.82 760.03 576.22 737.63 603.75 737.63C631.28 737.63 653.68 760.03 653.68 787.56C653.68 815.09 631.28 837.49 603.75 837.49ZM603.75 757.14C586.98 757.14 573.33 770.79 573.33 787.56C573.33 804.33 586.98 817.98 603.75 817.98C620.52 817.98 634.17 804.33 634.17 787.56C634.17 770.79 620.52 757.14 603.75 757.14Z" fill="#010101"/>
<path d="M1213.46 885.8C1267.72 885.8 1311.7 841.816 1311.7 787.56C1311.7 733.303 1267.72 689.32 1213.46 689.32C1159.2 689.32 1115.22 733.303 1115.22 787.56C1115.22 841.816 1159.2 885.8 1213.46 885.8Z" fill="white"/>
<path d="M1213.46 895.55C1153.91 895.55 1105.47 847.1 1105.47 787.56C1105.47 728.02 1153.92 679.57 1213.46 679.57C1273 679.57 1321.45 728.02 1321.45 787.56C1321.45 847.1 1273 895.55 1213.46 895.55ZM1213.46 699.08C1164.67 699.08 1124.98 738.77 1124.98 787.56C1124.98 836.35 1164.67 876.04 1213.46 876.04C1262.25 876.04 1301.94 836.35 1301.94 787.56C1301.94 738.77 1262.25 699.08 1213.46 699.08Z" fill="#010101"/>
<path d="M1213.46 827.74C1235.65 827.74 1253.64 809.751 1253.64 787.56C1253.64 765.369 1235.65 747.38 1213.46 747.38C1191.27 747.38 1173.28 765.369 1173.28 787.56C1173.28 809.751 1191.27 827.74 1213.46 827.74Z" fill="#ACF6C3"/>
<path d="M1213.46 837.49C1185.93 837.49 1163.53 815.09 1163.53 787.56C1163.53 760.03 1185.93 737.63 1213.46 737.63C1240.99 737.63 1263.39 760.03 1263.39 787.56C1263.39 815.09 1240.99 837.49 1213.46 837.49ZM1213.46 757.14C1196.69 757.14 1183.04 770.79 1183.04 787.56C1183.04 804.33 1196.69 817.98 1213.46 817.98C1230.23 817.98 1243.88 804.33 1243.88 787.56C1243.88 770.79 1230.23 757.14 1213.46 757.14Z" fill="#010101"/>
<path d="M307.52 507.31C307.52 507.31 124.47 554.64 119.81 556.65C104.72 563.15 103.72 577.56 103.72 577.56L310.45 582.17C310.45 582.17 463.96 523.84 503.36 514.63C542.76 505.42 555.4 502.35 555.4 502.35L307.52 507.33V507.31Z" fill="#ACF6C3"/>
<path d="M712.65 525.35H1340.01C1340.01 525.35 1312.67 451.13 1286.88 427.69C1261.1 404.25 1253.29 388.63 1186.88 388.63C1120.47 388.63 857.18 395.66 857.18 395.66C857.18 395.66 746.24 410.5 712.64 525.35H712.65Z" fill="#6CB8E2"/>
<path d="M658.13 662.05C652.74 662.05 648.37 657.68 648.37 652.29V566.19C648.37 540.7 669.1 519.97 694.59 519.97H696.4C695.38 517.82 695.13 515.3 695.9 512.85C725.8 417.72 825.74 383.96 902.24 383.96H1200.4C1262.34 383.96 1286.52 402.73 1305.45 433.01C1322.97 461.05 1352.67 522.89 1353.92 525.5L1360.62 539.48H694.59C679.87 539.48 667.88 551.46 667.88 566.19V652.29C667.88 657.68 663.51 662.05 658.12 662.05H658.13ZM714.02 519.97H1329.52C1319.56 499.72 1300.91 462.57 1288.9 443.36C1272.74 417.5 1253.84 403.48 1200.4 403.48H902.24C832.35 403.48 741.25 433.66 714.52 518.7C714.38 519.14 714.22 519.56 714.02 519.97Z" fill="#010101"/>
<path d="M987.99 776.69C982.6 776.69 978.23 772.32 978.23 766.93V359.58C978.23 354.19 982.6 349.82 987.99 349.82C993.38 349.82 997.75 354.19 997.75 359.58V766.93C997.75 772.32 993.38 776.69 987.99 776.69Z" fill="#010101"/>
<path d="M772.95 502.57C772.95 522.55 738.27 539.99 717.3 539.99C696.33 539.99 679.33 523.79 679.33 503.82C679.33 483.85 696.33 467.65 717.3 467.65C738.27 467.65 772.95 482.6 772.95 502.58V502.57Z" fill="#ACF6C3"/>
<path d="M717.3 549.75C690.98 549.75 669.57 529.15 669.57 503.82C669.57 478.49 690.98 457.89 717.3 457.89C743.62 457.89 782.71 475.71 782.71 502.57C782.71 515.19 773.96 527.46 758.06 537.11C745.23 544.9 729.61 549.75 717.31 549.75H717.3ZM717.3 477.4C701.74 477.4 689.09 489.25 689.09 503.82C689.09 518.39 701.75 530.24 717.3 530.24C738.13 530.24 763.19 513.25 763.19 502.58C763.19 491.91 739.02 477.41 717.3 477.41V477.4Z" fill="#010101"/>
<path d="M721.87 398.73C720.67 399.33 649.97 437.13 622.43 488.62L360.25 488.99C360.25 488.99 421.63 408.8 458.47 398.89L721.86 398.73H721.87Z" fill="#6CB8E2"/>
<path d="M113.56 592.83C93.9899 592.83 88.8099 582.16 87.4699 577.31C83.8299 564.19 94.2799 548.89 106.32 542.83C111.13 540.41 117 542.34 119.42 547.16C121.84 551.97 119.91 557.84 115.09 560.26C109.23 563.21 105.85 570.03 106.24 572C106.89 572.53 109.85 573.7 116.54 573.2C134.99 571.83 289.94 572.98 312.23 573.15C435.82 509.25 591.04 490.9 621.08 487.86C627.82 477.26 647.07 449.15 678.24 420.8C729.76 373.94 789.43 349.16 850.79 349.16C856.18 349.16 860.55 353.53 860.55 358.92C860.55 364.31 856.18 368.68 850.79 368.68C793.75 368.68 740.26 390.94 691.82 434.83C655.24 467.97 635.49 501.67 635.3 502L632.76 506.38L627.7 506.83C625.94 506.98 450.4 522.91 319.11 591.57L316.95 592.7L314.51 592.68C253.07 592.18 132.94 591.54 117.99 592.65C116.44 592.77 114.96 592.82 113.56 592.82V592.83Z" fill="#010101"/>
<path d="M736.66 398.78H460.44C455.05 398.78 450.68 394.41 450.68 389.02C450.68 383.63 455.05 379.26 460.44 379.26H736.66C742.05 379.26 746.42 383.63 746.42 389.02C746.42 394.41 742.05 398.78 736.66 398.78Z" fill="#010101"/>
<path d="M73.3899 625.05L129 622.88C129 622.88 137.97 620.88 142.35 606.63C143.93 601.49 151.66 588.84 126.53 592.12C96.4899 596.04 89.3999 582.35 89.3999 582.35C89.3999 582.35 72.7799 596.59 73.3899 625.06V625.05Z" fill="white"/>
<path d="M119.69 632.29H69.6899C64.2999 632.29 59.9299 627.92 59.9299 622.53C59.9299 617.14 64.2999 612.77 69.6899 612.77H119.69C125.55 612.77 130.14 611.01 132.63 607.83C136.11 603.37 135.38 596.59 134.15 591.68C132.84 586.45 136.02 581.15 141.25 579.85C146.47 578.54 151.78 581.72 153.08 586.95C157.21 603.47 152.6 613.96 148.01 619.84C141.74 627.87 131.68 632.29 119.69 632.29Z" fill="#010101"/>
<path d="M320.79 895.63L260.23 894.91C260.23 894.91 270.05 882.93 293.82 884.38C317.59 885.83 320.79 895.63 320.79 895.63Z" fill="#010101"/>
<path d="M919.76 895.33L859.2 894.61C859.2 894.61 869.02 882.63 892.79 884.08" fill="#010101"/>
<path d="M1214.31 895.66L1153.75 894.94C1153.75 894.94 1163.57 882.96 1187.34 884.41" fill="#010101"/>
<path d="M756.456 332.083L756.45 332.09L756.289 332.27C756.288 332.271 756.287 332.272 756.286 332.273C754.011 334.825 751.005 336.695 747.489 336.645C743.964 336.596 741.056 334.634 738.923 332.004L738.92 332C738.829 331.888 738.739 331.777 738.649 331.668L738.645 331.663C737.441 330.19 736.54 329.965 736.12 329.959C735.695 329.953 734.765 330.159 733.464 331.607C733.463 331.608 733.462 331.609 733.461 331.61L733.317 331.772C733.315 331.773 733.314 331.774 733.313 331.776C731.038 334.327 728.032 336.197 724.516 336.147C720.992 336.098 718.083 334.136 715.951 331.506L715.947 331.502C715.853 331.385 715.759 331.27 715.667 331.157L715.66 331.149L715.653 331.141C714.461 329.671 713.566 329.439 713.155 329.428C712.748 329.418 711.849 329.601 710.574 330.993C705.305 336.82 698.732 346.205 698.435 356.531L698.435 356.531C698.423 356.936 698.421 357.34 698.428 357.742L698.428 357.743C698.495 361.438 701.204 364.362 706.25 365.833C711.294 367.303 717.36 366.802 721.467 364.588L723.348 363.575L725.225 364.559C731.567 367.886 738.107 368.028 744.65 364.981L746.607 364.069L748.432 365.191C752.332 367.589 758.411 368.339 763.637 367.028C768.872 365.716 771.836 362.822 772.12 359.074L772.12 359.073C772.151 358.672 772.172 358.268 772.184 357.863L756.456 332.083ZM756.456 332.083C757.745 330.636 758.667 330.421 759.085 330.421C759.484 330.422 760.352 330.62 761.529 332.029M756.456 332.083L761.529 332.029M761.529 332.029C766.454 337.987 772.482 347.538 772.184 357.863L761.529 332.029Z" fill="#63D0FF" stroke="#010101" stroke-width="8"/>
<path d="M1151.22 840.113L1151.23 840.107C1153.19 837.902 1154.86 837.29 1156.02 837.292C1157.16 837.293 1158.74 837.889 1160.56 840.058C1167.42 848.365 1176.06 861.93 1175.63 876.773C1175.61 877.356 1175.58 877.938 1175.54 878.518L1175.54 878.518C1175.07 884.635 1170.21 888.995 1162.65 890.892C1155.09 892.786 1146.26 891.736 1140.47 888.174L1138.64 887.052L1136.68 887.964C1127.21 892.377 1117.67 892.17 1108.48 887.352L1106.61 886.367L1104.73 887.381C1098.65 890.657 1089.84 891.353 1082.54 889.225C1075.24 887.096 1070.75 882.662 1070.64 876.62L1070.64 876.619C1070.63 876.04 1070.64 875.457 1070.65 874.874L1070.65 874.874C1071.08 860.034 1080.49 846.71 1087.83 838.588C1089.79 836.452 1091.43 835.89 1092.58 835.92C1093.73 835.949 1095.34 836.598 1097.17 838.844L1097.17 838.853L1097.18 838.861C1097.31 839.02 1097.44 839.181 1097.57 839.345L1097.58 839.349C1100.35 842.765 1103.98 845.145 1108.26 845.205C1112.53 845.265 1116.29 842.998 1119.25 839.679C1119.25 839.678 1119.25 839.677 1119.25 839.676L1119.45 839.448C1119.45 839.447 1119.46 839.446 1119.46 839.446C1121.44 837.235 1123.12 836.636 1124.3 836.652C1125.47 836.669 1127.1 837.309 1128.94 839.562L1128.94 839.567C1129.07 839.721 1129.2 839.876 1129.32 840.034L1129.33 840.038C1132.1 843.454 1135.73 845.834 1140.01 845.894C1144.28 845.954 1148.04 843.687 1151 840.367C1151 840.366 1151 840.365 1151 840.364L1151.22 840.113Z" fill="#63D0FF" stroke="#010101" stroke-width="8"/>
<path d="M746.467 885.654C746.446 886.379 746.408 887.103 746.353 887.823L746.353 887.824C745.746 895.818 739.378 901.341 729.97 903.7C720.571 906.057 709.552 904.77 702.257 900.285L700.432 899.163L698.475 900.074C686.674 905.571 674.757 905.313 663.318 899.312L661.441 898.327L659.559 899.341C651.917 903.459 640.94 904.31 631.849 901.66C622.755 899.01 616.865 893.378 616.721 885.476L616.721 885.475C616.708 884.755 616.712 884.031 616.733 883.306L616.733 883.306C617.264 864.887 628.914 848.44 637.906 838.5C640.4 835.773 642.632 834.912 644.37 834.956C646.113 835.001 648.296 835.98 650.617 838.842L650.624 838.85L650.631 838.858C650.791 839.053 650.952 839.252 651.115 839.454L651.119 839.458C654.395 843.497 658.608 846.208 663.481 846.276C668.345 846.345 672.7 843.763 676.202 839.835C676.202 839.834 676.203 839.833 676.204 839.832L676.454 839.552C676.455 839.552 676.455 839.551 676.456 839.551C678.985 836.735 681.261 835.824 683.032 835.849C684.797 835.874 687.002 836.842 689.349 839.715L689.353 839.72C689.508 839.908 689.664 840.099 689.82 840.293L689.824 840.297C693.099 844.337 697.313 847.047 702.186 847.116C707.05 847.184 711.405 844.602 714.907 840.673C714.908 840.673 714.908 840.672 714.909 840.672L715.183 840.364L715.189 840.358C717.688 837.552 719.941 836.626 721.689 836.629C723.418 836.631 725.576 837.542 727.89 840.314C736.298 850.482 746.998 867.231 746.467 885.654ZM746.467 885.654L750.466 885.731M746.467 885.654L750.466 885.731M750.466 885.731C751.041 865.808 739.545 848.101 730.979 837.741M750.466 885.731C750.443 886.518 750.402 887.305 750.342 888.087C748.756 908.982 716.839 913.966 700.136 903.696C687.2 909.722 673.971 909.435 661.431 902.857C644.037 912.231 613.097 906.288 612.721 885.588C612.707 884.804 612.711 884.017 612.733 883.23C613.308 863.317 625.801 845.946 634.957 835.826L730.979 837.741M730.979 837.741C728.183 834.39 725.008 832.634 721.734 832.63C718.46 832.625 715.189 834.372 712.212 837.716M730.979 837.741L712.212 837.716M712.212 837.716L711.933 838.028L712.212 837.716Z" fill="#63D0FF" stroke="#010101" stroke-width="8"/>
<path d="M242.451 496.893L242.447 496.9L242.341 497.074C242.341 497.075 242.34 497.075 242.34 497.076C240.779 499.648 238.43 501.823 235.259 502.362C232.08 502.903 229.18 501.614 226.914 499.678L226.91 499.675C226.818 499.596 226.727 499.519 226.637 499.442L226.632 499.438C225.488 498.469 224.876 498.521 224.759 498.541C224.635 498.562 224.025 498.725 223.221 500.038C223.221 500.038 223.22 500.039 223.22 500.039L223.126 500.194C223.125 500.195 223.124 500.196 223.124 500.197C221.563 502.769 219.214 504.943 216.044 505.483C212.865 506.024 209.965 504.734 207.698 502.798L207.694 502.795C207.598 502.713 207.504 502.632 207.411 502.554L207.402 502.547L207.394 502.54C206.26 501.571 205.65 501.617 205.537 501.635C205.428 501.652 204.843 501.792 204.055 503.051C200.582 508.685 196.652 517.353 197.958 525.776L197.958 525.776C198.009 526.105 198.067 526.433 198.134 526.757L198.134 526.758C198.684 529.46 201.07 531.379 205.364 531.813C209.656 532.248 214.466 530.929 217.404 528.567L219.07 527.229L221.095 527.856C226.71 529.596 231.982 528.739 236.808 525.304L238.567 524.052L240.565 524.824C244.007 526.153 249.015 525.869 253.043 524.03C257.08 522.187 258.828 519.518 258.529 516.725L258.528 516.724C258.493 516.395 258.45 516.064 258.399 515.735L242.451 496.893ZM242.451 496.893C243.245 495.582 243.851 495.413 243.97 495.391C244.071 495.372 244.648 495.306 245.756 496.224M242.451 496.893L245.756 496.224M245.756 496.224C250.747 500.405 257.093 507.313 258.399 515.735L245.756 496.224Z" fill="#63D0FF" stroke="#010101" stroke-width="8"/>
<path d="M1207.52 69.3755C1142.63 69.3755 1090.03 121.976 1090.03 186.86C1090.03 215.581 1100.34 241.881 1117.45 262.291C1116.5 272.567 1112.5 281.709 1108.28 288.708C1105.86 292.674 1103.49 295.867 1101.72 298.027C1100.81 299.153 1100.08 299.968 1099.6 300.489C1099.34 300.791 1099.17 300.959 1099.04 301.094L1098.91 301.22C1096.97 303.203 1096.37 306.135 1097.44 308.732C1098.52 311.32 1101.02 313 1103.83 313C1116.21 313 1128.68 309.16 1139.03 304.673C1146.96 301.228 1153.89 297.262 1158.97 293.893C1173.76 300.606 1190.2 304.354 1207.5 304.354C1272.38 304.354 1324.98 251.754 1324.98 186.869C1324.98 121.984 1272.38 69.3839 1207.5 69.3839L1207.52 69.3755Z" fill="#9240F4"/>
<path d="M1172.46 255.981L1169.3 258.107C1169.3 258.107 1144.81 250.799 1134.21 233.987C1123.61 217.176 1126.54 195.616 1128.73 182.095C1130.92 168.574 1132.75 162.727 1132.75 162.727C1132.75 162.727 1117.4 142.262 1108.26 129.839C1099.13 117.412 1098.4 103.527 1105.7 103.527C1113.01 103.527 1127.26 107.181 1141.88 120.702C1156.5 134.223 1161.25 142.629 1161.25 142.629C1161.25 142.629 1149.56 93.6598 1145.54 79.041C1141.52 64.4222 1141.88 54.9218 1151.38 54.191C1160.88 53.4602 1177.7 62.5966 1185.74 82.331C1193.78 102.065 1202.55 123.625 1202.55 123.625C1202.55 123.625 1212.78 109.373 1212.78 90.0058C1212.78 70.6382 1218.26 50.9038 1226.3 51.9986C1234.34 53.0962 1246.04 63.6942 1246.04 85.985C1246.04 108.276 1240.92 144.091 1240.92 144.091L1259.19 157.979C1259.19 157.979 1269.79 153.594 1277.83 138.975C1285.87 124.356 1303.05 114.125 1308.16 126.549C1313.28 138.975 1312.91 157.612 1302.68 174.423C1292.45 191.234 1279.65 199.64 1279.65 199.64C1279.65 199.64 1283.68 240.203 1262.84 249.707C1242.01 259.207 1247.49 257.745 1247.49 257.745L1244.24 257.202L1220.39 262.312L1217.16 261.399L1195.6 261.766L1198.25 262.556L1172.46 255.984L1172.46 255.981Z" fill="white"/>
<path d="M1303.47 116.127C1294.2 113.714 1283.02 118.477 1279.06 126.518C1273.63 137.528 1267.29 142.543 1259.94 148.35C1259.58 148.633 1259.22 148.915 1258.86 149.201C1253.3 142.719 1249.38 137.956 1247.35 135.461C1249.2 126.454 1251.79 111.23 1251.93 95.7434C1252.1 78.389 1249.19 65.1478 1243.27 56.3866C1237.24 47.4518 1229.08 43.6774 1221.43 46.2898C1212.49 49.3418 1206.83 60.4382 1207.66 73.2734C1208.48 86.019 1207.06 98.0254 1203.43 109.113C1193.69 82.4854 1184.98 69.0454 1173.97 56.1654C1165.1 45.7914 1153.74 46.049 1146.41 50.9098C1136.31 57.6046 1135.4 69.863 1139.72 78.5122C1143.98 87.0298 1148.9 105.843 1152.52 121.078C1142.04 109.799 1128.74 98.619 1117.55 96.2026C1105.93 93.691 1100.66 98.3586 1098.56 101.366C1094.48 107.19 1095.38 116.259 1100.9 125.031C1104.69 131.054 1109.63 137.749 1114.4 144.223C1119.14 150.651 1123.62 156.725 1126.56 161.549C1128.92 165.424 1128.61 166.396 1126.95 171.789C1125.69 175.891 1123.96 181.507 1123.03 190.504C1120.49 214.799 1125.81 230.723 1141.37 245.468C1147.61 251.373 1154.83 256.427 1163.07 259.081C1173 262.285 1184.03 263.869 1194.44 264.217C1205.82 264.597 1217.26 264.443 1228.55 262.92C1229.57 262.783 1230.58 262.635 1231.6 262.475C1246.61 260.109 1264.83 255.343 1275.24 243.48C1280.63 237.325 1283.61 229.331 1284.84 221.237C1285.94 214.018 1285.69 206.612 1284.21 199.464C1304.59 185.923 1316.86 165.337 1318.03 142.557C1319.06 122.383 1308.19 117.351 1303.47 116.122V116.127ZM1307.2 142.008C1306.26 160.289 1296.75 176.977 1280.88 188.566C1280.71 188.149 1280.54 187.732 1280.36 187.317C1280.1 186.724 1279.83 186.125 1279.51 185.559C1279.13 184.898 1278.68 184.285 1278.11 183.781C1275.29 181.281 1269.97 183.238 1269.43 186.97C1269.14 189.037 1270.08 191.053 1270.88 192.982C1274.68 202.202 1275.64 212.579 1273.56 222.337C1272.25 228.533 1269.65 234.609 1265.17 239.087C1260.16 244.087 1253.28 246.694 1246.47 248.623C1229.1 253.543 1211.02 254.629 1193.07 253.369C1185.03 252.804 1176.95 251.787 1169.21 249.449C1161.43 247.097 1154.83 243.088 1148.85 237.594C1135.51 225.347 1131.63 212.685 1133.83 191.632C1134.65 183.689 1136.14 178.864 1137.33 174.986C1139.23 168.823 1140.73 163.954 1135.84 155.91C1132.65 150.674 1128.03 144.413 1123.15 137.785C1118.49 131.469 1113.67 124.939 1110.09 119.252C1106.77 113.977 1106.26 109.307 1107.46 107.593C1108.38 106.269 1111.38 105.972 1115.27 106.812C1128.26 109.62 1149.92 132.3 1158.53 146.054L1159.99 148.689C1161.28 151.041 1164.17 152.001 1166.72 150.847C1169.12 149.73 1170.28 146.975 1169.4 144.475L1168.39 141.588C1168.21 140.989 1167.54 138.004 1166.83 134.845C1163.33 119.283 1156.06 86.901 1149.44 73.657C1146.41 67.6034 1148.86 62.3086 1152.41 59.951C1156.62 57.1594 1161.6 58.3774 1165.73 63.2102C1175.57 74.7294 1185.43 88.189 1197.76 125.899C1198.48 128.075 1200.5 129.587 1202.83 129.663C1205.11 129.735 1207.2 128.369 1208.04 126.244C1208.14 126.028 1208.3 125.703 1208.52 125.269C1216.38 109.455 1219.73 91.7254 1218.5 72.5678C1217.93 63.7898 1221.4 57.7642 1224.95 56.5518C1228.88 55.205 1232.79 60.2282 1234.28 62.4486C1244.26 77.2298 1241.82 109.976 1236.21 135.694L1235.66 138.205L1237.26 140.221C1237.58 140.627 1245.28 150.332 1259.12 166.007C1261.22 168.387 1264.94 168.485 1267.16 166.116C1269.09 164.049 1268.97 160.776 1267.1 158.651C1266.72 158.228 1266.36 157.811 1265.99 157.397C1266.22 157.217 1266.44 157.038 1266.67 156.862C1274.35 150.794 1282.3 144.519 1288.8 131.312C1290.3 128.265 1296.22 125.454 1300.75 126.625C1306.97 128.243 1307.46 136.954 1307.2 142.002L1307.2 142.008Z" fill="black"/>
<path d="M1188.66 175.918C1189.2 178.382 1191.51 180.003 1193.96 179.76C1194.15 179.74 1194.34 179.709 1194.54 179.665C1197.2 179.074 1198.88 176.442 1198.29 173.782L1196.3 164.785C1195.71 162.125 1193.07 160.457 1190.41 161.036C1187.75 161.627 1186.08 164.259 1186.66 166.919L1188.66 175.915V175.918Z" fill="#010101"/>
<path d="M1219.45 168.221C1219.99 170.685 1222.29 172.306 1224.74 172.063C1224.94 172.043 1225.13 172.012 1225.33 171.968C1227.99 171.377 1229.67 168.745 1229.08 166.085L1227.08 157.091C1226.49 154.431 1223.86 152.762 1221.2 153.342C1218.54 153.933 1216.86 156.565 1217.45 159.225L1219.45 168.218V168.221Z" fill="#010101"/>
<path d="M1254.27 193.27C1240.16 184.092 1231.65 178.844 1220.29 173.379C1218.02 172.287 1215.35 173.356 1214.32 175.759C1213.29 178.161 1214.29 180.992 1216.55 182.081C1224.77 186.032 1229.44 188.882 1239.24 194.9L1208.23 200.08C1205.77 200.491 1204.09 202.936 1204.47 205.542C1204.81 207.869 1206.68 209.535 1208.83 209.574C1209.09 209.58 1209.35 209.56 1209.62 209.516L1252.57 202.339C1254.54 202.02 1256.09 200.407 1256.44 198.327C1256.77 196.316 1255.91 194.314 1254.27 193.273V193.27Z" fill="#010101"/>
<path d="M1203.24 219.895C1189.98 218.386 1189.49 210.112 1189.48 209.205C1189.49 206.413 1187.31 204.109 1184.57 203.938L1184.21 203.918C1181.36 203.918 1179 206.242 1178.96 209.104C1178.87 215.533 1183.58 228.25 1202.02 230.339C1202.24 230.37 1202.45 230.381 1202.65 230.381C1205.33 230.381 1207.57 228.374 1207.87 225.705C1208.2 222.832 1206.12 220.223 1203.24 219.898V219.895Z" fill="#010101"/>
</svg>
