<?xml version="1.0" encoding="UTF-8"?>
<svg id="Capa_1" data-name="Capa 1" xmlns="http://www.w3.org/2000/svg" viewBox="0 0 1329.83 1318.75">
  <defs>
    <style>
      .cls-1 {
        fill: #0a595b;
        stroke-width: 0px;
      }
    </style>
  </defs>
  <path class="cls-1" d="m172.95,145.63h255.97c13.1,0,23.74,10.64,23.74,23.74v359.03c0,13.1-10.64,23.74-23.74,23.74H134.88c-13.1,0-23.74-10.64-23.74-23.74V207.44c0-34.11,27.7-61.81,61.81-61.81Z"/>
  <rect class="cls-1" x="473.65" y="145.63" width="363.59" height="406.5" rx="23.74" ry="23.74"/>
  <rect class="cls-1" x="473.65" y="577.45" width="363.59" height="266.27" rx="23.74" ry="23.74"/>
  <path class="cls-1" d="m879.2,144.73h273.47c30.95,0,56.07,25.13,56.07,56.07v617.27c0,13.1-10.64,23.74-23.74,23.74h-305.8c-13.1,0-23.74-10.64-23.74-23.74V168.47c0-13.1,10.64-23.74,23.74-23.74Z"/>
  <rect class="cls-1" x="475.36" y="867.86" width="363.59" height="260.26" rx="23.74" ry="23.74"/>
  <path class="cls-1" d="m879.2,867.86h305.8c13.1,0,23.74,10.64,23.74,23.74v169.36c0,37.06-30.09,67.16-67.16,67.16h-262.38c-13.1,0-23.74-10.64-23.74-23.74v-212.78c0-13.1,10.64-23.74,23.74-23.74Z"/>
  <path class="cls-1" d="m134.88,574.6h294.04c13.1,0,23.74,10.64,23.74,23.74v505.96c0,13.1-10.64,23.74-23.74,23.74h-247.75c-38.65,0-70.03-31.38-70.03-70.03v-459.67c0-13.1,10.64-23.74,23.74-23.74Z"/>
</svg>