<?xml version="1.0" encoding="UTF-8"?>
<svg id="Capa_1" data-name="Capa 1" xmlns="http://www.w3.org/2000/svg" viewBox="0 0 1329.83 1318.75">
  <defs>
    <style>
      .cls-1 {
        stroke: #000;
        stroke-miterlimit: 10;
        stroke-width: .75px;
      }

      .cls-2, .cls-3, .cls-4, .cls-5 {
        stroke-width: 0px;
      }

      .cls-3 {
        fill: #fff;
      }

      .cls-4 {
        fill: #e2e2e2;
      }

      .cls-5 {
        fill: #040404;
      }
    </style>
  </defs>
  <ellipse class="cls-4" cx="653.01" cy="956.96" rx="318.78" ry="52.08"/>
  <path class="cls-4" d="m1241.78,587.16c0-52.6-42.05-242.47-94.65-242.47s-95.82,189.87-95.82,242.47c0,48.32,35.99,88.21,82.63,94.38v82.49h-114.61c2.92-.76,5.1-3.4,5.1-6.56v-5.04c0-3.46-2.6-6.33-5.95-6.75v-79.62c0-3.75-3.05-6.8-6.8-6.8h-1.85v-117.86c7-2.75,11.73-9.53,11.73-17.14,0-1.59-.2-3.16-.61-4.69,2.7-1.23,5.84-2.66,9.5-4.35l2.25-1.03,11.5-66.28c.37-2.1-.29-4.28-1.76-5.83l-35.03-37.05c-1.29-1.36-3.03-2.12-4.91-2.13-1.88.02-3.63.73-4.93,2.08l-34.46,35.71c-1.52,1.58-2.19,3.8-1.79,5.96l12.29,66.37,2.07,1.04c3.76,1.92,6.96,3.54,9.69,4.92-.53,1.73-.8,3.5-.8,5.29,0,7.55,4.69,14.32,11.63,17.1v117.9h-2.74c-3.75,0-6.8,3.05-6.8,6.8v79.62c-3.35.42-5.95,3.29-5.95,6.75v5.04c0,3.16,2.17,5.8,5.1,6.56H254.24c1.51-.18,2.7-1.42,2.7-2.98v-8.27c0-1.68-1.36-3.05-3.05-3.05h-3.35c-1.68,0-3.05-1.37-3.05-3.05v-43.1c0-1.51,1.11-2.79,2.61-3,10.01-1.39,17.71-9.97,17.71-20.36s-7.71-18.96-17.71-20.36c-1.5-.21-2.61-1.48-2.61-3,0-1.68,1.37-3.05,3.05-3.05h3.35c1.68,0,3.05-1.37,3.05-3.05v-8.27c0-1.68-1.36-3.05-3.05-3.05h-63.41c-1.68,0-3.05,1.36-3.05,3.05v8.27c0,1.68,1.37,3.05,3.05,3.05h2.83c1.68,0,3.05,1.37,3.05,3.05v.03c0,1.51-1.1,2.78-2.6,3-9.95,1.44-17.6,9.98-17.6,20.33s7.65,18.89,17.6,20.33c1.49.22,2.6,1.49,2.6,3v43.13c0,1.68-1.37,3.05-3.05,3.05h-2.83c-1.68,0-3.05,1.36-3.05,3.05v8.27c0,1.56,1.19,2.8,2.7,2.98h-37.91c2.92-.76,5.1-3.4,5.1-6.56v-5.04c0-3.46-2.6-6.33-5.95-6.75v-79.62c0-3.75-3.05-6.8-6.8-6.8h-1.85v-117.86c7-2.75,11.73-9.53,11.73-17.14,0-1.59-.2-3.16-.61-4.69,2.7-1.23,5.84-2.66,9.5-4.35l2.25-1.03,11.5-66.28c.37-2.1-.29-4.28-1.76-5.83l-35.03-37.05c-1.29-1.36-3.03-2.12-4.91-2.13-1.88.02-3.63.73-4.93,2.08l-34.46,35.71c-1.52,1.58-2.19,3.8-1.79,5.96l12.29,66.37,2.07,1.04c3.76,1.92,6.96,3.54,9.69,4.92-.53,1.73-.8,3.5-.8,5.29,0,7.55,4.69,14.32,11.63,17.1v117.9h-2.74c-3.75,0-6.8,3.05-6.8,6.8v79.62c-3.35.42-5.95,3.29-5.95,6.75v5.04c0,3.16,2.18,5.8,5.1,6.56h-24.68c-7.24,0-13.11,5.87-13.11,13.11s5.87,13.11,13.11,13.11h1085.87c7.24,0,13.11-5.87,13.11-13.11s-5.87-13.11-13.11-13.11h-23.13v-82.19c47.78-5.11,84.99-45.54,84.99-94.68Zm-230.72-131.34l23.07-5.01-8.05,46.38-15.02,5.97v-47.34Zm-17.78,46.38l-13.42-7.18-8.48-45.79,21.9,6.22v46.76Zm-849.31-46.38l23.07-5.01-8.05,46.38-15.02,5.97v-47.34Zm-17.78,46.38l-13.42-7.18-8.48-45.79,21.9,6.22v46.76Z"/>
  <g>
    <g>
      <path class="cls-3" d="m571.09,853.16c-40.08-2.09-81.6-44.77-81.6-44.77,0,0-49.1-56.72-42.74-101.23,6.36-44.52,19.66-67.64,21.39-81.52,1.73-13.87-17.34-49.72-39.89-81.52-22.55-31.8-54.34-58.39-38.16-79.2,16.19-20.81,34.69-38.16,81.52,7.52,46.83,45.67,75.16,86.14,75.16,86.14,0,0-49.72-174.59-50.87-195.98-1.16-21.39,18.5-50.3,39.31-37.58,20.81,12.72,90.77,78.62,101.17,132.39,10.41,53.77,8.09,72.27,17.92,45.09,9.83-27.17,23.7-101.75,26.59-145.69,2.89-43.94,37-60.7,56.08-31.22,19.08,29.48,35.27,97.12,30.64,148-4.62,50.87-11.56,78.05-11.56,78.05l43.36,49.14s26.59-13.3,50.87-51.45c24.28-38.16,37.58-61.86,61.86-48.56,24.28,13.3,43.94,68.8,17.34,112.16-26.59,43.36-83.83,93.66-83.83,93.66,0,0,9.83,61.86-31.8,94.81-41.62,32.95-90.5,52.72-139.64,53.3-49.14.58-103.13-1.53-103.13-1.53Z"/>
      <g>
        <path class="cls-2" d="m738.57,849.26c-35.41,0-70.42-3.86-93.3-33.5-4.91-6.36-3.73-15.5,2.63-20.41,6.36-4.91,15.5-3.74,20.41,2.63,19.32,25.03,48.79,24.71,78.71,21.77,31.91-3.1,60.59-22.73,74.84-51.23,9.76-19.52,12.33-45.99,7.24-74.53-1.41-7.91,3.86-15.47,11.77-16.88,7.92-1.42,15.47,3.85,16.88,11.77,4.38,24.52,6.22,60.51-9.86,92.66-18.69,37.37-56.26,63.12-98.05,67.18-3.78.37-7.54.55-11.26.55Z"/>
        <path class="cls-2" d="m595.69,874.92c-28.45,0-64.7-7.14-95.77-35.75-50.86-46.85-71.8-95.08-65.9-151.78,2.77-26.64,9.49-42.49,14.39-54.06,5.38-12.7,6.21-14.65,1.21-22.87-7.71-12.67-19.47-28.62-31.92-45.5-12.54-17.01-25.51-34.6-35.48-50.43-14.58-23.15-16.93-47.1-6.14-62.51,5.57-7.96,19.51-20.32,50.21-13.68,29.03,6.28,63.48,34.98,90.88,64.22.11.11.29.02.25-.13-9.48-39.71-22.19-88.09-33.21-110.15-11.42-22.84-9.02-55.21,17.66-72.9,19.37-12.84,49.39-13.53,72.8,13.86,28.77,33.66,51.57,68.78,77.01,137.97.05.13.25.14.29,0,9.23-28.75,12.82-59.83,10.69-92.81-2.19-33.86,12.77-63.13,36.37-71.19,20.22-6.9,41.8,3.05,57.72,26.64,15.57,23.06,23.24,57.91,22.81,103.56-.38,40.59-7.14,80.5-12.02,104.21,0,.04,0,.08.03.11,7.72,9.49,25.58,31.11,51.65,60.67,5.07,5.75,5.44,14.64.16,20.19-5.97,6.27-15.88,5.98-21.48-.38-36.34-41.18-56.59-66.69-57.44-67.75l-4.24-5.35s-.04-.08-.03-.13l1.45-6.67c14.73-67.51,21.14-153.45-5.01-192.2-3.9-5.78-14.07-18.83-24.2-15.38-9.22,3.15-18.22,18.86-16.74,41.78,3.25,50.38-5.58,97.02-26.25,138.61-.56,1.13-.99,1.97-1.24,2.54l-.54,1.83c-1.81,6.15-8.46,10.26-14.77,9.13h0c-6.15-.2-10.37-6.08-12.28-11.93-32.36-98.98-58.24-134.32-84.08-164.56-10.74-12.57-23.67-15.75-34.6-8.51-9.23,6.12-15.58,19.88-7.71,35.63,17.41,34.82,36.53,119.92,45.71,160.81,1.86,8.29,3.62,16.11,4.09,17.7h0c2.08,6.97-1.25,14.41-7.83,17.52l-.08.04h0c-6.6,3.02-14.42.75-18.37-5.34l-.05-.07c-22.71-36.26-79.51-95.77-113.58-103.14-10.1-2.18-17.86-1.45-20.22,1.93-3.1,4.43-1.72,16.55,6.93,30.31,9.4,14.93,22.04,32.08,34.28,48.67,12.84,17.42,24.97,33.87,33.35,47.64,12.76,20.96,6.92,34.75.73,49.36-4.42,10.43-9.92,23.41-12.24,45.71-4.94,47.44,12.54,86.72,56.67,127.36,47.87,44.1,115.03,22.72,115.7,22.5,7.62-2.52,15.85,1.62,18.37,9.23,2.53,7.61-1.57,15.83-9.17,18.37-1.66.56-21.71,7.06-48.85,7.06Z"/>
        <path class="cls-2" d="m857.52,714.46l-15.26-24.78c49.34-30.39,79.19-78.05,81.89-130.75.67-13.17-.6-35.9-16.74-40.1-11.74-3.06-27.15,4.25-31.04,12.16-17.13,34.77-38.03,51.28-58.24,67.24-2.65,2.1-5.31,4.2-7.97,6.35l-18.3-22.62c2.75-2.22,5.5-4.39,8.24-6.56,19.29-15.24,35.95-28.39,50.17-57.27,10.47-21.25,40-33.83,64.48-27.46,12.48,3.25,41.2,16.54,38.47,69.75-3.2,62.41-38.07,118.55-95.69,154.04Z"/>
        <path class="cls-5" d="m567.42,961.44c-38.32-.86-72.39-46.61-25.9-103.05,46.5-56.44,115.95-41.46,120.09-2.72,4.88,45.63-26.69,107.28-94.2,105.77Z"/>
        <path class="cls-3" d="m574.37,904.59c-6.41-3.7-5.42-19.64,10.91-31.32,16.33-11.68,25.95-1.19,20.9,10.07-5.96,13.27-20.52,27.76-31.81,21.25Z"/>
        <path class="cls-5" d="m759.52,958.93c-38.29,1.66-75.3-41.76-32.6-101.13,42.69-59.37,112.98-48.98,119.66-10.6,7.87,45.21-19.59,108.8-87.06,111.73Z"/>
        <path class="cls-3" d="m762.73,901.75c-6.64-3.27-6.7-19.25,8.83-31.97,15.53-12.72,25.82-2.89,21.51,8.68-5.07,13.64-18.65,29.05-30.35,23.29Z"/>
        <path class="cls-2" d="m630.05,649.99c-6.57.66-12.74-3.69-14.21-10.3l-5.35-24.13c-1.58-7.13,2.92-14.2,10.05-15.78,7.13-1.56,14.2,2.92,15.78,10.05l5.35,24.13c1.58,7.13-2.92,14.2-10.05,15.78-.52.11-1.05.2-1.57.25Z"/>
        <path class="cls-2" d="m712.62,629.35c-6.57.66-12.74-3.69-14.21-10.3l-5.35-24.12c-1.58-7.13,2.92-14.2,10.05-15.78,7.13-1.56,14.2,2.92,15.78,10.05l5.35,24.12c1.58,7.13-2.92,14.2-10.05,15.78-.52.11-1.05.2-1.57.25Z"/>
        <path class="cls-2" d="m671.85,729.93c-5.76-.11-10.78-4.58-11.69-10.81-1.02-6.99,3.49-13.55,10.08-14.65l83.15-13.89c-26.28-16.13-38.8-23.78-60.84-34.37-6.07-2.92-8.75-10.51-5.98-16.95,2.77-6.44,9.93-9.31,16.01-6.38,30.48,14.66,53.29,28.74,91.12,53.35,4.39,2.79,6.72,8.16,5.82,13.55-.93,5.58-5.1,9.91-10.38,10.76l-115.18,19.25c-.71.12-1.41.17-2.11.16Zm113.64-44.72s-.08.01-.11.02l.11-.02Z"/>
      </g>
    </g>
    <g>
      <path class="cls-3" d="m295.46,907.53c-18.37,22.45-33.33,36.73-12.24,40.82,21.09,4.08,217.01,3.4,217.01,3.4,0,0-17.69-10.2-45.58-38.1-27.89-27.89-48.98-68.03-71.43-65.31-22.45,2.72-44.9,27.21-33.33,48.3,11.56,21.09,15.3,24.66-11.74,16.41-27.04-8.25-42.69-5.53-42.69-5.53Z"/>
      <path class="cls-1" d="m501.7,959.94c-1.32,0-9.36-.03-10.63-.1-33.55-.29-174.69-1.15-196.61-1.15-13.63,0-26.5,0-31.08-10.03-4.79-10.52,3.52-20.09,20.08-39.15,20.7-23.83,40.06-16.4,59.73-5.93,2.22,1.18,4.13,2.1,5.74,2.8-.55-1.07-1.21-2.26-1.99-3.59-11.1-18.83-5.74-42.2,12.48-54.36,17.8-11.87,48.79-12.14,77.55,26.16,5.52,7.34,10.34,14.3,15.01,21.03,19.13,27.56,29.7,41.49,50.25,42.74l4.17.04c.45,0,.88.02,1.29.05.15,0,.26,0,.34,0v.03c10.26.84,11.09,8.33,11.09,10.7,0,4.3-3.04,10.71-11.42,10.75h-6Zm-213.45-22.8c1.81.04,3.88.07,6.21.07,13.8,0,68.76.28,117.1.56,16.12.09,31.9.19,45.89.28-8.15-8.62-15.43-19.1-23.12-30.17-4.56-6.57-9.27-13.36-14.54-20.38-16.26-21.66-35.28-29.98-48.44-21.19-7.3,4.87-11.85,15.49-5.9,25.58,3.36,5.69,13.57,23.02,3.53,33.5-10.31,10.77-28.88.88-35.88-2.84-20.04-10.67-24.49-9.22-33.41,1.06-3.32,3.82-7.95,9.15-11.44,13.54Z"/>
    </g>
  </g>
</svg>