<?xml version="1.0" encoding="UTF-8"?>
<svg id="Capa_1" data-name="Capa 1" xmlns="http://www.w3.org/2000/svg" viewBox="0 0 1000 1000">
  <defs>
    <style>
      .cls-1, .cls-2, .cls-3 {
        stroke-width: 0px;
      }

      .cls-2 {
        fill: #9440ff;
      }

      .cls-3 {
        fill: #fff;
      }
    </style>
  </defs>
  <g>
    <path class="cls-2" d="m495.57,809.61l-97.86,8.41c-13.42-79.58-28.22-140.65-60.64-216.47l89.49-25c35.88,77.67,60.26,155.36,69.02,233.05Z"/>
    <path class="cls-1" d="m397.69,837.08c-9.21,0-17.22-6.65-18.77-15.89-12.6-74.7-26.92-136.25-59.38-212.15-2.16-5.04-2.04-10.78.34-15.73,2.38-4.95,6.77-8.64,12.06-10.11l89.49-25c9-2.52,18.5,1.87,22.43,10.36,38.92,84.24,62.03,162.39,70.66,238.91.58,5.11-.94,10.24-4.2,14.21-3.26,3.98-7.99,6.47-13.11,6.91l-97.86,8.42c-.55.05-1.1.07-1.65.07Zm-34.8-222.96c25.85,64.55,39.34,120,50.61,183.42l60.62-5.21c-9.04-61.82-28.18-125.28-58.19-193.02l-53.04,14.82Z"/>
  </g>
  <g>
    <path class="cls-2" d="m817.7,356.39c-34.2-103.77-110.04-202.31-172.34-219.91-26.65-7.48-50.76-.24-68.12,27.68-8.66,13.89-20.1,29.49-33.82,45.98-51.28,61.85-133.85,136.58-216.38,184.64-5.61,3.26-11.26,6.41-16.87,9.42-11.33,6.1-22.63,11.61-33.78,16.49-23.08,10.05-45.67,17.29-66.98,20.79-2.39.42-4.78.76-7.14,1.07-4.92.62-9.67,1.39-14.21,2.32-7.55,1.49-14.55,3.33-21.03,5.51-111.43,37.42-71.93,168.77,38.67,162.74,2.22-.1,4.47-.28,6.76-.52h.04c4.09-.42,9.32-.97,15.56-1.56,6.83-.62,14.83-1.35,23.91-2.11,18.29-1.49,40.78-3.01,66.18-4.09.55-.04,1.14-.07,1.7-.1,6.06-.24,12.3-.45,18.67-.66,2.11-.07,4.26-.14,6.44-.17,6.44-.17,12.99-.31,19.71-.38,6.86-.1,13.82-.14,20.89-.14,10.71,0,21.62.14,32.74.42,6.93.17,13.93.42,21,.69,7,.28,14.03.66,21.1,1.07,74.91,4.43,153.49,16.49,216.83,43.34,14.59,6.17,28.38,13.13,41.09,20.96,22.31,13.72,41.3,19.89,57.31,19.89h.03c91.99-.07,84.92-203.25,42.03-333.38Zm-20.75,307.16c-7.59,5.99-17.12,8.18-28.48,6.58-1.84-1.39-3.99-2.43-6.34-3.05-.1-.03-3.98-1.21-10.71-4.99-8.7-4.89-22.21-14.07-38.49-30.56-18.05-18.29-41.99-48.16-67.29-95.56,19.96-10.39,47.64-33.78,59.6-67.84,7.45-21.03,8.87-46.12-1.14-74.77-6.2-17.74-15.59-31.63-26.71-42.37-31.43-30.46-76.54-35.86-101.66-33.16-.62.07-1.25.17-1.84.28-6.34-64.72,5.75-112.29,24.29-139.91,11.02-16.42,22.28-22.38,28.55-22.52,1.39-.03,2.74-.21,4.02-.52,1.49-.35,2.88-.87,4.19-1.56,54.71,9.94,130.8,105.95,164.68,208.75,36.14,109.73,42.86,265.2-2.67,301.2Z"/>
    <path class="cls-1" d="m321.06,585.48c-5.3.21-10.64.48-16.08.76,4.02,5.47,8.11,10.64,12.16,15.42-.93-4.12-.45-8.49,1.42-12.33.66-1.39,1.49-2.7,2.49-3.85Zm514.77-235.05c-34.89-105.82-121.13-225.8-199.71-235.19-30.53-3.64-57.2,10.15-75.05,38.84-42.76,68.85-149.19,170.57-250.23,227.71-6.72,3.81-13.37,7.38-20.03,10.74-7.87,4.02-15.7,7.73-23.42,11.05-15.04,6.58-29.73,11.81-43.83,15.42-8.11,2.11-16.04,3.67-23.7,4.64-1.07.14-2.15.28-3.22.45-8.21,1.14-15.94,2.67-23.18,4.57-69.57,17.88-96.43,66.56-91.3,110.8,5.41,46.95,47.36,92.96,115.79,92.96,5.34,0,10.85-.28,16.49-.87,1.91-.21,3.81-.38,5.68-.55,8.52-.87,16.94-1.66,25.19-2.36,10.57-.94,20.89-1.73,31.01-2.43,16.74-1.21,32.92-2.08,48.51-2.74.31,0,.66-.03,1-.03,6.86-.28,13.62-.52,20.27-.69h.35c6.58-.17,13.03-.31,19.37-.38h.55c21.1-.28,41.06-.07,59.94.52,7.1.24,14.07.55,20.86.9,7.17.35,14.14.76,20.96,1.25,139.11,9.81,210.56,42.79,240.22,61.05,27.06,16.67,49.34,22.66,67.46,22.66,19.65,0,34.34-7.07,44.77-15.31,69.43-54.85,50.13-237.13,15.24-343.02Zm-38.88,313.12c-7.59,5.99-17.12,8.18-28.48,6.58-5.02-.69-10.43-2.15-16.18-4.37-7.41-2.81-15.42-6.86-23.98-12.13-10.43-6.41-23.6-13.48-39.95-20.51-10.33-4.47-21.97-8.94-34.96-13.27-47.09-15.73-112.4-29.52-201.38-34.16-6.93-.35-14.03-.66-21.27-.9-14.31-.52-29.17-.76-44.66-.76h-1.98c-10.08,0-20.44.14-31.08.38-7.97.17-16.11.45-24.39.76-2.49.07-5.02.17-7.59.31-5.3.21-10.64.48-16.08.76-21.69,1.14-44.35,2.74-67.98,4.85-7.07.62-14.21,1.32-21.48,2.08-1.66.14-3.33.31-4.99.49-5.72.59-11.16.76-16.39.59-44.04-1.7-70.79-30.08-74.15-59.14-3.15-27.34,13.55-50.07,44.28-63.2,6.06-2.6,12.65-4.78,19.75-6.58,6.2-1.59,12.78-2.84,19.71-3.74.31-.07.62-.1.94-.14,20.58-2.6,41.65-8.49,62.44-16.46,7.87-3.01,15.7-6.31,23.42-9.84v-.04c11.5-5.27,22.87-11.02,33.89-17.08,42.31-23.32,79.97-51.04,105.16-71.13,38.53-30.73,75.81-65.76,106.65-99.54,8.66-9.49,16.84-18.88,24.32-28.06,13.1-15.9,24.25-31.15,32.88-45.08,12.75-20.48,26.82-22.21,36.8-21.27.48.03.94.07,1.39.14,1.11.14,2.22.31,3.33.52,54.71,9.94,130.8,105.95,164.68,208.75,36.14,109.73,42.86,265.2-2.67,301.2Z"/>
  </g>
  <g>
    <path class="cls-3" d="m310.8,404.67s-28.79-21.95-56.19-22.33c-27.4-.37-93.55,41.58-64.06,150.23,29.49,108.66,94.41,120.33,112.94,117.96,58.73-7.52,41.2-47.25,41.2-47.25,0,0-114-111.41-33.89-198.63Z"/>
    <path class="cls-1" d="m298.79,669.87c-15.46,0-37.25-5.51-58.89-21.28-31.11-22.68-53.91-60.03-67.75-111.03-19.09-70.35-1.02-113.58,17.5-137.47,19.78-25.5,46.58-36.82,64.63-36.82.19,0,.39,0,.58,0,32.75.45,64.03,23.59,67.49,26.22,4.26,3.25,6.95,8.14,7.43,13.48s-1.32,10.62-4.95,14.57c-27.28,29.69-30.74,66.74-10.31,110.13,16.69,35.42,43.24,61.74,43.5,62,1.72,1.69,3.12,3.71,4.1,5.91,1.03,2.33,9.72,23.38-1.96,44.07-9.21,16.32-27.47,26.34-54.25,29.77-2.18.28-4.56.43-7.12.43Zm-44.56-268.48c-5.74,0-21.48,5.34-34.45,22.06-13.21,17.04-25.82,48.93-10.84,104.13,24.8,91.38,76.11,106.08,92.13,104.05,19.11-2.45,24.42-8.2,25.82-10.56,1.46-2.47,1.32-5.55.93-7.72-40.43-41.47-93.55-129.23-45.11-203.57-8.68-4.36-19.11-8.27-28.36-8.39h-.12Z"/>
  </g>
  <g>
    <path class="cls-3" d="m796.95,663.55c-7.59,5.99-17.12,8.18-28.48,6.58-1.84-1.39-3.99-2.43-6.34-3.05-.1-.03-3.98-1.21-10.71-4.99-8.7-4.89-22.21-14.07-38.49-30.56-18.05-18.29-41.99-48.16-67.29-95.56,19.96-10.39,47.64-33.78,59.6-67.84,7.45-21.03,8.87-46.12-1.14-74.77-6.2-17.74-15.59-31.63-26.71-42.37-31.43-30.46-76.54-35.86-101.66-33.16-.62.07-1.25.17-1.84.28-6.34-64.72,5.75-112.29,24.29-139.91,11.02-16.42,22.28-22.38,28.55-22.52,1.39-.03,2.74-.21,4.02-.52,1.49-.35,2.88-.87,4.19-1.56,54.71,9.94,130.8,105.95,164.68,208.75,36.14,109.73,42.86,265.2-2.67,301.2Z"/>
    <path class="cls-2" d="m756.96,685.44s-29.04-7.66-68.6-52.32c-19.99-22.56-42.72-54.61-65.73-99.89-1.87-3.71-3.78-7.52-5.65-11.4v-.04c-9.25-18.99-18.47-40.12-27.55-63.65-40.05-103.81-42.44-184.36-28.9-238.86,13.37-53.74,42.24-82.19,65.8-82.67l3.88,16.32.52,2.22c-1.28.31-2.63.48-4.02.52-6.27.14-17.53,6.1-28.55,22.52-18.54,27.61-30.63,75.19-24.29,139.91.59-.1,1.21-.21,1.84-.28,25.12-2.7,70.23,2.7,101.66,33.16l27.86,117.15c-11.95,34.06-39.64,57.45-59.6,67.84,25.29,47.4,49.23,77.27,67.29,95.56,16.28,16.49,29.8,25.67,38.49,30.56l.87,3.67,4.68,19.68Z"/>
    <path class="cls-1" d="m775.67,689.77h-.03c0,.17-.07.38-.1.55-2.25,8.56-10.05,14.17-18.54,14.17-1.63,0-3.26-.21-4.89-.62-2.25-.59-33.5-9.56-74.87-54.95-7.62-8.39-15.63-18.02-23.84-29.07-26.23-35.24-54.75-84.96-81.74-154.84-36.66-95.07-41.61-166.83-35.44-217.66,1.7-13.96,4.23-26.37,7.21-37.21,7.35-26.92,17.22-44.38,23.11-53.18,16.49-24.6,38.15-38.95,59.39-39.4,10.64-.28,19.23,8.14,19.44,18.68v.24c.07,7.48-4.19,14-10.43,17.12-1.32.69-2.7,1.21-4.19,1.56-1.28.31-2.63.48-4.02.52-6.27.14-17.53,6.1-28.55,22.52-18.54,27.61-30.63,75.19-24.29,139.91,1.14,11.99,2.95,24.53,5.44,37.66,5.58,29.1,14.59,61.02,27.89,95.53,7.1,18.36,14.27,35.17,21.41,50.55,5.68,12.26,11.36,23.63,17.01,34.13,25.29,47.4,49.23,77.27,67.29,95.56,16.28,16.49,29.8,25.67,38.49,30.56,6.72,3.78,10.6,4.95,10.71,4.99,2.36.62,4.5,1.66,6.34,3.05,5.99,4.37,9.01,12.02,7.21,19.65Z"/>
  </g>
  <path class="cls-1" d="m705.23,468.13c-11.95,34.06-39.64,57.45-59.6,67.84-.38.21-.76.42-1.11.59-2.77,1.39-5.72,2.04-8.59,2.04-4.92,0-9.74-1.91-13.31-5.37-1.49-1.42-2.74-3.12-3.74-5.06-1.04-2.04-1.66-4.19-1.91-6.34v-.04c-.9-7.73,3.01-15.52,10.33-19.23.31-.17.76-.42,1.32-.73,10.5-5.79,60.11-36.87,39.46-95.91-19.68-56.34-85.58-50.45-88.39-50.21-.14,0-.28.03-.38.03-10.29.83-19.4-6.72-20.48-17.01-1-9.84,5.58-18.68,15.04-20.65.59-.1,1.21-.21,1.84-.28,25.12-2.7,70.23,2.7,101.66,33.16,11.12,10.74,20.51,24.63,26.71,42.37,10.01,28.65,8.59,53.74,1.14,74.77Z"/>
</svg>