<?xml version="1.0" encoding="UTF-8"?>
<svg id="Capa_1" data-name="Capa 1" xmlns="http://www.w3.org/2000/svg" viewBox="0 0 1000 1000">
  <defs>
    <style>
      .cls-1, .cls-2, .cls-3, .cls-4 {
        stroke-width: 0px;
      }

      .cls-2 {
        fill: #fff;
      }

      .cls-3 {
        fill: #00e874;
      }

      .cls-4 {
        fill: #010101;
      }
    </style>
  </defs>
  <path class="cls-2" d="m230.92,346.53c-23.4,29.51-87.5,83.43-71.22,201.46,16.28,118.03,66.14,128.2,98.69,142.45,32.56,14.24,35.61,6.1,35.61,6.1,0,0-15.26,99.71-17.3,102.76-2.03,3.05,82.41,14.24,82.41,14.24l17.99-117.71,65.45,13.93s-2.03,105.82,1.02,104.8c3.05-1.02,70.21-5.09,70.21-5.09l10.17-107.85s100.73-4.07,118.03-90.55c0,0,137.36-55.96,133.29-141.43-4.07-85.47-52.91-70.21-64.1-60.03-11.19,10.17,2.03,71.22-68.17,75.29,0,0-13.23-1.02-26.45-25.44-13.23-24.42-29.51-44.77-29.51-44.77,0,0,12.21-40.7,37.65-49.86,25.44-9.16,65.12,18.31,89.54,13.23,24.42-5.09,52.91-36.63,12.21-74.28-40.7-37.65-69.19-56.98-128.2-34.59-59.01,22.38-87.5,56.98-87.5,56.98,0,0,42.73-110.9,63.08-163.81,20.35-52.91,13.23-95.64-33.58-74.28-46.8,21.37-113.96,121.08-142.45,182.13-28.49,61.05-31.54,53.93-33.58,12.21-2.03-41.72,24.42-90.55,23.4-125.15s-34.59-62.07-74.28-11.19c-39.68,50.87-82.41,200.44-82.41,200.44Z"/>
  <g>
    <g>
      <path class="cls-4" d="m419.72,398.27c-7.54-7.9-17.1-10.78-27.62-8.31-7.69,1.8-14.21,6.71-18.31,13.42-4.71,7.73-4.94,15.43-4.95,24.16,0,7.08-1.51,14.58.78,21.47,2.41,7.26,9.52,11.44,16.91,8.63,5.21-1.98,8.15-6.03,8.27-11.41.1-4.4.1-8.87.09-13.18,0-3.79,0-7.71.06-11.56.04-1.99.42-3.63,1.09-4.63.52-.79,1.99-1.59,2.88-1.59.02,0,.03,0,.05,0,.59.02,1.88.97,2.39,1.92.71,1.32.81,3.27.83,4.62.06,5.02.06,10.13.05,15.07,0,2.8,0,5.61,0,8.41.02,7.75,5.45,13.38,12.91,13.38,7.44,0,12.87-5.63,12.92-13.38.05-7.96.09-16.43,0-24.77-.11-9.07-2.92-16.56-8.35-22.25Z"/>
      <path class="cls-4" d="m587.76,524.42l-102.82-67.52c0-1.11,0-2.21,0-3.32,0-10.5-.02-21.36.06-32.03.02-1.96.42-4.18,1.2-6.58.37-1.14,1.49-1.78,2.55-1.47,1.09.32,2.36,1.35,2.91,2.33.64,1.17.66,3.1.68,4.38.05,4.34.04,8.76.04,13.04,0,3.32,0,6.64.01,9.96.03,5.27,3.23,9.91,8.16,11.84,8.95,3.5,17.38-3.95,17.87-12.79.65-11.69,1.76-24.44-2.38-35.63-3.84-10.36-13.45-18.29-24.62-18.99-8.42-.53-16.36,2.17-22.34,7.58-5.96,5.4-9.41,12.99-9.72,21.38-.25,6.7-.24,13.5-.23,20.08,0,2.15,0,4.31,0,6.46,0,1.8-.02,3.59-.03,5.39-.04,5.96-.08,12.11.16,18.18.05,1.32.27,2.57.62,3.73.88,3.3,2.91,6.3,5.98,8.31l76.72,50.38-96.23,15.62c-7.82,1.27-13.16,8.67-11.89,16.49,1.14,7,7.1,12.07,14.17,12.07.77,0,1.55-.06,2.32-.19l131.43-21.33,1.42-.31c5.97-1.64,10.36-6.88,10.93-13.04.51-5.56-2.23-11.08-6.95-14.02Z"/>
      <path class="cls-4" d="m406.28,583.9c-39.05-4.43-40.59-29.08-40.64-31.85.02-7.84-6.34-14.3-14.12-14.41-.09,0-.17,0-.25,0-7.81,0-14.26,6.36-14.37,14.18-.25,18.35,13.24,54.65,66.15,60.64.54.06,1.09.09,1.64.09h0c7.31,0,13.44-5.49,14.27-12.76.43-3.82-.65-7.57-3.04-10.57s-5.81-4.9-9.62-5.33Z"/>
    </g>
    <path class="cls-4" d="m766.62,387.36c-6.61-4.62-14.21-7.48-22.16-8.55,11.24-8.72,17.97-21.58,18.51-36.15.67-18.11-7.99-53.78-73.61-89.25-26.89-14.54-56.19-16.99-87.09-7.3-25.11,7.88-46.64,22.65-61.29,34.74,10.58-35.41,23.22-64.42,38.57-88.56,15.67-24.65,24.51-46.86,26.28-66.04,1.84-19.98-4.28-36.55-17.24-46.67-27.78-21.67-76.19-7.59-115.13,33.48-39.83,42.01-78.82,122.88-93.46,155.04-.09-31.22,4.01-54.33,12.47-70.5,18.88-36.09,14.35-74.19-10.77-90.6-20.81-13.6-56.43-11.41-94.01,35.5-31.61,39.45-44.08,99.84-53.2,143.95-2.99,14.46-7.07,34.22-9.7,38.72-.9.95-1.85,1.96-2.85,3.01l-.42.44c-24.33,25.58-74.97,78.81-78.74,179.08-2.62,69.56,15.85,123.05,54.88,158.98,24.43,22.49,52.74,33.84,76.48,39.54l-29,193.06c-.79,5.24.74,10.55,4.2,14.56,3.46,4.02,8.48,6.32,13.78,6.32h358.92l-.89-39.8c-.3-13.62-8.78-25.44-21.58-30.1l-69.38-25.24,13.99-115.91c30.58-5.7,53.97-16.95,71.7-34.2,16.71-16.26,26.66-36.65,32.99-57.88,96.87-35.21,137.19-106.47,142.25-157.02,1.94-19.39,1.34-54.62-24.49-72.67Zm-111.55,171.9c-2.53-3.29-6.18-5.41-10.3-5.95-8.5-1.12-16.32,4.88-17.44,13.38-5.96,45.13-16.16,70.64-35.23,88.04-21.75,19.85-56.59,28.65-109.66,27.7h-.21s-122.86.97-122.86.97c-8.57.07-15.49,7.1-15.42,15.67.05,5.99,3.53,11.19,8.56,13.74l-20.61,135.82,80.17,36.31h-129.11l26.05-173.44c.05,0,.1,0,.16,0,8.14,0,14.95-6.37,15.5-14.5.28-4.14-1.07-8.14-3.8-11.27s-6.52-5-10.66-5.28c-128.58-8.67-138.2-122.85-136.36-171.54,3.33-88.52,48.5-136,70.2-158.82,1.36-1.43,2.63-2.77,3.81-4.02,7.48-7.98,10.64-22.11,17.09-53.31,8.47-41,20.08-97.16,47.01-130.79,23.02-28.74,43.08-35.23,52.74-28.91,9.7,6.34,12.44,26.83.23,50.16-19.53,37.33-16.5,89.17-14.68,120.16.48,8.19.89,15.26.72,19.28-.11,2.39.16,14.44,15.69,17.24,16.15,2.9,20.83-7.46,21.88-10.71,11.58-35.81,63.58-148.39,107.5-194.71,18.62-19.64,35.03-27.78,45.51-31.16,14.05-4.52,23.64-2.55,27.93.8,5.01,3.91,6.73,12.24,4.84,23.46-2.25,13.36-9.51,29.97-21,48.05-31.12,48.95-44.75,103.84-52.9,136.65-2.16,8.69-4.02,16.2-5.54,20.71-2.64,7.92,1.32,16.64,9.02,19.86,7.7,3.22,16.69-.1,20.47-7.57,7.18-14.24,43.67-55.83,87.22-69.49,22.58-7.09,43.77-5.41,63,4.98,54.2,29.3,57.58,53.9,57.32,60.74-.34,9.27-7.01,13.62-10.95,15.38-9.25,4.14-24.81,3.87-40.75-9.33-18.35-15.18-35.35-15.03-46.38-12.23-37.65,9.57-60.1,63.12-62.54,69.2l-4.06,10.27,8.31,7.26c.3.26,30.05,26.74,44.69,76.4,1.17,3.98,3.83,7.27,7.47,9.26,3.65,1.99,7.85,2.43,11.83,1.26,3.98-1.17,7.27-3.83,9.25-7.47.83-1.52,1.37-3.14,1.66-4.8,24.5-5.39,59.81-19.3,62.61-66.83.44-7.42,5.29-14.08,12.98-17.8,6.19-3,15.44-4.37,22.81.78,9.51,6.64,13.54,22.29,11.36,44.08-5.53,55.27-53.13,99.56-103.35,123.15.48-3.14.92-6.25,1.32-9.33.54-4.12-.55-8.2-3.08-11.49Zm-267.11,155l35.18-.28,1.04,137.72-53.41-24.19,17.19-113.25Zm94.12-.74c2.66.05,5.26.07,7.85.07,6.3,0,12.37-.15,18.25-.44l-16.24,135.52,93.98,34.19.05,2.07h-126.27l-1.29-171.22,23.68-.19Zm199.92-285.46c-.77,13.15-5.22,22.21-13.98,28.53-6.08,4.38-14.19,7.53-26.16,10.09-12.18-29.14-27.83-49.09-37.53-59.67,4.94-9.77,20.17-37.2,37.15-41.52,3.81-.96,9.91-1.39,18.9,6.05,12.98,10.74,27.8,17.03,42.38,18.49-12.3,9.27-19.86,22.88-20.75,38.04Z"/>
    <path class="cls-4" d="m286.23,783.94c2.71-.68,74.54,0,74.54,0,0,0-10.16,46.08,0,46.08s70.47,37.27,70.47,37.27v30.49h-168.75l23.75-113.84Z"/>
    <path class="cls-4" d="m456.9,783.94c2.71-.68,74.54,0,74.54,0,0,0-10.16,46.08,0,46.08s70.47,37.27,70.47,37.27v30.49h-168.75l23.75-113.84Z"/>
  </g>
  <g>
    <g>
      <path class="cls-3" d="m789.81,247.97c-44.39,0-80.5-36.11-80.5-80.49s36.11-80.5,80.5-80.5,80.49,36.11,80.49,80.5-36.11,80.49-80.49,80.49Z"/>
      <path class="cls-1" d="m789.81,98.9c37.87,0,68.58,30.7,68.58,68.57s-30.7,68.58-68.58,68.58-68.58-30.7-68.58-68.58,30.7-68.57,68.58-68.57m-8.57,76.64l-12.59-12.59c-1.24-1.26-2.88-1.88-4.52-1.88s-3.3.63-4.56,1.88c-2.52,2.49-2.52,6.56,0,9.08l17.14,17.14c1.25,1.26,2.89,1.89,4.53,1.89s3.29-.63,4.55-1.89l34.29-34.29-.03-.03c2.52-2.49,2.49-6.56,0-9.08-1.25-1.26-2.89-1.89-4.53-1.89s-3.29.63-4.55,1.89l-29.73,29.76m8.57-100.48c-50.96,0-92.42,41.46-92.42,92.42s41.46,92.42,92.42,92.42,92.42-41.46,92.42-92.42-41.46-92.42-92.42-92.42h0Z"/>
    </g>
    <g>
      <polyline class="cls-3" points="757.71 169.35 779.6 187.48 824.06 142.68"/>
      <path class="cls-1" d="m779.59,199.4c-2.69,0-5.38-.9-7.6-2.74l-21.89-18.13c-5.07-4.2-5.78-11.71-1.58-16.78,4.2-5.07,11.71-5.78,16.78-1.58l13.5,11.18,36.79-37.07c4.64-4.68,12.19-4.7,16.86-.06,4.67,4.64,4.7,12.19.06,16.86l-44.46,44.8c-2.32,2.33-5.39,3.52-8.46,3.52Z"/>
    </g>
  </g>
</svg>