<?xml version="1.0" encoding="UTF-8"?>
<svg id="Capa_1" data-name="Capa 1" xmlns="http://www.w3.org/2000/svg" viewBox="0 0 1000 1000">
  <defs>
    <style>
      .cls-1, .cls-2, .cls-3, .cls-4 {
        stroke-width: 0px;
      }

      .cls-2 {
        fill: #9440ff;
      }

      .cls-3 {
        fill: #fff;
      }

      .cls-4 {
        fill: #010101;
      }
    </style>
  </defs>
  <path class="cls-3" d="m230.6,786.16l35.35-93.19s-75.24-22.46-107.81-74.12c-32.57-51.66-23.58-117.92-16.85-159.47,6.74-41.55,12.35-59.52,12.35-59.52,0,0-47.17-62.89-75.24-101.07-28.08-38.18-30.32-80.86-7.86-80.86s66.26,11.23,111.18,52.78c44.92,41.55,59.52,67.38,59.52,67.38,0,0-35.94-150.49-48.29-195.41-12.35-44.92-11.23-74.12,17.97-76.37,29.2-2.25,80.86,25.83,105.57,86.47,24.71,60.64,51.66,126.9,51.66,126.9,0,0,31.45-43.8,31.45-103.32s16.85-120.17,41.55-116.8c24.71,3.37,60.64,35.94,60.64,104.44s-15.72,178.56-15.72,178.56l56.15,42.68s79.18,2.83,103.89-42.09c24.71-44.92,82.41-64.35,98.13-26.17,15.72,38.18-10.61,75.44-42.06,127.1-31.45,51.66-97.08,69.18-97.08,69.18,0,0,12.35,124.66-51.66,153.86-64.01,29.2-47.17,24.71-47.17,24.71l-13.48,116.8-76.37,20.21-3.37-125.78-66.26,1.12-42.09,99.92-74.12-17.97Z"/>
  <path class="cls-4" d="m336.52,468.62c-7.53.75-14.6-4.23-16.28-11.81l-6.13-27.65c-1.81-8.17,3.34-16.27,11.52-18.08,8.18-1.78,16.27,3.34,18.08,11.52l6.13,27.65c1.81,8.17-3.34,16.27-11.52,18.08-.6.13-1.2.23-1.8.29Z"/>
  <path class="cls-4" d="m431.13,444.97c-7.53.75-14.6-4.23-16.28-11.81l-6.13-27.64c-1.81-8.17,3.34-16.27,11.52-18.08,8.18-1.78,16.27,3.34,18.08,11.52l6.13,27.64c1.81,8.17-3.34,16.27-11.52,18.08-.6.13-1.2.23-1.8.29Z"/>
  <path class="cls-4" d="m382.23,560.23c-6.6-.12-12.35-5.24-13.4-12.39-1.17-8.01,4-15.52,11.55-16.79l95.28-15.92c-30.11-18.49-44.47-27.25-69.72-39.39-6.96-3.34-10.03-12.04-6.86-19.43,3.17-7.38,11.38-10.67,18.34-7.31,34.93,16.8,61.07,32.93,104.42,61.13,5.03,3.2,7.7,9.35,6.67,15.53-1.06,6.39-5.84,11.35-11.9,12.33l-131.99,22.05c-.81.13-1.62.19-2.41.18Zm130.22-51.24s-.09.02-.13.02l.13-.02Z"/>
  <path class="cls-4" d="m352.06,933.4l-189.82-37.6c-10.17-2.76-15.5-13.93-11.26-23.58l77.06-172.52c3.2-7.28,11.06-11.73,18.83-10.03,10.69,2.34,16.04,13.59,11.87,23.06l-69.7,155.79,137.43,37.34-74.75-61.76,78.54-139.38c4.21-9.54,16.28-13.18,25.24-6.63,6.36,4.65,8.26,13.34,5.07,20.54l-68.15,115.85,47.47,32.61c15.71,10.79,22.7,30.47,17.32,48.75l-5.16,17.55Z"/>
  <path class="cls-4" d="m598.41,929.37h-200.83l-1.64-216.95c-.07-9.21,7.34-16.73,16.55-16.8,9.21-.13,16.73,7.34,16.8,16.55l1.39,183.86h133.63l-.11-4.78-96.98-35.28,19.02-164.41c1.06-9.15,9.32-15.69,18.48-14.65,9.15,1.06,15.7,9.33,14.65,18.48l-15.99,138.24,65.33,23.77c17.07,6.21,28.59,22.27,28.99,40.43l.7,31.54Z"/>
  <path class="cls-4" d="m221.8,767.67c2.89.06,74.34,20.2,74.34,20.2,0,0-22.62,43.2-12.49,45.95,10.14,2.75,60.18,56.27,60.18,56.27l-8.26,30.41-168.31-45.73,54.53-107.1Z"/>
  <path class="cls-4" d="m429.33,790.11c2.8-.7,77.03,0,77.03,0,0,0-10.5,47.62,0,47.62s72.83,38.52,72.83,38.52v31.51h-174.41l24.54-117.65Z"/>
  <path class="cls-4" d="m478.09,712.2c-9.16,0-16.61-7.39-16.67-16.56-.06-9.21,7.35-16.73,16.56-16.79,39.84-.27,69.54-15,88.29-43.77,22.98-35.27,26.08-89.79,7.54-132.58-3.66-8.45.22-18.27,8.67-21.93,8.45-3.67,18.27.22,21.93,8.67,23.1,53.31,19,119.23-10.2,164.05-17.36,26.63-51.57,58.48-116,58.92h-.12Z"/>
  <path class="cls-4" d="m279.89,720.15c-7.16,0-54.59-1.89-104.95-49.59-47.83-45.32-64.17-94.25-56.39-168.91,2.88-27.65,8.2-44.91,12.07-57.51,5.1-16.58,6.02-19.57-1.22-31.47-9.03-14.83-22.79-33.49-37.35-53.25-14.67-19.89-29.84-40.47-41.49-58.97-16.97-26.96-19.73-54.83-7.2-72.73,6.47-9.24,22.67-23.58,58.38-15.87,34.37,7.43,75.24,41.79,107.46,76.45-11.14-46.82-26.24-104.63-39.33-130.81-13.29-26.58-10.5-64.25,20.54-84.83,22.53-14.94,57.46-15.74,84.7,16.15,33.82,39.58,60.6,80.88,90.54,162.71,11.16-34.07,15.52-70.97,12.99-110.14-2.55-39.44,14.85-73.55,42.31-82.92,23.5-8.03,48.59,3.57,67.12,31.03,18.17,26.92,27.13,67.61,26.62,120.94-.45,47.59-8.39,94.38-14.1,122.06,8.96,11.02,29.96,36.45,60.67,71.28,5.76,6.53,6.14,16.59.19,22.94-6.83,7.29-18.26,6.98-24.71-.33-42.5-48.16-66.19-77.99-67.17-79.24l-4.91-6.19,1.68-7.72c17.24-79.03,24.74-179.67-5.92-225.09-4.61-6.82-16.61-22.26-28.7-18.12-10.9,3.72-21.55,22.24-19.81,49.21,3.8,58.87-6.52,113.36-30.67,161.96-.66,1.33-1.17,2.33-1.46,2.99h0c-2.6,6.53-9.01,10.73-16.03,10.5h-.12c-7.04-.23-13.25-4.88-15.46-11.57-37.89-115.88-68.18-157.25-98.43-192.65-12.69-14.85-27.99-18.6-40.92-10.02-10.92,7.24-18.44,23.51-9.14,42.12,20.35,40.7,42.7,140.21,53.44,188.04,2.18,9.7,4.24,18.87,4.79,20.72l2.63,6.76c2.99,7.69-.5,16.39-7.99,19.87h0s-.74.33-.74.33c-7.19,3.25-15.68.65-19.8-6.08l-4.39-7.16c-26.47-42.26-93.02-111.96-132.95-120.6-11.96-2.58-21.16-1.67-24.01,2.4-3.69,5.27-2.11,19.62,8.1,35.83,11,17.47,25.8,37.54,40.11,56.95,15.02,20.37,29.2,39.6,39,55.7,15.05,24.72,10.44,39.68,4.61,58.62-3.67,11.92-8.24,26.75-10.78,51.15-6.74,64.7,5.77,102.98,46.16,141.25,42.76,40.52,80.39,40.55,81.94,40.46,9.11-.35,16.83,6.92,17.13,16.12.3,9.2-7,16.91-16.2,17.21-.12,0-.42.01-.86.01Z"/>
  <path class="cls-4" d="m604.59,526.75l-9.93-31.83c64.82-20.23,112.5-65.71,130.81-124.77,4.6-14.84,9.74-41.16-7.55-50.69-12.58-6.92-34.1-4.25-39.13,4.89-32.85,59.73-90.43,71.88-117.9,84.12-3.62,1.61-7.25,3.23-10.89,4.9l-13.93-30.3c3.76-1.73,7.51-3.4,11.25-5.07,26.3-11.71,80.18-28.42,106.12-75.32,13.34-24.11,54.81-26.64,80.58-12.42,13.13,7.24,41.69,30.48,23.3,89.77-21.62,69.7-77.28,123.18-152.73,146.73Z"/>
  <path class="cls-4" d="m383.43,729.91c-11.17,0-22.98-1.28-40.61-4.22-9.08-1.51-15.22-10.1-13.71-19.19,1.52-9.09,10.11-15.24,19.19-13.7,32.44,5.41,40.24,4.61,71.79-.05,9.1-1.34,17.59,4.95,18.93,14.06,1.35,9.11-4.95,17.59-14.06,18.93-17.68,2.61-29.21,4.17-41.54,4.17Z"/>
  <g>
    <g>
      <polygon class="cls-3" points="767.13 694.22 761.09 912.66 810.61 917.62 814.07 896.03 801.75 865.51 823.97 834.1 812.75 799.82 834.65 767.27 821.17 732.28 845.09 702.03 767.13 694.22"/>
      <path class="cls-4" d="m822.34,932.85l-75.58-7.57,6.81-246.47,118.33,11.85-34.82,44.03,13.24,34.35-22.16,32.92,11.28,34.46-21.87,30.93,10.92,27.04-6.15,38.45Zm-46.91-32.8l23.46,2.35.76-4.74-13.72-33.99,22.57-31.91-11.16-34.08,21.66-32.18-13.74-35.64,13.02-16.46-37.58-3.76-5.26,190.42Z"/>
    </g>
    <g>
      <path class="cls-2" d="m904.09,451.73c-7.14-.71-13.58-4.57-17.59-10.52-11.87-17.61-31.09-30.58-53.96-32.87-22.51-2.25-43.6,6.33-58.1,21.52-5.38,5.64-13.04,8.51-20.77,7.51h0c-13.5-1.74-25.77,8.01-27.12,21.55l-18.33,183.02c-2.8,27.97,17.52,52.95,45.47,55.9l99.41,10.5c28.09,2.97,53.25-17.42,56.18-45.5l19.24-184.28c1.39-13.31-8.3-25.21-21.62-26.54l-2.8-.28Z"/>
      <path class="cls-4" d="m861.43,719.24c-2.27,0-4.55-.12-6.84-.36l-99.41-10.5c-34.91-3.69-60.46-35.1-56.96-70.02l18.33-183.02c1.01-10.05,5.92-19.04,13.82-25.32,7.91-6.28,17.78-9.02,27.79-7.74,3.57.46,7.14-.86,9.78-3.63,17.9-18.75,42.95-28.03,68.72-25.44,25.51,2.55,48.61,16.59,63.38,38.5,1.87,2.77,4.85,4.55,8.17,4.89h0l2.8.28c9.87.99,18.77,5.77,25.04,13.47,6.27,7.7,9.16,17.38,8.13,27.26l-19.24,184.28c-1.78,17.02-10.08,32.32-23.37,43.09-11.51,9.32-25.56,14.27-40.16,14.27Zm-108.03-271.45c-2.52,0-4.96.84-6.97,2.44-2.4,1.91-3.89,4.64-4.19,7.69l-18.33,183.01c-2.09,20.84,13.16,39.58,33.99,41.78l99.41,10.5c10.14,1.07,20.11-1.88,28.04-8.3,7.93-6.43,12.88-15.55,13.94-25.71l19.24-184.28c.31-3-.56-5.93-2.47-8.27-1.9-2.34-4.6-3.79-7.6-4.09l-2.81-.28c-10.99-1.1-20.83-6.98-27-16.14-10.47-15.53-26.7-25.46-44.55-27.25-17.8-1.78-35.11,4.63-47.48,17.59-8.25,8.64-20.13,12.9-31.75,11.4-.49-.06-.98-.09-1.46-.09Z"/>
    </g>
    <g>
      <rect class="cls-3" x="758.22" y="481.75" width="120.43" height="177.17" rx="9.94" ry="9.94" transform="translate(60.92 -78.73) rotate(5.72)"/>
      <path class="cls-4" d="m850.4,674.28c-1.1,0-2.21-.05-3.33-.17h0l-77.28-7.74c-18.22-1.82-31.56-18.13-29.74-36.35l13.4-133.74c.88-8.83,5.15-16.78,12.02-22.4,6.87-5.62,15.52-8.22,24.34-7.34l77.28,7.74c18.22,1.83,31.56,18.13,29.73,36.35l-13.4,133.74c-1.71,17.1-16.19,29.9-33.02,29.9Zm-.98-23.71c5.24.53,9.93-3.31,10.45-8.55l13.4-133.74c.52-5.24-3.31-9.93-8.55-10.45l-77.28-7.74c-2.55-.26-5.02.5-7,2.11-1.97,1.62-3.2,3.9-3.46,6.44l-13.4,133.74c-.52,5.24,3.31,9.93,8.55,10.45l77.28,7.74Z"/>
    </g>
    <g>
      <line class="cls-3" x1="763.24" y1="561.27" x2="872.15" y2="572.18"/>
      <path class="cls-4" d="m872.16,584.01c-.39,0-.79-.02-1.19-.06l-108.91-10.91c-6.5-.65-11.24-6.45-10.59-12.95.65-6.5,6.43-11.23,12.95-10.59l108.91,10.91c6.5.65,11.24,6.45,10.59,12.95-.61,6.1-5.75,10.65-11.76,10.65Z"/>
    </g>
    <path class="cls-1" d="m808.11,600.79l-.48,4.77,15.91,1.59.48-4.77c.44-4.4-2.76-8.31-7.16-8.75s-8.31,2.76-8.75,7.16Zm-6.84,4.14l.48-4.77c.79-7.91,7.85-13.68,15.76-12.89,7.91.79,13.68,7.85,12.89,15.76l-.48,4.77,1.59.16c3.51.35,6.08,3.49,5.73,7l-1.91,19.1c-.35,3.51-3.49,6.08-7,5.73l-31.83-3.19c-3.51-.35-6.08-3.49-5.73-7l1.91-19.1c.35-3.51,3.49-6.08,7-5.73l1.59.16Z"/>
    <path class="cls-1" d="m837.72,514.02c.44-4.36,4.32-7.54,8.68-7.1,4.36.44,7.54,4.32,7.1,8.68l-.47,4.73c-.17,1.75,1.09,3.3,2.84,3.47,1.75.17,3.3-1.09,3.47-2.84l.47-4.73c.79-7.84-4.94-14.84-12.78-15.62-7.84-.79-14.84,4.94-15.62,12.78l-.47,4.73-22.09-2.21c-3.48-.35-6.59,2.2-6.94,5.68l-1.9,18.93c-.35,3.48,2.2,6.59,5.68,6.94l31.56,3.16c3.48.35,6.59-2.2,6.94-5.68l1.9-18.93c.35-3.48-2.2-6.59-5.68-6.94l-3.16-.32.47-4.73Z"/>
  </g>
  <path class="cls-4" d="m374.86,624.77c-.52,0-1.04-.03-1.56-.09-55.11-6.25-69.18-43.86-68.91-62.87.1-7.5,6.21-13.5,13.68-13.5.06,0,.13,0,.19,0,7.51.1,13.52,6.23,13.5,13.72.05,3.25,1.8,30.59,44.62,35.45,7.51.85,12.91,7.63,12.06,15.14-.79,6.99-6.71,12.14-13.58,12.15Z"/>
</svg>