<?xml version="1.0" encoding="UTF-8"?>
<svg id="Capa_1" data-name="Capa 1" xmlns="http://www.w3.org/2000/svg" viewBox="0 0 1000 1000">
  <defs>
    <style>
      .cls-1, .cls-2, .cls-3, .cls-4 {
        stroke-width: 0px;
      }

      .cls-2 {
        fill: #9540ff;
      }

      .cls-3 {
        fill: #fff;
      }

      .cls-4 {
        fill: #010101;
      }
    </style>
  </defs>
  <g>
    <g>
      <path class="cls-3" d="m233.11,800.59l7.14-84.85s-63.48-17.11-91.9-59.62c-28.42-42.51-22.38-98.17-17.67-133.1,4.71-34.93,9.01-50.09,9.01-50.09,0,0-40.89-51.58-65.24-82.91-24.35-31.33-27.19-67-8.39-67.5,18.8-.5,55.71,7.92,94.24,41.69,38.53,33.77,51.33,55.06,51.33,55.06,0,0-33.45-125.15-44.79-162.47-11.35-37.32-11.06-61.79,13.33-64.32,24.39-2.53,68.26,19.81,90.29,70.01,22.04,50.2,46.08,105.06,46.08,105.06,0,0,25.34-37.36,24.01-87.18-1.33-49.82,11.41-100.95,32.16-98.69,20.75,2.27,51.56,28.72,53.1,86.06,1.53,57.34-9.16,149.81-9.16,149.81l47.95,34.46s61.35-.3,81.02-38.45c19.67-38.15,56.46-45.97,70.47-14.37,14.01,31.61-.84,62.22-26,106.16-25.16,43.94-69.99,52.4-69.99,52.4,0,0,13.13,104.06-39.79,129.93-52.92,25.87-38.92,21.74-38.92,21.74l42.82,58.03-41.63,44.35-78.95-90.89-55.43,2.42-12.63,90.64-62.44-13.38Z"/>
      <g>
        <path class="cls-4" d="m294.12,526.76c-6.29.8-12.32-3.22-13.89-9.52l-5.75-23c-1.7-6.8,2.43-13.69,9.24-15.39,6.8-1.68,13.69,2.43,15.39,9.24l5.75,23c1.7,6.8-2.43,13.69-9.24,15.39-.5.12-1,.22-1.5.28Z"/>
        <path class="cls-4" d="m372.77,504.84c-6.29.8-12.32-3.22-13.89-9.52l-5.75-23c-1.7-6.8,2.43-13.69,9.24-15.39,6.8-1.67,13.69,2.43,15.39,9.24l5.75,23c1.7,6.8-2.43,13.69-9.24,15.39-.5.12-1,.22-1.5.28Z"/>
        <path class="cls-4" d="m334.43,602.41c-5.52.05-10.45-4.11-11.49-10.07-1.16-6.68,3-13.08,9.29-14.31l79.39-15.46c-25.62-14.8-37.83-21.81-59.23-31.41-5.9-2.64-8.66-9.86-6.17-16.11,2.49-6.25,9.29-9.18,15.19-6.53,29.61,13.28,51.85,26.19,88.77,48.83,4.28,2.56,6.65,7.65,5.93,12.85-.75,5.38-4.64,9.63-9.68,10.59l-109.98,21.41c-.68.13-1.35.2-2.02.2Zm107.84-45.8s-.07.02-.11.02l.11-.02Z"/>
        <path class="cls-4" d="m379.6,910.39l-165.12,4.42c-8.82.24-15.79-7.43-14.71-16.19l21.77-177.01c.81-6.57,5.95-12,12.55-12.57,9.2-.79,16.27,6.98,15.21,15.61l-19.9,161.83,119.2-3.19-74.83-31.5,15.62-125.45c1.07-8.63,9.81-14.45,18.55-11.43,6.26,2.16,9.93,8.7,9.11,15.28l-12.96,104.08,51.72,21.78c12.8,5.39,21.45,17.55,22.33,31.41l1.46,22.95Z"/>
        <path class="cls-4" d="m617.71,751.82l-107.38,122.45-156.11-134.73c-5.65-4.88-6.28-13.42-1.4-19.07,4.85-5.69,13.42-6.28,19.07-1.4l135.8,117.19,71.45-81.48-2.97-2.49-73.37,40.27-68.42-72.17c-5.01-5.54-4.58-14.07.95-19.1,5.54-5.01,14.09-4.59,19.1.95l54.09,56.33,55.12-30.25c9.48-5.2,21.19-4.06,29.48,2.89l24.59,20.61Z"/>
        <path class="cls-4" d="m231.36,797.71c2.33-.65,64.48-1.72,64.48-1.72,0,0-7.73,40.09,1.07,39.86,8.79-.24,61.82,30.61,61.82,30.61l.71,26.38-145.97,3.91,17.91-99.02Z"/>
        <path class="cls-4" d="m442.66,780.82c.96-2.13,34.31-45.7,34.31-45.7,0,0,28.99,36.71,34.28,30.03,5.29-6.68,61.62-36.26,61.62-36.26l20.04,15.86-87.79,110.9-62.46-74.83Z"/>
        <path class="cls-4" d="m418.06,727.46c-7.66.21-14.07-5.81-14.32-13.49-.26-7.71,5.78-14.17,13.48-14.42,33.33-1.12,57.87-14.11,72.92-38.61,18.45-30.03,19.82-75.74,3.34-111.14-3.25-6.99-.23-15.29,6.76-18.55,6.99-3.26,15.3-.23,18.55,6.77,20.53,44.1,18.57,99.37-4.86,137.53-13.93,22.68-41.85,50.1-95.77,51.91h-.1Z"/>
        <path class="cls-4" d="m252.35,738.55c-5.99.16-45.73-.36-88.95-39.16-41.05-36.86-55.82-77.45-50.98-140.11,1.79-23.21,5.85-37.77,8.82-48.41,3.9-13.99,4.6-16.51-1.73-26.31-7.89-12.21-19.82-27.52-32.45-43.73-12.72-16.32-25.88-33.2-36.05-48.43-14.81-22.19-17.74-45.45-7.65-60.71,5.21-7.88,18.44-20.24,48.5-14.59,28.93,5.45,63.91,33.29,91.66,61.58-10.37-38.93-24.31-86.99-35.85-108.6-11.72-21.95-10.23-53.54,15.29-71.46,18.52-13.01,47.74-14.46,71.25,11.62,29.19,32.37,52.53,66.34,79.42,134.16,8.57-28.77,11.4-59.75,8.41-92.47-3.02-32.96,10.78-61.89,33.56-70.35,19.49-7.24,40.75,1.9,56.87,24.47,15.81,22.12,24.22,55.98,24.99,100.63.69,39.84-4.91,79.18-9.07,102.48,7.75,9.02,25.89,29.84,52.38,58.3,4.97,5.34,5.51,13.75.67,19.2-5.55,6.25-15.13,6.25-20.69.27-36.65-39.36-57.14-63.79-58-64.82l-4.25-5.07,1.24-6.5c12.66-66.53,16.69-150.93-9.99-188.26-4.01-5.61-14.4-18.26-24.43-14.53-9.04,3.36-17.54,19.09-15.48,41.63,4.5,49.19-2.92,95.02-22.05,136.24-.52,1.13-.93,1.97-1.15,2.54h0c-2.03,5.52-7.3,9.18-13.18,9.15h-.1c-5.89-.03-11.2-3.78-13.2-9.33-34.31-96.14-60.58-130.09-86.69-159.04-10.95-12.15-23.84-14.94-34.48-7.47-8.98,6.31-14.91,20.09-6.7,35.46,17.94,33.61,38.88,116.4,48.94,156.18,2.04,8.07,3.97,15.7,4.47,17.23l.02.06c2.17,6.62-.84,13.83-7.08,16.94l-.14.07h0c-6.31,3.06-13.91.99-17.81-4.84l-.05-.07c-23.1-34.78-80.36-91.63-113.98-97.96-10.07-1.9-17.75-.92-20.04,2.54-2.97,4.49-1.32,16.47,7.58,29.81,9.6,14.38,22.43,30.85,34.85,46.77,13.02,16.71,25.33,32.49,33.89,45.74,13.15,20.35,9.63,32.98,5.17,48.96-2.8,10.06-6.29,22.57-7.88,43.06-4.19,54.3,7.14,86.06,41.8,117.18,36.7,32.95,68.19,32.14,69.49,32.03,7.62-.5,14.24,5.41,14.7,13.11.46,7.7-5.48,14.31-13.17,14.77-.1,0-.35.02-.72.03Z"/>
        <path class="cls-4" d="m514.72,580.41l-9.57-26.23c53.41-19.49,91.48-59.41,104.45-109.54,3.26-12.59,6.51-34.81-8.33-42.1-10.79-5.29-27.3-1.36-32.53,5.64-25.25,33.79-68.84,53.34-91.33,64.67-2.96,1.49-5.94,2.99-8.92,4.53l-12.85-24.79c3.08-1.6,6.15-3.14,9.21-4.68,21.53-10.84,61.3-27.06,81.83-56.84,13.09-19,44.79-24.45,66.9-13.58,11.27,5.54,36.07,23.84,23.05,74.15-15.31,59.15-59.75,106.08-121.91,128.77Z"/>
        <path class="cls-4" d="m339.23,744.4c-9.35.25-19.26-.56-34.08-2.62-7.64-1.06-12.97-8.12-11.9-15.75,1.07-7.64,8.12-12.98,15.75-11.9,27.27,3.8,33.78,2.96,60.08-1.65,7.59-1.33,14.83,3.75,16.16,11.34,1.33,7.59-3.75,14.83-11.34,16.16-14.74,2.58-24.36,4.14-34.67,4.42Z"/>
      </g>
    </g>
    <path class="cls-4" d="m332.08,624.08c-30.98-.58-39.4-30.61-51.25-31.23-11.85-.62-21.09,34.02-1.76,49.68,17.35,14.05,43.45,16.79,58.14,5.62,8.97-6.82,9.3-23.81-5.13-24.08Z"/>
  </g>
  <g>
    <g>
      <path class="cls-2" d="m622.74,442.96l-41.1,1.06c3.37-36.5,2.34-73.24-2.84-110.2l41.1-1.06c6.45,38.16,7.98,75.04,2.84,110.2Z"/>
      <path class="cls-1" d="m578.38,456.58c-2.35-.61-4.51-1.88-6.21-3.69-2.53-2.71-3.79-6.37-3.45-10.06,3.23-35.01,2.3-71.08-2.77-107.21-.51-3.66.56-7.37,2.95-10.19,2.39-2.82,5.87-4.49,9.57-4.58l41.1-1.06c6.46-.17,12.05,4.44,13.13,10.81,7.07,41.82,8.01,79.19,2.88,114.24-.91,6.25-6.19,10.93-12.5,11.09l-41.1,1.06c-1.23.03-2.44-.11-3.6-.41Zm15.09-110.16c3.16,28.32,3.9,56.55,2.21,84.26l15.59-.4c2.76-26.1,1.97-53.86-2.42-84.25l-15.38.4Z"/>
    </g>
    <g>
      <path class="cls-2" d="m818.14,282.01c-2.61-46.83-21.7-95.77-44.63-113.26-11.6-8.88-24.21-9.69-36.12,1.96-7.06,6.87-16.58,14.49-27.77,22.25-45.12,31.23-117.42,64.43-164.29,58.6-69.03-8.59-70.56,67.65-15.1,75.95h.03c6.4.95,19.18,2.91,35.58,6.19,4.22.83,8.66,1.74,13.32,2.75,13.11,2.87,27.78,6.48,42.95,10.93,4.51,1.32,9.07,2.71,13.63,4.17,28.58,9.25,57.85,21.59,81.11,37.8,8.61,5.96,16.36,12.48,22.98,19.56,4.99,5.35,9.75,9.24,14.33,11.83,44.5,25.36,67.63-72.67,63.97-138.72Zm-46.32,129.03c-3.22,1.37-6.96.87-11.21-1.57l.39-.7.18.11c-.53-.38-2.84-2.14-6.17-6.07-6.67-7.93-17.29-24.61-25.23-56.4,7.76-1.89,18.29-6.63,27.17-14.9,10.63-9.84,18.9-24.67,17.37-45.72-1.09-14.85-7.21-25.92-15.2-33.9-11.03-11.09-25.55-16.32-34.97-17.67-.2-.02-.38-.04-.55-.05,4.85-25.76,14.56-43.05,24.64-52.05,5.74-5.12,9.56-5.59,10.29-5.43.87.2,1.74.3,2.63.3.44.03.86.01,1.32-.04,18.38,10.08,39.91,55.63,42.73,105.79,3.11,56.23-13.41,119.8-33.38,128.32Z"/>
      <path class="cls-1" d="m831.1,281.29c-3.75-67.62-34.22-119.01-61.56-129.63-14.4-5.59-29.03-2.12-41.22,9.79-17.57,17.15-50.45,38.22-83.78,53.63-39.26,18.19-73.94,26.54-97.63,23.6-42.66-5.31-65.18,17.17-68.57,41.79-3.15,23.11,10.7,50.09,42.29,58.31,2.46.64,5,1.18,7.66,1.58,13.51,2.02,26.56,4.31,39.12,6.89,4.53.91,9.02,1.87,13.41,2.86,4.51.99,8.97,2.06,13.34,3.14,5.52,1.35,10.93,2.75,16.18,4.24,4.59,1.25,9.08,2.57,13.49,3.92,4.58,1.4,9.07,2.83,13.42,4.29,42.2,14.28,74.4,32.06,93.1,52.06,10.37,11.13,20.02,16.64,28.53,18.86,9.21,2.39,17.08.89,23.15-1.7,38.37-16.39,51.97-101.35,49.08-153.61Zm-59.29,129.75c-3.22,1.37-6.96.87-11.21-1.57-1.8-.98-3.68-2.33-5.66-4.03-1.82-1.49-3.67-3.31-5.63-5.4-6.43-6.89-13.83-13.28-21.95-19.17-5.71-4.17-11.79-8.07-18.15-11.78-22.72-13.23-49.06-23.66-75.45-31.83-4.61-1.41-9.23-2.79-13.81-4.07-.47-.12-.97-.28-1.44-.41-3.36-.93-6.73-1.84-10.08-2.71-12-3.12-23.76-5.79-34.93-8.1-2.01-.4-3.97-.79-5.92-1.18-12.9-2.52-24.89-4.53-35.42-6.11-20.58-3.12-29.82-18.12-28.1-30.69,1.6-11.65,12.87-22.9,39.65-19.58,47.25,5.88,112.26-22.33,158.2-51,6.41-4.03,12.46-8.05,18.01-11.97,10.91-7.68,20-15.06,26.52-21.44,6.11-5.98,10.39-5.46,13.71-4.15.36.12.68.26,1.02.44.42.2.85.4,1.29.63,18.38,10.08,39.91,55.63,42.73,105.79,3.11,56.23-13.41,119.8-33.38,128.32Z"/>
    </g>
    <g>
      <path class="cls-3" d="m596.03,246.95s-9.79-12.86-21.46-16.06c-11.67-3.21-44.73,7.9-44.55,58.98.18,51.08,26.58,63.43,34.77,64.44,25.96,3.21,23.01-16.21,23.01-16.21,0,0-35.97-61.68,8.23-91.15Z"/>
      <path class="cls-1" d="m559.36,366.45c-16.43-4.27-42.14-24.19-42.32-76.53-.12-35.31,13.82-53.41,25.55-62.38,11.04-8.45,24.89-12.04,35.43-9.17,15.45,4.25,27.06,19.04,28.34,20.71,2.17,2.85,3.07,6.47,2.47,10.01-.59,3.53-2.62,6.67-5.6,8.65-13.82,9.22-18.77,23.45-15.12,43.52,2.98,16.4,10.82,30.17,10.9,30.31.83,1.41,1.37,2.97,1.62,4.59.94,6.17-.4,15.87-7.24,22.9-6.84,7.03-17,9.77-30.2,8.14-1.2-.15-2.49-.39-3.83-.74Zm11.77-123.05c-1.43-.3-7.37.35-13.41,5.26-6.76,5.49-14.8,17.08-14.72,41.17.16,45.98,23.18,51.58,23.41,51.62,4.86.6,7.38,0,8.19-.38-12.34-23.33-23.87-66.2,2.24-94.7-1.9-1.35-3.87-2.45-5.7-2.95Z"/>
    </g>
    <g>
      <path class="cls-3" d="m771.81,411.04c-3.22,1.37-6.96.87-11.21-1.57l.39-.7.18.11c-.53-.38-2.84-2.14-6.17-6.07-6.67-7.93-17.29-24.61-25.23-56.4,7.76-1.89,18.29-6.63,27.17-14.9,10.63-9.84,18.9-24.67,17.37-45.72-1.09-14.85-7.21-25.92-15.2-33.9-11.03-11.09-25.55-16.32-34.97-17.67-.2-.02-.38-.04-.55-.05,4.85-25.76,14.56-43.05,24.64-52.05,5.74-5.12,9.56-5.59,10.29-5.43.87.2,1.74.3,2.63.3.44.03.86.01,1.32-.04,18.38,10.08,39.91,55.63,42.73,105.79,3.11,56.23-13.41,119.8-33.38,128.32Z"/>
      <path class="cls-2" d="m754.55,420.02s-14.19-8.1-27.18-39.15c-4.43-10.57-8.74-23.81-12.28-40.32-.6-2.75-1.14-5.57-1.7-8.49-1.73-9.27-3.23-19.43-4.4-30.64-4.63-44.32,1.22-77.36,10.94-99.98,12.11-28.14,30.26-40.07,41.57-37.4l-.32,12.25-.03.68c-.89,0-1.76-.1-2.63-.3-.73-.16-4.55.31-10.29,5.43-10.08,9-19.79,26.29-24.64,52.05.17.02.35.03.55.05,9.42,1.35,23.94,6.58,34.97,17.67l-2.16,79.61c-8.88,8.27-19.41,13.01-27.17,14.9,7.94,31.8,18.56,48.47,25.23,56.4l-.06,2.64-.39,14.59Z"/>
      <path class="cls-1" d="m755.01,402.8c3.33,3.93,5.64,5.7,6.17,6.07l-.18-.11-.39.7-6.05,10.55-.39.7-6.06,10.58c-2.57-1.47-17.58-11.12-31.25-41.97-2.63-5.93-5.2-12.64-7.64-20.25-5.53-17.23-10.31-38.97-13.15-66.31-4.05-38.65-.49-67.82,5.85-89.35,2.26-7.78,4.92-14.57,7.7-20.46,7.96-16.97,17.03-26.44,21.7-30.53,10.89-9.59,22.7-13.5,33.18-10.98,6.98,1.58,11.15,8.56,9.56,15.5-.13.62-.31,1.2-.55,1.79-1.81,4.66-6.16,7.78-11.04,8.19-.46.06-.88.07-1.32.04-.89,0-1.76-.1-2.63-.3-.73-.16-4.55.31-10.29,5.43-10.08,9-19.79,26.29-24.64,52.05-1.49,7.78-2.52,16.36-2.97,25.75-.61,12.09-.27,25.46,1.27,40.16.78,7.41,1.69,14.35,2.75,20.83,1.49,9.41,3.25,17.89,5.14,25.5,7.94,31.8,18.56,48.47,25.23,56.4Z"/>
    </g>
    <path class="cls-1" d="m756.95,331.5c-8.88,8.27-19.41,13.01-27.17,14.9-.22.06-.42.13-.64.16-2.12.49-4.22.42-6.17-.09-3.27-.85-6.14-2.97-7.88-5.92-.69-1.13-1.2-2.37-1.5-3.73-.39-1.59-.42-3.21-.19-4.76.71-5.15,4.54-9.57,9.93-10.8.25-.05.7-.17,1.32-.37,5.73-1.76,25.5-9.52,23.8-33.23-1.62-22.29-24.09-27.12-27.82-27.76-.11-.03-.2-.02-.29-.04-7.05-1.06-11.91-7.71-10.85-14.77,1.06-6.84,7.26-11.64,14.1-10.93.17.02.35.03.55.05,9.42,1.35,23.94,6.58,34.97,17.67,8,7.98,14.12,19.04,15.2,33.9,1.53,21.05-6.73,35.88-17.37,45.72Z"/>
  </g>
  <g>
    <path class="cls-1" d="m900.4,233.91c1.91-1.71,3.02-4.04,3.13-6.57.08-2.52-.81-4.93-2.57-6.79-1.76-1.86-4.16-2.93-6.76-3.03-2.6-.1-5.08.79-6.99,2.5l-38.14,34.18c-1.96,1.75-3.1,4.24-3.14,6.83-.03,2.42.88,4.74,2.58,6.53,1.76,1.86,4.16,2.93,6.76,3.03,2.6.1,5.08-.79,6.99-2.5l38.14-34.18Z"/>
    <path class="cls-1" d="m891.58,385.45c2.59-.25,4.92-1.46,6.57-3.41,3.41-4.03,2.8-9.99-1.34-13.3l-39-31.11c-4.15-3.31-10.29-2.72-13.7,1.3-1.4,1.65-2.18,3.74-2.21,5.87-.04,2.89,1.26,5.6,3.55,7.43l39,31.11c2.01,1.6,4.54,2.35,7.13,2.1Z"/>
    <path class="cls-1" d="m931.66,273.85c4.52-1.72,6.93-6.9,5.47-11.8-.75-2.55-2.49-4.64-4.77-5.73-2.08-1-4.41-1.1-6.57-.28l-60.79,23.06c-3.47,1.32-5.83,4.85-5.89,8.8-.01,1.01.13,2.02.42,3.01.76,2.55,2.5,4.64,4.77,5.73,2.08,1,4.41,1.1,6.57.28l60.8-23.07Z"/>
    <path class="cls-1" d="m929.68,352.88c2.34-.95,4.2-2.92,5.11-5.41,1.75-4.79-.33-10.11-4.72-12.12l-60.12-27.53c-2.11-.97-4.45-1.02-6.6-.15-2.34.94-4.2,2.92-5.11,5.41-.39,1.07-.59,2.18-.61,3.32-.05,3.84,2.04,7.3,5.33,8.8l60.12,27.53c2.11.97,4.46,1.02,6.6.15Z"/>
  </g>
</svg>