<?xml version="1.0" encoding="UTF-8"?>
<svg id="Capa_1" data-name="Capa 1" xmlns="http://www.w3.org/2000/svg" viewBox="0 0 1000 1000">
  <defs>
    <style>
      .cls-1 {
        fill: #9440ff;
      }

      .cls-1, .cls-2, .cls-3 {
        stroke-width: 0px;
      }

      .cls-2 {
        fill: #fff;
      }

      .cls-3 {
        fill: #010101;
      }
    </style>
  </defs>
  <path class="cls-1" d="m324.66,537.38c7.08,43.28,0,66.1,0,66.1,0,0-59.8,74.75-89.71,119.61-29.9,44.85-40.32,176.21-40.32,176.21h522.32l87.35-4.96c44.74-23.94-77.21-314.4-138.14-304.23-24.67,4.12-22.82-10.23-22.82-10.23l-9.44-110.95s-169.18-12.59-228.2,11.02c-59.02,23.61-77.9,28.33-77.9,28.33l-3.15,29.12Z"/>
  <path class="cls-3" d="m182.48,917.91l.49-15.29c3.8-119.33,43.58-197.49,76.28-242.04,25.52-34.76,50.69-55.07,63.69-64.23l-16.07-85.15,25.03,10.27c76.8,31.52,149.94,36.05,217.4,13.47,50.46-16.89,78.77-43.51,79.06-43.78l21.68-20.66,10.45,101.31c75.42,36.33,127.68,103.49,151.41,194.79,18.29,70.38,13.31,129.71,13.09,132.2l-1.31,17.34-641.18,1.77Zm163.1-359.94l9.98,52.89-9.15,5.18c-.28.16-32.2,18.8-64.48,63.28-28.41,39.15-61.7,103.3-67.9,205.6l582.23-1.98c.38-20.66-.76-63.03-13.04-109.81-22.62-86.21-70.56-146.13-142.47-178.09l-7.78-3.46-6.38-62.06c-14.98,10.12-37.35,22.83-66.44,32.75-47.26,16.11-121.46,27.43-214.57-4.3Z"/>
  <path class="cls-3" d="m435.41,684.36c-25.49,0-52.17-13.31-79.32-39.57-19.51-18.88-32.11-37.73-32.64-38.52-4.49-6.76-2.64-15.87,4.11-20.36,6.75-4.48,15.86-2.65,20.35,4.1h0c12.11,18.16,51.28,64.98,87.52,64.98.23,0,.46,0,.7,0,42.93-.71,63.87-39.06,64.74-40.69l9.45-17.72,14.06,14.32c1.13,1.13,29.3,28.86,70.69,21.61,36.37-6.38,35.8-63.58,35.76-64.15-.67-8.08,1.69-14,9.77-14.67,8.09-.65,15.18,5.34,15.85,13.43,2.39,28.79-6.31,85.56-56.3,94.33-37.51,6.6-66.91-7.82-83.06-18.89-13.06,16.51-39.35,41.12-80.46,41.81-.4,0-.81.01-1.22.01Z"/>
  <path class="cls-3" d="m545.04,900.95c-.13,0-.25,0-.38,0-8.11-.2-14.52-6.94-14.31-15.05,2.68-107.4-30.5-260.08-30.83-261.61-1.74-7.92,3.28-15.76,11.2-17.49,7.94-1.74,15.76,3.28,17.49,11.2,1.4,6.38,34.28,157.65,31.5,268.64-.2,7.98-6.73,14.32-14.67,14.32Z"/>
  <path class="cls-3" d="m321.24,526.12c-4.96,0-9.8-2.51-12.56-7.05-4.21-6.92-2.04-15.93,4.87-20.16,4.95-3.03,131.63-72.54,327.82-37.91,7.99,1.41,10.37,9,8.96,16.98-1.41,7.99-14.1,12.11-22.1,10.69-184.58-32.57-298.26,34.64-299.39,35.32-2.38,1.44-5.01,2.13-7.61,2.13Z"/>
  <g>
    <path class="cls-2" d="m370.14,546.04c-2.34-.71,5.72-193.5,5.72-193.5,0,0-60.42,15.51-81.64,1.63-21.23-13.88-22.04-61.23-.82-67.76,21.23-6.53,58.78-4.9,58.78-4.9,0,0,10.61-66.95,58.78-92.26,48.17-25.31,128.58-23.7,177.98,4.9,55.42,32.08,110.34,67.94,110.34,67.94l-124.41,33.62,19.78,232.36s-65.32,66.13-224.52,17.96Z"/>
    <path class="cls-3" d="m478.25,578.33c-31.09,0-68.37-4.93-112.37-18.24-10.85-3.28-10.85-13.09-10.86-22.57,0-5.18.11-12.71.34-22.37.38-16.14,1.08-38.57,2.08-66.66,1.05-29.44,2.22-59.08,2.97-77.61-22.11,3.97-56.16,7.39-74.23-4.42-19.32-12.63-25.11-39.67-22.32-59.44,2.52-17.87,11.72-30.5,25.22-34.66,15.46-4.76,37.65-5.67,51.37-5.73,5.9-22.44,22.65-68.83,63.68-90.39,52.95-27.82,139.16-25.49,192.18,5.19,55.13,31.91,110.47,68,111.02,68.36l27.45,17.92-144.21,38.98,19.31,226.88-4.76,4.82c-2.15,2.17-40.78,39.93-126.86,39.93Zm-93.87-43.45c72.05,20.07,121.89,14.91,151.43,6.76,22.41-6.19,36.67-14.95,43.56-19.99l-20.17-236.91,104.21-28.16c-21.08-13.31-51.5-32.16-81.82-49.71-44.51-25.76-119.52-27.87-163.8-4.61-40.92,21.5-51.02,80.99-51.11,81.58l-2.09,12.88-13.04-.53c-9.76-.42-38.46-.47-53.83,4.26-1.42.44-3.84,4.04-4.78,10.69-1.73,12.24,2.53,26.31,9.31,30.74,9.42,6.16,43.78,3.13,69.96-3.57l19.14-4.9-.82,19.74c-2.48,59.36-5.95,152.02-6.15,181.73Z"/>
  </g>
  <path class="cls-3" d="m491.71,76.86s42.6-21.62,86.19-11.27c43.59,10.35,41.96,102.99,4.36,125.88-37.6,22.89-94.82-4.9-94.82-4.9,0,0-16.12,33.28-56.11,37.15-31.71,3.07-49.02-12.9-49.02-12.9,0,0,39.31,68.74,32.77,92.71-6.54,23.98-25.39,14.89-36.29,5.63-10.9-9.26-53.34-38.96-80.05-37.87-26.7,1.09-42.08,42.44-24.1,63.69,17.98,21.25,82.63,15.49,82.63,15.49,0,0-8.78,73.69-37.11,73.15-28.34-.54-101.88-15.02-96.98-86.95,4.9-71.93,24.56-86.13,24.56-86.13,0,0-30.52-23.2-19.07-72.79,11.44-49.59,60.62-72.22,100.39-60.24,0,0,9.73-35.23,65.85-56.48,56.13-21.25,96.78,15.82,96.78,15.82Z"/>
  <path class="cls-3" d="m461.01,308.88c-6.2,0-11.97-3.96-13.98-10.18l-6.73-20.85c-2.49-7.72,1.75-16,9.47-18.49,7.72-2.48,16,1.75,18.49,9.47l6.73,20.85c2.49,7.72-1.75,16-9.47,18.49-1.5.48-3.02.71-4.51.71Z"/>
  <path class="cls-3" d="m511.08,296.87c-6.2,0-11.97-3.96-13.97-10.18l-6.73-20.85c-2.49-7.72,1.74-16,9.46-18.49,7.73-2.5,16,1.74,18.49,9.46l6.73,20.85c2.49,7.72-1.74,16-9.46,18.49-1.5.49-3.02.72-4.52.72Z"/>
  <circle class="cls-3" cx="574.84" cy="707.11" r="15.97"/>
  <circle class="cls-3" cx="586.97" cy="770.14" r="15.97"/>
  <circle class="cls-3" cx="590.78" cy="837.65" r="15.97"/>
  <g>
    <path class="cls-3" d="m476.59,366.52c-.3.09-.61.16-.93.21-36.8,6.15-52.82-15.45-56.14-27.73-1.2-4.42,1.38-8.97,5.77-10.22.04-.01.08-.02.11-.03,4.43-1.2,8.99,1.39,10.23,5.8.66,2.2,7.15,20.72,37.27,15.69,4.55-.76,8.86,2.31,9.62,6.87.71,4.24-1.91,8.26-5.94,9.41Z"/>
    <path class="cls-3" d="m463.23,369.08c-28.81,0-41.92-18.6-44.94-29.75-1.37-5.06,1.61-10.34,6.65-11.78,5.22-1.42,10.5,1.59,11.92,6.65.6,2.01,6.76,19.65,35.84,14.78,2.55-.42,5.09.17,7.18,1.66,2.1,1.5,3.48,3.72,3.91,6.25.81,4.84-2.13,9.5-6.84,10.85h0c-.35.1-.71.18-1.07.24-4.51.75-8.72,1.1-12.64,1.1Zm-35.65-39.36c-.61,0-1.23.08-1.84.25-3.8,1.09-6,4.97-4.99,8.69,3.22,11.89,18.8,32.82,54.7,26.81.27-.04.54-.1.79-.18,3.46-.99,5.63-4.42,5.03-7.98-.31-1.87-1.33-3.5-2.87-4.6-1.54-1.1-3.42-1.53-5.28-1.22-31.24,5.21-38.03-14.33-38.7-16.58-.88-3.13-3.74-5.18-6.84-5.18Z"/>
  </g>
</svg>