<?xml version="1.0" encoding="UTF-8"?>
<svg id="Capa_1" data-name="Capa 1" xmlns="http://www.w3.org/2000/svg" viewBox="0 0 1000 1000">
  <defs>
    <style>
      .cls-1 {
        fill: #0fe980;
        stroke-width: 0px;
      }
    </style>
  </defs>
  <g>
    <path class="cls-1" d="m453.07,473.97c-6.91.88-13.55-3.54-15.28-10.47l-6.32-25.3c-1.87-7.48,2.68-15.06,10.16-16.93,7.48-1.84,15.06,2.68,16.93,10.16l6.32,25.3c1.87,7.48-2.68,15.06-10.16,16.93-.55.14-1.1.24-1.65.31Z"/>
    <path class="cls-1" d="m539.57,449.86c-6.91.88-13.55-3.54-15.28-10.47l-6.32-25.29c-1.87-7.48,2.68-15.06,10.16-16.93,7.48-1.84,15.06,2.68,16.93,10.16l6.32,25.29c1.87,7.48-2.68,15.06-10.16,16.93-.55.14-1.1.24-1.65.31Z"/>
    <path class="cls-1" d="m497.4,557.17c-6.08.05-11.5-4.52-12.64-11.08-1.28-7.34,3.3-14.39,10.22-15.74l87.32-17c-28.18-16.27-41.6-23.99-65.14-34.54-6.49-2.91-9.53-10.84-6.79-17.71,2.74-6.87,10.21-10.1,16.7-7.18,32.57,14.6,57.02,28.81,97.63,53.7,4.71,2.82,7.32,8.42,6.53,14.13-.82,5.91-5.1,10.59-10.65,11.64l-120.96,23.55c-.74.14-1.49.22-2.22.22Zm118.61-50.38s-.08.02-.12.02l.12-.02Z"/>
    <path class="cls-1" d="m547.09,895.89l-181.6,4.86c-9.7.26-17.37-8.17-16.18-17.81l23.94-194.69c.89-7.27,6.64-13.27,13.95-13.84,10.05-.77,17.74,7.73,16.58,17.19l-21.89,177.98,131.1-3.51-82.3-34.65,17.18-137.98c1.17-9.45,10.7-15.83,20.26-12.62,6.96,2.34,11.07,9.57,10.16,16.85l-14.25,114.47,79.86,33.62,3.19,50.11Z"/>
    <path class="cls-1" d="m808.96,721.5l-118.1,134.68-171.69-148.18c-6.22-5.37-6.9-14.76-1.54-20.98,5.33-6.25,14.76-6.9,20.98-1.54l149.35,128.89,78.58-89.61-3.27-2.74-80.69,44.29-75.25-79.37c-5.51-6.09-5.04-15.47,1.04-21.01,6.09-5.51,15.49-5.04,21.01,1.05l59.48,61.95,60.62-33.27c10.43-5.72,23.3-4.46,32.42,3.18l27.04,22.67Z"/>
    <path class="cls-1" d="m384.04,771.96c2.56-.71,70.91-1.9,70.91-1.9,0,0-8.5,44.09,1.17,43.84,9.67-.26,67.99,33.66,67.99,33.66l.78,29.01-160.55,4.3,19.69-108.91Z"/>
    <path class="cls-1" d="m616.43,753.38c1.06-2.35,37.74-50.27,37.74-50.27,0,0,31.89,40.37,37.7,33.03,5.82-7.35,67.77-39.88,67.77-39.88l22.04,17.45-96.55,121.97-68.69-82.3Z"/>
    <path class="cls-1" d="m589.38,694.7c-8.43.23-15.47-6.39-15.75-14.83-.28-8.48,6.36-15.58,14.83-15.86,36.66-1.23,63.64-15.52,80.2-42.47,20.29-33.03,21.8-83.3,3.68-122.23-3.58-7.69-.25-16.82,7.44-20.4,7.69-3.58,16.82-.25,20.4,7.44,22.58,48.5,20.43,109.29-5.35,151.26-15.32,24.94-46.03,55.1-105.33,57.09h-.11Z"/>
    <path class="cls-1" d="m407.13,706.9c-6.59.18-50.3-.39-97.83-43.07-45.15-40.54-61.39-85.18-56.07-154.1,1.97-25.52,6.44-41.54,9.7-53.24,4.29-15.39,5.06-18.16-1.9-28.94-8.67-13.43-21.8-30.27-35.69-48.1-13.99-17.95-28.46-36.51-39.64-53.26-16.29-24.4-19.51-49.99-8.42-66.77,5.73-8.67,20.28-22.27,53.35-16.04,31.82,5.99,70.29,36.61,100.81,67.72-11.41-42.82-26.73-95.67-39.43-119.44-12.89-24.14-11.25-58.89,16.82-78.59,20.37-14.31,52.5-15.9,78.37,12.78,32.11,35.6,57.77,72.96,87.35,147.55,9.43-31.64,12.54-65.71,9.25-101.7-3.32-36.25,11.86-68.07,36.91-77.38,21.43-7.97,44.82,2.09,62.55,26.91,17.39,24.33,26.64,61.57,27.48,110.68.76,43.82-5.4,87.08-9.97,112.71,8.52,9.92,28.47,32.82,57.6,64.12,5.46,5.87,6.06,15.12.74,21.12-6.11,6.88-16.64,6.87-22.75.3-40.31-43.29-62.85-70.16-63.79-71.29l-4.67-5.58,1.36-7.15c13.93-73.17,18.35-166-10.99-207.05-4.41-6.17-15.84-20.08-26.87-15.98-9.95,3.7-19.29,21-17.02,45.79,4.95,54.1-3.21,104.51-24.25,149.84-.58,1.24-1.02,2.17-1.27,2.79h0c-2.23,6.07-8.03,10.1-14.5,10.06h-.11c-6.48-.04-12.31-4.16-14.51-10.26-37.73-105.74-66.63-143.07-95.35-174.91-12.05-13.36-26.22-16.43-37.92-8.21-9.88,6.94-16.4,22.1-7.37,39,19.73,36.96,42.76,128.02,53.83,171.77,2.25,8.88,4.37,17.27,4.92,18.95l.02.07c2.39,7.28-.92,15.22-7.78,18.64l-.15.07h0c-6.94,3.37-15.3,1.09-19.58-5.33l-.05-.07c-25.4-38.25-88.39-100.77-125.36-107.74-11.08-2.08-19.52-1.02-22.04,2.8-3.27,4.94-1.46,18.11,8.34,32.79,10.56,15.81,24.67,33.92,38.33,51.44,14.32,18.38,27.86,35.74,37.27,50.31,14.46,22.38,10.59,36.27,5.69,53.85-3.08,11.06-6.92,24.82-8.66,47.35-4.61,59.73,7.85,94.66,45.97,128.88,40.36,36.24,75,35.35,76.43,35.23,8.38-.55,15.66,5.95,16.17,14.42.5,8.47-6.02,15.74-14.49,16.24-.11,0-.38.02-.79.03Z"/>
    <path class="cls-1" d="m702.79,527.7l-16.8-25.71c52.34-34.2,83.16-86.47,84.55-143.4.35-14.3-1.71-38.91-19.42-43.01-12.88-2.97-29.43,5.43-33.44,14.16-17.41,37.86-39.4,56.21-60.67,73.95-2.8,2.34-5.61,4.68-8.42,7.08l-19.95-23.35c2.9-2.48,5.8-4.9,8.7-7.32,20.35-16.98,37.93-31.65,52.44-63.2,10.6-23.05,41.87-37.37,68.27-31.25,13.45,3.12,44.59,16.53,43.19,73.68-1.64,67.18-37.52,128.54-98.45,168.35Z"/>
    <path class="cls-1" d="m502.68,713.33c-10.28.27-21.18-.61-37.48-2.88-8.4-1.17-14.26-8.93-13.09-17.33,1.17-8.4,8.93-14.28,17.33-13.09,29.99,4.18,37.15,3.26,66.08-1.81,8.35-1.46,16.31,4.13,17.77,12.48,1.46,8.35-4.12,16.31-12.48,17.77-16.21,2.84-26.79,4.56-38.13,4.86Z"/>
  </g>
  <path class="cls-1" d="m494.82,581c-34.07-.64-43.33-33.66-56.37-34.35-13.04-.69-21.36,37.79-.09,55.02,19.08,15.46,52.28,13.37,62.1,5.81,9.82-7.56,10.22-26.19-5.64-26.48Z"/>
</svg>