<?xml version="1.0" encoding="UTF-8"?>
<svg id="Capa_1" data-name="Capa 1" xmlns="http://www.w3.org/2000/svg" viewBox="0 0 1000 1000">
  <defs>
    <style>
      .cls-1, .cls-2, .cls-3, .cls-4, .cls-5 {
        stroke-width: 0px;
      }

      .cls-2 {
        fill: #9e39fd;
      }

      .cls-3 {
        fill: #9440ff;
      }

      .cls-4 {
        fill: #fff;
      }

      .cls-5 {
        fill: #010101;
      }
    </style>
  </defs>
  <g>
    <path class="cls-3" d="m241.08,272.45s-52.28-37.94-102.09-22.94c-49.81,15.01-32.19,85.87-32.19,85.87l12.58,11.28,72.91-8.39,6.82,43.44-80.73,40.91s11.42,45.47,38.98,49.19c27.56,3.72,102.4-26.25,102.4-26.25l19.13-57.14,459.11-146.16s39.99,63.18,99.66,47.88c59.67-15.3,66.51-57.57,66.51-57.57l-12.8-45.23-65.98,15.69-31.74-64.61,79.38-20.13-11.18-44.1s-73.32-55.28-108.57-5.26c-35.24,50.02-43.46,92.52-43.46,92.52l-460.26,127.23-8.48-16.24Z"/>
    <path class="cls-1" d="m880.14,59.76l-7.03-3.6c-48.79-24.98-89.29-28.56-120.36-10.62-36.02,20.79-47.08,64.23-50.4,85.49l-161.68,56.79-278.94,78.97c-23.46-31.11-50.43-47.22-80.3-47.91-58.39-1.34-102.95,58.72-104.81,61.29l-5.14,7.04,23.87,77.96,74.71-16.72,6.85,22.97-81.74,23.41,18.12,71.92,7.03,3.6c40,20.48,74.41,26.57,102.64,18.22,6.21-1.84,12.12-4.37,17.72-7.61,36.02-20.79,47.08-64.22,50.4-85.49l115.53-38.23,325.09-97.53c23.46,31.11,50.43,47.22,80.3,47.91,9.64.22,18.89-1.23,27.65-3.82,44.28-13.1,75.61-55.33,77.17-57.47l5.14-7.04-23.87-77.96-74.71,16.71-6.85-22.97,81.74-23.41-18.12-71.91Zm-23.91,47.71l-83.17,23.82,26.21,87.85,74.93-16.76,9.15,29.89c-11.4,13.09-39.65,41.29-70.66,40.52-20.93-.52-40.87-14.89-59.29-42.7l-6.95-10.5-476.88,146.31-11.26,3.77-.66,11.84c-.03.51-3.21,51.39-34.51,69.35-18.9,10.86-45.78,8.13-79.97-8.07l-5.98-23.74,83.17-23.82-26.21-87.85-74.93,16.76-9.15-29.88c11.4-13.09,39.64-41.3,70.66-40.53,20.93.52,40.87,14.89,59.29,42.7l6.95,10.5,476.88-146.31,11.26-3.77.66-11.84c.03-.51,3.21-51.39,34.51-69.35,18.91-10.84,45.78-8.13,79.98,8.07l5.98,23.74Z"/>
    <path class="cls-4" d="m292.07,209.65c-15.87,25.39-18.25,80.12-18.25,80.12,0,0,42.84,129.31,36.49,161.04-6.35,31.73-21.42,106.3,6.35,158.66,27.77,52.36,102.98,91.75,102.98,91.75l-6.2,104.2,73.78,8.73,21.42-95.99,61.6-5.75,7.42,95.39h66.64l9.52-111.06s81.71-43.63,88.06-107.89c6.35-64.26,1.59-61.88,1.59-61.88,0,0,84.88-54.74,97.57-121.37,12.69-66.64,3.17-102.33-26.18-100.75-29.35,1.59-76.16,65.05-99.16,97.57-23.01,32.52-26.97,15.87-26.97,15.87l-55.53-72.19,4.17-243.73-71.34-11.89-43.47,212.53-25.01-81.45-94.4-.79,3.17,99.16-24.59,7.93-54.74-112.65-34.9-5.55Z"/>
    <g>
      <path class="cls-1" d="m495.05,471.67c-7.44.74-14.43-4.18-16.09-11.66l-6.06-27.31c-1.79-8.08,3.3-16.07,11.38-17.86,8.08-1.76,16.07,3.3,17.86,11.38l6.06,27.31c1.79,8.08-3.3,16.07-11.38,17.86-.59.13-1.19.23-1.77.29Z"/>
      <path class="cls-1" d="m588.52,448.3c-7.44.74-14.43-4.18-16.09-11.66l-6.06-27.31c-1.79-8.08,3.3-16.07,11.38-17.86,8.08-1.76,16.07,3.3,17.86,11.38l6.06,27.31c1.79,8.08-3.3,16.07-11.38,17.86-.59.13-1.19.23-1.77.29Z"/>
      <path class="cls-1" d="m540.21,562.17c-6.52-.12-12.2-5.18-13.23-12.24-1.16-7.91,3.95-15.33,11.41-16.58l94.13-15.73c-29.75-18.26-43.93-26.92-68.88-38.91-6.87-3.3-9.91-11.9-6.77-19.19,3.13-7.29,11.24-10.54,18.12-7.22,34.51,16.59,60.33,32.53,103.16,60.39,4.97,3.16,7.61,9.24,6.59,15.34-1.05,6.32-5.77,11.21-11.75,12.18l-130.4,21.79c-.8.13-1.6.19-2.38.18Zm128.65-50.62s-.09.02-.13.02l.13-.02Z"/>
      <path class="cls-2" d="m412.47,789.28c2.77-.69,76.11,0,76.11,0,0,0-10.38,47.05,0,47.05s71.95,38.05,71.95,38.05v31.13h-172.31l24.25-116.23Z"/>
      <path class="cls-2" d="m586.74,789.28c2.77-.69,76.11,0,76.11,0,0,0-10.38,47.05,0,47.05s71.95,38.05,71.95,38.05v31.13h-172.31l24.25-116.23Z"/>
      <path class="cls-1" d="m827.55,278.47c-28.15-7.32-62.09,7.13-74.12,31.55-16.47,33.43-35.75,48.66-58.07,66.29-1.08.86-2.17,1.71-3.25,2.57-16.85-19.63-28.75-34.08-34.92-41.66-.03-.03-.04-.08-.03-.12,5.64-27.36,13.47-73.54,13.92-120.52.5-52.69-8.35-92.89-26.3-119.49-18.67-27.66-44.74-39.09-69.75-30.54-28.53,9.74-46.73,43.14-44.27,81.23,1.74,27.04,1.26,63.5-7.59,101.37-.04.17-.3.17-.35,0-5.75-19.98-9.11-33.81-11.68-44.38-5.62-23.15-8.45-34.77-23.74-62.29-16.78-30.2-49.39-40.27-79.34-24.48-36.7,19.36-42.25,58.32-28.83,85.16,11.76,23.53,11.35,66.33,9.23,100.25-.01.17-.24.21-.31.05-10.8-24.04-24.07-50.39-44.24-82.58-13.45-21.46-35.2-29.69-56.76-21.47-28.72,10.95-48.34,47.56-42.83,79.95,5.59,32.85,20.12,70.23,32.93,103.22,4.24,10.91,8.24,21.21,11.74,30.84,5.57,15.36,4.48,19.78.41,36.24-2.93,11.85-6.95,28.07-9.72,54.62-7.68,73.76,8.46,122.11,55.71,166.88,49.75,47.13,96.62,49,103.68,49,.44,0,.73,0,.85-.01,9.09-.3,16.3-7.91,16.01-17s-7.73-16.24-16.92-15.93c-1.56.11-38.72.04-80.96-39.97-39.9-37.8-52.26-75.62-45.6-139.54,2.53-24.27,6.08-38.6,8.93-50.12,4.56-18.43,7.58-30.61-1.42-55.4-3.62-9.98-7.69-20.45-12-31.54-12.25-31.53-26.13-67.26-31.17-96.81-3.17-18.63,9.27-38.75,22.08-43.63,2.89-1.1,9.67-3.68,17.11,8.17,28.97,46.22,42.52,78.68,56.87,113.04,3.51,8.4,7.02,16.81,10.77,25.44,7.59,17.49,17.74,17.94,24.91,15.25,13.26-4.98,11.44-19.53,10.66-25.75,0-.07-.79-6.14-1.48-9.31,0,0,0-.01,0-.02-.2-3.28.7-14.01,1.49-23.52,3.33-39.74,8.9-106.24-10.52-145.09-9.73-19.45,3.49-35.34,14.74-41.28,6.72-3.54,23.57-9.52,35.17,11.34,13.12,23.62,15.14,31.91,20.52,54.07,4.39,18.07,11.39,68.46,27.85,118.81,2.23,6.56,8.37,11.1,15.3,11.29,0,0,.49-.03,1.27-.07,6.48-.35,12.2-4.4,14.66-10.41.18-.44.45-1.07.81-1.9,25.48-58.67,27.28-143.31,24.61-184.63-1.67-25.95,9.82-43.75,22.05-47.93,10.2-3.49,21.8,3,31.79,17.8,30.29,44.88,22.88,144.3,5.84,222.38l-1.64,7.55s0,.1.03.14l4.8,6.06c.97,1.23,24.37,30.7,66.36,78.28,6.34,7.19,17.57,7.53,24.32.42,5.98-6.29,5.55-16.36-.19-22.87-1.1-1.25-2.18-2.47-3.25-3.7.68-.54,1.36-1.08,2.04-1.62,23.32-18.42,47.44-37.47,67.2-77.59,4.56-9.24,22.56-17.78,36.27-14.23,18.88,4.91,20.38,31.36,19.6,46.69-2.79,54.51-30.68,104.33-77.3,139.42-.59-1.48-1.2-2.96-1.84-4.43-3.62-8.35-13.32-12.19-21.67-8.56-8.35,3.62-12.18,13.32-8.57,21.67,18.32,42.27,15.26,96.14-7.45,130.98-18.52,28.43-47.87,42.98-87.23,43.25-9.1.06-16.42,7.49-16.36,16.59.06,9.06,7.43,16.36,16.47,16.36h.12c63.66-.44,97.46-31.89,114.6-58.21,22.2-34.07,29.7-80.48,21.58-124.06,60.57-41.12,97.03-102.96,100.54-171.31,3.14-61.24-29.87-76.53-44.21-80.26Z"/>
      <path class="cls-1" d="m541.39,729.81c-11.03,0-22.7-1.27-40.12-4.17-8.97-1.5-15.04-9.98-13.54-18.96,1.49-8.98,10-15.03,18.96-13.54,32.05,5.34,39.76,4.55,70.92-.05,8.98-1.33,17.37,4.89,18.71,13.89,1.33,9-4.89,17.37-13.89,18.7-17.46,2.58-28.86,4.12-41.04,4.12Z"/>
      <path class="cls-1" d="m583.78,926.87h-201.2c-7.1,0-12.54-6.32-11.48-13.34l32.26-214.76c1.43-9.5,10.67-15.89,20.26-13.54,8.38,2.05,13.5,10.58,12.22,19.11l-28.48,189.59h140.71l-87.27-39.52,22.39-147.48c1.36-9,9.77-15.19,18.76-13.81,8.99,1.36,15.18,9.76,13.81,18.76l-18.64,122.82,84.69,38.35,1.99,53.84Z"/>
      <path class="cls-1" d="m753.79,926.87h-198.41l-1.62-214.34c-.07-9.1,7.25-16.53,16.35-16.6h.13c9.04,0,16.4,7.29,16.47,16.35l1.37,181.65h132.02l-.11-4.73-95.81-34.86,18.79-162.43c1.05-9.04,9.2-15.52,18.26-14.47,9.04,1.05,15.52,9.22,14.47,18.26l-15.8,136.58,73.39,26.7c11.54,4.2,19.31,15.04,19.59,27.31l.91,40.58Z"/>
    </g>
    <path class="cls-3" d="m903.5,234.83s-6.84,42.28-66.53,57.59c-59.66,15.3-99.65-47.9-99.65-47.9l-326.9,94.77c-2.31-4.89-5.17.96-7.99-5.11-9.83-21.15-15.79-33.66-27.11-57.79-2.96-6.32-10.52-17.89-13.4-23.83l347.23-88.85s8.23-42.49,43.45-92.52c35.26-50.01,108.58,5.25,108.58,5.25l11.17,44.12-79.38,20.11,31.75,64.63,65.98-15.69,12.8,45.23Z"/>
    <path class="cls-1" d="m899.47,162.33l-74.67,16.77-6.79-22.69,81.75-23.44-17.88-71.04-6.99-3.53c-48.67-24.55-89.11-27.93-120.21-10.11-36.05,20.69-47.24,63.66-50.64,84.71l-161.71,56.7-195.62,55.4-20.4,5.79c1.76,3.49,3.55,7.14,5.38,10.89,2.88,5.94,9.66,10.68,12.69,16.96l381.03-116.55,11.26-3.78.71-11.7c.03-.52,3.38-50.83,34.69-68.69,18.92-10.79,45.76-8.18,79.88,7.71l5.89,23.48-83.18,23.81,25.9,86.8,74.93-16.82,9.03,29.5c-11.46,12.99-39.74,40.97-70.74,40.32-20.9-.45-40.77-14.58-59.09-42.04l-6.9-10.36-353.93,107.01c2.87,6.04,5.54,11.6,7.84,16.48,2.44,5.11,4.5,9.46,6.12,12.86l26.05-8.62,299.05-88.01c23.32,30.7,50.2,46.53,80.06,47.1,9.61.19,18.87-1.27,27.63-3.85,44.27-13.11,75.71-54.98,77.29-57.08l5.15-6.97-23.59-77.01Z"/>
    <path class="cls-4" d="m488.43,248.71c13.85-34.52,15.4-108.8-26.14-133.77-41.54-24.97-132.92,1.19-96.52,117.49,1.2,3.85,26.61-2.13,35.89-5.05,2.85-.9,7.42,31.13,20.39,25.69l66.39-4.35Z"/>
    <path class="cls-1" d="m451.57,280.04c-3.46,0-6.93-.32-10.37-.97-26.17-4.97-43.39-27.5-46.07-60.27-.74-9.07,6.01-17.02,15.08-17.76,9.08-.72,17.02,6.01,17.76,15.08.83,10.21,4.46,27.75,19.38,30.58,11.85,2.26,25.89-5.61,31.93-17.9,9.56-19.45,5.48-52.8-9.08-74.35-10.18-15.07-23.38-22.12-39.26-20.92-21.53,1.61-37.35,8.99-47.04,21.96-12.67,16.96-15.27,44.85-7.52,80.65,1.92,8.89-3.73,17.66-12.62,19.59-8.87,1.93-17.66-3.72-19.59-12.62-9.97-46.05-5.48-82.16,13.33-107.34,15.42-20.64,39.97-32.78,70.98-35.1,27.71-2.06,52.22,10.48,69.02,35.33,21.15,31.31,26.03,77.45,11.34,107.33-11.02,22.41-34,36.71-57.28,36.71Z"/>
  </g>
  <g>
    <path class="cls-5" d="m515.8,625.84c-.46,0-.92-.03-1.38-.08-53.87-6.11-67.62-42.68-67.36-61.16.09-6.65,5.51-11.98,12.14-11.98.06,0,.11,0,.17,0,6.67.09,12.01,5.54,11.98,12.19.04,3.34,1.72,31.81,45.81,36.81,6.67.75,11.46,6.77,10.7,13.44-.7,6.2-5.96,10.78-12.06,10.78Z"/>
    <path class="cls-5" d="m515.8,627.13h0c-.51,0-1.02-.03-1.53-.09-54.78-6.21-68.76-43.57-68.5-62.46.1-7.3,6.12-13.25,13.43-13.25,7.52.1,13.47,6.15,13.44,13.49.04,3.1,1.64,30.64,44.67,35.52,3.57.4,6.76,2.17,9,4.98,2.24,2.81,3.24,6.32,2.84,9.89-.77,6.79-6.5,11.92-13.33,11.92Zm-56.45-73.22c-6.06,0-10.93,4.8-11.01,10.71-.25,18.08,13.26,53.86,66.22,59.87,6.08.7,11.35-3.67,12.02-9.57.33-2.88-.49-5.72-2.3-7.99-1.81-2.27-4.39-3.7-7.27-4.03-45.22-5.13-46.91-34.71-46.95-38.07.02-5.95-4.78-10.84-10.71-10.92h0Z"/>
  </g>
</svg>