<?xml version="1.0" encoding="UTF-8"?>
<svg id="Capa_1" data-name="Capa 1" xmlns="http://www.w3.org/2000/svg" viewBox="0 0 1000 1000">
  <defs>
    <style>
      .cls-1, .cls-2, .cls-3, .cls-4 {
        stroke-width: 0px;
      }

      .cls-2 {
        fill: #ad8218;
      }

      .cls-3 {
        fill: #ffd759;
      }

      .cls-4 {
        fill: #010101;
      }
    </style>
  </defs>
  <g>
    <g>
      <circle class="cls-3" cx="624.25" cy="157.21" r="66.34"/>
      <path class="cls-4" d="m608.21,238.26c-44.69-8.84-73.85-52.39-65.01-97.08,8.84-44.69,52.39-73.85,97.08-65.01,44.69,8.84,73.85,52.39,65.01,97.08-8.84,44.69-52.39,73.85-97.08,65.01Zm25.76-130.16c-27.08-5.36-53.47,12.31-58.83,39.39-5.36,27.08,12.31,53.47,39.39,58.83,27.08,5.36,53.47-12.31,58.83-39.39,5.36-27.08-12.31-53.47-39.39-58.83Z"/>
    </g>
    <g>
      <path class="cls-3" d="m788.52,880s50.19-43.76,38.36-129.27c-11.83-85.51-105.52-144.74-83.28-257.13,27.63-139.63,39.51-296.53-117.26-327.55l5.56,1.1c-176.84-34.99-227.97,114.14-255.6,253.77-22.24,112.38-144.42,128.9-191.46,202.76-47.04,73.85-12.19,134.44-12.19,134.44"/>
      <path class="cls-4" d="m785.35,895.96c-3.41-.68-6.63-2.44-9.1-5.27-5.89-6.75-5.21-16.99,1.5-22.9,1.85-1.66,43.37-39.85,33-114.83-4.26-30.78-20.86-58.84-38.43-88.54-27.79-46.97-59.29-100.21-44.69-173.97,11.89-60.11,23.84-136.91,10.58-197.88-13.24-60.88-50.03-96.89-112.44-110.01-157.3-29.42-205.23,98.6-233.52,241.53-14.71,74.32-69.38,110.58-117.61,142.58-30.46,20.2-59.22,39.29-76.09,65.76-17.14,26.9-24.35,54.77-21.46,82.84,2.19,21.19,9.62,34.7,9.7,34.84,4.36,7.81,1.63,17.73-6.16,22.14-7.79,4.42-17.64,1.76-22.11-6-1.62-2.82-39.17-70.07,12.57-151.3,20.57-32.3,53.61-54.21,85.55-75.4,47.11-31.24,91.6-60.76,103.67-121.77,12.54-63.37,32.38-143.27,74.86-199.07,45.98-60.39,111.32-83.44,194.29-68.56v-.05s5.56,1.16,5.56,1.16c73.72,16.31,119.12,61.49,134.97,134.39,14.54,66.82,2.05,147.93-10.46,211.12-12.18,61.57,13.54,105.05,40.78,151.08,18.44,31.16,37.5,63.39,42.66,100.66,12.89,93.15-41.46,141.74-43.78,143.76-3.95,3.44-9.1,4.64-13.87,3.7Z"/>
    </g>
    <g>
      <path class="cls-2" d="m803.78,861.75c-8.47,42.78-157.7,49.3-333.3,14.55-175.63-34.75-311.13-97.62-302.67-140.4,6.85-34.61,105.71-45.5,236.12-30.03,30.9,3.67,63.57,8.8,97.22,15.46,34.94,6.91,68.31,14.96,99.26,23.73,124.59,35.25,210.17,82.39,203.38,116.69Z"/>
      <path class="cls-4" d="m467.31,892.26c-86.17-17.05-165.75-41.34-224.06-68.39-66.52-30.86-97.28-61.52-91.42-91.14,4.89-24.7,33.73-40.44,85.72-46.79,44.02-5.38,102.21-4.07,168.28,3.76,32.13,3.82,65.26,9.09,98.46,15.65,34.6,6.85,68.43,14.93,100.54,24.04,68.82,19.47,227.54,71.65,214.91,135.5-5.86,29.61-45.98,46.25-119.23,49.45-64.22,2.8-147.03-5.04-233.2-22.09Zm30.67-154.97c-32.38-6.41-64.67-11.54-95.98-15.26-146.54-17.39-215.43,2.86-218.23,17.02-1,5.07,10.29,26.11,73.18,55.29,56.02,25.99,132.98,49.42,216.68,65.99,83.69,16.56,163.76,24.2,225.46,21.5,69.26-3.02,87.72-18.18,88.72-23.25.76-3.86-5.74-18.7-44.48-40.67-35.21-19.96-87.54-40.27-147.36-57.2-31.28-8.87-64.24-16.75-97.99-23.43Z"/>
    </g>
    <path class="cls-4" d="m561.67,397.84c8.34,2.56,17.48-1.68,21.13-10.15l13.32-30.92c3.94-9.14-.02-19.75-8.84-23.7-8.83-3.91-19.16.26-23.1,9.41l-13.32,30.92c-3.94,9.14.02,19.75,8.84,23.7.65.29,1.3.54,1.96.74Z"/>
    <path class="cls-4" d="m457.94,359.21c8.34,2.56,17.48-1.68,21.13-10.15l13.32-30.92c3.94-9.14-.02-19.75-8.84-23.7-8.83-3.91-19.16.26-23.1,9.41l-13.32,30.92c-3.94,9.14.02,19.75,8.84,23.7.65.29,1.3.54,1.96.74Z"/>
    <path class="cls-4" d="m486.57,504.78c7.48,1.33,15.17-3.36,18-11.48,3.18-9.09-.93-19.03-9.18-22.19l-104.01-39.9c38.31-14.86,56.56-21.88,87.9-30.42,8.64-2.35,14.12-11.83,12.24-21.16-1.88-9.33-10.4-15.01-19.04-12.64-43.36,11.81-76.63,24.8-132.16,48.05-6.42,2.61-10.86,9.2-11.13,16.65-.28,7.71,3.98,14.57,10.6,17.06l144.09,55.28c.89.34,1.79.59,2.69.75Zm-135.34-88.98s.09.04.14.05l-.14-.05Z"/>
    <path class="cls-4" d="m479.99,581.82c.58.12,1.18.2,1.78.24,63.74,5.03,88.33-35.76,92.42-58.02,1.61-8.78-3.9-17.16-12.35-18.83-.07-.01-.15-.03-.22-.04-8.51-1.56-16.72,4.26-18.43,13.01-.81,3.78-9.11,35.33-58.63,31.42-8.69-.69-16.36,6.03-17.13,14.99-.72,8.34,4.78,15.69,12.54,17.23Z"/>
    <path class="cls-4" d="m809.51,738.91c-.12-.67-13.85-67.84-169.23-96.55-8.02-1.57-13.45-9.29-11.95-17.39,1.5-8.1,9.29-13.45,17.39-11.95,73.64,13.62,128.22,37.3,162.22,70.26,26.91,26.08,30.74,48.74,31.08,51.23l-29.55,4.12.04.28Z"/>
    <g>
      <path class="cls-3" d="m599.61,749.56c-10.75,54.31-63.51,89.66-117.85,78.91-54.31-10.75-89.66-63.53-78.91-117.85.32-1.61.68-3.18,1.07-4.75,30.9,3.67,63.57,8.8,97.22,15.46,34.94,6.91,68.31,14.96,99.26,23.73-.22,1.5-.49,2.99-.79,4.5Z"/>
      <path class="cls-4" d="m478.6,844.43c-63.05-12.48-104.19-73.92-91.72-136.97.37-1.86.79-3.68,1.23-5.49l3.45-13.96,14.27,1.7c32.13,3.82,65.26,9.08,98.46,15.65,34.6,6.85,68.43,14.93,100.54,24.04l13.73,3.9-2.07,14.12c-.26,1.76-.57,3.52-.93,5.3-12.48,63.05-73.92,104.2-136.97,91.72Zm-61.17-120.46c-3.07,41.7,25.45,80.21,67.49,88.53,41.95,8.3,82.92-16.33,96.04-55.93-26.74-7.19-54.59-13.66-82.98-19.28-27.09-5.36-54.11-9.83-80.54-13.32Z"/>
    </g>
  </g>
  <path class="cls-1" d="m305.99,114.33c0-10.13-14.39-30.19-41.11-30.19-36.52,0-44.82,20.06-44.82,30.19l26.51,146.44c0,10.13,8.18,18.31,18.31,18.31s18.31-8.18,18.31-18.31l22.81-146.44Zm-41.11,248.63c18.53,0,33.55-15.02,33.55-33.55s-15.02-33.55-33.55-33.55-33.55,15.02-33.55,33.55,15.02,33.55,33.55,33.55Z"/>
</svg>