<?xml version="1.0" encoding="UTF-8"?>
<svg id="Capa_1" data-name="Capa 1" xmlns="http://www.w3.org/2000/svg" viewBox="0 0 1000 1000">
  <defs>
    <style>
      .cls-1, .cls-2 {
        stroke-width: 0px;
      }

      .cls-2 {
        fill: #fff;
      }
    </style>
  </defs>
  <path class="cls-2" d="m281.46,302.91c-17.29,39.66-75.25,107.79-77.28,183.03-2.03,75.25,10.17,154.56,48.81,185.07,38.64,30.51,103.72,38.64,103.72,38.64l-2.03,107.79,70.16,1.02,11.19-104.74h48.81v107.79l66.1-4.07,12.2-102.7s93.55-8.13,111.85-52.88c18.3-44.74,26.44-66.1,26.44-66.1,0,0,49.83-20.34,76.26-50.84,26.44-30.51,52.88-97.62,43.72-117.95-9.15-20.34-25.42-43.72-50.84-20.34-25.42,23.39-66.79,74.07-66.79,74.07l-28.8-5.94-29.49-55.93s24.4-35.59,47.79-68.13c23.39-32.54,85.31-106.1,76.16-134.57-9.15-28.47,7.12-68.13-64.06-20.34-71.18,47.79-135.14,130.5-135.14,130.5,0,0,54.81-162.03,62.94-191.52,8.13-29.49,7.12-63.04-25.42-64.06-32.54-1.02-93.55,40.67-110.84,103.72-17.29,63.04-80.23,140.67-80.23,140.67,0,0,7.01-94.91,18.2-132.54,11.19-37.62,21.35-77.28-12.2-89.48-33.56-12.2-67.11,19.32-89.48,84.4-22.37,65.08-51.75,125.42-51.75,125.42Z"/>
  <path class="cls-1" d="m805.82,385.9c-23.35-8.54-53.45,1.01-65.72,20.86-15.04,24.32-30.9,35.35-49.04,47.09-10.08-19.24-20.93-33.2-28.37-41.61,1.99-2.63,4.26-5.75,6.81-9.26,14.02-19.31,35.21-48.48,65.53-73.33,45.33-37.15,67.32-109.88,42.77-141.48-9.41-12.12-32.29-28.84-79.75-4.63-36.9,18.83-65.76,41.86-84.69,59.31,9.02-27,19.5-51.24,31.95-73.92,18.96-34.55,21.36-81.77-10.72-105.18-22.12-16.14-60.63-17.69-102.38,26.36-35.74,37.69-67.53,100.41-85.33,139.51,1.65-23.28,5.62-42.18,12.09-57.57,15.82-37.67,8.38-75.64-18.09-92.34-20.58-12.99-55.39-12.48-91.33,27.88-38.88,43.63-68.82,142.43-77.08,176.81-2.78,11.58-6.24,26-8.04,29.03-1.45,2.38-4.2,6.22-7.12,10.3-20.98,29.35-64.63,90.42-71.49,189.53-4.14,59.89,10.34,109.28,43.05,146.79,36.23,41.54,85.16,57.3,116.74,63.28l-30.54,186.62c-.75,4.58.54,9.23,3.55,12.77,3,3.54,7.39,5.56,12.03,5.56h324.61l-.87-38.89c-.28-12.53-7.94-23.71-19.51-28.51l-59.26-24.57,4.85-114.62c41.55-4.37,72.39-16.64,93.69-37.17,16.84-16.22,28.48-37.83,36.17-67.81,27.38-14.34,56.26-38.51,79.85-66.95,26.07-31.42,42.72-64.21,46.89-92.31,7.64-51.48-19.3-67.18-31.23-71.54Zm-367.99,456.46l12.71-113.04,17.43.09-.38,125.64-29.75-12.69Zm368.37-389.49c-6.15,41.42-44.27,92.19-88.84,120.92-.44-2.84-1.59-5.54-3.39-7.89-2.83-3.69-6.94-6.07-11.56-6.68-9.52-1.22-18.31,5.51-19.56,15.01-10.44,79.09-35.13,116.41-147.24,114.34-4.6-.15-8.94,1.49-12.29,4.66-3.4,3.22-5.4,7.77-5.48,12.47-.17,9.61,7.51,17.57,17.12,17.74,2.8.05,5.54.07,8.25.07.76,0,1.51-.01,2.26-.01l-3.19,75.31c-14.95-.09-32.06-.14-39.66.01l.26-84.58c.01-4.61-1.85-8.76-5.24-11.69-2.02-1.75-4.51-3-7.32-3.7-1.5-.48-3.1-.75-4.75-.76l-65.59-.34h-.08c-8.63,0-15.65,6.98-15.7,15.62-.04,7.19,4.77,13.26,11.35,15.16l-7.86,70.34c-12.1-.08-27.94-.17-39.1-.13l12.17-74.37c4.33-2.65,7.34-7.28,7.71-12.67.6-8.87-6.13-16.57-15.01-17.17-17.88-1.2-79.38-8.76-120.29-55.68-26.88-30.82-38.72-72.33-35.18-123.36,6.23-90.02,46.3-146.07,65.61-173.07,3.54-4.95,6.33-8.87,8.37-12.21,4.21-6.92,6.96-17.88,11.85-38.26,10.74-44.75,39.19-128.54,69.8-162.89,18.87-21.17,38.05-29.62,50.05-22.06,10.86,6.85,16.25,27.11,5.56,52.58-16.73,39.82-29.96,118.55-29.4,146.9.14,6.95.26,12.94.08,16.95-.11,2.48.15,14.97,16.23,17.88,16.72,3.03,21.59-7.72,22.68-11.1,11.56-35.76,71.39-169.99,116.79-217.89,22.9-24.15,45.89-32.77,59.97-22.49,12.59,9.18,17.37,34.59,1.45,63.61-28.11,51.24-55.53,130.83-63.33,160.15-2.22,8.37-4.15,15.59-5.76,20.41-2.77,8.24,1.35,17.3,9.37,20.64,8.03,3.32,17.34-.14,21.2-7.86,9.13-18.1,68.16-100.8,134.19-134.49,18.73-9.56,33.72-11.48,39.11-5,3.93,4.72,5.57,13.79,4.49,24.88-2.09,21.6-14.54,52.99-43.21,76.33-44.31,36.08-73.47,78.13-83.95,94.54-.39.61-.64,1-.74,1.14l-8.56,11.95,11.07,9.67c.31.27,30.87,27.46,45.92,78.51,2.51,8.51,11.49,13.4,20.03,10.91,4.13-1.22,7.54-3.97,9.6-7.75,2.06-3.79,2.52-8.14,1.3-12.27-1.26-4.27-2.62-8.39-4.04-12.38.33-.21.66-.42,1-.64,20.78-13.39,42.28-27.24,61.9-58.99,4.05-6.55,18.59-11.58,28.48-7.97,13.76,5.03,12.85,25.76,11.09,37.67Z"/>
  <path class="cls-1" d="m461.08,464.59c-6.81-.68-11.74-6.92-11.74-13.76v-23.56c0-2-.37-6.64-3.81-6.64-2.61,0-4.16,2.48-4.16,6.64v23.63c0,7.23-5.86,13.08-13.09,13.08h0c-7.23,0-13.08-5.86-13.08-13.08v-23.62c0-21.31,15.63-32.81,30.33-32.81,8.03,0,15.5,3.16,21.04,8.89,4.08,4.23,8.94,11.8,8.94,23.92v24.3c0,7.67-6.6,13.8-14.43,13.02Z"/>
  <path class="cls-1" d="m643.7,529.19c-45.49-29.59-73.74-47.09-109.61-64.68v-38.91c0-4.17,1.56-6.65,4.16-6.65,3.44,0,3.81,4.65,3.81,6.65v24.04c0,7.23,5.86,13.08,13.08,13.08s13.08-5.86,13.08-13.08v-24.04c0-21.54-15.08-32.82-29.98-32.82-7.92,0-15.64,3.24-21.18,8.89-4.17,4.25-9.14,11.85-9.14,23.92v47.09c-1.83,7.45,1.57,15.42,8.4,18.7,27.75,13.34,43.52,22.97,76.61,43.29l-104.71,17.49c-8.3,1.39-13.99,9.65-12.7,18.45,1.15,7.85,7.47,13.49,14.72,13.62.87.02,1.76-.05,2.65-.2l145.05-24.24c6.65-1.08,11.91-6.52,13.08-13.55,1.13-6.79-1.81-13.55-7.33-17.07Z"/>
</svg>