<?xml version="1.0" encoding="UTF-8"?>
<svg id="Capa_1" data-name="Capa 1" xmlns="http://www.w3.org/2000/svg" viewBox="0 0 1000 1000">
  <defs>
    <style>
      .cls-1, .cls-2, .cls-3 {
        stroke-width: 0px;
      }

      .cls-2 {
        fill: #fff;
      }

      .cls-3 {
        fill: #010101;
      }
    </style>
  </defs>
  <path class="cls-2" d="m372.06,804.23l11.27-101.43s-75.51-22.54-108.19-74.38c-32.68-51.84-23.67-118.34-16.91-160.04,6.76-41.7,12.4-59.73,12.4-59.73,0,0-47.33-63.11-75.51-101.43-28.18-38.32-30.43-81.15-7.89-81.15s66.49,11.27,111.58,52.97c45.08,41.7,59.73,67.62,59.73,67.62,0,0-36.06-151.02-48.46-196.1-12.4-45.08-11.27-74.38,18.03-76.64,29.3-2.25,81.15,25.92,105.94,86.78,24.79,60.86,51.84,127.35,51.84,127.35,0,0,31.56-43.95,31.56-103.69s16.91-120.59,41.7-117.21c24.79,3.38,60.86,36.06,60.86,104.81s-15.78,179.2-15.78,179.2l56.35,42.83s32.68-13.52,57.48-58.61c24.79-45.08,77.76-76.64,93.54-38.32,15.78,38.32,14.65,95.8-16.91,147.64-31.56,51.84-71,77.76-71,77.76,0,0,12.4,125.1-51.84,154.4-64.24,29.3-47.33,24.79-47.33,24.79l-13.52,117.21-76.64,20.29-3.38-126.23-66.49,1.13-18.03,108.19-74.38-18.03Z"/>
  <path class="cls-1" d="m376.08,784c2.81-.7,77.31,0,77.31,0,0,0-10.54,47.79,0,47.79s73.09,38.65,73.09,38.65v31.63h-175.03l24.63-118.07Z"/>
  <path class="cls-1" d="m553.09,784c2.81-.7,77.31,0,77.31,0,0,0-10.54,47.79,0,47.79s73.09,38.65,73.09,38.65v31.63h-175.03l24.63-118.07Z"/>
  <path class="cls-1" d="m797.7,265.13c-28.58-7.44-63.06,7.24-75.29,32.05-16.72,33.95-36.3,49.42-58.97,67.33-1.1.87-2.21,1.75-3.31,2.62-17.16-19.99-29.26-34.68-35.51-42.37,5.73-27.78,13.7-74.73,14.15-122.49.51-53.52-8.48-94.36-26.72-121.37-18.6-27.55-43.78-39.19-67.36-31.14-27.56,9.41-45.02,43.63-42.46,83.22,2.54,39.31-1.84,76.34-13.04,110.53-30.05-82.12-56.92-123.57-90.86-163.29-27.34-32-62.39-31.2-85-16.2-31.15,20.65-33.95,58.45-20.61,85.13,13.14,26.27,28.29,84.29,39.47,131.27-32.34-34.78-73.36-69.26-107.85-76.72-35.84-7.74-52.09,6.65-58.58,15.92-12.58,17.96-9.81,45.93,7.22,72.99,11.69,18.57,26.92,39.22,41.64,59.18,14.62,19.83,28.42,38.55,37.48,53.44,7.27,11.95,6.35,14.94,1.23,31.58-3.89,12.65-9.23,29.97-12.12,57.72-7.81,74.93,8.59,124.03,56.59,169.51,24.39,23.1,48.08,35.5,66.89,42.14l-29.7,197.73c-1.57,10.46,6.53,19.87,17.11,19.87h370.67l-.89-39.69c-.3-13.38-8.78-25.21-21.36-29.79l-73.12-26.6,14.66-126.73c39.6-10,63.07-33.67,76.48-54.25,22.55-34.6,30.17-81.75,21.93-126.02,61.52-41.78,98.57-104.58,102.12-174.02,3.19-62.21-30.34-77.74-44.91-81.52Zm-319.13,456.13c11.3,1.6,20.06,2.32,28.46,2.32,4.23,0,8.37-.19,12.69-.53l1.01,133.64-58.68-26.58,16.52-108.85Zm330.61-376.32c-2.84,55.36-31.16,105.98-78.52,141.62-.6-1.51-1.22-3.01-1.87-4.5-3.67-8.48-13.53-12.38-22.01-8.7-8.48,3.68-12.37,13.53-8.7,22.01,18.61,42.94,15.5,97.66-7.57,133.05-15.11,23.19-37.31,37.27-66.17,42.07-.31.05-.62.09-.92.16-6.81,1.08-13.98,1.65-21.51,1.7-9.24.06-16.68,7.61-16.62,16.85.06,9.2,7.54,16.62,16.73,16.62h.12c1.93-.01,3.82-.06,5.69-.13l-16.71,144.4,97.32,35.41.11,4.8h-134.1l-1.3-172.2c6.64-3,10.79-10.12,9.67-17.68-1.35-9.14-9.86-15.46-19-14.11-31.66,4.68-39.49,5.48-72.04.05-1.73-.29-3.44-.3-5.09-.07-9.04-1.24-17.42,5.01-18.79,14.07l-22.74,149.81,88.64,40.14h-142.92l26.55-176.76c2.69.22,4.63.27,5.69.27.45,0,.74,0,.86-.01,9.24-.3,16.56-8.03,16.26-17.27-.3-9.24-8.05-16.53-17.19-16.18-1.56.09-39.32.06-82.23-40.6-40.53-38.4-53.09-76.82-46.32-141.75,2.55-24.49,7.14-39.38,10.82-51.33,5.85-19.01,10.48-34.03-4.62-58.83-9.83-16.15-24.06-35.46-39.13-55.9-14.36-19.48-29.21-39.62-40.25-57.16-10.24-16.27-11.83-30.67-8.13-35.96,2.86-4.08,12.09-5,24.1-2.41,40.07,8.66,106.86,78.61,133.43,121.02l4.48,8.13c4,7.26,12.9,10.22,20.45,6.8l.31-.14c7.4-3.45,10.99-11.95,8.28-19.65l-3.12-8.91c-.55-1.85-2.62-11.05-4.81-20.79-10.78-47.99-33.21-147.86-53.63-188.7-9.34-18.67-1.79-35,9.17-42.27,12.98-8.61,28.33-4.85,41.07,10.05,30.36,35.53,60.75,77.04,98.77,193.33,2.22,6.71,8.45,11.37,15.51,11.6h.12c7.05.23,13.48-3.98,16.09-10.54.29-.67.8-1.67,1.46-3,24.24-48.77,34.6-103.45,30.78-162.53-1.75-27.07,8.94-45.65,19.88-49.39,12.14-4.15,24.18,11.34,28.8,18.19,30.77,45.58,23.24,146.57,5.94,225.88l-1.69,7.75,4.92,6.22c.99,1.25,24.76,31.18,67.41,79.52,6.47,7.34,17.94,7.65,24.8.33,5.97-6.38,5.59-16.47-.19-23.02-1.15-1.3-2.28-2.59-3.4-3.87.7-.55,1.39-1.1,2.09-1.65,23.69-18.71,48.18-38.06,68.25-78.8,4.63-9.39,22.9-18.07,36.84-14.45,19.18,4.99,20.7,31.85,19.91,47.42Z"/>
  <g>
    <path class="cls-3" d="m443.62,449.53c1.69,7.6,8.78,12.6,16.34,11.85.6-.06,1.2-.16,1.8-.29,8.2-1.82,13.38-9.94,11.56-18.14l-6.15-27.74c-1.82-8.21-9.94-13.35-18.14-11.56-8.2,1.82-13.38,9.94-11.56,18.14l6.15,27.74Z"/>
    <path class="cls-3" d="m538.56,425.79c1.69,7.6,8.78,12.6,16.34,11.85.6-.06,1.2-.16,1.8-.29,8.2-1.82,13.38-9.94,11.56-18.14l-6.15-27.74c-1.82-8.21-9.94-13.35-18.14-11.56-8.2,1.82-13.38,9.94-11.56,18.14l6.15,27.74Z"/>
    <path class="cls-3" d="m645.96,503.04c-43.51-28.3-69.74-44.49-104.79-61.35-6.99-3.37-15.22-.07-18.41,7.34-3.18,7.41-.1,16.14,6.88,19.49,25.34,12.19,39.74,20.98,69.96,39.53l-95.62,15.97c-7.58,1.27-12.77,8.81-11.59,16.84,1.05,7.17,6.82,12.31,13.44,12.44.8.01,1.61-.05,2.42-.18l132.46-22.13c6.08-.98,10.88-5.96,11.94-12.37,1.03-6.2-1.65-12.37-6.7-15.58Z"/>
    <path class="cls-3" d="m484,599.79c-43.22-4.9-44.82-32.56-44.86-35.68.03-7.37-5.94-13.44-13.5-13.54-7.34,0-13.39,5.97-13.49,13.31-.26,18.97,13.78,56.49,68.8,62.73.52.06,1.03.09,1.54.09,6.86,0,12.62-5.15,13.39-11.97.41-3.58-.61-7.11-2.85-9.93-2.25-2.82-5.45-4.6-9.04-5Z"/>
  </g>
</svg>