<?xml version="1.0" encoding="UTF-8"?>
<svg id="Capa_1" data-name="Capa 1" xmlns="http://www.w3.org/2000/svg" viewBox="0 0 1000 1000">
  <defs>
    <style>
      .cls-1 {
        fill: #9440ff;
      }

      .cls-1, .cls-2, .cls-3 {
        stroke-width: 0px;
      }

      .cls-2 {
        fill: #fff;
      }

      .cls-3 {
        fill: #010101;
      }
    </style>
  </defs>
  <g>
    <path class="cls-2" d="m566,649.41c16.57-10.36,83.7-45.99,83.7-45.99,0,0,41.02-27.35,57.18-14.92,16.16,12.43,31.91,35.63,6.22,71.27-25.69,35.63-65.05,82.87-93.64,90.74-28.59,7.87-47.24,1.66-47.24,1.66l-32.73-48.48,26.52-54.28Z"/>
    <path class="cls-2" d="m590.45,728.71c-10.53,79.72-36.94,132.65-162.04,130.44l-159.58,1.15c-63.22-4.26-177.46-45.53-167.28-192.56,7.52-108.61,63.17-169.74,74.87-188.95,10.3-16.92,19.04-115.5,67.95-170.4,56.4-63.3,106.51-14.22,80.97,46.6-19.12,45.52-12.75,104.67-13.69,126.08-.05,1.12,6.97,2.15,7.32,1.08,11.09-34.29,56.58-140.2,104.31-190.55,66.46-70.1,122.91-9.1,85.63,58.85-34.75,63.33-45.16,122.56-52.8,145.34-.19.56.61.9.88.37,12.09-23.97,59.63-76.43,124.75-109.66,76.21-38.88,81.72,38.87,31.89,88.69-46.99,46.99-80.72,93.68-80.72,93.68,0,0,33.43,28.77,49.87,84.52"/>
    <g>
      <path class="cls-3" d="m365.19,556.86c-7.55-7.91-17.1-10.78-27.63-8.31-10.85,2.54-18.13,9.55-21.62,20.83-.5,1.62-.85,3.29-1.18,4.91-.15.73-.3,1.46-.47,2.19l-.03,29.56.15.6c.36.65.68,1.34,1,2.02.76,1.62,1.55,3.29,2.79,4.65,3.59,3.94,8.41,5.03,13.59,3.06,5.15-1.96,8.06-5.96,8.18-11.28.1-4.44.1-8.87.09-13.31,0-3.89,0-7.77.06-11.66.04-2.05.44-3.76,1.14-4.81.59-.88,2.17-1.82,3.18-1.71.75.02,2.1,1.09,2.63,2.07.74,1.38.85,3.39.87,4.78.06,5.08.06,10.17.05,15.26,0,2.81,0,5.62,0,8.43.02,7.68,5.39,13.25,12.76,13.25h0c7.36,0,12.73-5.58,12.78-13.25.05-8.39.09-16.62-.01-24.99-.11-9.09-2.92-16.59-8.36-22.28Z"/>
      <path class="cls-3" d="m534.05,685.4l-103.1-67.7v-5.11c-.01-10.8-.02-21.61.06-32.41.01-2.01.42-4.27,1.22-6.72.42-1.28,1.69-2.01,2.89-1.65,1.17.35,2.5,1.41,3.09,2.48.63,1.14.7,2.8.71,4.54.05,4.39.04,8.78.04,13.17,0,3.35,0,6.7.01,10.05.03,5.21,3.2,9.81,8.07,11.71,5.03,1.97,10.61.7,13.89-3.15,1.16-1.36,1.92-2.98,2.65-4.54.31-.66.62-1.33.97-1.97l.15-.28-.03-29.35-.99-4.62c-2.72-13.13-13.4-22.85-25.96-23.64-8.43-.53-16.37,2.16-22.36,7.58-5.96,5.4-9.42,13-9.73,21.4-.25,6.75-.24,13.61-.23,20.25v6.54s-.03,5.45-.03,5.45c-.04,6-.08,12.21.16,18.32.24,6.07,3.83,10.55,9.14,11.95l79.21,52.02-101.38,16.45c-3.38.55-6.35,2.38-8.35,5.16-2,2.78-2.8,6.17-2.26,9.55,1.01,6.24,6.33,10.77,12.65,10.77.68,0,1.37-.05,2.07-.17l132.63-21.53,1.3-.28c5.36-1.48,9.29-6.2,9.77-11.74.44-4.98-2.04-9.91-6.27-12.54Z"/>
      <path class="cls-3" d="m351.62,745.69c-40.95-4.64-42.47-30.85-42.51-33.8.03-7-5.65-12.78-12.83-12.87-6.97,0-12.72,5.67-12.82,12.65-.25,18,13.07,53.59,65.26,59.51.49.06.98.09,1.47.09,6.52,0,11.99-4.9,12.73-11.38.39-3.41-.58-6.76-2.71-9.44-2.13-2.68-5.18-4.37-8.59-4.75Z"/>
    </g>
    <path class="cls-3" d="m716.43,572.76c-21.25-11.96-51.9-7.47-66.92,9.8-19.5,22.42-37.53,30.27-58.47,39.39-1.1.48-2.2.96-3.3,1.44-11.52-26.6-25.76-45.26-35.2-55.82,11.55-15,38.48-48.7,71.62-81.84,34.04-34.04,46.56-82.59,27.93-108.22-6.96-9.58-28.42-29.17-77.15-4.31-38.09,19.43-67.49,43.6-85.5,60.53,9.16-27.98,19.86-52.99,32.55-76.11,10.61-19.34,15.21-39.4,13.31-58-1.91-18.7-10.28-34.34-23.58-44.04-21.39-15.61-58.71-17.04-99.28,25.75-36.38,38.38-68.55,103.14-85.58,141.07,1.43-25.25,5.46-45.52,12.22-61.64,15.35-36.55,8.2-73.35-17.4-89.5-12.29-7.75-27.56-9.43-42.99-4.74-15.5,4.71-30.8,15.46-45.48,31.93-37,41.52-52.37,105.56-61.57,143.87-2.75,11.46-6.18,25.72-7.99,28.7-1.42,2.33-4.01,5.95-7.02,10.16-20.54,28.73-63.27,88.52-69.99,185.52-4.05,58.52,10.09,106.76,42.02,143.38,47.91,54.94,118.61,63.72,139.15,65.1l.55.03,159.9-1.15c62.7,1.12,105-10.67,133.06-37.14,15.88-14.97,27.19-34.73,34.96-61.66,61.95-20.71,122.37-76.17,139.03-128.31,15.53-48.62-8.05-68.09-18.91-74.2Zm-10.2,64.9c-12.25,38.35-55.63,80.52-102.24,101.76.44-2.86.86-5.78,1.25-8.76,1.08-8.16-4.68-15.67-12.84-16.75-3.95-.53-7.87.52-11.03,2.95-3.17,2.43-5.2,5.94-5.72,9.89-5.78,43.79-15.85,69.87-33.66,87.21-21.93,21.34-59.02,31.22-113.54,30.27l-159.02,1.15c-17.58-1.24-78.07-8.85-118.24-54.91-26.54-30.43-38.23-71.38-34.74-121.7,6.13-88.57,45.55-143.72,64.52-170.25,3.48-4.86,6.22-8.71,8.21-11.97,4.06-6.68,6.75-17.38,11.53-37.3,9.08-37.83,22.81-95.01,54.82-130.94,18.83-21.13,38.09-29.49,50.26-21.81,10.98,6.92,16.5,27.25,5.81,52.7-16.39,39.04-15.47,86.28-14.91,114.64.13,6.78.24,12.64.07,16.56-.27,6.35,3.55,14.51,15.22,16.61,12.46,2.24,19.13-3.85,21.21-10.29,9.86-30.49,53.84-135.19,100.94-184.87,22.8-24.06,45.8-32.55,60.03-22.18,17.15,12.51,13.82,41.45,1.68,63.58-27.65,50.4-40.5,98.75-48.24,127.84-2.17,8.15-4.04,15.19-5.63,19.92-2.56,7.62,1.25,16.02,8.67,19.12,7.41,3.1,16.06-.1,19.68-7.28,20.53-40.71,87.12-87.22,118.2-103.08,19.29-9.84,34.4-11.65,39.44-4.73,7.67,10.55,1.79,42.9-24.89,69.58-47.39,47.38-80.87,93.55-82.27,95.49l-8.03,11.11,10.38,8.94c.3.26,30.38,26.83,45.29,77.43,1.13,3.82,3.68,6.98,7.17,8.88,3.5,1.91,7.54,2.34,11.36,1.21,6.81-2.01,11.1-8.47,10.66-15.27,1.86-.82,3.72-1.64,5.65-2.47,22.25-9.68,45.25-19.69,69.28-47.33,4.97-5.71,19.86-8.3,28.87-3.22,12.55,7.06,8.39,27.01,4.79,38.27Z"/>
  </g>
  <path class="cls-1" d="m976.06,871.27h-56.19l-104.85-85.63c1.95-4.45,3.71-9.03,5.26-13.72,10.61-31.98,10.7-65.49.25-94.35-10.94-30.2-31.99-51.82-59.27-60.87-26.68-8.85-56.01-4.36-82.57,12.65-26.34,16.87-46.77,44.04-57.54,76.51-10.77,32.46-10.63,66.46.4,95.73,11.12,29.52,31.94,50.65,58.62,59.5,8.96,2.97,18.3,4.48,27.75,4.48,19.02,0,38.44-6.17,56.16-17.85,11.05-7.28,21.04-16.43,29.69-27.04l61.83,50.6H22.24c-8.23,0-14.92,6.69-14.92,14.92s6.69,14.92,14.92,14.92h953.82c8.23,0,14.92-6.7,14.92-14.92s-6.7-14.92-14.92-14.92Zm-186.1-109.41c-.29.87-.6,1.72-.91,2.57l-31.21-25.49c3.29-20.44-5.41-39.53-21.64-44.91-18.56-6.16-39.94,7.93-47.75,31.47-7.81,23.54.91,47.61,19.47,53.77,9.62,3.19,19.99.93,28.84-5.25l32.28,26.42c-6.61,8.12-14.19,15.09-22.55,20.6-18.47,12.18-38.45,15.63-56.26,9.72-38.18-12.67-55.57-64.19-38.77-114.84,14.01-42.23,47.76-71.73,82.08-71.73,6.05,0,11.98.95,17.65,2.83,17.81,5.91,31.76,20.62,39.29,41.43,8.02,22.15,7.83,48.22-.53,73.42Z"/>
</svg>