<?xml version="1.0" encoding="UTF-8"?>
<svg id="Capa_1" data-name="Capa 1" xmlns="http://www.w3.org/2000/svg" viewBox="0 0 1000 1000">
  <defs>
    <style>
      .cls-1, .cls-2, .cls-3, .cls-4, .cls-5, .cls-6, .cls-7 {
        stroke-width: 0px;
      }

      .cls-2 {
        fill: #9540ff;
      }

      .cls-3 {
        fill: #07e580;
      }

      .cls-4 {
        fill: #fff;
      }

      .cls-5 {
        fill: #ffda6f;
      }

      .cls-6 {
        fill: #ed673e;
      }

      .cls-7 {
        fill: #010101;
      }
    </style>
  </defs>
  <path class="cls-4" d="m413.17,244.92c-24.07,36.1-60.84,123.68-81.56,143.74-20.72,20.06-72.2,90.25-72.2,90.25,0,0-27.41-20.06-38.78-46.8-11.37-26.74-16.71-50.14-33.43-47.47-16.71,2.67-46.13,49.47-33.43,96.27,12.7,46.8,56.83,98.28,56.83,98.28,0,0-5.35,69.53,27.41,106.3,32.76,36.77,61.51,54.82,61.51,54.82l-31.42,61.51,46.13,38.78,53.48-71.53,74.21,1.34,49.47,84.9,84.24-34.1-10.7-40.78-35.43,1.34-15.38-33.43s120.34-40.78,108.97-135.05c-11.37-94.26-18.05-121.67-18.05-121.67,0,0,88.25-87.58,102.29-104.96,14.04-17.38,17.38-46.13-4.01-47.47s-54.82-.67-87.58,26.74c-32.76,27.41-88.25,78.22-88.25,78.22,0,0,33.43-86.91,60.84-117.66s60.17-70.87,46.8-84.24c-13.37-13.37-61.51-13.37-98.28,24.07-36.77,37.44-93.6,112.98-93.6,112.98,0,0,33.43-110.98,34.1-140.39.67-29.42-32.09-42.12-64.18,6.02Z"/>
  <g>
    <path class="cls-7" d="m319.11,820.03c-1.78-1.77-57.3-35.36-57.3-35.36,0,0-12.93,37.84-20.75,33.02-7.81-4.82-70.95-6.72-70.95-6.72l-13.73,21.85,129.72,80.05,33.01-92.84Z"/>
    <path class="cls-7" d="m545.47,787.74c.16,2.09,17.83,53.09,17.83,53.09,0,0,31.09-18.3,33.52-11.06,2.43,7.24,43.96,41.25,43.96,41.25l22.18-7.32-40.36-120.19-77.13,44.23Z"/>
    <path class="cls-7" d="m733.1,344.81c-4.78-9.07-16.89-16.3-32.37-19.34-42.02-8.27-78.24,17.11-91.86,28.41-11.18,9.28-27.38,23.92-48.22,43.59,10.72-19.69,21.95-37.42,33.46-52.78,6.03-8.05,13.17-16.43,20.14-24.6,25.5-29.89,54.39-63.77,27.35-89.5-11.03-10.5-28.68-14.11-48.41-9.93-22.16,4.7-45.67,18.52-68.01,39.96-15.75,15.12-33.57,35.82-53.02,61.58.19-.66.38-1.33.57-2,3.15-11,6.18-20.81,8.86-29.46,10.87-35.1,17.44-56.28,4.51-75.17-8.06-11.78-19.9-17.38-33.35-15.78-43.06,5.28-91.2,86.04-119.8,163.74-3,8.16-16.8,25.21-31.41,43.27-13.93,17.22-30.05,37.15-45.23,58.99-9.6-2.77-14.49-18.46-19.67-35.08-5.91-18.95-12.02-38.54-28.04-49.49-10.97-7.5-23.67-8.7-34.83-3.31-13.26,6.41-29.7,24.48-32.67,74.13-1.33,22.19,3.29,49.47,12.36,72.96,7.79,20.17,22.57,47.4,49.02,64.14-1.79,15.03-1.53,30.25,1.39,45.53,7.65,40.03,33.05,75.6,75.61,106.08l-35.25,73.71-64.57-14.79c-12.01-2.75-23.92,1.74-30.35,11.45l-18.74,28.31,133.02,82.09c3.66,2.26,7.74,3.34,11.79,3.34,7.48,0,14.83-3.69,19.12-10.39l84.12-131.5c9.51,1.08,19.22,1.63,29.09,1.63,7.03,0,14.15-.27,21.33-.82.06,0,.12,0,.18-.01l57.23,91.18,102.89-39.81,29.81,32.01h0c8.8,9.45,21.22,14.63,33.87,14.63,4.5,0,9.02-.65,13.43-2l19.57-5.98-41.04-122.22c-1.96-5.82-6.08-10.5-11.62-13.17-5.54-2.67-11.76-2.98-17.54-.87l-77.77,28.31-3.95-8.14c37.63-17.22,65.15-42.59,82.06-75.77,36.54-71.72,11.69-156.5,2.76-181.83,4.32-7.62,14.78-23.24,37.75-45.72,11.29-11.05,22.8-21.07,32.97-29.91,31.44-27.36,58.59-51,43.48-79.65Zm-142.26,159.94c1.49,3.82,36.16,94.37.34,164.67-18.65,36.59-53.67,62.05-104.1,75.65-21.34,5.79-71.31,19.34-127.95,6.55-7.51-1.7-15.02,2.98-16.74,10.44-.83,3.59-.2,7.29,1.77,10.42.48.77,1.04,1.48,1.64,2.13l-74.32,116.19-96.82-59.74.73-1.11,87.66,20.08,43.71-91.76c.65.37,1.28.75,1.94,1.12,6.69,3.8,15.25,1.49,19.08-5.13,1.86-3.21,2.34-6.94,1.38-10.51-.97-3.59-3.3-6.58-6.55-8.43-52.89-30.05-83.59-65.65-91.26-105.79-14.17-74.14,49.72-153.1,92-205.35,18.16-22.45,31.29-38.66,35.87-51.11,15.21-41.31,34.22-79.03,53.53-106.22,25.32-35.64,40.61-39.16,43.41-39.5,1.63-.19,3.86-.45,6.79,3.83,5.18,7.57,1.26,21.24-8.1,51.44-2.72,8.79-5.81,18.75-9.04,30.04-13.4,46.86-25.13,80-28.41,89.04-2.46,6.82.64,14.33,7.23,17.48,6.57,3.13,14.42.86,18.25-5.27,9.34-14.92,58.15-91.49,101.73-133.33,16.85-16.18,35.01-27.53,51.14-31.96,11.83-3.25,21.72-2.5,26.47,2.02,7.47,7.11-8.87,27.56-29.36,51.58-7.2,8.44-14.65,17.18-21.22,25.94-35.94,47.97-59.43,104.25-65.78,120.35-2.66,6.75-.26,14.24,5.85,18.21,6.1,3.96,13.97,3.18,19.14-1.9,15.56-15.26,68.45-66.83,95.95-89.65,27.91-23.16,52.02-24.45,63.9-23.17,10.92,1.19,16.57,4.9,17.8,6.08,3.95,8.73-11.51,23.07-37.38,45.58-10.44,9.08-22.27,19.38-34.11,30.98-33.01,32.31-43.52,53.07-45.95,58.66-1.61,3.68-1.69,7.75-.22,11.46Zm-96.4,267.08c3.94-1.06,7.8-2.2,11.58-3.39l16.79,34.56,96.07-34.98,28.89,86.04-50.28-53.99-98.75,38.21-36.92-58.81c14.06-2.61,25.22-5.63,32.61-7.64Zm-253.58-282.45c-13.47,21.99-25.09,45.47-32.18,69.79-14.73-12.79-23.83-30.4-29.11-44.08-7.72-19.99-11.67-42.94-10.56-61.39,2.08-34.65,11.66-48.26,17-50.84.87-.42,2.9-1.39,6.71,1.21,8.04,5.5,12.69,20.42,17.19,34.85,6.03,19.34,12.78,40.95,30.95,50.46Z"/>
    <g>
      <path class="cls-1" d="m337.12,488.81c.52,2.34.62,4.83,1.63,6.98,2.01,4.3,6.88,6.8,11.8,6.6,4.94-.2,9.07-3.09,10.51-7.53,2.35-7.22,4.59-14.47,6.98-21.67.54-1.62,1.18-3.43,2.42-4.52,1.16-1.02,3.16-1.71,4.79-1.65,2.08.08,3.71,1.73,3.77,3.72.07,2.36-.13,4.81-.82,7.04-4.33,13.94-10.55,26.3-14.99,40.22-2.05,6.44,1.01,12.5,7.43,14.75,6.73,2.35,13.14-.17,15.51-6.62,2.67-7.27,14.36-37.21,16.69-45.63,4.37-15.85-5.7-31.44-22.86-35.78-12.32-3.12-25.54,2.36-31.89,13.22-.78,1.34-1.59,2.67-2.38,4-2.86,8.96-5.73,17.92-8.59,26.88Z"/>
      <path class="cls-1" d="m494.94,511.12c.16-2.35.49-4.7.45-7.06-.16-10.78-4.89-19.5-15.01-25.28-9.62-5.5-19.54-5.8-29.15-1.02-7.52,3.74-12,9.94-14.51,17.46-2.58,7.74-5.03,15.53-7.46,23.32-2.06,6.59,1.34,12.76,8.09,14.9,6.73,2.13,13.14-1.01,15.24-7.52,2.38-7.37,4.67-14.78,7.12-22.13.56-1.68,1.34-3.51,2.63-4.68,1.07-.97,3.23-1.75,4.56-1.38,1.47.42,3.19,2.08,3.65,3.49.56,1.7.25,3.8-.27,5.55-2.33,7.82-5.01,15.54-7.29,23.37-1.35,4.63.29,8.72,4.44,11.83,4.15,3.11,8.76,3.68,13.19,1.35,2.16-1.14,3.74-3.2,5.58-4.84,2.91-9.12,5.83-18.23,8.74-27.35Z"/>
    </g>
    <path class="cls-7" d="m383.73,624.46c-1.62-.06-3.26-.46-4.8-1.24l-116.94-66.23c-4.49-2.24-7.19-7.03-6.74-12.01.46-5.05,4.1-9.32,9.03-10.62,15.9-4.21,103.8-21.03,107.81-21.9,6.17-1.33,12.28,2.54,13.64,8.66,1.36,6.12-2.53,12.16-8.7,13.5-.71.15-45.01,7.51-78.99,15.17l91.26,53.23c5.63,2.85,7.88,9.68,5.01,15.26-2.08,4.05-6.29,6.33-10.59,6.17Z"/>
  </g>
  <g>
    <polygon class="cls-6" points="73.98 114 111.98 94.57 139.06 153.71 115.97 167.33 73.98 114"/>
    <path class="cls-1" d="m115.98,176.95c-2.87,0-5.68-1.28-7.56-3.67l-41.99-53.33c-1.78-2.26-2.45-5.2-1.84-8.01.61-2.81,2.46-5.2,5.02-6.51l38-19.43c2.34-1.19,5.06-1.38,7.54-.52,2.48.86,4.5,2.7,5.59,5.08l27.08,59.14c2.05,4.48.39,9.79-3.86,12.29l-23.09,13.62c-1.53.9-3.21,1.33-4.88,1.33Zm-27.2-59.71l29.55,37.53,8.38-4.94-19.29-42.12-18.64,9.53Z"/>
  </g>
  <g>
    <polygon class="cls-2" points="216.48 141.72 261.75 159.49 225.64 220.44 199.54 212.23 216.48 141.72"/>
    <path class="cls-1" d="m225.64,230.06c-.96,0-1.93-.14-2.89-.44l-26.11-8.21c-4.82-1.52-7.65-6.51-6.47-11.42l16.94-70.51c.65-2.71,2.44-5,4.91-6.28,2.47-1.29,5.37-1.44,7.96-.42l45.27,17.77c2.63,1.03,4.66,3.16,5.58,5.83.92,2.67.62,5.6-.82,8.03l-36.11,60.94c-1.77,2.98-4.95,4.72-8.28,4.72Zm-14.65-24.31l10.27,3.23,26.46-44.66-24.46-9.6-12.26,51.03Z"/>
  </g>
  <g>
    <polygon class="cls-3" points="122.01 234.02 84 257.78 130.67 309.4 147.91 297.05 122.01 234.02"/>
    <path class="cls-1" d="m130.68,319.02c-2.64,0-5.25-1.08-7.14-3.17l-46.67-51.62c-1.91-2.11-2.78-4.96-2.39-7.78.39-2.82,2.01-5.32,4.43-6.83l38.01-23.76c2.4-1.5,5.35-1.87,8.04-1,2.7.87,4.88,2.88,5.95,5.5l25.9,63.03c1.7,4.13.33,8.88-3.29,11.47l-17.23,12.35c-1.69,1.21-3.65,1.8-5.6,1.8Zm-31.84-59.17l33.21,36.73,4.07-2.91-18.67-45.45-18.6,11.63Z"/>
  </g>
  <g>
    <polygon class="cls-5" points="50.53 346.59 29.88 394.79 109.17 413.21 117.48 389.85 50.53 346.59"/>
    <path class="cls-1" d="m109.18,422.83c-.72,0-1.45-.08-2.18-.25l-79.29-18.42c-2.77-.64-5.12-2.48-6.4-5.02s-1.38-5.52-.26-8.14l20.64-48.2c1.12-2.61,3.32-4.58,6.03-5.41,2.71-.82,5.65-.42,8.03,1.12l66.96,43.25c3.75,2.42,5.34,7.1,3.84,11.31l-8.31,23.36c-1.39,3.9-5.07,6.4-9.06,6.4Zm-65.93-34.81l59.74,13.88,2.88-8.1-50.99-32.94-11.63,27.16Z"/>
  </g>
  <g>
    <polygon class="cls-2" points="271.88 250.75 256.43 298.76 299.94 343.39 311.26 297.37 271.88 250.75"/>
    <path class="cls-1" d="m299.94,353.01c-2.56,0-5.05-1.02-6.89-2.9l-43.52-44.63c-2.49-2.55-3.36-6.27-2.27-9.66l15.46-48.01c1.07-3.33,3.86-5.81,7.29-6.49,3.43-.68,6.96.56,9.21,3.23l39.38,46.62c1.99,2.35,2.73,5.52,1.99,8.51l-11.31,46.02c-.83,3.39-3.44,6.07-6.81,6.98-.83.23-1.68.34-2.53.34Zm-32.59-56.82l27.38,28.08,6.01-24.44-25.02-29.63-8.37,25.99Z"/>
  </g>
  <g>
    <polygon class="cls-6" points="790.68 389.88 835.15 399.99 814.94 466.71 793.37 461.31 790.68 389.88"/>
    <path class="cls-1" d="m814.94,476.33c-.77,0-1.56-.09-2.34-.29l-21.57-5.39c-4.15-1.04-7.12-4.69-7.28-8.97l-2.69-71.43c-.11-2.99,1.17-5.86,3.47-7.76s5.36-2.64,8.27-1.98l44.48,10.11c2.6.59,4.84,2.24,6.18,4.55,1.34,2.31,1.66,5.07.89,7.62l-20.22,66.71c-1.25,4.14-5.06,6.83-9.2,6.83Zm-12.23-22.59l5.67,1.42,14.57-48.07-22.19-5.04,1.95,51.69Z"/>
  </g>
  <g>
    <polygon class="cls-5" points="891.9 244.64 914.28 284.39 851.26 314.2 840.78 294.6 891.9 244.64"/>
    <path class="cls-1" d="m851.27,323.83c-3.44,0-6.76-1.86-8.49-5.08l-10.49-19.6c-2.02-3.77-1.3-8.43,1.76-11.42l51.12-49.96c2.14-2.09,5.13-3.07,8.09-2.64,2.96.42,5.55,2.2,7.02,4.8l22.37,39.75c1.31,2.33,1.59,5.09.79,7.64-.81,2.54-2.64,4.64-5.05,5.78l-63.01,29.82c-1.33.63-2.73.93-4.11.93Zm1.4-27.39l2.76,5.16,45.4-21.48-11.16-19.83-37,36.16Z"/>
  </g>
  <g>
    <polygon class="cls-3" points="409.01 84.59 432.85 126.93 365.72 158.7 354.55 137.82 409.01 84.59"/>
    <path class="cls-1" d="m365.72,168.32c-3.44,0-6.76-1.86-8.49-5.08l-11.17-20.88c-2.02-3.77-1.3-8.43,1.76-11.42l54.47-53.23c2.14-2.09,5.12-3.07,8.09-2.64,2.96.42,5.55,2.2,7.02,4.8l23.84,42.34c1.31,2.33,1.59,5.09.79,7.64-.81,2.54-2.64,4.64-5.05,5.78l-67.13,31.76c-1.33.63-2.73.93-4.11.93Zm.71-28.67l3.44,6.44,49.52-23.43-12.63-22.43-40.34,39.42Z"/>
  </g>
  <g>
    <polygon class="cls-3" points="898.73 431.01 946.58 387.21 974.21 415.51 922.99 451.9 898.73 431.01"/>
    <path class="cls-1" d="m923,461.52c-2.25,0-4.48-.78-6.28-2.33l-24.26-20.89c-2.08-1.8-3.3-4.39-3.34-7.14-.04-2.75,1.1-5.38,3.12-7.24l47.85-43.8c3.83-3.5,9.75-3.34,13.38.38l27.63,28.3c1.96,2.01,2.95,4.78,2.7,7.59-.25,2.8-1.72,5.35-4.01,6.98l-51.21,36.39c-1.67,1.19-3.63,1.78-5.57,1.78Zm-9.77-30.73l10.34,8.91,35.91-25.51-13.26-13.59-32.98,30.2Z"/>
  </g>
  <g>
    <polygon class="cls-2" points="831.35 544.9 840.11 565.79 905.47 563.09 891.32 512.55 831.35 544.9"/>
    <path class="cls-1" d="m840.1,575.41c-3.86,0-7.37-2.32-8.87-5.9l-8.76-20.89c-1.92-4.57-.05-9.84,4.3-12.19l59.98-32.35c2.57-1.39,5.64-1.52,8.33-.39,2.69,1.14,4.71,3.45,5.5,6.26l14.15,50.54c.79,2.83.25,5.87-1.48,8.25-1.73,2.38-4.45,3.84-7.39,3.96l-65.37,2.7c-.13,0-.27,0-.4,0Zm3.49-26.19l2.8,6.68,46.54-1.92-7.63-27.25-41.71,22.5Z"/>
  </g>
  <g>
    <polygon class="cls-2" points="698.85 665.49 728.5 598.78 772.33 598.78 742 664.14 698.85 665.49"/>
    <path class="cls-1" d="m698.85,675.11c-3.2,0-6.19-1.59-7.98-4.25-1.85-2.75-2.15-6.25-.81-9.28l29.65-66.72c1.54-3.47,4.99-5.71,8.79-5.71h43.83c3.28,0,6.34,1.67,8.11,4.44,1.77,2.77,2,6.25.62,9.23l-30.32,65.37c-1.53,3.3-4.79,5.45-8.43,5.57l-43.16,1.35c-.1,0-.2,0-.3,0Zm35.9-66.72l-20.89,47,21.91-.68,21.49-46.32h-22.51Z"/>
  </g>
  <path class="cls-7" d="m393.62,645.16c28.27-.97,32.36-32.19,47.92-33.66,20.43-1.92,26.62,42.89-.22,55.44-18.5,8.65-44.28,9.84-55.04,1.74-7.84-5.9-5.83-23.07,7.34-23.53Z"/>
</svg>