<?xml version="1.0" encoding="UTF-8"?>
<svg id="Capa_1" data-name="Capa 1" xmlns="http://www.w3.org/2000/svg" viewBox="0 0 1000 1000">
  <defs>
    <style>
      .cls-1, .cls-2, .cls-3, .cls-4 {
        stroke-width: 0px;
      }

      .cls-2 {
        fill: #9440ff;
      }

      .cls-3 {
        fill: #fff;
      }

      .cls-4 {
        fill: #010101;
      }
    </style>
  </defs>
  <path class="cls-3" d="m235.2,781.83l33.55-88.45s-71.42-21.32-102.34-70.36c-30.91-49.04-22.39-111.93-15.99-151.37,6.4-39.44,11.73-56.5,11.73-56.5,0,0-44.77-59.7-71.42-95.94-26.65-36.24-28.78-76.75-7.46-76.75s62.89,10.66,105.54,50.1c42.64,39.44,56.5,63.96,56.5,63.96,0,0-34.11-142.85-45.84-185.49-11.73-42.64-10.66-70.36,17.06-72.49,27.72-2.13,76.75,24.52,100.21,82.08,23.45,57.56,49.04,120.46,49.04,120.46,0,0,29.85-41.57,29.85-98.07s15.99-114.06,39.44-110.87c23.45,3.2,57.56,34.11,57.56,99.14s-14.92,169.5-14.92,169.5l53.3,40.51s75.16,2.69,98.62-39.95c23.45-42.64,78.22-61.08,93.15-24.84,14.92,36.24-10.07,71.61-39.92,120.65-29.85,49.04-92.15,65.67-92.15,65.67,0,0,11.73,118.33-49.04,146.04-60.76,27.72-44.77,23.45-44.77,23.45l-12.79,110.87-72.49,19.19-3.2-119.39-62.89,1.07-39.95,94.85-70.36-17.06Z"/>
  <path class="cls-4" d="m335.74,480.41c-7.15.71-13.86-4.02-15.46-11.21l-5.82-26.24c-1.72-7.76,3.17-15.44,10.93-17.16,7.76-1.69,15.44,3.17,17.16,10.93l5.82,26.24c1.72,7.76-3.17,15.44-10.93,17.16-.57.12-1.14.22-1.71.27Z"/>
  <path class="cls-4" d="m425.54,457.96c-7.15.71-13.86-4.02-15.46-11.21l-5.82-26.24c-1.72-7.76,3.17-15.44,10.93-17.16,7.76-1.69,15.44,3.17,17.16,10.93l5.82,26.24c1.72,7.76-3.17,15.44-10.93,17.16-.57.12-1.14.22-1.71.27Z"/>
  <path class="cls-4" d="m379.13,567.37c-6.26-.12-11.72-4.98-12.71-11.76-1.11-7.6,3.8-14.73,10.97-15.93l90.44-15.11c-28.58-17.55-42.21-25.86-66.18-37.39-6.6-3.18-9.52-11.43-6.51-18.44,3.01-7.01,10.8-10.12,17.41-6.94,33.15,15.94,57.97,31.26,99.12,58.03,4.77,3.04,7.31,8.88,6.33,14.74-1.01,6.07-5.55,10.77-11.29,11.7l-125.29,20.93c-.77.13-1.54.18-2.29.17Zm123.61-48.64s-.08.01-.12.02l.12-.02Z"/>
  <path class="cls-4" d="m350.48,921.58l-180.18-35.69c-9.66-2.62-14.72-13.22-10.69-22.38l73.15-163.75c3.04-6.91,10.49-11.13,17.87-9.52,10.15,2.22,15.22,12.9,11.27,21.89l-66.16,147.88,130.45,35.45-70.95-58.63,74.55-132.3c4-9.06,15.45-12.51,23.96-6.29,6.03,4.41,7.84,12.66,4.82,19.5l-64.68,109.96,45.06,30.96c14.91,10.25,21.55,28.92,16.44,46.28l-4.9,16.66Z"/>
  <path class="cls-4" d="m584.33,917.77h-190.63l-1.56-205.94c-.07-8.74,6.97-15.88,15.71-15.95,8.74-.12,15.88,6.97,15.95,15.71l1.32,174.52h126.84l-.1-4.54-92.05-33.49,18.06-156.06c1-8.68,8.84-14.89,17.54-13.91,8.68,1.01,14.91,8.86,13.9,17.54l-15.18,131.22,62.01,22.56c16.21,5.9,27.13,21.14,27.52,38.38l.67,29.94Z"/>
  <path class="cls-4" d="m226.84,764.27c2.74.06,70.56,19.17,70.56,19.17,0,0-21.48,41.01-11.85,43.62,9.62,2.61,57.13,53.41,57.13,53.41l-7.84,28.87-159.76-43.41,51.76-101.66Z"/>
  <path class="cls-4" d="m423.83,785.58c2.66-.66,73.12,0,73.12,0,0,0-9.97,45.2,0,45.2s69.13,36.56,69.13,36.56v29.91h-165.55l23.3-111.68Z"/>
  <path class="cls-4" d="m470.12,711.62c-8.69,0-15.76-7.01-15.82-15.72-.06-8.74,6.98-15.88,15.72-15.94,37.81-.26,66.01-14.24,83.81-41.55,21.82-33.48,24.76-85.23,7.16-125.85-3.48-8.02.21-17.34,8.23-20.82,8.02-3.48,17.34.21,20.82,8.23,21.93,50.6,18.04,113.18-9.68,155.71-16.47,25.28-48.95,55.51-110.11,55.92h-.11Z"/>
  <path class="cls-4" d="m281.98,719.17c-6.79,0-51.82-1.79-99.62-47.07-45.4-43.01-60.91-89.46-53.53-160.33,2.73-26.25,7.78-42.63,11.46-54.59,4.84-15.74,5.72-18.57-1.16-29.87-8.57-14.08-21.63-31.79-35.45-50.54-13.92-18.88-28.32-38.41-39.38-55.98-16.11-25.59-18.73-52.05-6.83-69.04,6.14-8.77,21.51-22.38,55.41-15.06,32.62,7.05,71.42,39.66,102.01,72.56-10.57-44.44-24.91-99.32-37.33-124.17-12.61-25.23-9.97-60.99,19.49-80.52,21.38-14.18,54.54-14.94,80.4,15.33,32.1,37.57,57.52,76.77,85.94,154.45,10.59-32.34,14.73-67.37,12.33-104.54-2.42-37.44,14.1-69.81,40.16-78.71,22.3-7.62,46.12,3.39,63.71,29.45,17.25,25.55,25.75,64.18,25.27,114.8-.43,45.18-7.97,89.58-13.38,115.86,8.51,10.46,28.44,34.6,57.59,67.66,5.47,6.2,5.83,15.75.18,21.78-6.48,6.92-17.33,6.62-23.45-.32-40.34-45.72-62.83-74.03-63.76-75.21l-4.66-5.88,1.6-7.33c16.37-75.02,23.49-170.54-5.61-213.66-4.37-6.48-15.77-21.13-27.24-17.2-10.35,3.54-20.46,21.11-18.8,46.72,3.61,55.88-6.19,107.6-29.12,153.73-.63,1.26-1.11,2.21-1.39,2.84h0c-2.47,6.2-8.55,10.18-15.22,9.97h-.11c-6.68-.22-12.57-4.63-14.67-10.98-35.96-110-64.71-149.26-93.43-182.86-12.05-14.1-26.57-17.65-38.84-9.51-10.37,6.87-17.5,22.32-8.67,39.98,19.31,38.63,40.53,133.09,50.73,178.49,2.07,9.21,4.02,17.91,4.55,19.66l2.49,6.41c2.84,7.3-.48,15.56-7.58,18.86h0s-.7.32-.7.32c-6.83,3.09-14.88.61-18.8-5.77l-4.17-6.8c-25.12-40.12-88.3-106.28-126.2-114.47-11.35-2.45-20.09-1.58-22.79,2.28-3.5,5-2,18.62,7.69,34.01,10.44,16.59,24.49,35.64,38.07,54.06,14.25,19.33,27.72,37.59,37.02,52.87,14.28,23.46,9.91,37.67,4.37,55.65-3.48,11.31-7.82,25.39-10.23,48.56-6.4,61.42,5.48,97.75,43.81,134.07,40.59,38.46,76.3,38.49,77.78,38.41,8.65-.33,15.97,6.56,16.26,15.3.28,8.74-6.64,16.05-15.38,16.34-.12,0-.39.01-.82.01Z"/>
  <path class="cls-4" d="m590.19,535.6l-9.43-30.22c61.52-19.2,106.78-62.37,124.17-118.43,4.37-14.09,9.25-39.07-7.17-48.12-11.94-6.57-32.37-4.04-37.14,4.64-31.18,56.7-85.84,68.23-111.92,79.85-3.44,1.53-6.88,3.07-10.34,4.66l-13.22-28.76c3.57-1.64,7.13-3.23,10.68-4.81,24.96-11.12,76.11-26.98,100.73-71.5,12.66-22.89,52.03-25.28,76.49-11.79,12.46,6.87,39.57,28.94,22.11,85.21-20.52,66.16-73.36,116.92-144.97,139.27Z"/>
  <path class="cls-4" d="m380.26,728.43c-10.6,0-21.81-1.21-38.54-4-8.62-1.44-14.45-9.59-13.01-18.21,1.44-8.63,9.6-14.46,18.21-13.01,30.79,5.13,38.2,4.38,68.14-.05,8.64-1.27,16.69,4.7,17.97,13.35,1.28,8.65-4.7,16.69-13.35,17.97-16.78,2.48-27.73,3.96-39.43,3.96Z"/>
  <path class="cls-4" d="m372.13,628.63c-.49,0-.98-.03-1.48-.09-52.31-5.93-65.66-41.63-65.41-59.68.1-7.11,5.9-12.81,12.99-12.81.06,0,.12,0,.18,0,7.12.1,12.83,5.91,12.81,13.02.05,3.08,1.71,29.04,42.36,33.65,7.13.81,12.25,7.24,11.45,14.37-.75,6.63-6.37,11.53-12.89,11.53Z"/>
  <path class="cls-2" d="m637.15,89.62c-18.94,42.61-38.82,59.65-12.31,101.32,26.51,41.66,65.34,51.13,65.34,51.13l77.65,222.52s-29.35,26.51-42.61,53.03c-13.26,26.51-16.1,51.13,7.58,88.06,23.67,36.93,43.56,27.46,43.56,27.46l36.93-22.73-10.42-65.34,53.03-11.36,20.83,73.86s35.04,6.63,45.45-17.99c10.42-24.62,37.88-68.18,14.2-90.9-23.67-22.73-85.22-35.04-85.22-35.04l-64.39-228.2s53.97-58.71,50.19-87.12c-3.79-28.41-49.24-89.01-49.24-89.01l-51.13,25.57,7.58,56.81-43.56,18.94-22.73-74.81-40.72,3.79Z"/>
  <path class="cls-1" d="m621.16,82.96l-3.67,6.53c-25.51,45.38-30.4,83.67-14.53,113.83,18.4,34.95,59.21,47.05,79.26,50.99l47.91,155.53,14.92,59.2c-30.39,21.11-46.68,46.1-48.43,74.43-3.44,55.36,51.92,99.87,54.28,101.73l6.49,5.14,74.87-19.76-13.1-71.51,22.05-5.65,19.19,78.43,68.92-14.53,3.67-6.53c20.91-37.2,27.97-69.63,21.09-96.73-1.51-5.96-3.7-11.66-6.56-17.1-18.4-34.95-59.2-47.06-79.26-51l-32-111.05-30.83-103.68c30.39-21.11,46.68-46.1,48.43-74.43.57-9.14-.47-17.97-2.6-26.38-10.79-42.51-49.71-73.8-51.68-75.36l-6.49-5.14-74.86,19.76,13.1,71.51-22.05,5.65-19.19-78.43-68.91,14.53Zm44.39,24.45l19.53,79.8,84.34-21.62-13.13-71.73,28.7-7.58c12,11.31,37.72,39.15,35.84,68.56-1.27,19.84-15.64,38.24-42.72,54.68l-10.22,6.21,71.49,249.52,3.16,10.83,11.21,1.06c.48.05,48.65,4.95,64.53,35.32,9.6,18.34,6.02,43.75-10.62,75.59l-22.75,4.8-19.53-79.8-84.34,21.62,13.13,71.73-28.7,7.57c-12-11.3-37.72-39.15-35.84-68.56,1.27-19.84,15.64-38.24,42.72-54.68l10.22-6.21-71.5-249.52-3.16-10.83-11.21-1.06c-.48-.05-48.65-4.95-64.53-35.32-9.59-18.35-6.02-43.75,10.62-75.59l22.75-4.8Z"/>
</svg>