<?xml version="1.0" encoding="UTF-8"?>
<svg id="Capa_1" data-name="Capa 1" xmlns="http://www.w3.org/2000/svg" viewBox="0 0 1000 1000">
  <defs>
    <style>
      .cls-1, .cls-2, .cls-3, .cls-4 {
        stroke-width: 0px;
      }

      .cls-2 {
        fill: #fff;
      }

      .cls-3 {
        fill: #eee;
      }

      .cls-4 {
        fill: #040404;
      }
    </style>
  </defs>
  <g>
    <path class="cls-2" d="m456.62,789.51c-47.93-2.5-97.58-53.54-97.58-53.54,0,0-58.71-67.83-51.11-121.07,7.61-53.24,23.51-80.89,25.58-97.48,2.07-16.59-20.74-59.46-47.7-97.48-26.96-38.03-64.99-69.83-45.63-94.72,19.36-24.89,41.48-45.63,97.48,8.99,56,54.62,89.88,103.01,89.88,103.01,0,0-59.46-208.79-60.84-234.38-1.38-25.58,22.12-60.15,47.01-44.94,24.89,15.21,108.55,94.03,120.99,158.32,12.44,64.3,9.68,86.42,21.43,53.93,11.75-32.49,28.35-121.68,31.8-174.23,3.46-52.54,44.25-72.59,67.06-37.33,22.82,35.26,42.17,116.15,36.64,176.99-5.53,60.84-13.83,93.34-13.83,93.34l51.85,58.77s31.8-15.9,60.84-61.53c29.04-45.63,44.94-73.98,73.98-58.08,29.04,15.9,52.54,82.27,20.74,134.13-31.8,51.85-100.25,112-100.25,112,0,0,11.75,73.98-38.03,113.39-49.78,39.41-108.23,63.05-167,63.74-58.77.69-123.33-1.83-123.33-1.83Z"/>
    <g>
      <path class="cls-1" d="m867.59,356.02c-29.27-7.62-64.59,7.42-77.11,32.84-17.01,34.53-36.93,50.26-60,68.48-1.03.81-2.06,1.63-3.09,2.45-17.22-20.07-29.41-34.86-35.8-42.71-.03-.04-.04-.09-.03-.14,5.83-28.35,13.91-76.08,14.37-124.63.52-54.6-8.66-96.27-27.28-123.85-19.04-28.21-44.84-40.11-69.03-31.86-28.22,9.64-46.11,44.65-43.5,85.14,2.55,39.44-1.75,76.61-12.79,110.99-.05.16-.29.16-.35,0-30.42-82.74-57.69-124.74-92.09-165-27.99-32.76-63.9-31.93-87.06-16.58-31.91,21.15-34.78,59.87-21.12,87.18,13.19,26.38,28.39,84.23,39.72,131.72.04.18-.18.29-.3.16-32.77-34.98-73.97-69.3-108.69-76.81-36.71-7.94-53.38,6.84-60.05,16.36-12.9,18.42-10.08,47.07,7.35,74.75,11.92,18.93,27.43,39.97,42.43,60.31,14.89,20.19,28.95,39.26,38.17,54.41,5.98,9.83,4.99,12.16-1.44,27.35-5.86,13.84-13.89,32.79-17.21,64.65-7.06,67.81,17.98,125.49,78.8,181.52,37.15,34.22,80.5,42.76,114.53,42.76s56.44-7.77,58.42-8.44c9.1-3.05,13.99-12.87,10.97-21.97-3.02-9.11-12.87-14.06-21.97-11.04-.8.26-81.12,25.84-138.37-26.9-52.78-48.61-73.68-95.58-67.77-152.32,2.78-26.68,9.36-42.2,14.64-54.67,7.4-17.46,14.39-33.96-.87-59.03-10.02-16.47-24.53-36.14-39.89-56.98-14.63-19.84-29.75-40.35-40.99-58.2-10.35-16.45-12-30.95-8.29-36.24,2.83-4.04,12.1-4.92,24.18-2.31,40.74,8.81,108.68,79.98,135.83,123.34l.05.08c4.72,7.28,14.07,10,21.97,6.39h0l.1-.05c7.87-3.71,11.85-12.61,9.36-20.95-.56-1.89-2.67-11.25-4.89-21.16-10.99-48.9-33.85-150.67-54.67-192.32-9.42-18.83-1.82-35.29,9.22-42.61,13.06-8.66,28.53-4.85,41.38,10.18,30.9,36.16,61.85,78.42,100.55,196.79,2.29,7,7.33,14.03,14.69,14.27,7.55,1.35,15.5-3.57,17.66-10.92l.64-2.18c.3-.68.81-1.69,1.48-3.04,24.72-49.74,35.29-105.51,31.4-165.76-1.77-27.41,8.99-46.19,20.02-49.96,12.11-4.13,24.27,11.49,28.94,18.4,31.28,46.34,23.61,149.12,6,229.86l-1.74,7.97c-.01.05,0,.11.03.15l5.07,6.39c1.01,1.27,25.23,31.78,68.69,81.03,6.7,7.6,18.55,7.95,25.69.45,6.32-6.64,5.87-17.27-.19-24.15-1.05-1.19-2.09-2.37-3.12-3.54.61-.48,1.21-.96,1.82-1.44,24.17-19.09,49.16-38.83,69.65-80.41,4.66-9.45,23.09-18.2,37.13-14.54,19.3,5.02,20.82,32.2,20.02,47.95-2.96,57.75-33.19,110.43-83.63,146.8-3.89-4.31-9.83-6.59-15.97-5.49-9.46,1.69-15.76,10.73-14.07,20.19,6.09,34.13,3.02,65.78-8.66,89.13-17.04,34.08-51.33,57.56-89.5,61.26-35.79,3.51-71.03,3.9-94.14-26.03-5.87-7.61-16.8-9.02-24.41-3.14-7.61,5.87-9.01,16.8-3.14,24.41,27.36,35.45,69.24,40.07,111.58,40.07,4.46,0,8.95-.22,13.47-.66,49.98-4.86,94.91-35.64,117.26-80.34,13.69-27.38,16.51-57.07,15.11-82.49,66.75-42.54,107.09-108.61,110.85-181.93,3.26-63.64-31.09-79.53-46.01-83.41Z"/>
      <path class="cls-4" d="m452.23,919c-45.83-1.03-86.57-55.74-30.97-123.24,55.61-67.5,138.66-49.58,143.62-3.26,5.84,54.57-31.92,128.3-112.65,126.49Z"/>
      <path class="cls-2" d="m460.55,851.02c-7.67-4.42-6.48-23.49,13.05-37.46,19.53-13.96,31.04-1.43,24.99,12.05-7.12,15.87-24.53,33.2-38.04,25.41Z"/>
      <path class="cls-4" d="m681.98,916c-45.79,1.98-90.05-49.94-38.99-120.94,51.06-71,135.11-58.57,143.1-12.67,9.41,54.07-23.43,130.12-104.11,133.61Z"/>
      <path class="cls-2" d="m685.81,847.62c-7.94-3.91-8.01-23.02,10.56-38.23,18.57-15.22,30.88-3.46,25.73,10.38-6.06,16.31-22.3,34.74-36.29,27.85Z"/>
      <path class="cls-1" d="m527.14,546.55c-7.86.78-15.24-4.42-16.99-12.32l-6.4-28.85c-1.89-8.53,3.49-16.98,12.02-18.87,8.53-1.86,16.98,3.49,18.87,12.02l6.4,28.85c1.89,8.53-3.49,16.98-12.02,18.87-.63.14-1.25.24-1.87.3Z"/>
      <path class="cls-1" d="m625.88,521.86c-7.86.78-15.24-4.42-16.99-12.32l-6.4-28.85c-1.89-8.53,3.49-16.98,12.02-18.87,8.53-1.86,16.98,3.49,18.87,12.02l6.4,28.85c1.89,8.53-3.49,16.98-12.02,18.87-.63.14-1.25.24-1.87.3Z"/>
      <path class="cls-1" d="m577.13,642.15c-6.88-.13-12.89-5.47-13.98-12.93-1.23-8.36,4.17-16.2,12.06-17.52l99.44-16.61c-31.43-19.29-46.41-28.44-72.76-41.11-7.26-3.49-10.47-12.57-7.16-20.27,3.31-7.7,11.88-11.13,19.14-7.63,36.45,17.53,63.73,34.36,108.98,63.8,5.25,3.34,8.04,9.76,6.96,16.21-1.11,6.67-6.1,11.85-12.42,12.87l-137.75,23.02c-.85.14-1.69.2-2.52.19Zm135.9-53.48s-.09.02-.14.02l.14-.02Z"/>
    </g>
  </g>
  <g>
    <path class="cls-3" d="m127.01,854.54c-21.97,26.85-39.86,43.93-14.64,48.81,25.22,4.88,259.52,4.07,259.52,4.07,0,0-21.15-12.2-54.51-45.56-33.36-33.36-58.57-81.35-85.42-78.1-26.85,3.25-53.69,32.54-39.86,57.76,13.83,25.22,18.3,29.49-14.03,19.63-32.34-9.86-51.05-6.61-51.05-6.61Z"/>
    <g>
      <path class="cls-1" d="m373.65,917.21c-1.58,0-11.19-.04-12.71-.12-40.12-.35-208.91-1.37-235.12-1.37-16.3,0-31.7,0-37.16-11.99-5.73-12.58,4.21-24.02,24.01-46.82,24.76-28.5,47.91-19.61,71.43-7.09,2.66,1.42,4.93,2.51,6.86,3.35-.66-1.28-1.45-2.7-2.38-4.29-13.28-22.52-6.86-50.47,14.93-65.01,21.28-14.19,58.34-14.52,92.74,31.28,6.6,8.78,12.37,17.1,17.95,25.15,22.88,32.96,35.52,49.62,60.1,51.11l4.98.05c.53,0,1.05.03,1.55.06.18,0,.32,0,.41,0v.03c12.27,1,13.26,9.96,13.26,12.8,0,5.14-3.64,12.81-13.66,12.86h-7.18Zm-255.27-27.27c2.16.05,4.64.08,7.43.08,16.5,0,82.23.34,140.04.67,19.28.11,38.15.23,54.87.33-9.75-10.3-18.45-22.84-27.65-36.09-5.45-7.85-11.08-15.97-17.39-24.37-19.45-25.9-42.19-35.85-57.93-25.34-8.73,5.82-14.17,18.52-7.05,30.59,4.01,6.81,16.23,27.52,4.22,40.06-12.33,12.88-34.54,1.06-42.9-3.4-23.97-12.76-29.28-11.03-39.96,1.26-3.97,4.57-9.5,10.94-13.68,16.19Z"/>
      <path class="cls-1" d="m373.65,918.97h0c-1.21,0-11.19-.04-12.8-.12-42.59-.37-209.66-1.37-235.03-1.37-16.88,0-32.82,0-38.76-13.01-6.2-13.61,3.98-25.33,24.28-48.7,25.6-29.47,49.41-20.35,73.58-7.49.62.33,1.23.65,1.83.95-13.34-23.24-6.62-51.87,15.78-66.81,21.92-14.62,59.98-15.09,95.11,31.69,6.62,8.82,12.4,17.15,17.99,25.2,22.89,32.99,34.96,48.91,58.76,50.36l4.89.04c.57,0,1.11.03,1.64.06l1.66.16c10.04,1.31,13.66,8.22,13.66,14.42,0,5.84-4.1,14.55-15.4,14.61h-7.18Zm-225.59-79.34c-11.15,0-22.33,4.91-34.07,18.43-19.31,22.23-29.01,33.39-23.74,44.94,5,10.96,19.85,10.96,35.57,10.96,27.34,0,196.99,1.04,235.14,1.37,1.53.08,11.07.12,12.69.12h7.18c8.73-.05,11.91-6.67,11.91-11.11,0-3.04-1.14-10.2-11.65-11.05l-.37-.03c-.47-.03-.95-.05-1.45-.05l-4.98-.05c-25.47-1.55-38.61-18.85-61.52-51.87-5.57-8.03-11.33-16.33-17.91-25.1-33.66-44.83-69.71-44.65-90.36-30.88-21,14.01-27.19,40.95-14.39,62.66.96,1.62,1.76,3.07,2.43,4.38l2.27,4.39-4.53-1.98c-2.14-.93-4.49-2.08-6.99-3.41-12.09-6.44-23.64-11.74-35.21-11.74Zm176.77,53.18l-58.98-.36c-55.69-.33-123.26-.67-140.03-.67-2.81,0-5.3-.03-7.47-.08l-3.52-.09,2.19-2.76c4.24-5.34,9.95-11.91,13.73-16.25,11.42-13.15,17.57-14.72,42.11-1.66,8.04,4.29,29.39,15.68,40.81,3.74,11.09-11.58-.62-31.43-4.46-37.96-7.66-13-1.81-26.67,7.59-32.94,16.58-11.07,40.25-.97,60.31,25.74,6.34,8.45,11.98,16.57,17.43,24.43,9.16,13.2,17.82,25.67,27.48,35.88l2.82,2.98Zm-202.82-4.56c1.2.01,2.47.02,3.81.02,16.78,0,84.36.35,140.05.67l50.85.31c-8.75-9.78-16.7-21.24-25.07-33.31-5.43-7.83-11.05-15.92-17.35-24.32-18.84-25.1-40.65-34.89-55.56-24.93-8.06,5.38-13.08,17.1-6.52,28.24,4.18,7.09,16.9,28.67,3.98,42.16-13.26,13.85-36.31,1.56-44.99-3.07-24.26-12.92-28.13-10.28-37.81.86-3.12,3.59-7.56,8.7-11.38,13.35Z"/>
    </g>
  </g>
</svg>