<svg width="1330" height="1319" viewBox="0 0 1330 1319" fill="none" xmlns="http://www.w3.org/2000/svg">
  <path d="M667.11 1139.11C807.462 1139.11 921.24 1123.28 921.24 1103.76C921.24 1084.24 807.462 1068.41 667.11 1068.41C526.758 1068.41 412.98 1084.24 412.98 1103.76C412.98 1123.28 526.758 1139.11 667.11 1139.11Z" fill="#1BCC66"/>
  <path d="M1267.06 731.39C1267.06 678.36 1224.66 486.93 1171.63 486.93C1118.6 486.93 1075.02 678.36 1075.02 731.39C1075.02 780.11 1111.31 820.32 1158.32 826.54V909.71H1042.76C1045.71 908.94 1047.9 906.28 1047.9 903.1V898.02C1047.9 894.53 1045.28 891.64 1041.9 891.22V810.94C1041.9 807.16 1038.82 804.08 1035.04 804.08H1033.17V685.25C1040.23 682.48 1045 675.64 1045 667.97C1045 666.36 1044.8 664.78 1044.39 663.24C1047.11 662 1050.28 660.55 1053.97 658.86L1056.24 657.82L1067.83 591C1068.2 588.88 1067.54 586.68 1066.06 585.12L1030.74 547.76C1029.44 546.38 1027.68 545.62 1025.79 545.61C1023.89 545.63 1022.13 546.35 1020.82 547.71L986.08 583.72C984.55 585.31 983.87 587.56 984.28 589.73L996.67 656.65L998.76 657.7C1002.55 659.63 1005.78 661.27 1008.53 662.66C1008 664.4 1007.73 666.19 1007.73 667.99C1007.73 675.6 1012.46 682.43 1019.46 685.23V804.1H1016.7C1012.92 804.1 1009.84 807.18 1009.84 810.96V891.24C1006.46 891.66 1003.84 894.55 1003.84 898.04V903.12C1003.84 906.31 1006.03 908.97 1008.98 909.73H271.4C272.93 909.55 274.13 908.3 274.13 906.73V898.39C274.13 896.69 272.75 895.32 271.05 895.32H267.67C265.97 895.32 264.6 893.94 264.6 892.25V848.79C264.6 847.26 265.72 845.98 267.23 845.77C277.32 844.36 285.09 835.72 285.09 825.24C285.09 814.76 277.32 806.12 267.23 804.72C265.72 804.51 264.6 803.22 264.6 801.7C264.6 800 265.98 798.63 267.67 798.63H271.05C272.75 798.63 274.13 797.25 274.13 795.56V787.22C274.13 785.52 272.75 784.15 271.05 784.15H207.12C205.42 784.15 204.05 785.53 204.05 787.22V795.56C204.05 797.26 205.43 798.63 207.12 798.63H209.98C211.68 798.63 213.05 800.01 213.05 801.7V801.73C213.05 803.25 211.94 804.53 210.43 804.75C200.4 806.21 192.69 814.81 192.69 825.25C192.69 835.69 200.4 844.29 210.43 845.75C211.93 845.97 213.05 847.25 213.05 848.77V892.26C213.05 893.96 211.67 895.33 209.98 895.33H207.12C205.42 895.33 204.05 896.71 204.05 898.4V906.74C204.05 908.32 205.25 909.56 206.78 909.74H168.55C171.5 908.97 173.69 906.31 173.69 903.13V898.05C173.69 894.56 171.07 891.67 167.69 891.25V810.97C167.69 807.19 164.61 804.11 160.83 804.11H158.96V685.28C166.02 682.51 170.79 675.67 170.79 668C170.79 666.39 170.59 664.81 170.18 663.27C172.9 662.03 176.07 660.58 179.76 658.89L182.03 657.85L193.62 591.03C193.99 588.91 193.33 586.71 191.85 585.15L156.53 547.79C155.23 546.41 153.47 545.65 151.58 545.64C149.68 545.66 147.92 546.38 146.61 547.74L111.87 583.75C110.34 585.34 109.66 587.59 110.07 589.76L122.46 656.68L124.55 657.73C128.34 659.66 131.57 661.3 134.32 662.69C133.79 664.43 133.52 666.22 133.52 668.02C133.52 675.63 138.25 682.46 145.25 685.26V804.13H142.49C138.71 804.13 135.63 807.21 135.63 810.99V891.27C132.25 891.69 129.63 894.58 129.63 898.07V903.15C129.63 906.34 131.82 909 134.77 909.76H109.88C102.58 909.76 96.6699 915.68 96.6699 922.97C96.6699 930.26 102.59 936.18 109.88 936.18H1204.68C1211.98 936.18 1217.89 930.26 1217.89 922.97C1217.89 915.68 1211.97 909.76 1204.68 909.76H1181.35V826.89C1229.52 821.74 1267.04 780.97 1267.04 731.43L1267.06 731.39ZM1034.45 598.97L1057.71 593.92L1049.6 640.68L1034.45 646.7V598.98V598.97ZM1016.52 645.73L1002.99 638.49L994.44 592.32L1016.52 598.59V645.73ZM160.23 598.97L183.49 593.92L175.38 640.68L160.23 646.7V598.98V598.97ZM142.3 645.73L128.77 638.49L120.22 592.32L142.3 598.59V645.73Z" fill="#1BCC66"/>
  <path d="M533.19 976.18L541.49 877.48C541.49 877.48 467.64 857.57 434.59 808.12C401.53 758.67 408.56 693.92 414.03 653.29C419.51 612.66 424.51 595.02 424.51 595.02C424.51 595.02 376.95 535.02 348.62 498.57C320.29 462.12 316.99 420.63 338.86 420.05C360.73 419.46 403.67 429.26 448.49 468.55C493.31 507.84 508.2 532.61 508.2 532.61C508.2 532.61 469.29 387.02 456.09 343.61C442.89 300.19 443.22 271.73 471.6 268.79C499.97 265.84 551 291.83 576.64 350.24C602.28 408.64 630.24 472.45 630.24 472.45C630.24 472.45 659.72 428.99 658.17 371.03C656.62 313.08 671.44 253.59 695.59 256.23C719.73 258.87 755.57 289.64 757.36 356.34C759.14 423.04 746.7 530.61 746.7 530.61L802.48 570.7C802.48 570.7 833.84 556.73 856.72 512.35C879.61 467.97 932.44 452.05 948.75 488.81C965.05 525.58 963.19 565.3 933.92 616.42C904.65 667.54 867.05 693.71 867.05 693.71C867.05 693.71 882.33 814.76 820.76 844.86C759.19 874.96 775.48 870.14 775.48 870.14L825.3 937.64L776.87 989.23L685.02 883.5L620.54 886.32L605.85 991.76L533.21 976.2L533.19 976.18Z" fill="white"/>
  <path d="M588.01 646.56C589.84 653.89 596.86 658.56 604.17 657.63C604.75 657.56 605.33 657.45 605.91 657.3C613.82 655.32 618.63 647.31 616.65 639.4L609.96 612.64C607.98 604.73 599.97 599.95 592.06 601.9C584.15 603.88 579.34 611.89 581.32 619.8L588.01 646.56Z" fill="#010101"/>
  <path d="M617.89 639.09L611.2 612.34C609.06 603.77 600.33 598.54 591.74 600.66C587.59 601.7 584.07 604.3 581.88 607.97C579.67 611.65 579.03 615.97 580.07 620.12L586.76 646.87C588.56 654.1 595.06 659.04 602.31 659.04C602.98 659.04 603.66 659 604.33 658.91C604.95 658.83 605.58 658.72 606.22 658.56C614.81 656.41 620.05 647.68 617.9 639.09H617.89ZM589.25 646.25L582.56 619.5C581.69 616 582.23 612.37 584.08 609.29C585.93 606.2 588.88 604.03 592.36 603.15C599.58 601.38 606.92 605.77 608.72 612.95L615.4 639.72C617.2 646.92 612.8 654.25 605.6 656.05C605.06 656.19 604.52 656.29 604.01 656.36C597.27 657.21 590.92 652.87 589.26 646.25H589.25Z" fill="white"/>
  <path d="M679.51 621.061C681.34 628.391 688.36 633.061 695.67 632.131C696.25 632.061 696.83 631.941 697.41 631.801C705.32 629.821 710.13 621.811 708.15 613.901L701.46 587.151C699.48 579.241 691.47 574.46 683.56 576.41C675.65 578.39 670.84 586.401 672.82 594.311L679.51 621.061Z" fill="#010101"/>
  <path d="M709.41 613.59L702.72 586.84C700.57 578.29 691.85 573.04 683.25 575.16C674.67 577.3 669.42 586.03 671.57 594.62L678.26 621.37C680.07 628.59 686.56 633.54 693.81 633.54C694.48 633.54 695.16 633.5 695.84 633.41C696.44 633.33 697.07 633.22 697.73 633.05C701.88 632.01 705.4 629.41 707.59 625.74C709.8 622.06 710.43 617.74 709.4 613.59H709.41ZM680.75 620.75L674.06 593.98C672.26 586.78 676.66 579.45 683.86 577.65C691.09 575.88 698.42 580.27 700.22 587.45L706.91 614.2C707.78 617.7 707.24 621.33 705.39 624.41C703.54 627.5 700.59 629.67 697.09 630.55C696.55 630.69 696.01 630.78 695.49 630.85C688.76 631.71 682.4 627.36 680.74 620.75H680.75Z" fill="white"/>
  <path d="M651.06 745.63C651.83 745.63 652.62 745.54 653.41 745.39L781.35 720.48C787.22 719.37 791.75 714.42 792.61 708.17C793.45 702.13 790.69 696.21 785.71 693.22C742.76 666.89 716.89 651.86 682.45 636.42C675.59 633.33 667.68 636.74 664.78 644.02C661.88 651.3 665.1 659.68 671.96 662.76C696.86 673.92 711.06 682.08 740.86 699.3L648.51 717.28C641.19 718.71 636.35 726.16 637.7 733.92C638.91 740.85 644.64 745.69 651.06 745.64V745.63Z" fill="#010101"/>
  <path d="M786.37 692.13C742.24 665.07 716.84 650.44 682.97 635.25C679.42 633.66 675.48 633.58 671.9 635.03C668.11 636.57 665.15 639.6 663.58 643.54C660.44 651.42 663.95 660.57 671.43 663.93C695.76 674.84 710.18 683.06 737.24 698.68L648.26 716C640.26 717.56 634.96 725.69 636.43 734.12C637.72 741.54 643.83 746.9 650.95 746.9H651.07C651.93 746.89 652.79 746.81 653.66 746.64L781.6 721.73C788.01 720.52 792.96 715.13 793.9 708.33C794.81 701.76 791.86 695.39 786.39 692.11L786.37 692.13ZM791.33 708C790.53 713.7 786.43 718.21 781.09 719.23L653.15 744.13C652.44 744.27 651.74 744.34 651.04 744.35H650.94C645.06 744.35 640.03 739.89 638.95 733.7C637.72 726.63 642.11 719.83 648.74 718.54L744.47 699.9L741.5 698.18C712.41 681.38 697.79 672.95 672.47 661.59C666.25 658.8 663.33 651.13 665.96 644.51C667.27 641.22 669.72 638.7 672.85 637.44C674.25 636.87 675.7 636.59 677.17 636.59C678.78 636.59 680.39 636.92 681.9 637.61C715.64 652.75 740.97 667.35 785.03 694.34C789.54 697.05 792.08 702.53 791.32 708.01L791.33 708Z" fill="white"/>
  <path d="M629.12 908.01C640.09 909.27 648.57 909.73 656.61 909.53C663.08 909.35 669.69 908.72 678.08 907.5L678.66 907.41L855.56 1060.09L978.78 919.59L951.18 896.45C941.87 888.66 928.98 887.38 918.33 893.22L853.34 928.89L804.32 877.84L805.97 877.08C828.07 866.94 845.84 851.12 858.79 830.04C879.18 796.83 885.85 751.26 876.63 708.15L876.45 707.33L877.13 706.84C935.27 665.05 969.53 602.92 971.16 536.37C972.61 476.87 940.39 462.94 926.46 459.71C899.08 453.37 866.69 468.17 855.71 492.04C840.25 525.69 821.55 541.29 799.9 559.35L795.81 562.77L794.97 561.86C777.43 542.49 765.14 528.34 759.39 521.64L758.99 521.18L759.09 520.58C764.33 491.24 770.41 446.78 769.62 401.62C768.73 349.94 759.03 310.8 740.8 285.28C722.39 259.53 698.23 249.06 676.13 257.28C650.18 266.93 634.47 300.03 637.92 337.8C641.42 375.91 638.11 412.27 628.09 445.85L627.04 449.41L625.68 445.96C594.14 366.45 567.04 327.44 533.52 290.28C506.68 260.52 473.39 262.15 452.32 276.96C423.24 297.37 421.57 333.4 434.93 358.43C445.63 378.48 459.7 421.08 476.73 485.04L477.99 489.76L474.57 486.27C420.86 431.5 385.14 418.1 368.63 415C362.55 413.86 357.07 413.35 352.15 413.35C329.35 413.35 318.35 424.09 313.51 431.41C302.06 448.72 305.47 475.24 322.41 500.61C334.23 518.32 349.51 537.92 364.29 556.87C379 575.75 392.9 593.59 402.1 607.84C409.78 619.72 408.84 623.13 404.27 639.48C400.84 651.83 396.13 668.69 394.06 695.56C388.46 768 405.52 814.92 452.94 857.49C473.37 875.83 495.41 888.91 518.47 896.36L519.47 896.69L519.34 897.74L495.66 1090.36C495.11 1094.84 496.53 1099.32 499.57 1102.67C502.61 1106.01 506.97 1107.88 511.47 1107.75L702.21 1102.64L700.44 1074.89C699.54 1060.72 690.69 1048.28 677.6 1042.77L614.33 1016.14L627.81 907.87L629.08 908.01H629.12ZM550.05 903.89C552.66 904.03 554.55 904.03 555.58 903.99C556.02 903.99 556.3 903.96 556.42 903.96C565.37 903.43 572.28 895.73 571.75 886.78C571.21 877.83 563.51 870.95 554.64 871.53C553.12 871.66 516.49 872.61 473.8 834.27C433.48 798.08 420.31 761.12 425.18 697.96C427.02 674.13 431.08 659.57 434.34 647.86C439.52 629.27 443.63 614.59 428.33 590.91C418.37 575.49 404.06 557.13 388.91 537.7C374.47 519.17 359.53 500.01 348.37 483.28C338.02 467.77 336.1 453.84 339.55 448.6C342.23 444.57 351.15 443.44 362.87 445.64C401.98 453.01 468.59 519.13 495.46 559.6L495.51 559.68C500.04 566.47 508.89 568.88 516.23 565.31L516.38 565.23C523.63 561.62 527.15 553.22 524.61 545.51L524.58 545.45C524 543.68 521.76 534.8 519.38 525.41C507.68 479.12 483.32 382.81 462.44 343.71C452.9 325.84 459.79 309.81 470.23 302.47C482.6 293.78 497.6 297.02 510.35 311.15C540.72 344.84 571.29 384.32 611.2 496.16C613.52 502.62 619.69 506.98 626.54 507.02H626.66C633.5 507.06 639.64 502.8 641.99 496.38C642.26 495.72 642.74 494.73 643.34 493.42C665.59 445.47 674.22 392.16 668.99 334.94C666.58 308.71 676.48 290.41 687 286.5C698.67 282.17 710.76 296.88 715.41 303.4C746.45 346.82 741.76 445.01 727.04 522.4L725.6 529.96L730.54 535.86C731.53 537.04 755.38 565.47 798.01 611.26C804.48 618.22 815.6 618.22 822.07 610.94C827.69 604.6 827.06 594.82 821.29 588.61C820.15 587.38 819.01 586.15 817.89 584.94C818.55 584.39 819.2 583.83 819.87 583.28C842.37 564.51 865.62 545.11 884.04 505.07C888.28 495.84 905.78 486.95 919.41 490.09C938.14 494.44 940.32 520.46 939.95 535.58C938.64 589.37 912.46 639.21 867.45 675.03C866.82 673.58 866.18 672.14 865.52 670.71C861.73 662.58 852.07 659.04 843.94 662.84C835.81 666.63 832.29 676.29 836.07 684.42C855.25 725.6 853.64 778.76 832.19 813.71C814.69 842.21 786.14 857.32 747.37 858.62C738.41 858.92 731.38 866.43 731.68 875.4C731.99 884.33 739.44 891.32 748.35 891.08H748.47C757.14 890.78 765.2 889.91 772.75 888.57L802.04 919.45C791.7 933.05 779.42 949.33 777.27 952.63L709.72 894.33C710.43 891.98 710.63 889.43 710.18 886.84C708.62 878 700.2 872.1 691.38 873.64C660.78 879 653.21 879.98 621.49 875.56C619.79 875.33 618.12 875.35 616.53 875.62C607.73 874.67 599.77 880.94 598.68 889.76L588.56 971.12C574 971.4 553.82 971.83 541.65 972.24L550.06 903.87L550.05 903.89Z" fill="#010101"/>
  <path d="M919.71 488.86C913.19 487.34 905.15 488.41 897.69 491.78C890.63 494.97 885.1 499.74 882.89 504.55C864.6 544.33 841.45 563.65 819.07 582.31L816.07 584.87L820.37 589.5C825.84 595.38 826.17 604.43 821.13 610.1C818.27 613.32 814.35 615.12 810.09 615.17C805.91 615.21 801.82 613.47 798.96 610.4C755.86 564.12 731.77 535.34 731.54 535.06L726.99 529.62L728.31 522.66C743.09 445 747.74 346.43 716.48 302.67C711.63 295.9 699.03 280.66 686.56 285.31C671.87 290.78 665.89 315.03 667.72 335.07C672.94 392.06 664.35 445.15 642.19 492.9L641.8 493.72C641.38 494.66 641.03 495.39 640.81 495.95C638.65 501.83 633.02 505.75 626.65 505.75H626.57C620.24 505.71 614.56 501.7 612.42 495.76C572.43 383.71 541.78 344.11 511.31 310.32C498.09 295.66 482.46 292.34 469.51 301.45C458.62 309.1 451.4 325.78 461.32 344.36C482.12 383.31 506.45 479.51 518.16 525.8C520.53 535.19 522.78 544.06 523.4 545.95C525.71 552.99 522.45 560.79 515.81 564.1L515.67 564.18C508.94 567.45 500.74 565.21 496.53 558.92C469.53 518.25 402.54 451.83 363.11 444.41C350.69 442.07 341.48 443.38 338.48 447.92C334.7 453.63 336.52 467.87 347.3 484.02C358.5 500.8 373.45 519.97 387.89 538.5C403.02 557.91 417.31 576.24 427.25 591.62C442.22 614.81 438.2 629.25 433.1 647.54C429.82 659.3 425.74 673.92 423.89 697.87C418.98 761.5 432.28 798.73 472.93 835.25C517.05 874.85 554.36 872.86 554.72 872.83C558.62 872.57 562.41 873.88 565.4 876.51C568.42 879.17 570.21 882.86 570.45 886.88C570.94 895.11 564.6 902.21 556.3 902.7C556.16 902.71 555.9 902.73 555.53 902.74C554.67 902.75 552.8 902.78 550.12 902.62L548.91 902.56L540.18 973.62L541.68 973.57C553.85 973.16 573.89 972.73 588.56 972.45L589.67 972.42L599.93 889.95C600.93 881.9 608.32 876.06 616.37 876.95H616.55L616.73 876.94C618.23 876.68 619.78 876.67 621.3 876.88C653.21 881.33 660.84 880.35 691.59 874.96C699.72 873.55 707.49 878.99 708.9 887.1C709.3 889.42 709.16 891.73 708.48 893.99L708.24 894.79L777.55 954.61L778.35 953.36C780.5 950.05 792.97 933.54 803.06 920.27L803.73 919.4L773.22 887.22L772.54 887.35C764.77 888.73 756.67 889.56 748.32 889.83C740.1 890.05 733.26 883.58 732.98 875.39C732.71 867.15 739.19 860.21 747.42 859.94C786.66 858.62 815.55 843.3 833.3 814.41C854.97 779.12 856.61 725.46 837.26 683.91C833.77 676.42 837.03 667.51 844.5 664.04C848.13 662.36 852.19 662.18 855.93 663.54C859.69 664.92 862.68 667.67 864.37 671.28C865.03 672.71 865.67 674.14 866.29 675.58L866.95 677.12L868.28 676.07C914.03 639.68 939.95 589.82 941.27 535.66C941.64 520.14 939.35 493.42 919.73 488.88L919.71 488.86ZM938.68 535.57C937.39 588.45 912.29 637.18 867.97 672.99C867.56 672.05 867.13 671.11 866.7 670.19C864.73 665.95 861.22 662.72 856.82 661.12C852.42 659.51 847.66 659.72 843.42 661.7C834.66 665.78 830.84 676.22 834.93 684.98C853.93 725.79 852.35 778.46 831.11 813.05C813.84 841.17 785.66 856.07 747.34 857.36C737.68 857.68 730.08 865.81 730.4 875.47C730.72 884.9 738.53 892.41 747.9 892.41C748.05 892.41 748.21 892.41 748.38 892.4H748.51C756.63 892.13 764.63 891.32 772.3 889.99L800.35 919.57C791.27 931.52 780.52 945.76 777.02 950.75L711.17 893.93C711.77 891.52 711.86 889.09 711.44 886.66C709.77 877.14 700.68 870.75 691.16 872.42C660.73 877.74 653.19 878.72 621.67 874.32C619.95 874.08 618.21 874.09 616.49 874.37C607.11 873.44 598.57 880.25 597.4 889.64L587.41 969.89C573.44 970.17 555.08 970.56 543.11 970.94L551.19 905.24C552.45 905.29 553.51 905.3 554.3 905.3C554.85 905.3 555.29 905.3 555.61 905.29C556.02 905.29 556.3 905.26 556.5 905.26C566.18 904.68 573.61 896.36 573.03 886.71C572.76 882 570.65 877.69 567.11 874.57C563.62 871.48 559.16 869.95 554.54 870.26C554.19 870.29 517.27 871.57 474.67 833.32C434.7 797.42 421.63 760.77 426.46 698.05C428.3 674.36 432.34 659.86 435.58 648.21C440.87 629.3 445.02 614.37 429.42 590.22C419.43 574.75 405.1 556.37 389.93 536.91C375.51 518.41 360.6 499.29 349.44 482.58C338.76 466.59 337.86 453.51 340.63 449.32C342.97 445.78 351.6 444.84 362.64 446.91C401.42 454.22 467.63 520 494.45 560.4C499.31 567.68 508.91 570.29 516.82 566.47L516.97 566.38C524.74 562.51 528.56 553.38 525.82 545.06C525.25 543.32 523.02 534.49 520.65 525.1C508.93 478.76 484.55 382.36 463.61 343.12C454.43 325.94 461.01 310.55 471.01 303.53C482.79 295.26 497.16 298.44 509.43 312.03C539.71 345.61 570.19 385.01 610.02 496.61C612.52 503.57 619.18 508.28 626.68 508.31H626.78C634.1 508.31 640.71 503.71 643.22 496.86C643.43 496.37 643.75 495.68 644.16 494.8L644.55 493.96C666.89 445.81 675.56 392.26 670.31 334.82C667.96 309.24 677.41 291.45 687.48 287.71C698.28 283.68 709.91 297.87 714.4 304.15C745.2 347.25 740.48 445.03 725.81 522.17L724.25 530.32L729.57 536.69C729.81 536.97 753.94 565.81 797.08 612.14C800.44 615.75 805.25 617.79 810.12 617.73C815.11 617.67 819.71 615.56 823.05 611.8C828.97 605.14 828.62 594.57 822.25 587.74L819.77 585.06L820.72 584.28C843.32 565.42 866.7 545.93 885.24 505.6C889.28 496.8 906.08 488.33 919.14 491.35C936.99 495.48 939.05 520.82 938.69 535.56L938.68 535.57ZM919.71 488.86C913.19 487.34 905.15 488.41 897.69 491.78C890.63 494.97 885.1 499.74 882.89 504.55C864.6 544.33 841.45 563.65 819.07 582.31L816.07 584.87L820.37 589.5C825.84 595.38 826.17 604.43 821.13 610.1C818.27 613.32 814.35 615.12 810.09 615.17C805.91 615.21 801.82 613.47 798.96 610.4C755.86 564.12 731.77 535.34 731.54 535.06L726.99 529.62L728.31 522.66C743.09 445 747.74 346.43 716.48 302.67C711.63 295.9 699.03 280.66 686.56 285.31C671.87 290.78 665.89 315.03 667.72 335.07C672.94 392.06 664.35 445.15 642.19 492.9L641.8 493.72C641.38 494.66 641.03 495.39 640.81 495.95C638.65 501.83 633.02 505.75 626.65 505.75H626.57C620.24 505.71 614.56 501.7 612.42 495.76C572.43 383.71 541.78 344.11 511.31 310.32C498.09 295.66 482.46 292.34 469.51 301.45C458.62 309.1 451.4 325.78 461.32 344.36C482.12 383.31 506.45 479.51 518.16 525.8C520.53 535.19 522.78 544.06 523.4 545.95C525.71 552.99 522.45 560.79 515.81 564.1L515.67 564.18C508.94 567.45 500.74 565.21 496.53 558.92C469.53 518.25 402.54 451.83 363.11 444.41C350.69 442.07 341.48 443.38 338.48 447.92C334.7 453.63 336.52 467.87 347.3 484.02C358.5 500.8 373.45 519.97 387.89 538.5C403.02 557.91 417.31 576.24 427.25 591.62C442.22 614.81 438.2 629.25 433.1 647.54C429.82 659.3 425.74 673.92 423.89 697.87C418.98 761.5 432.28 798.73 472.93 835.25C517.05 874.85 554.36 872.86 554.72 872.83C558.62 872.57 562.41 873.88 565.4 876.51C568.42 879.17 570.21 882.86 570.45 886.88C570.94 895.11 564.6 902.21 556.3 902.7C556.16 902.71 555.9 902.73 555.53 902.74C554.67 902.75 552.8 902.78 550.12 902.62L548.91 902.56L540.18 973.62L541.68 973.57C553.85 973.16 573.89 972.73 588.56 972.45L589.67 972.42L599.93 889.95C600.93 881.9 608.32 876.06 616.37 876.95H616.55L616.73 876.94C618.23 876.68 619.78 876.67 621.3 876.88C653.21 881.33 660.84 880.35 691.59 874.96C699.72 873.55 707.49 878.99 708.9 887.1C709.3 889.42 709.16 891.73 708.48 893.99L708.24 894.79L777.55 954.61L778.35 953.36C780.5 950.05 792.97 933.54 803.06 920.27L803.73 919.4L773.22 887.22L772.54 887.35C764.77 888.73 756.67 889.56 748.32 889.83C740.1 890.05 733.26 883.58 732.98 875.39C732.71 867.15 739.19 860.21 747.42 859.94C786.66 858.62 815.55 843.3 833.3 814.41C854.97 779.12 856.61 725.46 837.26 683.91C833.77 676.42 837.03 667.51 844.5 664.04C848.13 662.36 852.19 662.18 855.93 663.54C859.69 664.92 862.68 667.67 864.37 671.28C865.03 672.71 865.67 674.14 866.29 675.58L866.95 677.12L868.28 676.07C914.03 639.68 939.95 589.82 941.27 535.66C941.64 520.14 939.35 493.42 919.73 488.88L919.71 488.86ZM938.68 535.57C937.39 588.45 912.29 637.18 867.97 672.99C867.56 672.05 867.13 671.11 866.7 670.19C864.73 665.95 861.22 662.72 856.82 661.12C852.42 659.51 847.66 659.72 843.42 661.7C834.66 665.78 830.84 676.22 834.93 684.98C853.93 725.79 852.35 778.46 831.11 813.05C813.84 841.17 785.66 856.07 747.34 857.36C737.68 857.68 730.08 865.81 730.4 875.47C730.72 884.9 738.53 892.41 747.9 892.41C748.05 892.41 748.21 892.41 748.38 892.4H748.51C756.63 892.13 764.63 891.32 772.3 889.99L800.35 919.57C791.27 931.52 780.52 945.76 777.02 950.75L711.17 893.93C711.77 891.52 711.86 889.09 711.44 886.66C709.77 877.14 700.68 870.75 691.16 872.42C660.73 877.74 653.19 878.72 621.67 874.32C619.95 874.08 618.21 874.09 616.49 874.37C607.11 873.44 598.57 880.25 597.4 889.64L587.41 969.89C573.44 970.17 555.08 970.56 543.11 970.94L551.19 905.24C552.45 905.29 553.51 905.3 554.3 905.3C554.85 905.3 555.29 905.3 555.61 905.29C556.02 905.29 556.3 905.26 556.5 905.26C566.18 904.68 573.61 896.36 573.03 886.71C572.76 882 570.65 877.69 567.11 874.57C563.62 871.48 559.16 869.95 554.54 870.26C554.19 870.29 517.27 871.57 474.67 833.32C434.7 797.42 421.63 760.77 426.46 698.05C428.3 674.36 432.34 659.86 435.58 648.21C440.87 629.3 445.02 614.37 429.42 590.22C419.43 574.75 405.1 556.37 389.93 536.91C375.51 518.41 360.6 499.29 349.44 482.58C338.76 466.59 337.86 453.51 340.63 449.32C342.97 445.78 351.6 444.84 362.64 446.91C401.42 454.22 467.63 520 494.45 560.4C499.31 567.68 508.91 570.29 516.82 566.47L516.97 566.38C524.74 562.51 528.56 553.38 525.82 545.06C525.25 543.32 523.02 534.49 520.65 525.1C508.93 478.76 484.55 382.36 463.61 343.12C454.43 325.94 461.01 310.55 471.01 303.53C482.79 295.26 497.16 298.44 509.43 312.03C539.71 345.61 570.19 385.01 610.02 496.61C612.52 503.57 619.18 508.28 626.68 508.31H626.78C634.1 508.31 640.71 503.71 643.22 496.86C643.43 496.37 643.75 495.68 644.16 494.8L644.55 493.96C666.89 445.81 675.56 392.26 670.31 334.82C667.96 309.24 677.41 291.45 687.48 287.71C698.28 283.68 709.91 297.87 714.4 304.15C745.2 347.25 740.48 445.03 725.81 522.17L724.25 530.32L729.57 536.69C729.81 536.97 753.94 565.81 797.08 612.14C800.44 615.75 805.25 617.79 810.12 617.73C815.11 617.67 819.71 615.56 823.05 611.8C828.97 605.14 828.62 594.57 822.25 587.74L819.77 585.06L820.72 584.28C843.32 565.42 866.7 545.93 885.24 505.6C889.28 496.8 906.08 488.33 919.14 491.35C936.99 495.48 939.05 520.82 938.69 535.56L938.68 535.57ZM919.71 488.86C913.19 487.34 905.15 488.41 897.69 491.78C890.63 494.97 885.1 499.74 882.89 504.55C864.6 544.33 841.45 563.65 819.07 582.31L816.07 584.87L820.37 589.5C825.84 595.38 826.17 604.43 821.13 610.1C818.27 613.32 814.35 615.12 810.09 615.17C805.91 615.21 801.82 613.47 798.96 610.4C755.86 564.12 731.77 535.34 731.54 535.06L726.99 529.62L728.31 522.66C743.09 445 747.74 346.43 716.48 302.67C711.63 295.9 699.03 280.66 686.56 285.31C671.87 290.78 665.89 315.03 667.72 335.07C672.94 392.06 664.35 445.15 642.19 492.9L641.8 493.72C641.38 494.66 641.03 495.39 640.81 495.95C638.65 501.83 633.02 505.75 626.65 505.75H626.57C620.24 505.71 614.56 501.7 612.42 495.76C572.43 383.71 541.78 344.11 511.31 310.32C498.09 295.66 482.46 292.34 469.51 301.45C458.62 309.1 451.4 325.78 461.32 344.36C482.12 383.31 506.45 479.51 518.16 525.8C520.53 535.19 522.78 544.06 523.4 545.95C525.71 552.99 522.45 560.79 515.81 564.1L515.67 564.18C508.94 567.45 500.74 565.21 496.53 558.92C469.53 518.25 402.54 451.83 363.11 444.41C350.69 442.07 341.48 443.38 338.48 447.92C334.7 453.63 336.52 467.87 347.3 484.02C358.5 500.8 373.45 519.97 387.89 538.5C403.02 557.91 417.31 576.24 427.25 591.62C442.22 614.81 438.2 629.25 433.1 647.54C429.82 659.3 425.74 673.92 423.89 697.87C418.98 761.5 432.28 798.73 472.93 835.25C517.05 874.85 554.36 872.86 554.72 872.83C558.62 872.57 562.41 873.88 565.4 876.51C568.42 879.17 570.21 882.86 570.45 886.88C570.94 895.11 564.6 902.21 556.3 902.7C556.16 902.71 555.9 902.73 555.53 902.74C554.67 902.75 552.8 902.78 550.12 902.62L548.91 902.56L540.18 973.62L541.68 973.57C553.85 973.16 573.89 972.73 588.56 972.45L589.67 972.42L599.93 889.95C600.93 881.9 608.32 876.06 616.37 876.95H616.55L616.73 876.94C618.23 876.68 619.78 876.67 621.3 876.88C653.21 881.33 660.84 880.35 691.59 874.96C699.72 873.55 707.49 878.99 708.9 887.1C709.3 889.42 709.16 891.73 708.48 893.99L708.24 894.79L777.55 954.61L778.35 953.36C780.5 950.05 792.97 933.54 803.06 920.27L803.73 919.4L773.22 887.22L772.54 887.35C764.77 888.73 756.67 889.56 748.32 889.83C740.1 890.05 733.26 883.58 732.98 875.39C732.71 867.15 739.19 860.21 747.42 859.94C786.66 858.62 815.55 843.3 833.3 814.41C854.97 779.12 856.61 725.46 837.26 683.91C833.77 676.42 837.03 667.51 844.5 664.04C848.13 662.36 852.19 662.18 855.93 663.54C859.69 664.92 862.68 667.67 864.37 671.28C865.03 672.71 865.67 674.14 866.29 675.58L866.95 677.12L868.28 676.07C914.03 639.68 939.95 589.82 941.27 535.66C941.64 520.14 939.35 493.42 919.73 488.88L919.71 488.86ZM938.68 535.57C937.39 588.45 912.29 637.18 867.97 672.99C867.56 672.05 867.13 671.11 866.7 670.19C864.73 665.95 861.22 662.72 856.82 661.12C852.42 659.51 847.66 659.72 843.42 661.7C834.66 665.78 830.84 676.22 834.93 684.98C853.93 725.79 852.35 778.46 831.11 813.05C813.84 841.17 785.66 856.07 747.34 857.36C737.68 857.68 730.08 865.81 730.4 875.47C730.72 884.9 738.53 892.41 747.9 892.41C748.05 892.41 748.21 892.41 748.38 892.4H748.51C756.63 892.13 764.63 891.32 772.3 889.99L800.35 919.57C791.27 931.52 780.52 945.76 777.02 950.75L711.17 893.93C711.77 891.52 711.86 889.09 711.44 886.66C709.77 877.14 700.68 870.75 691.16 872.42C660.73 877.74 653.19 878.72 621.67 874.32C619.95 874.08 618.21 874.09 616.49 874.37C607.11 873.44 598.57 880.25 597.4 889.64L587.41 969.89C573.44 970.17 555.08 970.56 543.11 970.94L551.19 905.24C552.45 905.29 553.51 905.3 554.3 905.3C554.85 905.3 555.29 905.3 555.61 905.29C556.02 905.29 556.3 905.26 556.5 905.26C566.18 904.68 573.61 896.36 573.03 886.71C572.76 882 570.65 877.69 567.11 874.57C563.62 871.48 559.16 869.95 554.54 870.26C554.19 870.29 517.27 871.57 474.67 833.32C434.7 797.42 421.63 760.77 426.46 698.05C428.3 674.36 432.34 659.86 435.58 648.21C440.87 629.3 445.02 614.37 429.42 590.22C419.43 574.75 405.1 556.37 389.93 536.91C375.51 518.41 360.6 499.29 349.44 482.58C338.76 466.59 337.86 453.51 340.63 449.32C342.97 445.78 351.6 444.84 362.64 446.91C401.42 454.22 467.63 520 494.45 560.4C499.31 567.68 508.91 570.29 516.82 566.47L516.97 566.38C524.74 562.51 528.56 553.38 525.82 545.06C525.25 543.32 523.02 534.49 520.65 525.1C508.93 478.76 484.55 382.36 463.61 343.12C454.43 325.94 461.01 310.55 471.01 303.53C482.79 295.26 497.16 298.44 509.43 312.03C539.71 345.61 570.19 385.01 610.02 496.61C612.52 503.57 619.18 508.28 626.68 508.31H626.78C634.1 508.31 640.71 503.71 643.22 496.86C643.43 496.37 643.75 495.68 644.16 494.8L644.55 493.96C666.89 445.81 675.56 392.26 670.31 334.82C667.96 309.24 677.41 291.45 687.48 287.71C698.28 283.68 709.91 297.87 714.4 304.15C745.2 347.25 740.48 445.03 725.81 522.17L724.25 530.32L729.57 536.69C729.81 536.97 753.94 565.81 797.08 612.14C800.44 615.75 805.25 617.79 810.12 617.73C815.11 617.67 819.71 615.56 823.05 611.8C828.97 605.14 828.62 594.57 822.25 587.74L819.77 585.06L820.72 584.28C843.32 565.42 866.7 545.93 885.24 505.6C889.28 496.8 906.08 488.33 919.14 491.35C936.99 495.48 939.05 520.82 938.69 535.56L938.68 535.57ZM919.71 488.86C913.19 487.34 905.15 488.41 897.69 491.78C890.63 494.97 885.1 499.74 882.89 504.55C864.6 544.33 841.45 563.65 819.07 582.31L816.07 584.87L820.37 589.5C825.84 595.38 826.17 604.43 821.13 610.1C818.27 613.32 814.35 615.12 810.09 615.17C805.91 615.21 801.82 613.47 798.96 610.4C755.86 564.12 731.77 535.34 731.54 535.06L726.99 529.62L728.31 522.66C743.09 445 747.74 346.43 716.48 302.67C711.63 295.9 699.03 280.66 686.56 285.31C671.87 290.78 665.89 315.03 667.72 335.07C672.94 392.06 664.35 445.15 642.19 492.9L641.8 493.72C641.38 494.66 641.03 495.39 640.81 495.95C638.65 501.83 633.02 505.75 626.65 505.75H626.57C620.24 505.71 614.56 501.7 612.42 495.76C572.43 383.71 541.78 344.11 511.31 310.32C498.09 295.66 482.46 292.34 469.51 301.45C458.62 309.1 451.4 325.78 461.32 344.36C482.12 383.31 506.45 479.51 518.16 525.8C520.53 535.19 522.78 544.06 523.4 545.95C525.71 552.99 522.45 560.79 515.81 564.1L515.67 564.18C508.94 567.45 500.74 565.21 496.53 558.92C469.53 518.25 402.54 451.83 363.11 444.41C350.69 442.07 341.48 443.38 338.48 447.92C334.7 453.63 336.52 467.87 347.3 484.02C358.5 500.8 373.45 519.97 387.89 538.5C403.02 557.91 417.31 576.24 427.25 591.62C442.22 614.81 438.2 629.25 433.1 647.54C429.82 659.3 425.74 673.92 423.89 697.87C418.98 761.5 432.28 798.73 472.93 835.25C517.05 874.85 554.36 872.86 554.72 872.83C558.62 872.57 562.41 873.88 565.4 876.51C568.42 879.17 570.21 882.86 570.45 886.88C570.94 895.11 564.6 902.21 556.3 902.7C556.16 902.71 555.9 902.73 555.53 902.74C554.67 902.75 552.8 902.78 550.12 902.62L548.91 902.56L540.18 973.62L541.68 973.57C553.85 973.16 573.89 972.73 588.56 972.45L589.67 972.42L599.93 889.95C600.93 881.9 608.32 876.06 616.37 876.95H616.55L616.73 876.94C618.23 876.68 619.78 876.67 621.3 876.88C653.21 881.33 660.84 880.35 691.59 874.96C699.72 873.55 707.49 878.99 708.9 887.1C709.3 889.42 709.16 891.73 708.48 893.99L708.24 894.79L777.55 954.61L778.35 953.36C780.5 950.05 792.97 933.54 803.06 920.27L803.73 919.4L773.22 887.22L772.54 887.35C764.77 888.73 756.67 889.56 748.32 889.83C740.1 890.05 733.26 883.58 732.98 875.39C732.71 867.15 739.19 860.21 747.42 859.94C786.66 858.62 815.55 843.3 833.3 814.41C854.97 779.12 856.61 725.46 837.26 683.91C833.77 676.42 837.03 667.51 844.5 664.04C848.13 662.36 852.19 662.18 855.93 663.54C859.69 664.92 862.68 667.67 864.37 671.28C865.03 672.71 865.67 674.14 866.29 675.58L866.95 677.12L868.28 676.07C914.03 639.68 939.95 589.82 941.27 535.66C941.64 520.14 939.35 493.42 919.73 488.88L919.71 488.86ZM938.68 535.57C937.39 588.45 912.29 637.18 867.97 672.99C867.56 672.05 867.13 671.11 866.7 670.19C864.73 665.95 861.22 662.72 856.82 661.12C852.42 659.51 847.66 659.72 843.42 661.7C834.66 665.78 830.84 676.22 834.93 684.98C853.93 725.79 852.35 778.46 831.11 813.05C813.84 841.17 785.66 856.07 747.34 857.36C737.68 857.68 730.08 865.81 730.4 875.47C730.72 884.9 738.53 892.41 747.9 892.41C748.05 892.41 748.21 892.41 748.38 892.4H748.51C756.63 892.13 764.63 891.32 772.3 889.99L800.35 919.57C791.27 931.52 780.52 945.76 777.02 950.75L711.17 893.93C711.77 891.52 711.86 889.09 711.44 886.66C709.77 877.14 700.68 870.75 691.16 872.42C660.73 877.74 653.19 878.72 621.67 874.32C619.95 874.08 618.21 874.09 616.49 874.37C607.11 873.44 598.57 880.25 597.4 889.64L587.41 969.89C573.44 970.17 555.08 970.56 543.11 970.94L551.19 905.24C552.45 905.29 553.51 905.3 554.3 905.3C554.85 905.3 555.29 905.3 555.61 905.29C556.02 905.29 556.3 905.26 556.5 905.26C566.18 904.68 573.61 896.36 573.03 886.71C572.76 882 570.65 877.69 567.11 874.57C563.62 871.48 559.16 869.95 554.54 870.26C554.19 870.29 517.27 871.57 474.67 833.32C434.7 797.42 421.63 760.77 426.46 698.05C428.3 674.36 432.34 659.86 435.58 648.21C440.87 629.3 445.02 614.37 429.42 590.22C419.43 574.75 405.1 556.37 389.93 536.91C375.51 518.41 360.6 499.29 349.44 482.58C338.76 466.59 337.86 453.51 340.63 449.32C342.97 445.78 351.6 444.84 362.64 446.91C401.42 454.22 467.63 520 494.45 560.4C499.31 567.68 508.91 570.29 516.82 566.47L516.97 566.38C524.74 562.51 528.56 553.38 525.82 545.06C525.25 543.32 523.02 534.49 520.65 525.1C508.93 478.76 484.55 382.36 463.61 343.12C454.43 325.94 461.01 310.55 471.01 303.53C482.79 295.26 497.16 298.44 509.43 312.03C539.71 345.61 570.19 385.01 610.02 496.61C612.52 503.57 619.18 508.28 626.68 508.31H626.78C634.1 508.31 640.71 503.71 643.22 496.86C643.43 496.37 643.75 495.68 644.16 494.8L644.55 493.96C666.89 445.81 675.56 392.26 670.31 334.82C667.96 309.24 677.41 291.45 687.48 287.71C698.28 283.68 709.91 297.87 714.4 304.15C745.2 347.25 740.48 445.03 725.81 522.17L724.25 530.32L729.57 536.69C729.81 536.97 753.94 565.81 797.08 612.14C800.44 615.75 805.25 617.79 810.12 617.73C815.11 617.67 819.71 615.56 823.05 611.8C828.97 605.14 828.62 594.57 822.25 587.74L819.77 585.06L820.72 584.28C843.32 565.42 866.7 545.93 885.24 505.6C889.28 496.8 906.08 488.33 919.14 491.35C936.99 495.48 939.05 520.82 938.69 535.56L938.68 535.57ZM919.71 488.86C913.19 487.34 905.15 488.41 897.69 491.78C890.63 494.97 885.1 499.74 882.89 504.55C864.6 544.33 841.45 563.65 819.07 582.31L816.07 584.87L820.37 589.5C825.84 595.38 826.17 604.43 821.13 610.1C818.27 613.32 814.35 615.12 810.09 615.17C805.91 615.21 801.82 613.47 798.96 610.4C755.86 564.12 731.77 535.34 731.54 535.06L726.99 529.62L728.31 522.66C743.09 445 747.74 346.43 716.48 302.67C711.63 295.9 699.03 280.66 686.56 285.31C671.87 290.78 665.89 315.03 667.72 335.07C672.94 392.06 664.35 445.15 642.19 492.9L641.8 493.72C641.38 494.66 641.03 495.39 640.81 495.95C638.65 501.83 633.02 505.75 626.65 505.75H626.57C620.24 505.71 614.56 501.7 612.42 495.76C572.43 383.71 541.78 344.11 511.31 310.32C498.09 295.66 482.46 292.34 469.51 301.45C458.62 309.1 451.4 325.78 461.32 344.36C482.12 383.31 506.45 479.51 518.16 525.8C520.53 535.19 522.78 544.06 523.4 545.95C525.71 552.99 522.45 560.79 515.81 564.1L515.67 564.18C508.94 567.45 500.74 565.21 496.53 558.92C469.53 518.25 402.54 451.83 363.11 444.41C350.69 442.07 341.48 443.38 338.48 447.92C334.7 453.63 336.52 467.87 347.3 484.02C358.5 500.8 373.45 519.97 387.89 538.5C403.02 557.91 417.31 576.24 427.25 591.62C442.22 614.81 438.2 629.25 433.1 647.54C429.82 659.3 425.74 673.92 423.89 697.87C418.98 761.5 432.28 798.73 472.93 835.25C517.05 874.85 554.36 872.86 554.72 872.83C558.62 872.57 562.41 873.88 565.4 876.51C568.42 879.17 570.21 882.86 570.45 886.88C570.94 895.11 564.6 902.21 556.3 902.7C556.16 902.71 555.9 902.73 555.53 902.74C554.67 902.75 552.8 902.78 550.12 902.62L548.91 902.56L540.18 973.62L541.68 973.57C553.85 973.16 573.89 972.73 588.56 972.45L589.67 972.42L599.93 889.95C600.93 881.9 608.32 876.06 616.37 876.95H616.55L616.73 876.94C618.23 876.68 619.78 876.67 621.3 876.88C653.21 881.33 660.84 880.35 691.59 874.96C699.72 873.55 707.49 878.99 708.9 887.1C709.3 889.42 709.16 891.73 708.48 893.99L708.24 894.79L777.55 954.61L778.35 953.36C780.5 950.05 792.97 933.54 803.06 920.27L803.73 919.4L773.22 887.22L772.54 887.35C764.77 888.73 756.67 889.56 748.32 889.83C740.1 890.05 733.26 883.58 732.98 875.39C732.71 867.15 739.19 860.21 747.42 859.94C786.66 858.62 815.55 843.3 833.3 814.41C854.97 779.12 856.61 725.46 837.26 683.91C833.77 676.42 837.03 667.51 844.5 664.04C848.13 662.36 852.19 662.18 855.93 663.54C859.69 664.92 862.68 667.67 864.37 671.28C865.03 672.71 865.67 674.14 866.29 675.58L866.95 677.12L868.28 676.07C914.03 639.68 939.95 589.82 941.27 535.66C941.64 520.14 939.35 493.42 919.73 488.88L919.71 488.86ZM938.68 535.57C937.39 588.45 912.29 637.18 867.97 672.99C867.56 672.05 867.13 671.11 866.7 670.19C864.73 665.95 861.22 662.72 856.82 661.12C852.42 659.51 847.66 659.72 843.42 661.7C834.66 665.78 830.84 676.22 834.93 684.98C853.93 725.79 852.35 778.46 831.11 813.05C813.84 841.17 785.66 856.07 747.34 857.36C737.68 857.68 730.08 865.81 730.4 875.47C730.72 884.9 738.53 892.41 747.9 892.41C748.05 892.41 748.21 892.41 748.38 892.4H748.51C756.63 892.13 764.63 891.32 772.3 889.99L800.35 919.57C791.27 931.52 780.52 945.76 777.02 950.75L711.17 893.93C711.77 891.52 711.86 889.09 711.44 886.66C709.77 877.14 700.68 870.75 691.16 872.42C660.73 877.74 653.19 878.72 621.67 874.32C619.95 874.08 618.21 874.09 616.49 874.37C607.11 873.44 598.57 880.25 597.4 889.64L587.41 969.89C573.44 970.17 555.08 970.56 543.11 970.94L551.19 905.24C552.45 905.29 553.51 905.3 554.3 905.3C554.85 905.3 555.29 905.3 555.61 905.29C556.02 905.29 556.3 905.26 556.5 905.26C566.18 904.68 573.61 896.36 573.03 886.71C572.76 882 570.65 877.69 567.11 874.57C563.62 871.48 559.16 869.95 554.54 870.26C554.19 870.29 517.27 871.57 474.67 833.32C434.7 797.42 421.63 760.77 426.46 698.05C428.3 674.36 432.34 659.86 435.58 648.21C440.87 629.3 445.02 614.37 429.42 590.22C419.43 574.75 405.1 556.37 389.93 536.91C375.51 518.41 360.6 499.29 349.44 482.58C338.76 466.59 337.86 453.51 340.63 449.32C342.97 445.78 351.6 444.84 362.64 446.91C401.42 454.22 467.63 520 494.45 560.4C499.31 567.68 508.91 570.29 516.82 566.47L516.97 566.38C524.74 562.51 528.56 553.38 525.82 545.06C525.25 543.32 523.02 534.49 520.65 525.1C508.93 478.76 484.55 382.36 463.61 343.12C454.43 325.94 461.01 310.55 471.01 303.53C482.79 295.26 497.16 298.44 509.43 312.03C539.71 345.61 570.19 385.01 610.02 496.61C612.52 503.57 619.18 508.28 626.68 508.31H626.78C634.1 508.31 640.71 503.71 643.22 496.86C643.43 496.37 643.75 495.68 644.16 494.8L644.55 493.96C666.89 445.81 675.56 392.26 670.31 334.82C667.96 309.24 677.41 291.45 687.48 287.71C698.28 283.68 709.91 297.87 714.4 304.15C745.2 347.25 740.48 445.03 725.81 522.17L724.25 530.32L729.57 536.69C729.81 536.97 753.94 565.81 797.08 612.14C800.44 615.75 805.25 617.79 810.12 617.73C815.11 617.67 819.71 615.56 823.05 611.8C828.97 605.14 828.62 594.57 822.25 587.74L819.77 585.06L820.72 584.28C843.32 565.42 866.7 545.93 885.24 505.6C889.28 496.8 906.08 488.33 919.14 491.35C936.99 495.48 939.05 520.82 938.69 535.56L938.68 535.57Z" fill="white"/>
  <path d="M648.33 770.84C612.29 770.16 602.5 735.24 588.71 734.51C574.92 733.78 566.12 774.48 588.61 792.71C608.79 809.06 643.91 806.85 654.3 798.86C664.69 790.87 665.11 771.16 648.33 770.85V770.84Z" fill="#010101"/>
  </svg>
  