<?xml version="1.0" encoding="UTF-8"?>
<svg id="Capa_1" data-name="Capa 1" xmlns="http://www.w3.org/2000/svg" viewBox="0 0 1000 1000">
  <defs>
    <style>
      .cls-1 {
        fill: #8345ef;
      }

      .cls-1, .cls-2, .cls-3, .cls-4, .cls-5 {
        stroke-width: 0px;
      }

      .cls-2 {
        fill: #a898e7;
      }

      .cls-3 {
        fill: #9440ff;
      }

      .cls-4 {
        fill: #f5d46e;
      }

      .cls-5 {
        fill: #010101;
      }
    </style>
  </defs>
  <g>
    <path class="cls-3" d="m140.01,375.06v522.56h738.59V375.06H140.01Zm18.88,18.88h700.84v123.71H158.89v-123.71Z"/>
    <path class="cls-5" d="m121.13,381.83v509.02c0,14.16,11.48,25.65,25.65,25.65h725.06c14.16,0,25.65-11.48,25.65-25.65v-509.02c0-14.16-11.48-25.65-25.65-25.65H146.77c-14.16,0-25.65,11.48-25.65,25.65Zm738.59,496.91H158.89v-484.8h700.84v484.8Z"/>
    <rect class="cls-2" x="158.89" y="393.94" width="700.84" height="123.71"/>
  </g>
  <path class="cls-5" d="m887.53,536.53c0,6.76-3.57,12.67-8.92,16-2.88,1.82-6.32,2.88-9.95,2.88H145.02c-1.75,0-3.4-.24-5.01-.69-8-2.2-13.87-9.51-13.87-18.19s5.87-16.03,13.87-18.19c1.61-.45,3.26-.69,5.01-.69h723.63c3.64,0,7.07,1.06,9.95,2.88,5.36,3.3,8.92,9.23,8.92,16Z"/>
  <g>
    <rect class="cls-1" x="202.12" y="271.39" width="67.84" height="100.23"/>
    <path class="cls-5" d="m288.84,390.49h-105.6v-122.94c0-8.31,6.73-15.04,15.04-15.04h75.51c8.31,0,15.04,6.73,15.04,15.04v122.94Zm-67.84-37.76h30.08v-47.43c0-8.31-6.73-15.04-15.04-15.04h0c-8.31,0-15.04,6.73-15.04,15.04v47.43Z"/>
  </g>
  <g>
    <rect class="cls-1" x="745.86" y="271.39" width="67.84" height="100.23"/>
    <path class="cls-5" d="m832.58,390.49h-105.6v-122.94c0-8.31,6.73-15.04,15.04-15.04h75.51c8.31,0,15.04,6.73,15.04,15.04v122.94Zm-67.84-37.76h30.08v-47.43c0-8.31-6.73-15.04-15.04-15.04h0c-8.31,0-15.04,6.73-15.04,15.04v47.43Z"/>
  </g>
  <g>
    <polygon class="cls-2" points="335.99 364.16 335.99 155.95 686.09 155.95 686.09 362.91 620.29 362.91 620.29 216.97 403.31 216.97 404.25 364.23 335.99 364.16"/>
    <path class="cls-5" d="m423.25,383.14l-106.14-.13v-227.87c0-9.98,8.09-18.07,18.07-18.07h351.72c9.98,0,18.07,8.09,18.07,18.07v226.65h-103.56v-145.93h-179.1l.94,147.28Zm-68.38-37.84l30.38.03-.94-147.24h254.85v145.93h28.04v-151.13c0-9.98-8.09-18.07-18.07-18.07h-294.28v170.47Z"/>
  </g>
  <g>
    <path class="cls-5" d="m246.98,493.29c-7.58,0-13.73-6.15-13.73-13.73v-59.24c0-7.58,6.15-13.73,13.73-13.73s13.73,6.15,13.73,13.73v59.24c0,7.58-6.15,13.73-13.73,13.73Z"/>
    <path class="cls-5" d="m278.2,463.67h-59.24c-7.58,0-13.73-6.15-13.73-13.73s6.15-13.73,13.73-13.73h59.24c7.58,0,13.73,6.15,13.73,13.73s-6.15,13.73-13.73,13.73Z"/>
  </g>
  <path class="cls-5" d="m785.88,464.81h-59.74c-7.58,0-13.73-6.15-13.73-13.73s6.15-13.73,13.73-13.73h59.74c7.58,0,13.73,6.15,13.73,13.73s-6.15,13.73-13.73,13.73Z"/>
  <g>
    <polygon class="cls-4" points="485.02 474.53 592.09 474.53 531.86 597.48 613.83 597.48 431.49 837.55 481.67 665.24 410.58 665.24 485.02 474.53"/>
    <path class="cls-5" d="m431.48,856.42c-2.87,0-5.77-.65-8.48-2.02-8.13-4.09-12.18-13.4-9.64-22.14l43.15-148.15h-45.94c-6.24,0-12.07-3.08-15.59-8.23-3.52-5.15-4.27-11.71-2-17.51l74.44-190.71c2.83-7.24,9.81-12.01,17.59-12.01h107.06c6.51,0,12.57,3.36,16.02,8.89,3.45,5.53,3.8,12.45.94,18.3l-46.91,95.78h51.7c7.17,0,13.72,4.06,16.91,10.49,3.19,6.42,2.46,14.1-1.88,19.81l-182.35,240.06c-3.67,4.83-9.3,7.46-15.04,7.46Zm6.73-210.07h43.46c5.94,0,11.54,2.8,15.1,7.55,3.56,4.75,4.69,10.9,3.03,16.61l-21.68,74.42,97.66-128.57h-43.92c-6.51,0-12.57-3.36-16.02-8.89-3.45-5.53-3.8-12.45-.94-18.3l46.91-95.78h-63.9l-59.71,152.95Z"/>
  </g>
</svg>