<?xml version="1.0" encoding="UTF-8"?>
<svg id="Capa_1" data-name="Capa 1" xmlns="http://www.w3.org/2000/svg" viewBox="0 0 1000 1000">
  <defs>
    <style>
      .cls-1, .cls-2 {
        stroke-width: 0px;
      }

      .cls-2 {
        fill: #07e380;
      }
    </style>
  </defs>
  <path class="cls-2" d="m541.76,861.22c74.9-93.74,245.73-320.92,245.73-448.53,0-154.77-125.57-280.33-280.33-280.33s-280.33,125.57-280.33,280.33c0,127.61,170.83,354.8,245.73,448.53,17.96,22.34,51.25,22.34,69.21,0h0Zm-34.6-541.98c51.61,0,93.44,41.84,93.44,93.44s-41.84,93.44-93.44,93.44-93.44-41.84-93.44-93.44,41.84-93.44,93.44-93.44Z"/>
  <path class="cls-1" d="m507.16,901.93c-20.72,0-40.14-9.37-53.27-25.7-93.77-117.36-251.01-333.55-251.01-463.54,0-167.78,136.5-304.28,304.28-304.28s304.28,136.5,304.28,304.28c0,129.99-157.24,346.19-250.97,463.49l-.04.06c-13.13,16.33-32.55,25.7-53.27,25.7Zm0-745.62c-141.37,0-256.38,115.01-256.38,256.38,0,39.87,23.43,161.94,240.49,433.59,5.42,6.74,12.29,7.76,15.89,7.76s10.47-1.02,15.93-7.8c217.02-271.61,240.45-393.67,240.45-433.54,0-141.37-115.01-256.38-256.38-256.38Zm0,373.78c-64.73,0-117.39-52.66-117.39-117.4s52.66-117.39,117.39-117.39,117.4,52.66,117.4,117.39-52.66,117.4-117.4,117.4Zm0-186.89c-38.32,0-69.49,31.18-69.49,69.49s31.18,69.5,69.49,69.5,69.5-31.18,69.5-69.5-31.18-69.49-69.5-69.49Z"/>
</svg>