<?xml version="1.0" encoding="UTF-8"?>
<svg id="Capa_1" data-name="Capa 1" xmlns="http://www.w3.org/2000/svg" viewBox="0 0 1329.83 1318.75">
  <defs>
    <style>
      .cls-1 {
        fill: #f4d36e;
      }

      .cls-1, .cls-2, .cls-3, .cls-4, .cls-5 {
        stroke-width: 0px;
      }

      .cls-2 {
        fill: #07dd80;
      }

      .cls-3 {
        fill: #a7f1be;
      }

      .cls-4 {
        fill: #e2e2e2;
      }

      .cls-5 {
        fill: #010101;
      }
    </style>
  </defs>
  <ellipse class="cls-4" cx="654.14" cy="962.61" rx="596.95" ry="85.48"/>
  <g>
    <g>
      <path class="cls-2" d="m336.74,498.38v473.23h668.88v-473.23H336.74Zm17.1,17.1h634.68v112.03H353.83v-112.03Z"/>
      <path class="cls-5" d="m319.64,481.29v507.42h703.07v-507.42H319.64Zm668.88,473.23H353.83v-439.04h634.68v439.04Z"/>
      <rect class="cls-3" x="353.83" y="515.48" width="634.68" height="112.03"/>
    </g>
    <path class="cls-5" d="m1013.69,644.61c0,6.12-3.23,11.47-8.08,14.49-2.61,1.65-5.72,2.61-9.01,2.61H341.27c-1.58,0-3.08-.22-4.54-.62-7.24-1.99-12.56-8.61-12.56-16.47s5.32-14.52,12.56-16.47c1.46-.4,2.95-.62,4.54-.62h655.32c3.3,0,6.4.96,9.01,2.61,4.85,2.98,8.08,8.36,8.08,14.49Z"/>
    <g>
      <rect class="cls-2" x="392.98" y="404.49" width="61.44" height="90.77"/>
      <path class="cls-5" d="m457.89,512.36h-68.39c-7.52,0-13.62-6.1-13.62-13.62v-97.72c0-7.52,6.1-13.62,13.62-13.62h68.39c7.52,0,13.62,6.1,13.62,13.62v97.72c0,7.52-6.1,13.62-13.62,13.62Zm-47.82-34.19h27.24s.1-43.23.1-43.23c.02-7.36-5.95-13.34-13.31-13.34h-.34c-7.59,0-13.69,6.1-13.69,13.62v42.95Z"/>
    </g>
    <g>
      <rect class="cls-2" x="885.4" y="404.49" width="61.44" height="90.77"/>
      <path class="cls-5" d="m950.31,512.36h-68.39c-7.52,0-13.62-6.1-13.62-13.62v-97.72c0-7.52,6.1-13.62,13.62-13.62h68.39c7.52,0,13.62,6.1,13.62,13.62v97.72c0,7.52-6.1,13.62-13.62,13.62Zm-47.82-34.19h27.24v-42.95c0-7.52-6.1-13.62-13.62-13.62h0c-7.52,0-13.62,6.1-13.62,13.62v42.95Z"/>
    </g>
    <g>
      <polygon class="cls-3" points="514.22 488.51 514.22 299.95 831.27 299.95 831.27 487.37 771.68 487.37 771.68 355.22 575.18 355.22 576.04 488.58 514.22 488.51"/>
      <path class="cls-5" d="m580.45,505.68l-70.64-.08c-7.01,0-12.68-5.69-12.68-12.7v-197.34c0-7.01,5.69-12.7,12.7-12.7h325.85c7.01,0,12.7,5.69,12.7,12.7v196.22c0,7.01-5.69,12.7-12.7,12.7h-68.39c-7.01,0-12.7-5.69-12.7-12.7v-106.76c0-7.01-5.69-12.7-12.7-12.7h-136.72c-7.04,0-12.74,5.73-12.7,12.78l.69,107.81c.05,7.05-5.66,12.79-12.71,12.78Zm-49.13-34.25l27.52.03-.77-120.56c-.04-7.04,5.65-12.78,12.7-12.78h205.32c7.01,0,12.7,5.69,12.7,12.7v119.46h25.4v-140.53c0-7.01-5.69-12.7-12.7-12.7h-257.46c-7.01,0-12.7,5.69-12.7,12.7v141.68Z"/>
    </g>
    <g>
      <path class="cls-5" d="m433.61,605.45c-6.87,0-12.43-5.57-12.43-12.43v-53.65c0-6.87,5.57-12.43,12.43-12.43s12.43,5.57,12.43,12.43v53.65c0,6.87-5.57,12.43-12.43,12.43Z"/>
      <path class="cls-5" d="m461.88,578.63h-53.65c-6.87,0-12.43-5.57-12.43-12.43s5.57-12.43,12.43-12.43h53.65c6.87,0,12.43,5.57,12.43,12.43s-5.57,12.43-12.43,12.43Z"/>
    </g>
    <path class="cls-5" d="m921.64,579.66h-54.1c-6.87,0-12.43-5.57-12.43-12.43s5.57-12.43,12.43-12.43h54.1c6.87,0,12.43,5.57,12.43,12.43s-5.57,12.43-12.43,12.43Z"/>
    <g>
      <polygon class="cls-1" points="649.18 588.46 746.14 588.46 691.6 699.81 765.84 699.81 600.7 917.21 646.15 761.17 581.76 761.17 649.18 588.46"/>
      <path class="cls-5" d="m600.69,934.31c-2.6,0-5.23-.59-7.68-1.83-7.36-3.71-11.03-12.14-8.73-20.05l39.08-134.17h-41.6c-5.65,0-10.93-2.79-14.12-7.45-3.19-4.66-3.86-10.6-1.81-15.86l67.42-172.71c2.56-6.56,8.88-10.88,15.93-10.88h96.96c5.9,0,11.38,3.04,14.51,8.05,3.12,5.01,3.44,11.27.85,16.57l-42.48,86.74h46.82c6.49,0,12.43,3.68,15.31,9.5,2.89,5.82,2.23,12.77-1.7,17.94l-165.13,217.4c-3.33,4.37-8.42,6.75-13.62,6.75Zm6.1-190.24h39.36c5.38,0,10.45,2.53,13.68,6.84,3.23,4.3,4.24,9.87,2.74,15.04l-19.63,67.4,88.44-116.44h-39.78c-5.9,0-11.38-3.04-14.51-8.05-3.12-5.01-3.44-11.27-.85-16.57l42.48-86.74h-57.87l-54.07,138.51Z"/>
    </g>
  </g>
  <polygon class="cls-4" points="1158.48 302.81 1237.3 302.81 1192.97 393.33 1253.31 393.33 1119.07 570.07 1156.02 443.21 1103.68 443.21 1158.48 302.81"/>
  <polygon class="cls-4" points="184.35 313.46 108.49 313.46 151.16 403.98 93.08 403.98 222.28 580.71 186.72 453.86 237.09 453.86 184.35 313.46"/>
</svg>