<?xml version="1.0" encoding="UTF-8"?>
<svg id="Capa_1" data-name="Capa 1" xmlns="http://www.w3.org/2000/svg" viewBox="0 0 1000 1000">
  <defs>
    <style>
      .cls-1, .cls-2 {
        stroke-width: 0px;
      }

      .cls-2 {
        fill: #9440ff;
      }
    </style>
  </defs>
  <path class="cls-2" d="m266.32,829.93c64.14-3.21,97.45,10.64,132.18-47.85,34.73-58.48,22.23-112.08,22.23-112.08l225.23-233.74s50.83,19.6,91.66,19.41c40.83-.19,72.85-12,103.52-64.05,30.67-52.05,6.68-70.6,6.68-70.6l-50.89-31.26-73.83,53.41-46.93-58.11,77.83-71.51s-13.63-47.18-50.36-44.68c-36.73,2.5-107.34-4.17-120.55,39.05-13.22,43.22,9.91,126.52,9.91,126.52l-240.45,220.98s-105.7-29.85-138.26-7.53c-32.56,22.31-78.79,115.84-78.79,115.84l63.21,46.95,65.12-44.62,50.35,41.76-77.81,74.43,29.96,47.69Z"/>
  <path class="cls-1" d="m809.93,253.9l-79.75,60.55-20.66-23.59,84.47-72.33-60.7-75.68-10.31-.45c-5.39-.23-10.67-.35-15.81-.35-50.91,0-89.82,11.58-116.18,34.55-6.38,5.57-12.03,11.8-16.93,18.7-31.52,44.33-21.04,102.01-13.41,129.11l-116.6,108.36-108.27,102.33c-27.42-14.82-53.36-22.25-77.58-22.25-15.37,0-30.05,2.99-44,8.99-11.58,4.98-21.79,11.75-30.8,19.59-45.53,39.69-59.8,106.96-60.49,110.35l-2.28,11.17,70.82,79.73,79.75-60.55,20.65,23.59-84.46,72.34,60.69,75.67,10.31.45c5.39.24,10.67.36,15.81.36,63.24,0,107.97-17.88,133.12-53.25,31.52-44.33,21.03-102.01,13.41-129.11l161.38-155.56,63.48-55.14c27.43,14.83,53.36,22.26,77.58,22.26,15.37,0,30.06-3,44-8.99,70.17-30.19,90.47-125.89,91.29-129.95l2.29-11.17-70.82-79.73Zm-40.89,179.04c-7.98,3.41-16.61,5.12-25.86,5.12-19.88,0-42.6-7.9-67.89-23.64l-13.99-8.7-262.23,242.97-11.35,10.62,5.67,14.44c.24.63,24.15,62.87-3.3,101.27-16.14,22.56-48.23,33.96-95.53,33.96-1.32,0-2.64-.01-3.98-.02l-20.04-24.99,85.94-73.6-78.99-90.22-79.99,60.72-27.15-30.56c6.43-21.78,24.67-70.69,61.98-86.66,7.99-3.42,16.62-5.12,25.86-5.12,19.88,0,42.61,7.89,67.9,23.63l13.98,8.7,262.24-242.96,11.34-10.62-5.66-14.44c-.24-.63-24.15-62.87,3.3-101.27,16.11-22.57,48.22-33.96,95.5-33.96,1.32,0,2.66.01,4,.02l20.04,24.99-85.94,73.6,78.99,90.22,80-60.73,27.15,30.56c-6.44,21.78-24.67,70.7-61.99,86.67Z"/>
</svg>