<?xml version="1.0" encoding="UTF-8"?>
<svg id="Capa_1" data-name="Capa 1" xmlns="http://www.w3.org/2000/svg" viewBox="0 0 1493.93 1000">
  <defs>
    <style>
      .cls-1, .cls-2, .cls-3, .cls-4, .cls-5, .cls-6, .cls-7 {
        stroke-width: 0px;
      }

      .cls-2 {
        fill: #6cb8e2;
      }

      .cls-3 {
        fill: #163c40;
      }

      .cls-4 {
        fill: #acf6c3;
      }

      .cls-5 {
        fill: #9240f4;
      }

      .cls-6 {
        fill: #fff;
      }

      .cls-7 {
        fill: #010101;
      }
    </style>
  </defs>
  <g>
    <path class="cls-5" d="m1103.97,111.72c-77.22,0-139.82,62.6-139.82,139.82,0,34.18,12.27,65.48,32.63,89.77-1.13,12.23-5.89,23.11-10.91,31.44-2.88,4.72-5.7,8.52-7.81,11.09-1.08,1.34-1.95,2.31-2.52,2.93-.31.36-.51.56-.67.72l-.15.15c-2.31,2.36-3.03,5.85-1.75,8.94,1.28,3.08,4.26,5.08,7.6,5.08,14.74,0,29.58-4.57,41.9-9.91,9.43-4.1,17.68-8.82,23.73-12.83,17.6,7.99,37.16,12.45,57.75,12.45,77.22,0,139.82-62.6,139.82-139.82s-62.6-139.82-139.82-139.82Z"/>
    <g>
      <circle class="cls-6" cx="1101.25" cy="251.1" r="86.72"/>
      <g>
        <path class="cls-5" d="m993.71,155.05s-15.97-15.66-34.89-8.65c-18.91,7.01-15.56,36.25-15.56,36.25l5.14,4.06,28.01-5.01,3.69,16.64-30.25,17.78s5.52,17.32,16.27,18.09c10.75.77,38.99-12.63,38.99-12.63l6.02-22.58,174.13-67.66s17,23.48,39.73,16.12c22.72-7.36,24.35-23.89,24.35-23.89l-6.05-17.2-25.15,7.67-13.85-24.24,30.23-9.71-5.39-16.79s-29.71-19.62-42.14.59c-12.43,20.21-14.58,36.86-14.58,36.86l-175.04,60.37-3.67-6.08Z"/>
        <path class="cls-7" d="m1235.87,57.29l-2.81-1.22c-19.49-8.49-35.24-8.89-46.84-1.2-13.43,8.92-16.67,25.99-17.44,34.3l-61.2,25.89-106.04,37.31c-9.83-11.47-20.66-17.05-32.23-16.6-22.63.89-38.42,25.21-39.08,26.25l-1.82,2.85,11.12,29.59,28.51-8.28,3.21,8.72-31.06,11.04,8.75,27.39,2.81,1.22c15.97,6.96,29.44,8.48,40.16,4.57,2.36-.86,4.58-1.98,6.67-3.37,13.44-8.92,16.67-25.99,17.44-34.3l43.79-17.59,123.45-45.6c9.83,11.47,20.66,17.05,32.23,16.6,3.73-.15,7.28-.93,10.61-2.15,16.82-6.14,27.92-23.24,28.47-24.1l1.82-2.85-11.12-29.59-28.51,8.27-3.21-8.72,31.06-11.04-8.75-27.39Zm-8.1,19.04l-31.61,11.23,12.27,33.36,28.59-8.3,4.26,11.34c-4.1,5.34-14.34,16.94-26.37,17.39-8.11.3-16.18-4.77-23.98-15.09l-2.94-3.9-181.01,68.15-4.27,1.73.03,4.6c0,.2,0,19.96-11.68,27.67-7.05,4.66-17.52,4.25-31.14-1.19l-2.89-9.04,31.61-11.23-12.27-33.36-28.59,8.3-4.26-11.34c4.1-5.34,14.34-16.94,26.37-17.39,8.11-.3,16.18,4.77,23.98,15.09l2.94,3.9,181.01-68.15,4.27-1.73-.03-4.6c0-.2,0-19.96,11.68-27.67,7.06-4.65,17.52-4.25,31.14,1.19l2.89,9.04Z"/>
        <g>
          <path class="cls-6" d="m1151.36,314.21s31.68-16.92,34.14-41.83c2.46-24.91.62-23.99.62-23.99,0,0,32.91-21.22,37.83-47.06,4.92-25.84,1.23-39.68-10.15-39.06-11.38.62-29.53,25.22-38.45,37.83-8.92,12.61-10.46,6.15-10.46,6.15l-21.53-27.99,1.62-94.5-27.66-4.61-16.85,82.41-9.7-31.58-36.6-.31,1.23,38.45-9.54,3.08-21.22-43.68-13.53-2.15c-6.15,9.84-7.07,31.07-7.07,31.07,0,0,16.61,50.14,14.15,62.44-2.46,12.3-8.3,41.22,2.46,61.52,10.77,20.3,39.93,35.57,39.93,35.57"/>
          <line class="cls-6" x1="1095.07" y1="322.51" x2="1118.95" y2="320.28"/>
        </g>
        <g>
          <path class="cls-7" d="m1089.8,226.94c-2.89.29-5.59-1.62-6.24-4.52l-2.35-10.59c-.69-3.13,1.28-6.23,4.41-6.93,3.13-.68,6.23,1.28,6.93,4.41l2.35,10.59c.69,3.13-1.28,6.23-4.41,6.93-.23.05-.46.09-.69.11Z"/>
          <path class="cls-7" d="m1126.05,217.88c-2.89.29-5.59-1.62-6.24-4.52l-2.35-10.59c-.69-3.13,1.28-6.23,4.41-6.93,3.13-.68,6.23,1.28,6.93,4.41l2.35,10.59c.69,3.13-1.28,6.23-4.41,6.93-.23.05-.46.09-.69.11Z"/>
          <path class="cls-7" d="m1107.31,262.03c-2.53-.05-4.73-2.01-5.13-4.75-.45-3.07,1.53-5.95,4.43-6.43l36.5-6.1c-11.54-7.08-17.03-10.44-26.71-15.09-2.66-1.28-3.84-4.61-2.63-7.44,1.21-2.83,4.36-4.09,7.03-2.8,13.38,6.43,23.39,12.61,40,23.42,1.93,1.22,2.95,3.58,2.56,5.95-.41,2.45-2.24,4.35-4.56,4.72l-50.56,8.45c-.31.05-.62.07-.92.07Zm49.88-19.63s-.03,0-.05,0h.05Z"/>
          <path class="cls-7" d="m1022.6,220.93c1.69-6.84,2.72-11.57-.68-20.92-1.4-3.87-2.98-7.93-4.65-12.23-4.75-12.22-10.13-26.08-12.08-37.54-1.23-7.22,3.59-15.03,8.56-16.92,1.12-.43,3.75-1.43,6.63,3.17,11.23,17.92,16.49,30.5,22.05,43.83,1.36,3.26,2.72,6.52,4.18,9.87,2.94,6.78,6.88,6.95,9.66,5.91,5.14-1.93,4.43-7.57,4.13-9.98,0-.03-.3-2.38-.57-3.61-.08-1.27.27-5.44.58-9.13,1.29-15.41,3.45-41.19-4.08-56.25-3.78-7.54,1.35-13.7,5.71-16,2.6-1.37,9.14-3.69,13.64,4.4,5.09,9.16,5.87,12.38,7.96,20.96,1.7,7.01,4.27,17.6,10.66,37.12.86,2.54,3.25,4.3,5.93,4.38l4.52.09,1.65-4.15c.07-.17.18-.42.31-.74,9.88-22.75,10.72-46.62,9.68-62.64-.64-10.06,3.81-16.96,8.55-18.58,3.95-1.35,8.45,1.16,12.32,6.9,11.75,17.4,8.87,55.95,2.27,86.22l-.64,2.95,1.88,2.37c.38.48,9.45,11.9,25.73,30.36,2.33,2.64,6.37,2.9,9.02.56,2.65-2.33,2.9-6.37.56-9.02-11.87-13.45-19.98-23.27-23.43-27.52,2.19-10.6,5.23-28.52,5.4-46.76.2-20.43-3.24-36.02-10.2-46.33-7.24-10.73-17.35-15.16-27.04-11.84-11.06,3.78-18.12,16.72-17.16,31.49.68,10.54.49,24.79-3,39.56-2.28-7.89-3.6-13.32-4.61-17.46-2.18-8.97-3.27-13.48-9.2-24.15-6.51-11.71-19.15-15.61-30.76-9.49-14.23,7.51-16.38,22.61-11.18,33.02,4.59,9.18,4.4,25.93,3.56,39.12-4.21-9.38-9.37-19.66-17.25-32.25-5.21-8.32-13.65-11.51-22.01-8.32-11.14,4.24-18.74,18.44-16.61,31,2.17,12.73,7.8,27.23,12.77,40.02,1.64,4.23,3.19,8.22,4.55,11.96,2.16,5.95,1.74,7.67.16,14.05m49.73-36.01c-.03-.12-.05-.22-.08-.31.03.09.06.19.08.31Z"/>
          <path class="cls-7" d="m1193.05,252.06l-6.7-10.88c22.15-13.64,35.54-35.03,36.75-58.69.31-5.94-.28-16.2-7.6-18.1-5.31-1.38-12.3,1.93-14.06,5.52-7.66,15.55-17.01,22.94-26.06,30.08-1.19.94-2.38,1.88-3.57,2.85l-8.04-9.93c1.23-1,2.46-1.97,3.69-2.94,8.65-6.84,16.13-12.74,22.51-25.7,4.66-9.47,17.82-15.07,28.74-12.23,5.56,1.45,18.36,7.37,17.14,31.12-1.43,27.92-17.04,53.04-42.81,68.91Z"/>
        </g>
        <path class="cls-5" d="m1249.15,124.47s-1.62,16.53-24.35,23.89c-22.72,7.36-39.72-16.13-39.72-16.13l-124.21,44.58c-1.01-1.84-4.23-1.79-5.85-3.82-4.87-6.13-7.07-13.21-12.26-21.38-1.45-2.28-3.26.27-4.52-1.96l133.98-48.01s2.16-16.64,14.58-36.86c12.43-20.2,42.15-.59,42.15-.59l5.39,16.8-30.23,9.7,13.85,24.24,25.15-7.67,6.05,17.2Z"/>
        <path class="cls-7" d="m1245.83,96.51l-28.49,8.3-3.18-8.61,31.07-11.05-8.64-27.06-2.79-1.2c-19.43-8.32-35.16-8.65-46.77-1-13.45,8.88-16.74,25.78-17.55,34.01l-61.21,25.85-74.36,26.17-7.75,2.73c.77,1.31,1.55,2.68,2.35,4.08,1.26,2.23,4,3.9,5.32,6.26l144.63-54.32,4.27-1.73v-4.55c-.01-.2.07-19.75,11.75-27.42,7.06-4.63,17.51-4.27,31.1,1.05l2.85,8.94-31.61,11.23,12.12,32.96,28.59-8.32,4.21,11.2c-4.12,5.3-14.39,16.81-26.4,17.31-8.1.33-16.13-4.65-23.88-14.84l-2.92-3.84-134.38,49.97c1.26,2.27,2.42,4.35,3.43,6.19,1.07,1.92,1.97,3.55,2.68,4.83l9.87-3.97,113.6-41.29c9.77,11.32,20.55,16.79,32.12,16.29,3.72-.16,7.27-.95,10.6-2.16,16.81-6.15,27.97-23.11,28.53-23.96l1.82-2.82-10.99-29.23Z"/>
        <path class="cls-6" d="m1087.23,140.49c5.37-13.38,5.97-42.19-10.14-51.87s-50.8,4.15-36.69,49.25c.47,1.49,9.96-2.58,13.56-3.72,1.1-.35,2.5,10.13,7.52,8.03l25.74-1.69Z"/>
        <path class="cls-7" d="m1072.94,152.64c-1.34,0-2.69-.12-4.02-.38-10.15-1.93-16.83-10.66-17.86-23.37-.29-3.52,2.33-6.6,5.85-6.89,3.52-.28,6.6,2.33,6.89,5.85.32,3.96,1.73,10.76,7.51,11.86,4.6.87,10.04-2.18,12.38-6.94,3.71-7.54,2.13-20.47-3.52-28.83-3.95-5.84-9.06-8.58-15.22-8.11-8.35.62-14.48,3.49-18.24,8.51-4.91,6.58-5.92,17.39-2.91,31.27.75,3.45-1.44,6.85-4.89,7.59-3.44.75-6.85-1.44-7.59-4.89-3.86-17.86-2.13-31.86,5.17-41.62,5.98-8,15.5-12.71,27.52-13.61,10.74-.8,20.25,4.06,26.76,13.7,8.2,12.14,10.09,30.03,4.4,41.62-4.27,8.69-13.18,14.23-22.21,14.23Z"/>
      </g>
      <path class="cls-7" d="m1103.54,344.42c-24.91,0-48.44-9.86-66.25-27.77-17.78-17.88-27.57-41.46-27.57-66.4,0-8.7,2.64-28.43,4.88-36.39.98-3.51,4.62-5.55,8.13-4.57,3.51.98,5.55,4.62,4.57,8.13-1.93,6.87-4.39,25.27-4.39,32.82,0,21.43,8.43,41.71,23.73,57.1,15.32,15.4,35.52,23.89,56.9,23.89s42.13-8.35,57-23.52c15.32-15.64,23.5-37.35,23.02-61.14-.07-3.64,2.82-6.65,6.46-6.73,3.66-.08,6.65,2.82,6.73,6.46.55,27.37-8.96,52.45-26.78,70.64-17.37,17.72-40.95,27.48-66.42,27.48Z"/>
    </g>
  </g>
  <g>
    <path class="cls-4" d="m1114.03,479.19h134.15c2.49,0,3.95,2.79,2.54,4.84l-18.85,27.4"/>
    <path class="cls-7" d="m1231.87,518.95c-1.47,0-2.96-.43-4.26-1.33-3.42-2.36-4.29-7.04-1.93-10.47l14.06-20.44h-125.7c-4.16,0-7.53-3.37-7.53-7.53s3.37-7.53,7.53-7.53h134.15c3.95,0,7.55,2.17,9.39,5.67,1.84,3.5,1.59,7.7-.65,10.96l-18.86,27.4c-1.46,2.12-3.81,3.26-6.21,3.26Zm16.32-32.23h.01-.01Z"/>
  </g>
  <path class="cls-7" d="m569.56,806.45c4.24-21.73,25.79-88.19,46.46-95.08,20.67-6.89,48.23-18.55,81.09-11.66,32.86,6.89,73.37,37.2,73.37,37.2l33.1,72.55-234.03-3.01Z"/>
  <path class="cls-7" d="m1022.37,807.66c4.24-21.73,27.57-89.4,48.24-96.29,20.67-6.89,48.23-18.55,81.09-11.66,32.86,6.89,73.37,37.2,73.37,37.2l15.69,71.99-218.39-1.24Z"/>
  <circle class="cls-7" cx="622.94" cy="816.87" r="75.78"/>
  <circle class="cls-7" cx="403.07" cy="816.87" r="75.78"/>
  <circle class="cls-7" cx="872.37" cy="816.87" r="75.78"/>
  <circle class="cls-7" cx="1092.74" cy="816.87" r="75.78"/>
  <g>
    <g>
      <path class="cls-3" d="m527.17,809.86c0,41.85-33.93,75.78-75.78,75.78s-75.78-33.93-75.78-75.78c0-2.59.14-5.16.4-7.68h150.76c.26,2.52.4,5.09.4,7.68Z"/>
      <path class="cls-7" d="m451.39,893.17c-45.93,0-83.31-37.37-83.31-83.31,0-2.81.15-5.65.44-8.45l.7-6.75h164.34l.69,6.76c.29,2.8.44,5.65.44,8.45,0,45.94-37.37,83.31-83.31,83.31Zm-68.25-83.46v.15c0,37.63,30.62,68.25,68.25,68.25s68.25-30.62,68.25-68.25v-.15h-136.5Z"/>
    </g>
    <g>
      <path class="cls-3" d="m482.39,809.86c0,17.12-13.88,30.98-31,30.98s-31-13.86-31-30.98c0-2.66.33-5.23.96-7.68h60.08c.63,2.45.96,5.02.96,7.68Z"/>
      <path class="cls-7" d="m451.39,848.38c-21.24,0-38.53-17.28-38.53-38.51,0-3.25.4-6.46,1.19-9.55l1.45-5.65h71.76l1.45,5.65c.79,3.09,1.19,6.3,1.19,9.55,0,21.24-17.28,38.51-38.53,38.51Zm-23.47-38.66v.15c0,12.93,10.53,23.46,23.47,23.46s23.47-10.52,23.47-23.46v-.15h-46.94Z"/>
    </g>
  </g>
  <g>
    <g>
      <path class="cls-3" d="m992.96,809.86c0,41.85-33.93,75.78-75.78,75.78s-75.78-33.93-75.78-75.78c0-2.59.14-5.16.4-7.68h150.76c.26,2.52.4,5.09.4,7.68Z"/>
      <path class="cls-7" d="m917.18,893.17c-45.93,0-83.31-37.37-83.31-83.31,0-2.81.15-5.65.44-8.45l.7-6.75h164.34l.69,6.76c.29,2.81.44,5.66.44,8.45,0,45.94-37.37,83.31-83.31,83.31Zm-68.25-83.46v.15c0,37.63,30.62,68.25,68.25,68.25s68.25-30.62,68.25-68.25v-.15h-136.5Z"/>
    </g>
    <g>
      <path class="cls-3" d="m948.18,809.86c0,17.12-13.88,30.98-31,30.98s-31-13.86-31-30.98c0-2.66.33-5.23.96-7.68h60.08c.63,2.45.96,5.02.96,7.68Z"/>
      <path class="cls-7" d="m917.18,848.38c-21.24,0-38.53-17.28-38.53-38.51,0-3.25.4-6.46,1.19-9.55l1.45-5.65h71.76l1.45,5.65c.79,3.08,1.19,6.3,1.19,9.55,0,21.24-17.28,38.51-38.53,38.51Zm-23.47-38.66v.15c0,12.93,10.53,23.46,23.47,23.46s23.47-10.52,23.47-23.46v-.15h-46.94Z"/>
    </g>
  </g>
  <g>
    <path class="cls-4" d="m471.09,584.98s60.07-105.71,171.18-105.71h488.18c84.69,0,153.35,68.66,153.35,153.36v128.66c0,22.14-17.96,40.1-40.1,40.1h-10.39c.14-2.27.31-5.12.31-6.02,0-53.51-43.38-96.9-96.9-96.9s-96.91,43.38-96.91,96.9c0,2.03.07,4.04.19,6.02h-242.17c-20.04,0-35.01-3.09-35.01-20.57,0-44.77-43.38-82.35-96.9-82.35s-96.69,43.58-96.69,92.56c0,14.04-12.73,16.6-26.88,16.6h-244.55c-25.32,0-45.85-20.53-45.85-45.85v-71.02c0-32.57,22.03-61.01,53.58-69.16l134.18-34.63,246.73-1.09"/>
    <path class="cls-7" d="m542.36,815.17h-244.55c-29.43,0-53.38-23.94-53.38-53.38v-71.02c0-36.01,24.36-67.44,59.23-76.44l135.09-34.86,26.93-.12c4.08-6.7,18.94-29.64,44.26-52.78,39.23-35.87,84.99-54.83,132.34-54.83h488.18c88.71,0,160.88,72.18,160.88,160.89v128.66c0,26.26-21.37,47.63-47.63,47.63h-18.39l.52-8.53c.1-1.64.27-4.39.27-5.02,0-49.28-40.09-89.37-89.37-89.37s-89.38,40.09-89.38,89.37c0,1.78.06,3.65.18,5.56l.5,7.99h-250.18c-12.73,0-42.54,0-42.54-28.1,0-19.49-9.14-38.05-25.75-52.24-17.03-14.56-39.63-22.58-63.62-22.58-48.33,0-89.16,38.94-89.16,85.03,0,16.01-11.58,24.13-34.41,24.13Zm-101.67-220.65l-133.27,34.39c-28.22,7.29-47.93,32.73-47.93,61.87v71.02c0,21.13,17.19,38.32,38.32,38.32h244.55c19.35,0,19.35-5.46,19.35-9.07,0-54.25,47.73-100.09,104.22-100.09s104.42,40.32,104.42,89.88c0,7.14,2.07,13.04,27.48,13.04h234.46c.81-56.89,47.34-102.92,104.43-102.92s103.61,46.03,104.41,102.92h2.56c17.96,0,32.57-14.61,32.57-32.57v-128.66c0-80.41-65.42-145.84-145.82-145.84h-488.18c-86.13,0-140.96,67.22-158.52,92.47l202.66-.89h.03c4.14,0,7.51,3.35,7.53,7.49.02,4.16-3.34,7.54-7.49,7.56l-245.79,1.08Z"/>
  </g>
  <path class="cls-7" d="m1281.85,741.14H256c-4.16,0-7.53-3.37-7.53-7.53s3.37-7.53,7.53-7.53h1025.84c4.16,0,7.53,3.37,7.53,7.53s-3.37,7.53-7.53,7.53Z"/>
  <g>
    <path class="cls-6" d="m327.67,760.29h86.05c5.48,0,9.93,4.45,9.93,9.93v37.1h-105.9v-37.1c0-5.48,4.45-9.93,9.93-9.93Z"/>
    <path class="cls-7" d="m431.17,814.84h-120.96v-40.96c0-11.64,9.47-21.11,21.11-21.11h78.73c11.64,0,21.11,9.47,21.11,21.11v40.96Zm-105.9-15.05h90.85v-25.91c0-3.34-2.72-6.06-6.06-6.06h-78.73c-3.34,0-6.06,2.72-6.06,6.06v25.91Z"/>
  </g>
  <path class="cls-7" d="m442.43,594.44c-4.01,0-7.35-3.17-7.52-7.22-.04-.96-.78-23.56,15.3-36.54,11.07-8.94,26.77-10.86,46.64-5.71,4.02,1.04,6.44,5.15,5.4,9.18-1.04,4.02-5.15,6.43-9.18,5.4-15-3.89-26.24-2.93-33.4,2.85-10.09,8.14-9.72,24.05-9.71,24.21.17,4.15-3.06,7.66-7.21,7.83-.11,0-.21,0-.32,0Z"/>
  <g>
    <path class="cls-6" d="m446.95,652.01c-2.89,1.55-27.63,32.56,29,32.56s84.33-35.44,72.92-70.88c0,0-57.18,14.33-101.91,38.33Z"/>
    <path class="cls-7" d="m475.95,692.09c-25.84,0-40.57-6.48-43.78-19.26-3.12-12.39,7.12-25.25,11.23-27.46h0c45.04-24.16,101.27-38.4,103.64-38.99l6.84-1.71,2.16,6.71c5.71,17.76,2.97,35.62-7.73,50.31-14.08,19.33-40.46,30.41-72.36,30.41Zm-24.81-33.79c-1.84,1.9-5.57,7.83-4.24,11.3,1.38,3.59,9.74,7.44,29.05,7.44,27.04,0,48.97-8.83,60.19-24.22,6.4-8.78,8.88-19.18,7.22-29.85-16.6,4.65-58.25,17.24-92.22,35.34Z"/>
  </g>
  <path class="cls-7" d="m533.83,814.93c-36.21,0-57.83-19.6-57.83-52.43v-73.81c0-4.16,3.37-7.53,7.53-7.53s7.53,3.37,7.53,7.53v73.81c0,30.89,23.26,37.38,42.78,37.38,4.16,0,7.53,3.37,7.53,7.53s-3.37,7.53-7.53,7.53Z"/>
  <path class="cls-7" d="m924.04,667.6h-41.94c-4.16,0-7.53-3.37-7.53-7.53s3.37-7.53,7.53-7.53h41.94c4.16,0,7.53,3.37,7.53,7.53s-3.37,7.53-7.53,7.53Z"/>
  <g>
    <g>
      <circle class="cls-6" cx="670.02" cy="809.86" r="75.78"/>
      <path class="cls-7" d="m670.02,893.17c-45.94,0-83.31-37.37-83.31-83.31s37.37-83.31,83.31-83.31,83.31,37.37,83.31,83.31-37.37,83.31-83.31,83.31Zm0-151.57c-37.64,0-68.26,30.62-68.26,68.26s30.62,68.26,68.26,68.26,68.26-30.62,68.26-68.26-30.62-68.26-68.26-68.26Z"/>
    </g>
    <g>
      <circle class="cls-4" cx="670.02" cy="809.86" r="30.99"/>
      <path class="cls-7" d="m670.02,848.38c-21.24,0-38.52-17.28-38.52-38.52s17.28-38.52,38.52-38.52,38.52,17.28,38.52,38.52-17.28,38.52-38.52,38.52Zm0-61.99c-12.94,0-23.47,10.53-23.47,23.47s10.53,23.47,23.47,23.47,23.47-10.53,23.47-23.47-10.53-23.47-23.47-23.47Z"/>
    </g>
  </g>
  <g>
    <g>
      <circle class="cls-6" cx="1140.37" cy="809.86" r="75.78"/>
      <path class="cls-7" d="m1140.37,893.17c-45.94,0-83.31-37.37-83.31-83.31s37.37-83.31,83.31-83.31,83.31,37.37,83.31,83.31-37.37,83.31-83.31,83.31Zm0-151.57c-37.64,0-68.26,30.62-68.26,68.26s30.62,68.26,68.26,68.26,68.26-30.62,68.26-68.26-30.62-68.26-68.26-68.26Z"/>
    </g>
    <g>
      <circle class="cls-4" cx="1140.37" cy="809.86" r="30.99"/>
      <path class="cls-7" d="m1140.37,848.38c-21.24,0-38.52-17.28-38.52-38.52s17.28-38.52,38.52-38.52,38.52,17.28,38.52,38.52-17.28,38.52-38.52,38.52Zm0-61.99c-12.94,0-23.47,10.53-23.47,23.47s10.53,23.47,23.47,23.47,23.47-10.53,23.47-23.47-10.53-23.47-23.47-23.47Z"/>
    </g>
  </g>
  <g>
    <path class="cls-6" d="m370.44,359.07c1.14,4.63,1.76,9.49,1.76,14.48,0,17.07-7.08,32.45-18.4,43.27,4.57,8.48,7.19,18.22,7.19,28.59,0,23.44-13.34,43.71-32.68,53.33,12.83,9.96,21.38,25.34,22.4,42.79.06,1.15.1,2.33.1,3.51,0,32.14-25.53,58.2-57.03,58.2-.61,0-1.24-.01-1.86-.04-30.63-.99-55.16-26.65-55.16-58.17,0-4.15.43-8.21,1.24-12.12-4.78,1.47-9.85,2.27-15.1,2.27-28.87,0-52.29-23.89-52.29-53.36,0-8.41,1.91-16.36,5.31-23.43-22-.83-39.58-19.28-39.58-41.91,0-11.46,4.5-21.84,11.79-29.4-18.43-7.2-31.53-25.43-31.53-46.77,0-27.65,21.97-50.07,49.06-50.07.61,0,1.23.03,1.83.05-3.87-9.12-6.03-19.19-6.03-29.77,0-41.39,32.88-74.96,73.45-74.96,30.1,0,55.97,18.5,67.31,44.96,10.05-5.5,21.53-8.62,33.74-8.62,39.55,0,71.6,32.72,71.6,73.08,0,27.62-15.01,51.64-37.15,64.08Z"/>
    <path class="cls-7" d="m293.78,610.16c-.71,0-1.43-.01-2.14-.04-34.62-1.12-61.78-29.7-61.78-65.06,0-1.13.03-2.25.09-3.38-2.33.28-4.69.43-7.04.43-32.64,0-59.19-27.03-59.19-60.26,0-6.13.88-12.09,2.62-17.8-21.3-5.08-36.89-24.41-36.89-47.54,0-9.74,2.79-19.06,7.98-27-16.88-10.11-27.72-28.87-27.72-49.18,0-28.73,21-52.56,48.19-56.43-2.21-7.54-3.32-15.37-3.32-23.36,0-45.14,36.05-81.86,80.35-81.86,29.57,0,56.53,16.52,70.52,42.63,9.61-4.13,20.04-6.29,30.53-6.29,43.29,0,78.51,35.88,78.51,79.98,0,27.41-13.79,52.81-36.31,67.46.61,3.66.92,7.38.92,11.1,0,16.47-6.13,32.45-16.97,44.58,3.79,8.54,5.77,17.87,5.77,27.28,0,22.14-10.54,42.25-28.06,54.5,10.5,11.09,16.86,25.67,17.77,41.23.07,1.37.11,2.68.11,3.92,0,35.9-28.68,65.11-63.93,65.11Zm-46.65-87.25l-2.37,11.42c-.73,3.51-1.1,7.12-1.1,10.72,0,27.87,21.3,50.39,48.48,51.27.58.02,1.11.03,1.63.03,27.64,0,50.13-23.01,50.13-51.3,0-.99-.03-2.05-.09-3.14-.87-14.88-8.07-28.64-19.75-37.72l-8.67-6.74,9.83-4.89c17.8-8.86,28.86-26.93,28.86-47.16,0-8.84-2.2-17.59-6.37-25.31l-2.5-4.63,3.8-3.63c10.49-10.03,16.26-23.62,16.26-38.28,0-4.33-.52-8.64-1.56-12.83l-1.26-5.1,4.58-2.57c20.74-11.65,33.63-33.9,33.63-58.06,0-36.49-29.03-66.17-64.7-66.17-10.61,0-21.13,2.69-30.43,7.77l-6.67,3.65-2.99-6.98c-10.61-24.77-34.54-40.78-60.97-40.78-36.69,0-66.55,30.53-66.55,68.06,0,9.4,1.84,18.51,5.48,27.07l4.27,10.05-10.91-.45c-.51-.02-1.03-.04-1.55-.04-23.25,0-42.16,19.37-42.16,43.17,0,17.79,10.91,34,27.14,40.34l9.64,3.77-7.18,7.45c-6.36,6.6-9.86,15.34-9.86,24.61,0,18.94,14.47,34.32,32.94,35.02l10.54.4-4.58,9.5c-3.07,6.37-4.63,13.24-4.63,20.43,0,25.62,20.36,46.46,45.38,46.46,4.42,0,8.82-.66,13.08-1.97l11.15-3.42Z"/>
  </g>
  <g>
    <circle class="cls-6" cx="348.21" cy="156.46" r="34.21"/>
    <path class="cls-7" d="m348.21,197.57c-22.67,0-41.11-18.44-41.11-41.11s18.44-41.11,41.11-41.11,41.11,18.44,41.11,41.11-18.44,41.11-41.11,41.11Zm0-68.42c-15.06,0-27.31,12.25-27.31,27.31s12.25,27.31,27.31,27.31,27.31-12.25,27.31-27.31-12.25-27.31-27.31-27.31Z"/>
  </g>
  <g>
    <circle class="cls-6" cx="106.16" cy="249.39" r="25.05"/>
    <path class="cls-7" d="m106.16,281.35c-17.62,0-31.96-14.34-31.96-31.96s14.34-31.96,31.96-31.96,31.96,14.34,31.96,31.96-14.34,31.96-31.96,31.96Zm0-50.11c-10.01,0-18.15,8.14-18.15,18.15s8.14,18.15,18.15,18.15,18.15-8.14,18.15-18.15-8.14-18.15-18.15-18.15Z"/>
  </g>
  <path class="cls-3" d="m441.5,593.67s-141.21,36.51-144.8,38.06c-11.64,5.01-12.41,16.13-12.41,16.13l159.47,3.55s118.42-45,148.82-52.11c30.39-7.11,40.15-9.47,40.15-9.47l-191.22,3.84Z"/>
  <path class="cls-2" d="m754.03,607.59h483.97s-21.09-57.26-40.98-75.34c-19.89-18.08-25.92-30.13-77.15-30.13s-254.34,5.42-254.34,5.42c0,0-85.58,11.45-111.5,100.05Z"/>
  <path class="cls-7" d="m711.97,713.04c-4.16,0-7.53-3.37-7.53-7.53v-66.42c0-19.66,16-35.66,35.66-35.66h1.39c-.79-1.66-.98-3.6-.38-5.49,23.06-73.39,100.16-99.43,159.18-99.43h230.01c47.79,0,66.44,14.48,81.04,37.84,13.52,21.63,36.43,69.33,37.39,71.35l5.17,10.78h-513.8c-11.36,0-20.6,9.24-20.6,20.6v66.42c0,4.16-3.37,7.53-7.53,7.53Zm43.12-109.6h474.81c-7.68-15.62-22.07-44.28-31.33-59.1-12.47-19.95-27.04-30.76-68.27-30.76h-230.01c-53.92,0-124.2,23.28-144.82,88.89-.11.34-.24.66-.38.98Z"/>
  <path class="cls-7" d="m966.43,801.48c-4.16,0-7.53-3.37-7.53-7.53v-314.24c0-4.16,3.37-7.53,7.53-7.53s7.53,3.37,7.53,7.53v314.24c0,4.16-3.37,7.53-7.53,7.53Z"/>
  <g>
    <path class="cls-4" d="m800.55,590.02c0,15.41-26.75,28.87-42.93,28.87s-29.29-12.49-29.29-27.91,13.11-27.91,29.29-27.91,42.93,11.53,42.93,26.94Z"/>
    <path class="cls-7" d="m757.62,626.41c-20.3,0-36.82-15.9-36.82-35.43s16.52-35.43,36.82-35.43,50.46,13.75,50.46,34.47c0,9.73-6.75,19.2-19.02,26.65-9.9,6.01-21.95,9.75-31.44,9.75Zm0-55.81c-12,0-21.77,9.14-21.77,20.38s9.76,20.38,21.77,20.38c16.07,0,35.4-13.11,35.4-21.34s-18.65-19.42-35.4-19.42Z"/>
  </g>
  <path class="cls-2" d="m761.14,509.91c-.92.46-55.46,29.63-76.71,69.35l-202.25.28s24.51-59.58,75.77-69.51l203.19-.12Z"/>
  <path class="cls-7" d="m291.87,659.65c-15.09,0-19.09-8.23-20.13-11.97-2.81-10.12,5.26-21.93,14.54-26.6,3.71-1.87,8.24-.38,10.11,3.34,1.87,3.71.38,8.24-3.34,10.11-4.52,2.28-7.12,7.54-6.83,9.05.5.41,2.78,1.31,7.94.93,14.23-1.06,133.77-.17,150.96-.04,95.34-49.3,215.08-63.45,238.26-65.8,5.2-8.18,20.05-29.87,44.09-51.74,39.74-36.15,85.77-55.26,133.11-55.26,4.16,0,7.53,3.37,7.53,7.53s-3.37,7.53-7.53,7.53c-44.01,0-85.27,17.17-122.64,51.03-28.22,25.57-43.45,51.56-43.6,51.82l-1.96,3.38-3.9.34c-1.36.12-136.78,12.41-238.06,65.37l-1.67.87h-1.88c-47.39-.4-140.07-.89-151.6-.04-1.2.09-2.34.13-3.42.13Z"/>
  <path class="cls-7" d="m772.55,509.95h-213.08c-4.16,0-7.53-3.37-7.53-7.53s3.37-7.53,7.53-7.53h213.08c4.16,0,7.53,3.37,7.53,7.53s-3.37,7.53-7.53,7.53Z"/>
  <g>
    <g>
      <path class="cls-3" d="m668.47,584.62s-92.74-59.98-140.57-90.66h-255.24s118.48,64.79,167.14,92.45l228.66-1.79Z"/>
      <path class="cls-7" d="m437.85,593.95l-1.76-1c-48.06-27.32-165.85-91.75-167.04-92.39l-25.84-14.13h286.9l1.86,1.19c47.29,30.34,139.66,90.08,140.59,90.68l21.1,13.65-255.82,2Zm-135.78-92.47c37.1,20.36,104.89,57.64,139.7,77.38l201.5-1.58c-29.74-19.22-84.04-54.29-117.57-75.81h-223.63Z"/>
    </g>
    <g>
      <path class="cls-4" d="m246.69,493.9v24.11c0,3.33,2.7,6.03,6.03,6.03h262.87c3.33,0,6.03-2.7,6.03-6.03v-24.68s-277.69.57-274.93.57Z"/>
      <path class="cls-7" d="m515.58,531.57H252.72c-7.48,0-13.56-6.08-13.56-13.56l-.02-24.1c0-.07.08-7.05,7.54-7.51v-.02h.52c.08,0,.16,0,.23,0l281.7-.58v32.22c0,7.48-6.08,13.56-13.56,13.56Zm-261.37-15.05h259.87v-15.64c-39.37.08-220.62.45-259.87.54v15.1Z"/>
    </g>
  </g>
  <path class="cls-6" d="m260.89,684.5l42.9-1.68s6.92-1.54,10.3-12.54c1.22-3.97,7.18-13.72-12.2-11.19-23.17,3.02-28.64-7.54-28.64-7.54,0,0-12.82,10.99-12.35,32.94Z"/>
  <path class="cls-7" d="m296.61,690.08h-38.57c-4.16,0-7.53-3.37-7.53-7.53s3.37-7.53,7.53-7.53h38.57c4.52,0,8.06-1.35,9.98-3.81,2.68-3.44,2.12-8.67,1.17-12.46-1.01-4.03,1.44-8.12,5.48-9.13,4.03-1.01,8.12,1.44,9.13,5.48,3.19,12.75-.37,20.83-3.91,25.37-4.83,6.19-12.59,9.6-21.85,9.6Z"/>
  <path class="cls-1" d="m1310,901H188.36c-4.53,0-8.21-3.68-8.21-8.21s3.68-8.21,8.21-8.21h1121.65c4.53,0,8.21,3.68,8.21,8.21s-3.68,8.21-8.21,8.21Z"/>
</svg>