<?xml version="1.0" encoding="UTF-8"?>
<svg id="Capa_1" data-name="Capa 1" xmlns="http://www.w3.org/2000/svg" viewBox="0 0 1000 1000">
  <defs>
    <style>
      .cls-1, .cls-2, .cls-3, .cls-4, .cls-5, .cls-6, .cls-7, .cls-8 {
        stroke-width: 0px;
      }

      .cls-2 {
        fill: #f2d400;
      }

      .cls-3 {
        fill: #fff;
      }

      .cls-4 {
        fill: #e8e36b;
      }

      .cls-5 {
        fill: red;
      }

      .cls-6 {
        fill: #00510e;
      }

      .cls-7 {
        fill: #008500;
      }

      .cls-8 {
        fill: #00801e;
      }
    </style>
  </defs>
  <path class="cls-3" d="m423.5,796.91l10.39-93.52s-69.62-20.78-99.76-68.58c-30.14-47.8-21.82-109.11-15.59-147.56,6.23-38.45,11.43-55.07,11.43-55.07,0,0-43.64-58.19-69.62-93.52-25.98-35.33-28.06-74.82-7.27-74.82s61.31,10.39,102.87,48.84c41.57,38.45,55.07,62.35,55.07,62.35,0,0-33.25-139.24-44.68-180.81-11.43-41.57-10.39-68.58,16.63-70.66,27.02-2.08,74.82,23.9,97.68,80.01,22.86,56.11,47.8,117.42,47.8,117.42,0,0,29.1-40.53,29.1-95.6s-27.5-63.61-4.63-60.49c22.86,3.12,87.02,17.74,87.02,81.13s-2.37,133.16-2.37,133.16l51.96,39.49s30.14-12.47,53-54.04c22.86-41.57,69.29-58.58,83.83-23.25,14.55,35.33,15.92,76.25-13.17,124.05-29.1,47.8-65.47,71.7-65.47,71.7,0,0,11.43,115.34-47.8,142.36-59.23,27.02-43.64,22.86-43.64,22.86l-12.47,108.07-70.66,18.7-3.12-116.38-61.31,1.04-16.63,99.76-68.58-16.63Z"/>
  <path class="cls-1" d="m493.85,493.05c-6.97.69-13.51-3.92-15.07-10.93l-5.67-25.58c-1.68-7.56,3.09-15.05,10.66-16.73,7.56-1.65,15.05,3.09,16.73,10.66l5.67,25.58c1.68,7.56-3.09,15.05-10.66,16.73-.56.12-1.11.21-1.66.27Z"/>
  <path class="cls-1" d="m581.39,471.16c-6.97.69-13.51-3.92-15.07-10.93l-5.67-25.58c-1.68-7.56,3.09-15.05,10.66-16.73,7.56-1.65,15.05,3.09,16.73,10.66l5.67,25.58c1.68,7.56-3.09,15.05-10.66,16.73-.56.12-1.11.21-1.66.27Z"/>
  <path class="cls-1" d="m536.15,577.81c-6.1-.11-11.42-4.85-12.39-11.47-1.09-7.41,3.7-14.36,10.69-15.53l88.16-14.73c-27.86-17.1-41.14-25.21-64.51-36.45-6.44-3.1-9.28-11.14-6.34-17.97,2.93-6.83,10.53-9.87,16.97-6.76,32.32,15.54,56.5,30.47,96.62,56.56,4.65,2.96,7.12,8.65,6.17,14.37-.98,5.92-5.41,10.5-11.01,11.41l-122.13,20.41c-.75.12-1.5.18-2.23.17Zm120.49-47.41s-.08.01-.12.02l.12-.02Z"/>
  <path class="cls-8" d="m416.51,790.52c2.59-.65,71.28,0,71.28,0,0,0-9.72,44.06,0,44.06s67.39,35.64,67.39,35.64v29.16h-161.38l22.71-108.86Z"/>
  <path class="cls-8" d="m579.72,790.52c2.59-.65,71.28,0,71.28,0,0,0-9.72,44.06,0,44.06s67.39,35.64,67.39,35.64v29.16h-161.38l22.71-108.86Z"/>
  <g>
    <path class="cls-1" d="m580.34,154.15c3.74-7.59,5.45-12.74,1.61-11.42-.47.16-.94.36-1.41.58-.2,3.54-.31,7.2-.2,10.84Z"/>
    <path class="cls-1" d="m532.83,190.25c2.34,36.24-1.7,70.38-12.02,101.91-27.71-75.72-52.48-113.93-83.78-150.56-25.21-29.5-57.53-28.77-78.37-14.94-28.72,19.04-31.3,53.9-19,78.49,12.11,24.22,26.09,77.72,36.39,121.04-29.82-32.07-67.64-63.86-99.44-70.73-33.04-7.14-41.58,9.49-47.57,18.04-11.6,16.56-15.5,38.99.21,63.94,10.78,17.12,24.82,36.16,38.39,54.57,13.48,18.28,26.21,35.55,34.56,49.27,6.71,11.02,5.85,13.78,1.13,29.12-3.59,11.66-8.51,27.63-11.17,53.22-7.2,69.08,7.92,114.36,52.18,156.29,46.59,44.14,90.48,45.89,97.11,45.89.41,0,.68,0,.8-.01,8.52-.28,15.27-7.41,14.99-15.92-.28-8.52-7.42-15.24-15.85-14.92-1.44.08-36.25.05-75.82-37.44-37.37-35.4-48.95-70.83-42.71-130.69,2.35-22.58,6.58-36.31,9.97-47.33,5.4-17.53,9.66-31.37-4.26-54.24-9.06-14.89-22.19-32.69-36.08-51.54-13.24-17.96-26.93-36.53-37.11-52.7-9.44-15-4.46-24.92-1.05-29.8,2.64-3.76,4.7-7.97,15.77-5.58,36.95,7.99,98.53,72.48,123.02,111.59l7.25,11.53,12.33-5.57,12.31-5.73-3.86-12.92c-.51-1.71-2.41-10.19-4.43-19.17-9.94-44.25-30.62-136.33-49.45-173.99-8.61-17.22-1.65-32.27,8.45-38.97,11.97-7.94,26.12-4.47,37.87,9.27,27.99,32.76,56.02,71.03,91.07,178.25,2.04,6.19,7.79,10.49,14.3,10.7l10.94.35,4.01-10.07c.27-.62.74-1.54,1.35-2.77,20.69-41.62,30.4-87.91,28.94-137.75,28.12,41.57,65.25,96.61,49.8,167.4l-1.56,7.14,4.54,5.73c.91,1.15,22.83,28.75,62.15,73.32,5.64,6.39,15.39,7,21.78,1.36,6.39-5.64,7-15.39,1.36-21.78-.83-.94-1.66-1.88-2.47-2.81.05-.04.1-.08.14-.11,21.84-17.25,44.42-35.09,62.92-72.65,4.27-8.66,21.11-16.66,33.97-13.32,17.68,4.6,19.09,29.37,18.35,43.73-2.59,50.53-28.2,96.77-71.08,129.58-.76-1.96-1.54-3.9-2.37-5.83-3.39-7.82-12.47-11.42-20.29-8.02-7.82,3.39-11.41,12.47-8.02,20.29,17.16,39.6,14.29,90.04-6.98,122.68-17.35,26.62-44.83,40.25-81.69,40.5-8.52.06-15.38,7.01-15.32,15.54.06,8.48,6.95,15.32,15.43,15.32h.11c59.62-.41,91.28-29.87,107.33-54.51,20.46-31.39,27.59-73.97,20.58-114.21,56.11-38.52,89.87-96.12,93.13-159.75,2.94-57.36-27.97-71.67-41.4-75.17-26.36-6.86-58.15,6.68-69.42,29.55-15.42,31.31-33.47,45.56-54.37,62.08-.43.34-.86.68-1.29,1.02-16.4-19.08-27.94-33.09-33.84-40.35,5.28-25.62,4.68-58.2-3.54-101.46"/>
  </g>
  <path class="cls-1" d="m537.25,734.82c-10.33,0-21.26-1.18-37.57-3.9-8.41-1.4-14.08-9.35-12.68-17.75,1.4-8.41,9.36-14.1,17.76-12.68,30.01,5,37.23,4.27,66.43-.05,8.42-1.24,16.27,4.58,17.52,13.01,1.25,8.43-4.58,16.27-13.01,17.52-16.36,2.41-27.03,3.86-38.43,3.86Z"/>
  <path class="cls-1" d="m576.95,919.38h-182.54c-9.75,0-17.22-8.68-15.77-18.32l29.28-194.91c1.09-7.28,7.03-13.15,14.38-13.52,10.12-.51,17.62,8.24,16.19,17.71l-26.77,178.19h131.78l-81.73-37.01,20.97-138.13c1.43-9.46,11.17-15.61,20.69-12.13,6.93,2.53,10.86,9.91,9.75,17.2l-17.39,114.6,79.31,35.92,1.86,50.42Z"/>
  <path class="cls-1" d="m736.17,919.38h-185.82l-1.52-200.75c-.06-8.52,6.79-15.48,15.31-15.55,8.52-.12,15.48,6.79,15.54,15.31l1.28,170.12h123.64l-.1-4.42-89.73-32.65,17.6-152.13c.98-8.46,8.62-14.51,17.1-13.55,8.46.98,14.53,8.63,13.55,17.1l-14.8,127.91,67.42,24.53c11.6,4.22,19.42,15.13,19.69,27.47l.82,36.6Z"/>
  <path class="cls-8" d="m233.27,414.63c-29.53-67.91,0-209.64,193.4-305.6,195.67-97.09,157.97,129.92,157.97,129.92l-351.36,175.68Z"/>
  <path class="cls-6" d="m243.53,416.3s373-280.59,479.29-267.3c106.29,13.29-202.84,206.03-294.37,241.47-91.53,35.43-184.92,25.83-184.92,25.83Z"/>
  <path class="cls-1" d="m764.97,158.74c-1.06-8.59-6.98-23.52-34.77-26.99-28.19-3.56-71.81,9.77-131.93,40.44-2.45-33.28-12.05-71.56-40.51-92.63-31.93-23.65-79.11-20.25-140.26,10.08-53.54,26.57-104.27,61.04-143.77,106.31-28.07,32.17-50.38,70.09-60.88,111.7-5.15,20.4-6.71,41.67-4.72,62.6,1.57,16.5,5.19,33.03,10.88,48.61,1.11,3.03,2.43,6.21,5.09,8.04,2.45,1.69,5.59,1.93,8.57,2.1,31.25,1.73,62.79,2,93.96-1.06,34.01-3.46,67.82-9.98,100.39-20.46,6.05-1.95,15.41-7.64,21.61-7.64,42.06-16.27,121.32-61.69,188.47-107.98,132.96-91.65,129.12-122.85,127.86-133.1Zm-334.8-43.56c30.53-15.15,56.15-22.74,76.66-22.74,13.59,0,24.92,3.33,33.94,10,22.45,16.6,29.01,53.27,29.67,84.52-36.63,20.17-78.55,45.86-125.94,77.15-39.69,26.21-77.67,52.78-109.51,75.69l-92.48,63.85c-20.86-73.95,14.36-202.48,187.66-288.47Zm8.19,258.06c-51.02,19.75-104.01,26.21-139.47,28.15,15.05-11.25,31.95-23.66,50.15-36.75,57.56-41.39,128.03-89.53,193.75-128.75,8.84-5.27,17.59-10.38,26.21-15.29,10.11-5.77,20.04-11.25,29.73-16.4,50.41-26.82,94.13-44.55,121.39-44.55,2.29,0,4.48.12,6.54.38,6.49.82,9.17,2.19,10.06,2.77.83,31.15-198,171.6-298.36,210.44Z"/>
  <g>
    <path class="cls-4" d="m389.67,184.83l38.82-45.82,45.67,6.78s19.11,58.75-8.21,81.41c-27.32,22.66-76.27-42.37-76.27-42.37Z"/>
    <path class="cls-1" d="m452.54,242.68c-1.37,0-2.77-.08-4.18-.24-30.59-3.58-63.57-46.31-67.22-51.17l-5.14-6.83,48.19-56.87,58.09,8.62,2.05,6.3c.87,2.68,20.98,65.96-11.55,92.94-5.77,4.78-12.69,7.25-20.23,7.25Zm-49.03-57.64c12.82,15.23,33.24,34.52,47.34,36.16,3.37.38,5.94-.29,8.27-2.23,15.53-12.88,10.96-46.43,6.65-63.62l-32.96-4.89-29.29,34.58Z"/>
  </g>
  <g>
    <g>
      <rect class="cls-5" x="667.09" y="670.65" width="85.13" height="50.24"/>
      <path class="cls-1" d="m762.91,731.57h-106.51v-71.62h106.51v71.62Zm-85.13-21.38h63.76v-28.86h-63.76v28.86Z"/>
    </g>
    <rect class="cls-2" x="698.27" y="681.55" width="21.69" height="28.91"/>
    <rect class="cls-7" x="719.76" y="681.55" width="21.69" height="28.91"/>
  </g>
  <g>
    <path class="cls-8" d="m328.32,594.84v229.92c0,20.18-13.53,38.56-33.28,42.73-2.25.48-4.47.75-6.59.75-17,0-15.93-13.81-15.93-23.37v-175.48h-38.24c-35.19,0-31.84-49.71-1.06-49.71h39.3v-32.93c0-26.56,55.81-41.83,55.81,8.1Z"/>
    <path class="cls-1" d="m288.44,882.49c-9.09,0-16.41-2.72-21.75-8.1-8.55-8.61-8.48-20.28-8.44-28.01v-1.51s0-161.23,0-161.23h-23.99c-15.27,0-24.54-6.6-29.62-12.14-6.39-6.96-9.91-16.31-9.91-26.32,0-19.27,13.48-39.75,38.47-39.75h25.05v-18.68c0-22.95,23.24-38.95,44.09-38.95,11.14,0,21.24,4.28,28.42,12.04,7.84,8.46,11.8,20.24,11.8,35.01v229.92c0,27.38-18.75,51.22-44.58,56.68-3.33.7-6.53,1.05-9.54,1.05Zm-1.37-28.57c.99.1,2.88.08,5.04-.38,12.71-2.68,21.95-14.79,21.95-28.78v-229.92c0-7.15-1.5-12.71-4.22-15.65-1.77-1.92-4.3-2.89-7.5-2.89-8.03,0-15.59,5.88-15.59,10.44v47.18h-53.55c-9.85,0-9.96,10.79-9.96,11.25,0,2.81.88,5.38,2.4,7.04,1.77,1.93,4.68,2.92,8.63,2.92h52.49v191.41c-.02,2.01-.04,5.47.31,7.37Z"/>
  </g>
  <path class="cls-1" d="m496.23,466.02c-.77,0-1.56-.07-2.35-.19-1.39-.23-17.99-3.28-30.54-5.6-7.78-1.43-12.89-8.92-11.41-16.69h0c1.47-7.69,8.87-12.76,16.57-11.34,12.28,2.26,28.47,5.24,30.06,5.51,7.75,1.32,12.99,8.66,11.69,16.42-1.18,6.96-7.19,11.9-14.02,11.9Z"/>
  <path class="cls-1" d="m559.56,446.08c-5.11,0-10.05-2.76-12.61-7.58-3.67-6.94-1.04-15.55,5.89-19.25,1.28-.69,13.97-7.21,23.93-12.32,6.78-3.48,15.09-1,18.86,5.61h0c4.02,7.05,1.36,16.02-5.85,19.73-10.18,5.24-22.66,11.66-23.56,12.14-2.13,1.13-4.41,1.66-6.66,1.66Z"/>
</svg>